<?xml version="1.0" encoding="utf-8"?>
<!-- Generator: Adobe Illustrator 21.1.0, SVG Export Plug-In . SVG Version: 6.00 Build 0)  -->
<svg version="1.1" id="Слой_1" xmlns="http://www.w3.org/2000/svg" xmlns:xlink="http://www.w3.org/1999/xlink" x="0px" y="0px"
	 viewBox="0 0 595.3 841.9" style="enable-background:new 0 0 595.3 841.9;" xml:space="preserve">
<g>
	<path d="M347.9,262.2c-0.1-4.5-0.6-9.1-1.6-14.6c-1.5-8.7-3.8-17-6.8-26.9c-2.8-9.2-6.4-18.4-9.6-26.3c-2.5-6.2-5.1-12.5-8.3-18.4
		c-0.1,3.5-0.1,7.3,0,10.9c0.4,17.7,1,32.5,3.6,47.9c1.6,9.4,3.8,17.1,6.6,23.3c0.4,0.9,0.8,1.8,1.2,2.7c1.2,2.9,2.5,5.9,4.5,8.3
		l0.1,0.1c3.9,4.7,5.7,5.5,6.4,5.6c0.2,0,0.3,0,0.3,0c-0.1-2-1.5-4.5-2.7-6.8c-0.5-1-1-1.9-1.4-2.8c-2-4.5-3.6-9.4-5-14.1
		c-0.6-2.1-1.5-4.1-2.3-6c-1.2-3-2.5-6-3.1-9.3c-0.2-0.9-0.4-1.8-0.6-2.7c-0.6-2.3-1.2-4.9-1-7.2c0.2-0.6,0.8-0.7,1.3-0.9
		c0.1,0,0.2-0.1,0.2-0.1c1.6,1.9,2.3,4.7,2.8,7.3c0.1,0.6,0.3,1.2,0.4,1.7c1.2,4.5,2.9,8.9,4.6,13.2c0.4,1.1,0.8,2.1,1.2,3.2
		c0.7,1.9,1.4,3.9,2.1,5.8c0.7,1.9,1.4,3.9,2.2,5.9c0.3,0.7,0.6,1.7,0.9,2.7c0.8,2.4,1.7,5.3,2.9,7c1.1-2.1,1-5,0.8-7.6
		C347.9,263.4,347.9,262.8,347.9,262.2z"/>
	<path d="M336.4,320.7c0.4-1.9,0.8-3.9,1.3-5.8c0.9-4.4,1.9-8.9,2.9-13.3c0.5-2.1,1-4.3,1.6-6.4c0.4-1.4,0.7-2.9,1.1-4.3
		c0.5-2,0.9-4,1.4-6l0.3-1.3c0.1-0.4,0.3-1,0.5-1.6c0.4-1.2,0.9-2.8,0.8-3.9c-5.6,0.8-11-4.1-15.6-14.3c-0.5,2.4,0.6,6,1.5,8.9
		c0.4,1.4,0.8,2.7,1,3.7c2.7,14.2,2.9,29.1,3.2,43.5C336.4,320.2,336.4,320.5,336.4,320.7z"/>
	<path d="M320.5,37.5c0.3,1,0.7,2.1,0.8,3.2c0.5,3.4,1,6.9,1.5,10.3c1,6.8,2,13.9,2.9,20.9c0.3,2.2,0.6,4.4,0.9,6.6
		c1,7.5,2.1,15.3,1.7,22.7c-0.1,1.5-0.1,2.9-0.2,4.4c-0.1,2.6-0.2,5.3-0.5,7.9c-0.1,0.9-0.3,1.8-0.5,2.7c-0.5,2.2-0.9,4.5-0.2,6.6
		c1.1,3.5,6,2.7,9.9,2c0.9-0.2,1.8-0.3,2.5-0.4c0.7-0.1,1.5-0.1,2.2-0.1c2.8-0.1,5.5-0.1,6.2-3c0.9-3.5-0.3-7.3-1.5-10.9
		c-0.4-1.4-0.9-2.8-1.2-4.1c-0.9-3.8-1.2-7.8-1.4-11.7c-0.1-1.5-0.2-3-0.4-4.6c-0.2-1.7-0.3-3.4-0.5-5.1c-0.8-8.8-1.6-17.9-3-26.9
		c-0.2-1.1-0.3-2.2-0.5-3.3c-0.5-3.8-1.1-7.6-2-11.3c-1.1-4.7-1.4-8.6-1-13.8c-0.4,0-0.8,0-1.3-0.1c-1.5-0.1-3.1-0.2-4.7-0.2
		c-2.6,0-5.2,0.2-7.4,1c-2.4,0.8-3.4,1.4-3.2,3.7C319.7,35.2,320.1,36.3,320.5,37.5z"/>
	<path d="M345.4,127.8l-0.3,0c-3.5,0.4-7,0.8-10.5,1.2l-1.8,0.2c-2.2,0.2-4.1,0.4-4.9,1.5c-0.5,0.6-0.6,1.6-0.4,2.8
		c1.6,9.7,1.7,18.9,1.9,28.7c0,1.6,0.1,3.2,0.1,4.8c0.1,4.2,0.3,8.4,0.5,12.5c0.1,1.5,0.1,3,0.2,4.4c0.1,3.2,1.6,6.3,3,9.3
		c0.6,1.3,1.2,2.6,1.6,3.8c7,18.5,13.9,38.4,16.3,59.3c1.5-2.6,0.5-9.3-0.1-12.7c-0.1-0.9-0.2-1.6-0.3-2.1
		c-0.7-6.6-0.9-13.1-1.1-20.3c-0.4-15.7-0.9-29.8-1.5-44.3c-0.1-2.3-0.2-4.6-0.3-7c-0.2-4.6-0.5-9.4-0.6-14.1c0-2.3-0.3-4.7-0.5-7
		c-0.4-3.9-0.8-8-0.3-12c0.2-1.3,0.8-2.6,1.5-3.9c0.7-1.4,1.4-2.7,1.4-3.9c0-0.6-0.2-1.1-0.5-1.4
		C348.1,127.5,346.6,127.7,345.4,127.8z"/>
	<path d="M347.9,287c-0.6,3.1-1.3,6.3-2,9.5c-0.6,2.4-1,4.9-1.3,7.4c-0.3,1.9-0.6,3.8-1,5.7c-0.2,0.9-0.4,1.8-0.7,2.7
		c-0.5,1.9-1,3.8-1.1,5.5c0.6-0.6,1.1-1.5,1.6-2.2c0.4-0.6,0.8-1.3,1.2-1.7c1.3-1.5,2.7-3.1,4.1-4.5l1.2-1.3c0.7-0.8,0.4-4,0.3-5.7
		c-0.1-0.7-0.1-1.2-0.1-1.7c-0.1-2.8-0.2-5.6-0.4-8.3l-0.1-0.8c-0.2-3.7-0.2-7.5-0.2-11.3C348.7,282.6,348.3,284.8,347.9,287z"/>
	<path d="M306,484.9l0.3,1.6c1.6,8.9,2.9,17.8,4.1,26.9c0.7,5.1,1.7,10.1,2.6,14.3c0.6,2.7,1.1,5.4,1.7,8.2c0.1,0.3,0.1,0.9,0.2,1.5
		c0.1,1.3,0.3,3.7,0.9,4.5c3.5-2.2,3.1-8.4,2.8-12.6c0-0.6-0.1-1.2-0.1-1.7c-0.2-4.1-0.9-8.3-1.6-12.4c-0.2-1.1-0.4-2.1-0.5-3.1
		c-0.8-5.2-1.6-10.5-2.3-15.6c-0.7-5-1.4-10.2-2.2-15.3c-1.1-6.9-2.6-14-4-20.8c-0.8-3.9-1.6-8-2.4-12c-0.7-3.9-1.4-8-2.1-11.9
		c-0.8-5-1.7-10-2.7-15.1c0,0,0,0,0,0v0c0.1,4.3,0,8.6-0.1,12.8c-0.2,6.5-0.5,13.2,0.4,19.8C302.3,464.4,304.2,474.8,306,484.9z"/>
	<path d="M329.2,470.9c-0.2,3.8,1.3,4,4.9,4.5l0.6,0.1c0.3,0,0.8,0.1,1.5,0.3c5.2,1,7.7,1.1,8.8,1c1.1,0.4,2,0.1,2.1-1.2
		c0.1-0.6,0-1.3-0.1-1.9c-0.2-1.4-0.5-2.8-0.5-4.2c0.1-0.5,0.1-1.1,0.1-1.7c0-0.3,0-0.6,0-1c0.3-4.7,0.4-9.3,0.5-13.6
		c0.1-4.5,0.1-9,0.1-13.4c0-3.8,0-7.8,0.1-11.6c0.1-5.3,0.5-10.6,0.9-15.7c0.2-3.2,0.5-6.5,0.7-9.8c0.1-0.9,0.1-1.9,0.1-2.9
		c0.1-2.9,0.1-5.8,1-8.6c0.2-0.5,0.5-1.1,0.7-1.8c1-2.1,1.6-3.7,0.5-4.7c-1.3-1.3-6-1.6-8.4-1.8c-0.6,0-1-0.1-1.4-0.1
		c-0.4,0-0.9-0.1-1.4-0.2c-2.1-0.3-5.2-0.7-6.4,0.1c-1.3,0.9-0.9,3.3-0.5,5.3c0.1,0.7,0.3,1.4,0.3,2c0.2,3.2,0.2,6.5,0.3,9.7
		c0,1.1,0,2.3,0,3.4c0.1,7.1-0.2,14.3-0.5,21.3c-0.1,1.9-0.2,3.7-0.2,5.6c-0.4,8.8-0.6,15.9-0.7,22.4c0,2.1-0.4,4.3-0.8,6.3
		c-0.2,1-0.4,2.1-0.5,3.2c-0.2,1.3-0.5,2.7-0.8,4C329.8,467.6,329.3,469.3,329.2,470.9z"/>
	<path d="M329.7,486.2c0.3,1.2,0.6,2.4,0.6,3.3c0.2,4.5,0.3,8.8,0.2,13.2c2.9-4.6,6.7-8.8,10.5-12.8c1.7-1.8,3.4-3.7,4.9-5.5
		c0.3-2.4-3.3-4.2-6.4-5.1c-1.7-0.5-3.5-0.7-5.2-0.7c-2.5,0-4.6,0.6-5.2,2C328.7,481.9,329.3,484.2,329.7,486.2z"/>
	<path d="M341.3,568.1L341.3,568.1c0.8-9.8,1.6-20.3,2.1-31l0-0.7c0.1-1.5,0.1-1.5-0.9-2.1c-0.2-0.2-0.5-0.3-0.9-0.6
		c-1.3-0.8-2.6-1.7-3.8-2.7c-3-2.2-5.4-4.8-7.8-7.6c-0.3,1-0.4,3.8-0.4,4.7c0,0.6,0,1.1,0,1.3c-0.1,0.7-0.1,1.4-0.2,2.1
		c-0.2,2.3-0.5,4.6-0.5,6.9c0,1.2,0,2.5,0,3.7c-0.1,4.5-0.1,9.2-0.5,13.8c-0.2,2.2-0.4,4.4-0.5,6.6c-0.2,3.5-0.5,7.1-0.9,10.6
		c-0.5,3.6-1.3,7.2-2,10.6c-0.5,2-0.9,4.2-1.3,6.2c0,0.2-0.1,0.5-0.1,0.7c-0.4,1.8-0.8,3.9,0.5,5c0.9,0.7,3,0.9,4.6,1
		c0.6,0.1,1.2,0.1,1.6,0.2c2.4,0.4,4.3,0.7,6.4,0.8c0.4,0,0.8,0.1,1.2,0.2c0.9,0.2,1.8,0.4,2.4,0c1.4-0.9,0.7-7.1,0.4-10
		c-0.1-1.2-0.2-2.2-0.2-2.7c0-4.4,0.4-8.9,0.8-13.2C341,570.9,341.1,569.5,341.3,568.1z"/>
	<path d="M261.4,416.3c1.3-3.2,2.7-6.4,4-9.5c2.2-5.2,4.5-10.7,6.5-16.1c1.9-5.1,4.3-10.2,6.6-15c1.8-3.9,3.7-7.8,5.4-11.9
		c-4.6,6.4-8.3,13.1-12.4,21.5c-0.8,1.7-1.7,3.4-2.5,5.1c-4.2,8.4-8.5,17.2-12.3,26c-4.2,9.8-7.5,19.3-10.2,29.2
		c-1.3,4.9-2,10.5-2.1,15.7v0.1c0,2.7,0,8.7,1.4,11.8C248.1,454.9,253.3,436.3,261.4,416.3z"/>
	<path d="M273.7,394.1c-1.6,4.1-3.4,8.3-5,12.3c-1.4,3.3-2.8,6.6-4.1,10c-5,12.3-8.3,22.1-10.9,31.7c-1.4,5.3-2.4,10.3-3,15.2
		c-0.2,1.6-0.5,3.3-0.8,4.9c-0.2,0.9-0.3,1.8-0.5,2.8c-0.1,0.5-0.2,1-0.3,1.6c-0.3,1.5-0.7,3.3-0.5,4.5c6-0.6,11.9-12.6,14.2-17.1
		l0.2-0.3c3.3-6.6,5.7-13.4,8.2-20.9l0.6-1.8c3.8-11.2,7.6-22.8,10.3-34.5c3.2-14.1,4.8-26.7,4.7-37.5c-1.4,3.1-2.9,6.3-4.3,9.4
		C279.5,380.7,276.4,387.4,273.7,394.1z"/>
	<path d="M277.1,545.8c-0.2-0.1-0.4-0.2-0.5-0.3c-1.5-0.9-3.1-1.6-4.7-2.3l-0.2-0.1c-2.9-1.2-5.9-2.4-8.7-3.5
		c-2.7-1-5.6-2.1-8.3-3.3l-3-1.3c-12.8-5.5-26.1-11.1-39.6-14.7c-4.9-1.3-9.6-2.9-14.2-4.4c-2.2-0.7-4.3-1.5-6.5-2.2
		c-2.3-0.7-4.6-1.4-6.7-1.9c-0.5-0.1-1.2-0.4-2-0.7c-0.9-0.3-2-0.7-3.1-1c5,2.4,9.9,5.2,14.7,7.8c2.6,1.5,5.4,3,8.1,4.4
		c4.7,2.5,9.7,4.9,14.5,7.2c2.9,1.4,5.9,2.8,8.9,4.3l0.4,0.2c6.1,3,12.4,6.2,18.8,8.5c1,0.4,2.1,0.8,3.2,1.2
		c6.8,2.5,13.9,5.1,20.8,5.1l0.3,0c6.7,0.1,8.6-0.7,9.1-1.3c0.2-0.3,0.2-0.5,0.2-0.6C278.4,546.6,277.8,546.2,277.1,545.8z"/>
	<path d="M294,478c0,20.3,2.2,36.7,6.6,50c1.4,4.3,3.1,8,5.2,11.3l0.2,0.3c0.7,1.1,1.4,2.3,2.4,3c1,0.8,3.7,1.9,4.2,1.3
		c0.3-0.4,0.1-2.3-0.7-5.7c-0.1-0.5-0.2-0.9-0.2-1.1c-0.2-1.2-0.5-2.4-0.7-3.5l-0.9-4.2c-0.7-3.4-1.4-7-2-10.5
		c-0.4-2.3-0.7-4.6-1-6.9c-1.5-10-3-20.3-5-30.3c-1.5-7.6-2.7-15.5-3.8-23l0-0.2c-0.8-5.4-0.9-10.7-0.9-15.9c0-2.4-0.1-5-0.2-7.5v0
		c-0.1-1.3,0.1-2.8,0.3-4.3c0.2-2,0.4-4.1,0.2-5.8c-4,14.3-3.8,29.8-3.7,44.9C293.9,472.5,294,475.3,294,478z"/>
	<path d="M407.7,533.9c-6.2-2.5-12.7-5.1-18.8-8.3c-9.5-4.8-20.2-8.5-30.3-10.5c-6.1-1.2-11.3-1.6-16-1.1c-6.1,0.6-9.5,1.6-10.1,2.4
		c8,3.3,16.4,5.9,24.5,8.5c11,3.5,22.3,7,32.8,12.2c0.2,0.4,0.4,0.8,0.4,1.3c-1.6,1.7-6-0.4-9.1-1.8c-0.7-0.3-1.3-0.6-1.7-0.8
		c-4.6-1.7-9.1-3.1-13.3-4.4c-4.4-1.4-8.9-3-13.2-4.5c-5.3-1.9-10.9-3.9-16.4-5.5c-0.3-0.1-0.6-0.2-1-0.4c-1-0.3-2.4-0.9-2.9-0.5
		c-0.1,0.1-0.2,0.2-0.3,0.5c0,0.2,0.4,0.9,2.1,2.7c0.1,0.2,0.3,0.3,0.3,0.3c2.8,3.2,6.4,5.9,11.6,9c8.3,4.9,16.9,8.1,24.9,9.5
		c4.9,0.8,9.8,1.8,14.6,2.7c7.9,1.5,16.1,3.1,24.2,4.1l0.9,0.1c5.5,0.6,11.2,1.3,16.8,1.8c1.1,0.1,2.2,0.2,3.3,0.3
		c4.2,0.5,8.6,0.9,12.6,0.7c-1.9-1.5-4-2.7-6.1-3.8c-0.6-0.3-1.3-0.7-1.9-1.1l-1.6-0.9c-4.4-2.5-9-5-13.6-7.1
		C416.2,537.4,411.9,535.6,407.7,533.9z"/>
	<path d="M349.8,500.7c-1,1.1-2.1,2.2-3.3,3.3c-2.4,2.3-4.8,4.6-6.3,7.2c2.1,0.3,5.8-0.4,7.2-1.6c7.2-6.4,12.1-15,16.7-23.3
		c1.2-2.2,2.5-4.5,3.8-6.7c2.6-4.5,5.5-9.4,8.9-15.5c1.4-2.5,2.7-5.2,4-8.2c0.1-0.3,0.4-0.8,0.6-1.3c0.4-0.8,0.8-1.7,1.1-2.5
		c-1.8,1.7-3.5,3.7-5.2,5.6c-1.6,1.9-3.3,3.8-5.1,5.5c-1.9,1.8-3.9,3.5-5.8,5.2c-2.2,1.9-4.5,3.9-6.6,5.9
		c-5.3,5.3-10.3,11.1-15,16.7c-0.9,1.1-1.9,2.2-2.8,3.3c-0.8,0.9-1.6,1.8-2.4,2.7c-3,3.3-6.1,6.7-7.7,10.7c-0.6,1.6-1.4,5.2-0.8,5.8
		c0.5,0,2.4-0.8,3.1-1.1c1.3-0.7,2.2-1.8,3.2-2.9c0.4-0.5,0.9-1.1,1.4-1.6c1.2-1.3,2.5-2.5,3.8-3.8c0.9-0.9,1.9-1.9,2.8-2.8
		c3.7-3.8,7.4-7.6,10.9-11.4c0.3,0.1,0.6,0.4,0.9,0.7c-1.3,3.6-3.7,6.3-6.3,9C350.6,499.8,350.2,500.2,349.8,500.7z"/>
	<path d="M350.7,343.3c-3.6,2.2-7.7,3.9-12.2,5.1c-0.6,0.1-0.9,0.1-1.1,0.1c-0.1,0-0.1,0-0.1,0c0,0.1-0.3,0.6-0.4,0.8
		c-0.2,0.4-0.2,1-0.3,1.6c0,0.3,0,0.5-0.1,0.7c-0.1,0.9-0.2,1.7-0.2,2.6c-0.1,1-0.2,2.1-0.3,3.2c-0.3,2-0.6,3.9-0.9,5.8
		c-0.7,4.6-1.4,8.9-1.5,13.6c1.5,2.5,6.4,2.7,9.9,2.8c1.1,0,2.2,0.1,3,0.2c0.4,0,0.7,0.1,1.1,0.2c1.8,0.3,3,0.5,3.8-0.8
		c0.8-1.2,0.5-3.2,0.2-4.8c-0.1-0.5-0.2-1-0.2-1.4c-1-8.6-0.9-17.5-0.8-26.1C350.7,345.8,350.7,344.5,350.7,343.3z"/>
	<path d="M268.3,532.1c-0.5-0.3-1-0.5-1.4-0.8c-6.5-3.5-13.4-6.7-18.7-9c-20.9-9.1-44.2-12.2-66.7-15.2c-0.9-0.1-1.9-0.2-2.8-0.4
		c1,0.2,2,0.3,3,0.6c1,0.3,2,0.6,3,0.8c2.3,0.6,4.7,1.3,7.1,2.1c1.9,0.6,3.8,1.3,5.6,1.9c4.3,1.5,8.7,3.1,13.1,4.2
		c10.9,2.9,21.4,7.1,31.6,11.2c2.7,1.1,5.5,2.2,8.2,3.3c3,1.2,5.9,2.4,8.8,3.6c3.3,1.4,6.8,2.8,10.2,4.1c1.8,0.7,3.6,1.4,5.4,2.1
		c0.5,0.2,1.1,0.6,1.7,0.9c1.1,0.6,2.6,1.5,3.3,1.5h0c0.1,0,0.1,0,0.2,0c0-0.1,0-0.2,0-0.4C279.6,538,272.8,534.4,268.3,532.1z"/>
	<path d="M407.2,257.4c-3.5,2.3-6.9,5.9-9.7,8.9l-0.1,0.1c-3,3.2-6.4,6.1-9.7,8.8c-9,7.6-17.1,15.5-23.9,22.3
		c-6.9,7-12,12.4-16.4,17.8c-3,3.6-6.4,8-8.6,12.7c-1.2,2.6-4.1,9.9-3,12.9c0.1,0.4,0.3,0.7,0.6,0.9c6.5-9.8,13.6-18.5,21.1-27.6
		l0.3-0.3c1.5-1.8,2.9-3.6,4.4-5.3c2.3-2.8,4.5-5.6,6.8-8.3c0.3-0.4,0.8-1,1.3-1.8c3.2-4.5,6.6-8.9,9.2-8.3c0.3,0.3,0.4,0.7,0.4,1.2
		c-2.1,2.6-4.1,5.2-6.1,7.8c-3.5,4.5-7.1,9.1-10.8,13.5c-1.9,2.2-3.9,4.5-6,6.8c-7.1,7.9-14.4,16-17.8,25.3c1.8,0.1,5-1.7,7.1-2.9
		c0.8-0.4,1.4-0.8,1.9-1.1c6.9-3.3,12.5-10.7,17.1-16.6l0.3-0.4c3.5-4.5,6.7-9.5,9.8-14.3c1.7-2.6,3.4-5.2,5.1-7.8
		c6.8-10.1,13.1-20.8,19.1-31.3C402.1,266.1,404.6,261.7,407.2,257.4z"/>
	<path d="M317.2,711.1c-0.9-0.3-1.9-0.4-2.9-0.6c-1.1-0.2-2.1-0.4-3.2-0.7c-0.3-0.1-0.6-0.2-0.9-0.3c-0.9-0.3-2-0.8-3-0.8
		c-0.3,0-0.6,0.1-0.9,0.2c-1.4,0.9-1.9,5.2-2.1,7.9c-0.1,0.9-0.2,1.8-0.3,2.3c-0.8,4.2-1.7,8.7-3,14.2c-1.3,5.6-2.9,11.3-4.5,16.8
		c-0.7,2.6-1.5,5.2-2.2,7.8c-2.6,9.5-4,19.3-5.4,28.8c-0.1,0.5-0.2,1.1-0.2,1.6c-0.5,3.7-1,7.4-3,10.8c-0.3,0.5-0.6,1-1,1.5
		c-1.8,2.5-2.8,4.3-0.9,5.8c1.6,1.3,4.7,1.9,7.5,2.4c1.2,0.2,2.3,0.4,3.2,0.7c0.6,0.2,1.6,0.7,2.6,1.3c1.6,0.9,4.2,2.3,4.9,1.7
		c0.4-0.4,0.7-2.7,0.8-3.8c0.1-0.6,0.1-1.1,0.2-1.4l0.3-1.3c0.3-1.6,0.7-3.3,1.2-4.9c1.2-4.1,2.3-8.3,3.4-12.7
		c0.8-3.1,1.4-6.3,2-9.4c0.7-3.9,1.5-7.9,2.7-11.8c2-6.8,3.2-13.9,4.3-20.8l0.5-3.2c0.9-5.8,2.3-11.6,3.6-17.2
		c0.6-2.8,1.3-5.7,1.9-8.5C323,714.5,319.7,711.8,317.2,711.1z"/>
	<path d="M408.4,643.2l-0.2,0.8c-0.9,3-1.9,6-3,9c-0.2,0.5-0.4,0.9-0.6,1.4c-0.6,1.4-1.2,2.8-1.1,4.2c0.7-0.2,1.5-0.3,2.3-0.4
		c1.8-0.3,3.6-0.6,4.8-1.4c1.8-1.2,2.8-4.2,3.5-6.5c0.1-0.3,0.2-0.6,0.3-0.9c1.6-4.9,2.4-10.2,3.1-15.4c0.3-2,0.6-4.2,0.9-6.2
		c0.9-5.2,2.1-10.5,3.3-15.6c1.6-6.9,3.3-13.9,4.1-21.1c-3.9,5.4-7.5,11.1-10.9,16.7c-3,4.8-6.2,9.8-9.5,14.6
		c-3.6,5.2-6.5,11.1-9.3,16.8c-0.6,1.3-1.2,2.5-1.9,3.8c-3.2,6.4-7.1,14.8-8.9,22.7c1.2-0.5,2.4-1,3.5-1.5c0.6-0.3,1.2-0.5,1.9-0.8
		c0.8-0.3,1.7-0.6,2.6-0.9c1.6-0.5,3.2-1,4.3-1.8c1.2-0.8,1.7-2.3,2.2-3.8c0.2-0.6,0.4-1.2,0.7-1.8c0.4-0.8,0.7-1.5,1.1-2.3
		c0.7-1.5,1.4-3,2.1-4.6c1.8-4.5,3.3-9.2,4.8-13.8c0.6-2,1.3-3.9,1.9-5.9c0.5-0.1,0.9,0,1.2,0.3c0.1,4.3-1.1,8.1-2.5,12.2
		C408.9,641.7,408.6,642.4,408.4,643.2z"/>
	<path d="M325,699.3c-0.1-3.4,0.2-8.2,0.7-12.7c0.6-5.1,1.7-10.3,2.7-15.3c0.7-3.4,1.4-6.8,1.9-10.3c0.8-4.8,1.4-9.6,2.1-14.3
		c0.5-4,1.1-8.2,1.7-12.3c0.4-2.8,0.7-5.8,0.9-8.7c0.5-6.1,1-12.4,3.4-18c0.7-1.6,1.3-3.3,0.8-4.4c-0.3-0.6-0.9-1.1-1.8-1.4
		c-3.1-1-7.6-1.6-12-1.5c-1.3,0-2.1,0.3-2.6,0.7c-0.6,0.6-0.4,1.8-0.3,3.4c0.1,0.5,0.1,1,0.1,1.6c0.2,3.3-0.2,6.7-0.6,10.1
		c-0.1,1.1-0.3,2.1-0.4,3.2c-0.6,6.1-1.6,12.3-2.5,18.3c-0.5,3.2-1,6.5-1.4,9.8c-0.9,6.3-2.3,12.5-3.7,18.5c-0.7,2.8-1.3,5.8-2,8.7
		c-0.7,3.2-1.5,6.5-2.2,9.6c-1.4,5.6-2.8,11.4-3.6,17.1c-0.4,3,1.5,3.6,4.7,4.3c0.7,0.1,1.4,0.3,2,0.5c0.5,0.1,1.1,0.4,1.8,0.6
		c2.6,0.9,7,2.5,8.7,1.3c1.8-1.2,1.6-5.3,1.5-7.7C325,700,325,699.6,325,699.3z"/>
	<path d="M198,475.6c5,1.3,10.2,2.6,15.4,3.4c3.5,0.5,6.7,0.7,9.5,0.6c5.1-0.2,8.7-1.1,9-2.2c0.1-0.2,0-0.4-0.1-0.5
		c-0.4-0.7-2.3-1.1-3.5-1.3c-0.7-0.1-1.2-0.2-1.5-0.4c-1.3-0.5-2.5-1.2-3.7-1.9c-1.5-0.8-3-1.7-4.6-2.2c-7-2.4-14.4-4.3-21.5-6
		c-6.2-1.5-12.3-2.7-18.7-3.8c-3.1-0.7-6.4-1.2-9.4-1.8c-1.7-0.3-3.5-0.7-5.2-1.1c-1.1-0.3-3.6-0.9-3-2.2c2.9-0.9,6.4-0.1,9.5,0.6
		c1,0.2,2,0.5,3,0.6l2.6,0.4c4.9,0.8,9.9,1.6,14.8,2.7c9.6,2.2,19.9,4.7,30,7.9c-0.6-0.5-1.3-1.1-1.9-1.6c-0.6-0.5-1.1-1-1.7-1.5
		c-0.4-0.3-0.8-0.7-1.2-1.1c-1.2-1.2-2.6-2.6-3.8-2.9c-0.9-0.3-2-0.1-3.2,0c-0.8,0.1-1.7,0.2-2.5,0.1c-1.9-0.1-4-0.3-6.2-1
		c-2.1-0.7-3.9-1.8-5.6-2.9c-1.9-1.1-3.8-2.3-6-3c-3.2-0.9-6.5-1.6-9.7-2.2c-1.3-0.2-2.6-0.5-3.9-0.8c-11.4-2.3-21.1-3.9-30.4-4.8
		c-3.2-0.3-6.4-0.5-9.6-0.7c-1.8-0.1-3.6-0.2-5.3-0.4c-1.2-0.1-2.4-0.2-3.8-0.4c-2.6-0.3-5.4-0.7-7.9-0.5c7.5,2.4,14.7,5.8,21.7,9.1
		c3.7,1.7,7.5,3.5,11.2,5.1h0c12.5,5.4,26.7,11.5,41.6,15.1C194.1,474.6,196,475.1,198,475.6z"/>
	<path d="M458.6,652.8c-2.8,0.2-5.5,0.5-8.3,0.7c-10.7,0.8-21.4,2.3-31.7,4.6c-10.3,2.2-18.6,4.8-26.2,8l-1.8,0.8
		c-3.9,1.7-8,3.4-11.8,5.4c-0.4,0.2-0.9,0.4-1.5,0.7c-2.4,1.2-6.8,3.2-7.7,5.2c8.7-1.4,16.9-4.6,24.8-7.7c2.7-1,5.5-2.1,8.2-3.1
		c0.2-0.1,22.5-7.8,26.6-5.8c0.4,0.2,0.7,0.5,0.8,0.8l0.1,0.4l-0.4,0.2c-2.9,1.2-6,1.9-9,2.5c-1.1,0.2-2.2,0.5-3.3,0.7
		c-5.7,1.3-11.4,3.1-17.5,5.4c-2.4,0.9-4.8,1.8-7.1,2.8c-3.2,1.3-6.4,2.5-9.7,3.7c-2.5,0.9-4.9,1.6-7.5,2.2
		c-0.4,0.1-0.8,0.2-1.2,0.2c-0.9,0.2-1.9,0.4-2.7,0.8c3.5,2.2,9.3,1.9,13.5,1.7c0.7,0,1.3-0.1,1.9-0.1c5.7-0.2,10.6-0.6,15-1.2
		c11.6-1.5,23.4-5,33.2-9.7c3-1.5,6.1-2.8,9.1-4.1c4.2-1.8,8.6-3.7,12.7-5.9l4.3-2.3c5.2-2.7,10.6-5.5,16-8.2
		C471.3,651.8,464.9,652.3,458.6,652.8z"/>
	<path d="M379.3,184.9c1.4-2.8,2.8-5.6,4.3-8.3c1.9-3.5,4-7.1,5.9-10.5c2-3.4,4-7,5.9-10.5c1.9-3.5,4-7,6.1-10.3
		c1.3-2.1,2.5-4.1,3.7-6.2c2-3.4,4.2-6.7,6.3-10l0.7-1c0.2-0.2,0.3-0.5,0.5-0.7c0.7-1.1,1.4-2.2,2.5-3l0.1-0.1c0.2,0,0.3,0,0.5,0.1
		l0.1,0.1c1.1,2-0.5,4.3-1.7,5.9c-0.3,0.4-0.6,0.8-0.8,1.1c-1.1,1.9-2.2,3.8-3.2,5.7c-0.6,1.1-1.2,2.1-1.8,3.2
		c-1.4,2.4-2.9,4.8-4.3,7.1c-1.8,2.9-3.7,5.9-5.3,9c-2.8,5.3-5.8,10.5-8.7,15.6c-3.1,5.3-6.2,10.8-9.1,16.3c-0.2,0.3-0.5,0.9-1,1.7
		c-3.9,6.8-5.8,10.6-5.4,11.3c1.1,1.1,9.9-5.1,13.2-8.1c10-8.9,15.2-20.9,19.7-31.5c4-9.4,8-19.7,12.5-32.4c0.9-2.5,1.7-5,2.6-7.4
		l0.7-2.1c0.7-1.9,1.5-3.8,2.4-5.7c1.1-2.4,2.2-4.8,2.9-7.2c-11.1,11-21.6,24-32.9,40.7l-1.5,2.2c-4.9,7.1-9.9,14.5-13.6,22.5
		c-2.2,4.6-3.8,9-5.2,13.3c-0.2,0.6-0.4,1.3-0.7,2.2c-1,2.9-2.5,7-2.1,9.6C375,193.5,377.2,189.1,379.3,184.9z"/>
	<path d="M359.9,253.3c1.2-1.4,2.5-2.8,3.9-3.9c0.9-0.8,1.9-1.6,2.9-2.4c1.8-1.4,3.6-2.9,5.3-4.5c4.3-3.9,10.1-9,16.3-13.5
		c6.5-4.7,12.8-9.9,18.9-15l2.1-1.7c2.6-2.2,5.6-4.1,8.5-6c3.5-2.3,7.2-4.7,10.3-7.6c0.4-0.4,0.8-0.8,1.3-1.1
		c-0.8,0.4-1.7,0.8-2.5,1.1c-5.1,2.3-10.3,4.7-15.2,7.5c-2.8,1.5-5.6,3-8.3,4.4c-5.6,2.8-10.8,5.5-15.9,9.2c-1.4,1-2.9,2-4.4,3.1
		c-6.1,4.3-12.5,8.7-17.5,14c-2.8,3-5.1,6.6-7.1,10c-3.4,5.6-4.7,9.7-3.7,11.2C356.6,257,358.3,255.1,359.9,253.3z"/>
	<path d="M424.4,205.7c-3.5,2.3-7.5,5.1-11.3,8c-4.9,3.8-9.8,7.8-14.3,11.5c-3,2.4-6.1,4.8-9.1,7.1c-4,3.1-8.2,6.3-12.1,9.6
		c-1.7,1.5-3.5,3-5.2,4.4c-5,4.1-10.1,8.3-14,13.4l0,0c-0.4,0.4-0.6,0.8-0.8,1.3c2.2,0.5,5.6-1,8.2-2c0.7-0.3,1.3-0.6,1.8-0.8
		c4.5-1.7,8.6-3.9,12.1-6.4c6.8-4.9,13.7-10.7,21.1-17.7c10.5-10,21-21.3,32-34.6c-1.2,0.9-2.5,1.8-3.7,2.7
		C427.6,203.4,426.1,204.6,424.4,205.7z"/>
	<path d="M217.2,429c4.4,12.5,9.1,19,13.8,19.4c0-1.9-0.9-4.1-1.9-6.3c-0.6-1.3-1.1-2.5-1.4-3.6c-1.2-4.6-1.7-9.4-2-13.9
		c-0.5-7.4-1.5-14.9-2.5-22.1l-0.3-2.5c-1.1-8-2.4-14.9-4.1-21l-0.1-0.2c-0.4-1.3-0.7-2.6,0-3.2c0.3-0.3,0.8-0.4,1.4-0.2
		c1.4,0.5,2.1,3.5,2.6,6.5c0.1,0.5,0.1,0.8,0.2,1.1c3.5,15.4,5.2,31.2,6.4,44.7c0.4,4.8,1.2,8.6,2.5,12.4c0.1,0.3,0.2,0.8,0.4,1.4
		c0.4,1.5,1.3,5.1,2.1,5.4c0,0,0.1,0,0.1,0c2.1-1.3,4-17.6,4-20.8c-0.1-12.3-3.6-26-10.9-43l0,0c-4.3-9.9-8.3-20.3-12.1-30.2
		c-0.9-2.4-1.8-4.8-2.7-7.2c-0.1,2,0,4.1,0.1,6.1c0.1,2.5,0.1,5,0,7.5c-0.2,3.1-0.5,6.2-0.8,9.2c-0.2,2.2-0.5,4.5-0.7,6.8
		c-0.6,7.6-1,16.6-0.1,26C211.8,410.4,214,419.9,217.2,429z"/>
	<path d="M152.8,407.3c4.1,5.9,8.1,10.8,12.2,14.9l0,0c2.1,2.2,4,4.6,5.7,7c1.1,1.6,2.3,3.2,3.6,4.6c3.3,3.9,6.9,7.5,10.9,11.4
		l0.8,0.8c6,5.8,16,15.5,24.8,11c-1-2.1-3.1-4.1-5.1-6c-0.8-0.8-1.6-1.6-2.3-2.3c-1.1-1.2-2.2-2.5-3.2-3.7c-1.3-1.5-2.6-3-4-4.5
		c-5.6-5.9-11.7-11.3-18.1-16.2c-0.1-0.1-0.3-0.2-0.5-0.3c-1.3-0.8-2.5-1.6-2.5-2.6c0-0.3,0.1-0.7,0.6-1c1.3-0.8,3.5,0.9,5.6,2.7
		c0.3,0.3,0.5,0.5,0.7,0.6c5.9,4.4,11.5,9.8,16.7,14.9c3.7,3.7,7.2,7.6,10.6,11.5c1.1,1.2,2.1,2.4,3.2,3.5c0.2,0.2,0.4,0.5,0.6,0.8
		c0.4,0.6,1.2,1.5,1.6,1.5c0.1,0,0.1-0.1,0.2-0.2c0.5-0.6-0.6-3.6-1-4.6c-0.1-0.3-0.2-0.6-0.3-0.7c-0.7-2.2-1.8-4.1-2.7-5.7
		c-7.8-13.1-18.5-23.7-32.6-32.3c-7.9-4.8-13.9-8.3-19.6-11.3c-1.1-0.6-2.3-1.3-3.6-2c-3.8-2.2-8.1-4.7-12-5.4
		c1.5,3.2,3.9,6.3,6.3,9.3C150.7,404.5,151.8,405.9,152.8,407.3z"/>
	<path d="M355.1,250c0.1-0.3,0.3-0.5,0.5-0.8c1.1-1.4,1.5-3,2.2-4.6c1.2-2.8,2.5-5.5,3.7-8.3c-0.1,0.1-0.2,0.3-0.3,0.4
		c2.4-7.7,5.1-15.9,8.2-24.1c0.2-0.5,0.4-1.1,0.6-1.7c0.4-1.3,0.9-2.7,1.6-3.8c0.2-0.2,0.3-0.4,0.5-0.6c0.8-1.5,0.9-5.8-0.5-6.4
		c-0.9-0.4-1.6,0.4-2.2,1.5c0,2.4-0.8,4.5-1.7,6.7c-0.2,0.4-0.3,0.8-0.5,1.3c-4.4,11.5-8.7,22.8-12.1,34.2
		C355.3,245.8,355.2,247.9,355.1,250z"/>
	<path d="M237.2,455.5c-0.7-1.4-1.4-2.6-1.3-3.8c-0.4-0.9-0.8-1.8-1.4-2.4c-0.6-0.6-1.3-1.1-1.8-0.2c-0.2,0.3-0.1,0.7-0.1,1.1
		c0,1.3,0.1,2.5,0.3,3.8c1.1,1.4,1.9,3.5,2.5,5.2c0.2,0.5,0.4,1.1,0.6,1.5l0.9,2.3c0.8,1.9,1.6,3.9,2.3,5.9c0,0.1,0.1,0.2,0.1,0.3
		c2.4,4.5,5.2,8.8,7,13.6c0.1,0.4-0.4,0.8-0.7,0.6c-2.9-2.2-5.4-4.8-8.2-7.1c-3.2-2.7-6.7-4.8-10.2-7c-2.8-1.8-5.1-4-7.6-6.3
		c-0.8-0.8-1.8-1.8-2-2.8c-0.8-0.4-1.7-0.7-2.3-0.6c-2.8,1,1.2,4.1,2,4.8c2.4,2.1,4.8,4.2,7.5,5.9c0.1,0,0.1,0,0.2,0.1
		c3.2,1.7,7,3.3,9.8,5.7c1.4,1.2,2.1,3,2.4,4.9c1.2,0.7,2.3,1.8,3.4,2.8c0.5,0.5,0.9,0.9,1.3,1.3c0.7,0.6,1.3,1.2,2,1.7
		c1.5,1.3,3,2.6,4.5,4c0.6,0.5,1.1,1,1.7,1.4c0.3,0.2,0.6,0.4,0.9,0.7c1.6,1.3,2.7,2.9,3.9,4.7c0.2,0.4,0.5,0.7,0.7,1.1
		c1.1,1.6,2.2,3.2,3.3,4.7c5.3,7.5,10.8,15.3,15.4,23.5c1.2,2.1,2.4,4.2,3.7,6.2c0.7,1.1,1.3,2.2,2,3.3c1.9,2.2,3.3,4.6,4,7.6
		c0.3,1.4,0.5,3,0.1,4.4c0,0.2-0.1,0.3-0.2,0.4c0.3,0.1,0.8,0.4,1.7,1c2.9,1.9,4.9,4.5,6.6,7c1.9,2.8,3.8,5.8,5.6,8.7
		c1.5,2.4,3.1,4.9,4.7,7.3c4.1,6.2,8.3,12.7,12.4,19.3c0.4,0.6,0.9,1.3,1.4,2c1.1,1.5,2.2,3,2.5,4.4c0,0,0,0.1,0,0.1
		c0,0.1-0.1,0.3-0.1,0.4c0.7-0.4,1.2-1.3,1.4-1.9c0.3-0.8,0.3-1.8,0.3-2.6c0-1.9-0.8-3.6-1.2-5.4c-0.3-0.6-0.7-1.3-1-1.9
		c-0.8-1.5-1.6-3.1-2.5-4.5c-0.6-1-1.4-1.9-2.2-2.9c-1.2-1.4-2.4-2.9-3-4.6c-1.7-5.6,0-11.2,1.7-16.6l0.7-2.3
		c0.7-2.2,1.3-4.4,2.2-6.6c0.4-0.9,0.8-1.6,1.3-2.3c0.2-0.9,0.1-2.1-0.5-2.9c-1.1-1.3-2.2,0.4-2.8,1.2c-0.7,0.9-1.1,2-1.8,2.9
		c-0.6,1.7-1.3,3.4-2,5c-0.6,1.3-1.2,2.7-1.7,4c-0.4,1-0.7,2-1,3.1c-0.6,2-1.2,4.1-2.2,5.9c-3.5-4.3-6.5-9.6-9.2-14.4l-0.7-1.3
		c-2.6-4.6-5.5-9.1-8.4-13.5l-0.7-1c-2.1-3.2-4.1-6.5-6.1-9.7c-4.1-6.6-8.4-13.4-13-19.8c-2.3-3.3-4.5-6.8-6.6-10.1
		c-1.6-2.5-3.2-5.1-4.8-7.6c-0.2-0.4-0.7-0.9-1.2-1.6c-1.3-1.6-3.5-4.4-3.7-5.8c-2.4-1.1-3.8-3.6-5.2-6.1c-1.1-2-1.7-4.2-2.5-6.4
		c-0.7-1.8-1.5-3.7-1.8-5.7c-0.3-0.7-0.6-1.4-0.8-2.1c-0.5-1.3-1-2.7-1.6-4.1C237.8,456.6,237.5,456.1,237.2,455.5z"/>
	<path d="M369.6,680.2c-1.1-0.6-2.7-0.2-4,0c-0.4,0.7-1.5,1.3-2.4,1.8c-0.3,0.2-0.6,0.3-0.9,0.5c-1.1,0.7-2.2,1.3-3.3,2
		c-4.5,2.7-9.2,5.6-13.5,8.8c-1.2,0.9-2.4,1.8-3.6,2.7c-4.3,3.3-8.6,6.7-13.1,9.6c0,0,0,0,0,0c-1,1-2.1,1.8-2.8,3
		c-0.6,1-0.8,2.6,0.2,3.1c0,0,0,0,0,0c0.3-0.5,1.5-1.1,2.4-1.6c0.5-0.3,1-0.5,1.4-0.8c0.8-0.5,1.5-1.1,2.2-1.7
		c0.6-0.4,1.1-0.9,1.7-1.3c1.3-0.9,2.6-1.8,3.9-2.6c1.2-0.7,2.4-1.5,3.6-2.3c3.5-2.4,7.1-4.8,10.6-7.1c2.4-1.6,4.8-3.2,7.2-4.8
		c0.5-0.4,1-0.7,1.6-1.1c2.2-1.6,4.7-3.4,7.2-3.9c0.3-0.1,0.7-0.1,1-0.1c0.3-0.4,0.7-0.7,1-1.1C370.8,682.5,370.7,680.9,369.6,680.2
		z"/>
	<path d="M321.8,536.2c0.7-2.2,1.9-4,3.2-5.9c0.1-0.2,0.2-0.3,0.3-0.5c0.2-0.4,0.5-0.7,0.8-1c0.4-0.7,0.7-1.5,0.8-2.4
		c0.2-1.2,0.6-4-0.4-5.2c-0.1,0.3-0.2,0.6-0.3,0.9c-0.6,1.6-2.4,4.3-3.9,6C321.2,530.5,321.1,533.6,321.8,536.2z"/>
</g>
</svg>
