<?xml version="1.0" encoding="utf-8"?>
<!-- Generator: Adobe Illustrator 21.1.0, SVG Export Plug-In . SVG Version: 6.00 Build 0)  -->
<svg version="1.1" id="Слой_1" xmlns="http://www.w3.org/2000/svg" xmlns:xlink="http://www.w3.org/1999/xlink" x="0px" y="0px"
	 viewBox="0 0 595.3 841.9" style="enable-background:new 0 0 595.3 841.9;" xml:space="preserve">
<path d="M485.6,648.5c-0.2-0.8-1.3-0.9-2.5-0.9c-3.3-0.1-6.7,0.3-9.9,0.7c-1.2,0.1-2.4,0.3-3.6,0.4c-4.6,0.5-9.2,0.7-13.7,0.9
	c-5.2,0.3-10.6,0.5-16,1.1c-5,0.6-10,1.4-14.9,2.3c-1.1,0.2-2.3,0.5-3.6,0.9c-2.5,0.7-5.4,1.5-7.6,1.3c2.6-7.6,3.9-15.6,5.1-23.3
	c1-6.4,2.1-13,3.9-19.4c1.6-5.7,2.9-11.9,3.8-18.4c0.2-1.2,0.6-2.6,1-4.1c1.1-3.6,2.3-7.7,0.5-10.4l-0.4-0.6l-0.4,0.6
	c-3.8,6-7.8,11.9-11.7,17.7c-7.6,11.3-15.5,22.9-21.8,35.3c-5.5,10.7-10.3,21.5-14.6,33c-0.7,1.9-1.7,2.3-3.2,3
	c-0.5,0.2-1,0.5-1.6,0.8l-0.3,0.2c-2.4,1.3-5.1,2.8-7.4,4.5c-1.1,0.8-1.8,1.6-2.3,2.3c-0.5,0.7-0.6,1.6-0.6,2.3
	c0,0.5-0.1,0.9-0.2,1.3c-0.4,0.8-1.5,1.4-2.5,1.9c-0.3,0.2-0.6,0.3-0.9,0.5c-1.1,0.7-2.2,1.3-3.3,2c-4.5,2.7-9.2,5.6-13.5,8.8
	c-1.2,0.9-2.4,1.8-3.6,2.7c-4.3,3.3-8.6,6.7-13.1,9.6c0.1-1.8,0-3.7-0.1-5.4c-0.1-1.5-0.2-3-0.2-4.4c0.1-3.5,0.5-7,0.9-10.3
	c0.5-4.2,1.3-8.6,2-12.7c0.4-2.5,0.9-5.1,1.3-7.7l0.9-5.6c2-12.8,4.1-26,5.8-39.1l0-0.2c0.4-3.2,0.8-6.2,2.1-9.1
	c1.6-3.5,2-5.3,1.7-9.1c-0.1-1,0.2-1.8,0.5-2.6c0.2-0.6,0.4-1.2,0.6-2c0.2-1.3,0-2.5-0.2-3.7c-0.1-0.3-0.1-0.6-0.2-0.9
	c-0.6-3.8-0.8-7.2-0.6-10.7c0.4-6.2,0.9-12.5,1.5-18.6c0.8-8.7,1.5-17.7,1.8-26.7c10.5,5.9,21.6,8.1,33.3,10.3
	c2.2,0.4,4.3,0.8,6.5,1.3c14.4,3,29.7,4.9,46.8,6c1.1,0.1,2.3,0.1,3.5,0.2c1.9,0.1,3.9,0.2,5.8,0.4c0.3,0,0.8,0.1,1.4,0.3
	c2.6,0.5,6.3,1.3,6.9-0.6c0.9-2.4-4.2-5.6-12.1-9.6c-0.7-0.3-1.2-0.6-1.5-0.8c-8.8-4.9-18.2-8.8-27.2-12.5
	c-4.2-1.7-8.5-3.5-12.8-5.4c-1.9-0.9-3.9-1.7-5.8-2.6c-5.9-2.7-12-5.4-18.3-7.7c-5.6-2.1-11.1-3.1-16.8-4.1
	c-1.6-0.3-3.1-0.6-4.7-0.9c2.6-2.2,4.5-5.2,6.3-8.1c0.4-0.6,0.8-1.3,1.2-1.9c2.9-4.4,5.4-9,7.9-13.4l1.2-2.1c1.6-3,3.4-5.9,5.1-8.8
	c3.9-6.7,8-13.7,11.2-21.1c0.1-0.2,0.2-0.4,0.3-0.7c1.9-4.1,3.4-8,2.1-9.4c-0.5-0.5-1.3-0.6-2.4-0.2c-1.4,0.5-3.1,2.7-4.5,4.7
	c-0.5,0.7-1,1.4-1.4,1.8c-0.6,0.7-1.2,1.3-1.8,2c-1.2,1.3-2.3,2.6-3.5,3.9c-3.7,4-7.9,7.6-12,11l-0.6,0.5c-3.4,2.9-6.5,6.2-9.4,9.5
	l-0.7,0.8c0,0,0,0,0,0c0.1-0.3,0.2-0.7,0.2-1.1c0-1-0.3-1.6-0.6-2.3c-0.2-0.4-0.3-0.7-0.4-1.2c-0.5-1.9-0.3-4.1-0.1-6.3
	c0.1-0.9,0.2-1.8,0.2-2.6c0.1-3.2,0.3-6.4,0.4-9.5c0.2-3.4,0.3-6.9,0.4-10.4c0.2-4.8,0.3-9.5,0.4-14.2c0.2-8.8,0.4-17.9,0.9-26.8
	c0.4-6.5,1.7-11.5,3.8-17.6c0.7-2,0.3-3.1-0.2-4.2c-0.3-0.6-0.5-1.2-0.6-2.1c0-0.2,0.1-0.6,0.3-0.9c0.1-0.3,0.3-0.6,0.3-0.9
	c0.2-1.3,0.2-1.4,0-2c-0.1-0.2-0.1-0.4-0.2-0.9c-0.1-0.6-0.3-1.2-0.4-1.8c-0.3-1.1-0.5-2.1-0.6-3.2c-0.4-4.7-0.4-9.5-0.4-14.2
	c0-1.8,0-3.6,0-5.4c0-0.9-0.1-1.9-0.1-2.9c-0.1-2.2-0.2-4.5,0.1-6.7c0.2-1.8,1.5-2.7,3-3.9c0.6-0.4,1.1-0.9,1.7-1.4
	c6-5.5,10.5-12.5,14.8-19.3c1.3-2,2.7-4.2,4-6.2l2.5-3.7c5.8-8.5,11.7-17.4,16.9-26.6c4.7-8.4,10.2-18,16.6-26.6
	c1.4-1.9,3-4,4.7-5.6c0.2-0.2,0.6-0.5,1-0.7c1.3-0.8,2.8-1.8,2.3-3.2c-0.2-0.5-0.5-0.8-1-1c-2-0.5-6,2.9-10.1,6.6
	c-0.5,0.4-0.8,0.8-1,0.9c-7.9,6.3-15.5,13.2-22.9,19.8c-2.3,2.1-4.6,4.2-7,6.3c-7.9,7.1-16,15.1-26.1,26.1c0-2.7-0.1-5.4-0.2-8.1
	c-0.1-4.5-0.3-9.2-0.1-13.7c0-0.7,0-1.4,0.1-2.1c0.1-2.4,0.1-5,0.6-7.3c0.2-0.9,0.4-1.9,0.7-2.8c0.5-1.8,1-3.7,1-5.7
	c4.4,1.5,11-1.6,15.5-3.7c0.5-0.2,1-0.5,1.5-0.7c3.8-1.7,7.6-4,11.5-7.1c9.3-7.2,18.1-15.3,25.5-22.2c2.4-2.3,4.7-4.8,6.8-7.3
	c1.1-1.3,2.2-2.6,3.4-3.8c1.2-1.3,2.5-2.6,3.7-3.9c2.6-2.7,5.2-5.5,7.7-8.5c1.2-1.5,2.5-3,3.9-4.6c3.9-4.3,7.8-8.8,10.1-13.8
	l0.3-0.7l-0.8,0c-3.1,0.1-5.8,1.4-8.5,2.8c-0.6,0.3-1.2,0.6-1.8,0.9c-1.5,0.7-3.1,1.4-4.6,2.1c-2.7,1.2-5.3,2.5-8,3.7
	c-3.5,1.6-6.8,3.4-10.1,5.2c-3.6,1.9-7.2,3.9-11,5.5c-7.8,3.4-14.7,8.4-21,13.2c-1.3,0.9-2.6,1.9-3.9,2.9
	c-5.2,3.8-10.6,7.7-14.6,12.5c2.4-7.7,5.1-15.9,8.2-24.1c0.2-0.5,0.4-1.1,0.6-1.7c0.4-1.3,0.9-2.7,1.6-3.8c0.9-1.3,1.8-1.5,3.1-1.6
	c0.6-0.1,1.4-0.2,2.1-0.5c4.6-1.5,9.1-5.3,13-8.8c9.4-8.5,14.6-18.8,18.9-28.8c3.9-9.1,7.7-18.9,12.4-31.6c0.8-2.1,1.5-4.1,2.3-6.2
	c3.5-9.7,6.8-18.8,11.5-27.9c0.7-1.4,1.1-3.2,0.2-3.9c-0.5-0.4-1.3-0.5-2.9,0.9c-0.8,0.7-1.5,1.5-2.1,2.3c-0.7,0.8-1.3,1.5-2.1,2.2
	c-4.2,3.8-8.5,8.1-12.6,12.7c-9.2,10.2-17.1,21.9-23.9,32c-5,7.5-10.2,15.4-14.2,23.7c-3.6,7.6-5.9,14.4-7.2,20.7
	c-0.6,2.8-0.8,5.6-0.7,9c0.1,2.5-0.8,4.6-1.7,6.9c-0.2,0.4-0.3,0.8-0.5,1.3c-4.6,11.9-9,23.6-12.4,35.4c-0.2-2.1-0.5-4.2-0.7-6.2
	c-0.5-3.6-0.9-7.3-1-10.9c-0.1-2.9-0.1-5.9-0.2-8.8c-0.1-3.8-0.2-7.6-0.3-11.4c0-3.6,0-7.3,0-10.9c0-10.4,0-21.1-0.9-31.5
	c-0.1-1-0.2-2.1-0.3-3.1c-0.5-5.6-1.1-11.5-0.6-17.1c0.1-1.2,0-2.3,0-3.4c-0.1-1.5-0.1-3,0.1-4.4c0.2-1.2,0.8-2.3,1.4-3.4
	c0.7-1.3,1.4-2.6,1.6-4.1c0.1-1.4-0.5-2.5-1.2-3.6c-0.5-0.9-1-1.7-1.1-2.8c0-1,0-2,0-3c0-2.5,0-4.8-0.8-7.6
	c-2-6.6-2.9-13.1-3.6-20.8c-1.2-12.5-2.8-27.2-5.4-42.5c-0.2-1.1-0.4-2.3-0.6-3.4c-0.4-2.3-0.9-4.7-1.1-7.1
	c-0.4-3.1,0.4-4.9,1.6-7.5l0.2-0.4c0.7-1.5,0.7-2.7,0-3.6c-1.7-2.4-7.4-1.8-11.2-1.4c-0.9,0.1-1.7,0.2-2.2,0.2
	c-2.5,0-10.1,0.2-12.7,3c-0.7,0.7-1,1.6-0.9,2.6c0.1,1.5,0.8,2.9,1.5,4.4c0.5,1.1,1,2.1,1.2,3.2c0.8,3.2,1.2,6.4,1.7,9.8
	c0.6,4.3,1.3,8.7,1.9,12.9c1.4,9.3,2.9,18.9,3.5,28.4c0.5,7,0.8,15.3-0.5,23.8c-0.6,3.7-0.9,6.6-0.4,10.5c0.2,1.4,0.1,2.7-0.1,4.1
	c-0.2,1.7-0.3,3.4,0.1,5.3c2.4,10.4,2.5,21.3,2.6,31.8c0,3.7,0.1,7.5,0.2,11.3c-0.6-1.6-1.3-3.1-2.2-4.6c-0.3-0.6-0.7-1.3-1-2.1
	c-0.7-1.6-1.4-3.2-2.2-4c-0.3-0.3-1.2-1.2-2-0.9c-1,0.5-1,2.5-0.7,4.6c0.3,2.5,0.2,5,0.1,7.5c0,0.7-0.1,1.5-0.1,2.2
	c-0.4,14.9,0.2,28.5,1.5,40.4c1.1,9.6,2.7,20.8,6.1,31.5c0.2,0.6,0.5,1.3,0.7,2c0.4,1.1,0.9,2.3,1.1,3.3c0.3,1.3-0.1,2.3-0.5,3.5
	c-0.4,1-0.7,2.1-0.7,3.5c0.1,2.1,0.7,4.2,1.3,6.2c0.3,1.1,0.7,2.2,0.9,3.3c0.7,3,1.5,6.8,2.1,10.4c2.2,14.3,2.3,29.2,2.4,43.6l0,0.9
	c0,3.2-0.2,6.6-0.5,9.8c-0.1,1.9-0.3,3.8-0.4,5.7c-0.3,6-1,12.1-2.3,19.4c-0.2,0.9-0.3,1.8-0.5,2.7c-0.4,2.2-0.9,4.4-1,6.6
	c0,1-0.2,2-0.4,2.9c-0.3,1.6-0.6,3.2-0.3,4.8c0.1,0.5,0.5,0.7,0.8,0.9c0,0,0,0,0.1,0c0,0.1-0.1,0.2-0.1,0.3
	c-0.1,0.3-0.3,0.6-0.2,1.1c0.1,0.6,0.2,1.3,0.2,1.9c0.1,0.7,0.2,1.3,0.2,2c0.5,3.7,0.9,7.5,1.1,11.3c0.6,10.3,0,20.7-0.6,30.8
	c-0.2,4.4-0.5,8.9-0.6,13.4c-0.3,8.8-0.8,16.2-2.5,23.8c-1.5,6.9-1.5,13.7-0.1,21.4c1.2,6.5,0.9,13.6,0.7,20.5
	c0,1.2-0.1,2.4-0.1,3.6c0,0.8,0,1.8,0,2.8c0,2.7,0.1,5.8-0.7,7.9c-0.7,1.8-2.8,5-4.5,6.7c-0.2-1.1-0.2-2.3-0.2-3.5
	c0-0.9,0-1.8-0.1-2.7c-0.3-2.4-0.7-4.8-1.1-7.1l-0.1-0.7c-0.5-2.9-1-5.8-1.4-8.7l-0.1-0.7c-0.5-3.2-1-6.5-1.5-9.7
	c-1-6.9-2.1-14-3.4-21c-0.7-3.8-1.5-7.7-2.3-11.5c-1.1-5.4-2.3-11.1-3.2-16.7l0-0.3c-1.2-8-2.5-16.3-4.1-24.3
	c-0.1-0.5-0.2-1.3-0.3-2.2c-0.5-3.7-1.2-8.9-3.7-10c-0.6-0.3-1.3-0.3-1.8,0c-1.7,1-2.4,4.7-2.8,8.1c-0.1,0.5-0.1,0.9-0.2,1.2
	c-1.9,9.8-3.1,18-3.7,25.9c-1.4,17-1.3,34.5,0.1,51.9c0.8,9.4,2.1,21.6,5.7,32c2.5,7.3,5.6,16.5,14.1,18.6c-0.6,1.9-1.4,3.9-2.2,5.8
	c-0.6,1.3-1.2,2.7-1.7,4c-0.4,1-0.7,2-1,3.1c-0.6,2-1.2,4.1-2.2,5.9c-3.5-4.3-6.5-9.6-9.2-14.4l-0.7-1.3c-2.6-4.6-5.5-9.1-8.4-13.5
	l-0.7-1c-2.1-3.2-4.1-6.5-6.1-9.7c-4.1-6.6-8.4-13.4-13-19.8c-2.3-3.3-4.5-6.8-6.6-10.1c-1.6-2.5-3.2-5.1-4.8-7.6
	c-0.2-0.4-0.7-0.9-1.2-1.6c-1.4-1.7-3.9-5-3.7-6.1c0.1-0.4,1.9-1.5,2.7-2.1c0.7-0.5,1.3-0.8,1.7-1.1c9.4-8.5,14.4-22.8,18.4-34.4
	l0.1-0.3c7.6-21.7,15.5-47.7,16.9-75.4c0.1-1.5,0.2-3,0.3-4.5c0.1-2.1,0.3-4.2,0.3-6.4c0.1-2.2,0-4.6-1.2-5.3
	c-0.6-0.3-1.3-0.2-2.1,0.4c-0.9,0.6-1.5,2.2-2.2,3.6c-0.4,1-0.8,1.9-1.2,2.5c-0.7,1-1.4,1.9-2.1,2.9c-0.7,0.9-1.3,1.8-2,2.7
	c-5,6.7-8.8,14.5-12.5,22.1c-1.3,2.7-2.6,5.4-4,8.1c-6.3,12.2-11.5,25.1-15.3,34.9c-4.4,11.4-6.8,23.2-7.1,35
	c-0.4-0.9-0.7-1.8-1.1-2.7c-0.5-1.3-1-2.7-1.6-4.1c-0.3-0.6-0.6-1.2-0.9-1.7c-1-1.8-1.8-3.4-0.9-5.2c0.4-0.7,0.7-1.4,1.1-2
	c0.8-1.5,1.6-2.8,2.1-4.8c0.6-2.5,1.1-5.1,1.6-8.4c1.8-13.1-1.5-26.1-4.6-36.1c-2.7-8.5-6.2-16.9-9.6-25c-1.4-3.4-2.9-7-4.3-10.5
	l-1.2-3c-2-5-4.1-10.3-6-15.5c-0.9-2.7-2-5.8-2.7-9.2c-0.3-1.7-0.7-3.2-2.3-4.7l-0.5-0.4l-0.3,0.6c-1.7,3.7-1.3,7.7-1,11.6
	c0.1,1.2,0.2,2.5,0.3,3.7l0.1,2.3c0.2,5,0.4,9.8-0.1,14.8c-0.2,1.8-0.3,3.6-0.5,5.4c-0.8,8.4-1.7,17.1-1.1,25.5
	c0.7,10,2.4,20.1,5.4,30.9c1.7,6.2,4.4,11.6,7.1,16.4c1.1,2,2.3,4.3,4.3,6.2c1.4,1.4,3,2.1,4.5,2.8c1.1,0.5,2.1,1,3.1,1.7
	c1.8,1.3,2.8,4.1,3.7,6.4c0.2,0.5,0.4,1.1,0.6,1.5l0.9,2.3c0.8,1.9,1.6,3.9,2.3,5.9c0,0.1,0.1,0.2,0.1,0.3c2.4,4.5,5.2,8.8,7,13.6
	c0.1,0.4-0.4,0.8-0.7,0.6c-2.9-2.2-5.4-4.8-8.2-7.1c-3.2-2.7-6.7-4.8-10.2-7c-2.8-1.8-5.1-4-7.6-6.3c-1.2-1.1-2.8-2.7-1.7-4.4
	c0-0.5,0.1-1.1,0.2-1.6c0.1-1.1,0.2-2.1,0.2-2.7c-0.2-1.5-0.7-3.1-1.2-4.7c-1.5-4.1-3.8-7.8-6.5-11.9c-4.6-6.9-10.2-13-16.8-18.2
	c-12.1-9.6-26.7-18.4-43.3-26.1c-1.8-0.8-3.7-1.6-5.5-2.4l-0.6-0.2c-0.4-0.2-0.9-0.4-1.5-0.7c-1.1-0.6-2.2-1.2-3.2-1.3
	c-0.5-0.1-1.9-0.2-2.4,0.7c-0.6,1.2,0.9,3.2,2.9,5.4c0.3,0.4,0.6,0.7,0.8,0.9c2.2,2.9,4.3,5.9,6.3,8.9c2.4,3.5,4.9,7.1,7.6,10.5
	c8.8,11.2,19.3,24.2,31.2,35.5c-10.9-2.5-21.7-4.4-32-5.7c-6.2-0.8-12.6-1.2-18.8-1.6c-5.5-0.4-11.2-0.7-16.7-1.4
	c-0.3,0-0.6-0.1-1-0.1c-1.7-0.3-3.8-0.6-4.9,0.5c-0.6,0.6-0.8,1.5-0.6,2.8c0,0.2,0,0.4,0.1,0.5c0,0.2,0.1,0.6,0.5,0.7
	c0,0,0.2,0,0.5,0.3c1.3,1.1,3.6,1.7,5.6,2.2c0.9,0.3,1.8,0.5,2.6,0.7c6.3,2.3,12.5,5.2,18.5,8c3.5,1.7,7.2,3.4,10.8,5
	c17.9,7.8,37.1,13.9,58.5,18.9c6.3,1.5,12.3,1.9,17.2,1.3c1.5-0.2,2.9-0.7,4.2-1.1c1-0.3,1.9-0.6,2.8-0.9c1.1-0.1,2.3,0,3.4-0.1
	c1.3,0.6,2.6,1.9,3.8,3.1c0.5,0.5,0.9,0.9,1.3,1.3c0.7,0.6,1.3,1.2,2,1.7c1.5,1.3,3,2.6,4.5,4c0.6,0.5,1.1,1,1.7,1.4
	c0.3,0.2,0.6,0.4,0.9,0.7c1.6,1.3,2.7,2.9,3.9,4.7c0.2,0.4,0.5,0.7,0.7,1.1c1.1,1.6,2.2,3.2,3.3,4.7c5.3,7.5,10.8,15.3,15.4,23.5
	c1.2,2.1,2.4,4.2,3.7,6.2c0.7,1.1,1.3,2.2,2,3.3c-0.6-0.5-1.3-1-1.8-1.5l-0.1-0.1c-4.9-3.9-10.7-6.7-16.3-9.4l-1.9-0.9
	c-13-6.4-27.5-11.3-43-14.7c-9.4-2.1-19.2-3.4-28.6-4.7c-3.5-0.5-7-1-10.5-1.5l-1.6-0.2c-2.8-0.4-5.8-0.9-8.7-1.2
	c-0.4,0-1.1-0.2-1.9-0.4c-3.3-0.8-6.1-1.3-7,0c-0.4,0.6-0.5,1.2-0.3,1.7c0.5,1.4,3,2.2,4.8,2.7c0.5,0.1,0.9,0.3,1.2,0.4
	c2.5,1,4.9,2.2,7.3,3.3c0.7,0.4,1.5,0.7,2.2,1.1c8.8,4.2,17.7,9,26.2,13.5c14.8,8,30.2,16.2,46.3,22c0.8,0.3,1.6,0.6,2.4,0.9
	c4.5,1.7,9.2,3.4,14,4.4c5.8,1.3,14.2,1.7,18.9-1.3c0.9-0.6,1.4-1.1,1.7-1.4c0.5-0.5,0.5-0.5,2.5,0.7c2.9,1.9,4.9,4.5,6.6,7
	c1.9,2.8,3.8,5.8,5.6,8.7c1.5,2.4,3.1,4.9,4.7,7.3c4.1,6.2,8.3,12.7,12.4,19.3c0.4,0.6,0.9,1.3,1.4,2c1.1,1.5,2.2,3,2.5,4.4
	c0,0,0,0.1,0,0.1c-0.1,0.4-0.2,0.9-0.2,1.8c-0.1,1.7,0,3.1,0.2,4.7c0,0.4,0.1,0.8,0.1,1.2c0.6,5.6-0.3,11.5-1.1,17.3
	c-0.2,1.7-0.5,3.5-0.7,5.2c-0.9,7.8-2,15.6-3.2,23.2c-1.3,8.6-3.5,17.2-5.5,25.6c-1.4,5.7-2.9,11.7-4.1,17.6
	c-0.7,3.5-1.1,6.8-1.5,10c-0.1,1.4-0.5,2.7-0.8,4c-0.3,1.4-0.7,2.8-0.8,4.4c-0.5,5.2-1.5,10-2.5,15.1c-0.4,2-0.8,4.1-1.2,6.2
	c-1,5.2-2.5,10.3-3.9,15.3c-0.7,2.2-1.3,4.5-2,6.8c-1.8,6.6-3.2,13.7-4.5,22.5c-0.1,1-0.3,1.9-0.4,2.9c-0.8,6.1-1.6,12.5-5.5,17.5
	c-1.4,1.8-3.4,5.1-1.7,8.1c1.2,2.1,4.4,2.9,7,3.6c0.7,0.2,1.4,0.4,1.9,0.5c1.1,0.4,2.2,0.6,3.2,0.9c2.1,0.5,4.1,1,5.9,2.1
	c0.2,0.2,0.5,0.3,0.8,0.5c1.3,0.9,2.7,1.9,4.1,1.9c0.2,0,0.3,0,0.5,0c0.8-0.1,1.6-0.7,2.2-1.6c1.2-1.7,1.2-4.1,1.2-6.4
	c0-1.1,0-2.2,0.2-3.1c0.4-2.2,1.1-4.4,1.8-6.5c0.5-1.4,1-2.9,1.3-4.3c1-3.7,1.7-7.4,2.4-11.1c0.6-3.1,1.2-6.2,2-9.3
	c0.9-3.7,2-7.2,2.9-10.1c0.8-2.4,1.1-5.1,1.4-7.7c0.2-1.2,0.3-2.5,0.5-3.7c0.3-1.7,0.6-3.4,0.8-5.1c0.9-5.5,1.8-11.1,3.2-16.5
	c0.4-1.6,0.9-3.2,1.3-4.8c0.4-1.4,0.8-2.9,1.2-4.3c0.4-1.7,0.9-3.5,1-5.3c0.1-0.8-0.1-1.7-0.2-2.6c-0.2-1.1-0.3-2.2,0-2.8
	c0.3-0.5,1.5-1.1,2.4-1.6c0.5-0.3,1-0.5,1.4-0.8c0.8-0.5,1.5-1.1,2.2-1.7c0.6-0.4,1.1-0.9,1.7-1.3c1.3-0.9,2.6-1.8,3.9-2.6
	c1.2-0.7,2.4-1.5,3.6-2.3c3.5-2.4,7.1-4.8,10.6-7.1c2.4-1.6,4.8-3.2,7.2-4.8c0.5-0.4,1-0.7,1.6-1.1c2.2-1.6,4.7-3.4,7.2-3.9
	c1.8-0.4,3.9,0.2,5.8,0.7c1,0.3,2.1,0.6,3.1,0.7c6.5,0.9,13.3,0.2,19.8-0.5l2.1-0.2c12.2-1.2,25-4.9,40.4-11.5
	c1.1-0.5,2.1-0.9,3.2-1.3c5-2.1,10.1-4.3,15-6.9c1.6-0.9,3.2-1.7,4.8-2.6c6.1-3.3,12.4-6.7,18.8-9.7c0.2-0.1,0.4-0.2,0.8-0.3
	C484.4,650.4,485.8,649.5,485.6,648.5z M372.5,187.6c0.3-0.8,0.6-1.6,0.7-2.2c1.3-4.3,3-8.6,5.2-13.3c3.7-8,8.8-15.4,13.6-22.5
	l1.5-2.2c11.4-16.7,21.9-29.7,32.9-40.7c-0.7,2.4-1.8,4.8-2.9,7.2c-0.8,1.9-1.7,3.8-2.4,5.7l-0.7,2.1c-0.9,2.5-1.7,5-2.6,7.4
	c-4.5,12.7-8.5,23-12.5,32.4c-4.5,10.6-9.6,22.6-19.7,31.5c-3.4,3-12.1,9.2-13.2,8.1c-0.3-0.7,1.5-4.5,5.4-11.3
	c0.5-0.8,0.8-1.4,1-1.7c2.9-5.5,6-11,9.1-16.3c2.9-5.1,5.9-10.3,8.7-15.6c1.6-3.1,3.5-6.1,5.3-9c1.5-2.3,3-4.7,4.3-7.1
	c0.6-1.1,1.2-2.1,1.8-3.2c1-1.9,2.1-3.8,3.2-5.7c0.2-0.3,0.5-0.7,0.8-1.1c1.2-1.7,2.8-4,1.7-5.9l-0.1-0.1c-0.2-0.1-0.3-0.1-0.5-0.1
	l-0.1,0.1c-1.2,0.8-1.9,1.9-2.5,3c-0.2,0.2-0.3,0.5-0.5,0.7l-0.7,1c-2.1,3.2-4.3,6.6-6.3,10c-1.2,2.1-2.5,4.1-3.7,6.2
	c-2,3.4-4.2,6.8-6.1,10.3c-1.9,3.5-4,7.1-5.9,10.5c-2,3.4-4,7-5.9,10.5c-1.5,2.7-2.9,5.6-4.3,8.3c-2.1,4.2-4.3,8.6-6.8,12.7
	C370,194.7,371.5,190.5,372.5,187.6z M430.7,199.2c-11,13.2-21.4,24.6-32,34.6c-7.4,7-14.3,12.8-21.1,17.7
	c-3.5,2.5-7.6,4.7-12.1,6.4c-0.5,0.2-1.2,0.5-1.8,0.8c-2.5,1.1-5.9,2.5-8.2,2c0.2-0.5,0.5-0.9,0.8-1.3l0,0c4-5,9.1-9.3,14-13.4
	c1.7-1.4,3.5-2.9,5.2-4.4c3.9-3.4,8.1-6.6,12.1-9.6c3-2.3,6.1-4.7,9.1-7.1c4.5-3.7,9.3-7.6,14.3-11.5c3.8-2.9,7.8-5.7,11.3-8
	c1.6-1.1,3.2-2.3,4.7-3.5C428.2,201,429.4,200.1,430.7,199.2z M356.4,246.7c2.1-3.4,4.3-7,7.1-10c5.1-5.3,11.4-9.7,17.5-14
	c1.5-1,2.9-2.1,4.4-3.1c5.1-3.7,10.3-6.3,15.9-9.2c2.7-1.4,5.5-2.8,8.3-4.4c4.9-2.8,10.2-5.2,15.2-7.5c0.8-0.4,1.7-0.8,2.5-1.1
	c-0.5,0.4-0.9,0.8-1.3,1.1c-3.1,2.9-6.7,5.2-10.3,7.6c-2.9,1.9-5.8,3.8-8.5,6l-2.1,1.7c-6.1,5-12.4,10.2-18.9,15
	c-6.2,4.5-12,9.6-16.3,13.5c-1.7,1.6-3.6,3-5.3,4.5c-1,0.8-1.9,1.6-2.9,2.4c-1.4,1.1-2.6,2.6-3.9,3.9c-1.6,1.8-3.3,3.7-5.2,4.9
	C351.7,256.4,353,252.3,356.4,246.7z M232.1,446.6c-0.1,0-0.1,0-0.1,0c-0.7-0.4-1.7-3.9-2.1-5.4c-0.2-0.6-0.3-1.1-0.4-1.4
	c-1.3-3.7-2-7.5-2.5-12.4c-1.2-13.4-2.8-29.3-6.4-44.7c-0.1-0.2-0.1-0.6-0.2-1.1c-0.5-3-1.1-6-2.6-6.5c-0.6-0.2-1.1-0.2-1.4,0.2
	c-0.6,0.6-0.3,1.9,0,3.2l0.1,0.2c1.7,6.1,3.1,13,4.1,21l0.3,2.5c1,7.2,2,14.7,2.5,22.1c0.3,4.5,0.8,9.2,2,13.9
	c0.3,1.1,0.8,2.3,1.4,3.6c0.9,2.2,1.9,4.4,1.9,6.3c-4.7-0.4-9.4-7-13.8-19.4c-3.2-9.1-5.4-18.6-6.3-27.6c-0.9-9.4-0.5-18.4,0.1-26
	c0.2-2.3,0.4-4.6,0.7-6.8c0.3-3,0.7-6.1,0.8-9.2c0.1-2.5,0.1-5.1,0-7.5c-0.1-2-0.1-4-0.1-6.1c0.9,2.4,1.8,4.8,2.7,7.2
	c3.8,10,7.8,20.3,12.1,30.2l0,0c7.4,17.1,10.9,30.7,10.9,43C236.1,429,234.2,445.4,232.1,446.6z M183.1,444.9
	c-4-3.9-7.7-7.4-10.9-11.4c-1.2-1.5-2.4-3.1-3.6-4.6c-1.8-2.4-3.6-4.9-5.7-7l0,0c-4.1-4.1-8-9-12.2-14.9c-1-1.4-2.1-2.8-3.2-4.3
	c-2.4-3-4.8-6.1-6.3-9.3c3.9,0.8,8.2,3.2,12,5.4c1.3,0.7,2.4,1.4,3.6,2c5.7,3,11.8,6.5,19.6,11.3c14.1,8.6,24.8,19.2,32.6,32.3
	c0.9,1.6,2,3.5,2.7,5.7c0.1,0.2,0.1,0.4,0.3,0.7c0.4,1,1.4,3.9,1,4.6c-0.1,0.1-0.2,0.2-0.2,0.2c-0.4,0-1.1-1-1.6-1.5
	c-0.2-0.3-0.4-0.6-0.6-0.8c-1.1-1.2-2.1-2.4-3.2-3.5c-3.4-3.9-7-7.8-10.6-11.5c-5.1-5.1-10.7-10.5-16.7-14.9
	c-0.2-0.1-0.4-0.3-0.7-0.6c-2.1-1.8-4.3-3.5-5.6-2.7c-0.5,0.3-0.6,0.7-0.6,1c0,0.9,1.2,1.8,2.5,2.6c0.2,0.1,0.4,0.2,0.5,0.3
	c6.5,4.9,12.6,10.3,18.1,16.2c1.4,1.4,2.7,3,4,4.5c1,1.2,2.1,2.5,3.2,3.7c0.7,0.8,1.5,1.5,2.3,2.3c2,1.9,4,3.9,5.1,6
	c-8.8,4.4-18.8-5.2-24.8-11L183.1,444.9z M229.7,477.1c-0.3,1.1-3.9,2-9,2.2c-2.9,0.1-6-0.1-9.5-0.6c-5.1-0.8-10.3-2.1-15.4-3.4
	c-1.9-0.5-3.9-1-5.8-1.5c-14.8-3.6-29-9.7-41.6-15.1h0c-3.8-1.6-7.6-3.4-11.2-5.1c-7-3.3-14.1-6.7-21.7-9.1c2.5-0.1,5.3,0.2,7.9,0.5
	c1.3,0.2,2.6,0.3,3.8,0.4c1.8,0.1,3.6,0.3,5.3,0.4c3.1,0.2,6.4,0.4,9.6,0.7c9.4,0.9,19.1,2.5,30.4,4.8c1.3,0.3,2.6,0.5,3.9,0.8
	c3.2,0.6,6.6,1.2,9.7,2.2c2.2,0.7,4.2,1.8,6,3c1.8,1.1,3.6,2.1,5.6,2.9c2.1,0.7,4.3,0.9,6.2,1c0.8,0.1,1.7,0,2.5-0.1
	c1.2-0.1,2.2-0.2,3.2,0c1.2,0.3,2.6,1.8,3.8,2.9c0.4,0.4,0.8,0.8,1.2,1.1c0.6,0.5,1.1,1,1.7,1.5c0.6,0.5,1.2,1.1,1.9,1.6
	c-10-3.1-20.3-5.6-30-7.9c-4.9-1.1-9.9-1.9-14.8-2.7l-2.6-0.4c-0.9-0.2-1.9-0.4-3-0.6c-3.1-0.7-6.6-1.5-9.5-0.6
	c-0.6,1.3,1.8,1.9,3,2.2c1.7,0.5,3.5,0.8,5.2,1.1c3.1,0.6,6.3,1,9.4,1.8c6.4,1.1,12.5,2.4,18.7,3.8c7,1.7,14.4,3.5,21.5,6
	c1.6,0.6,3.2,1.4,4.6,2.2c1.2,0.7,2.4,1.3,3.7,1.9c0.3,0.1,0.9,0.2,1.5,0.4c1.2,0.2,3,0.6,3.5,1.3
	C229.7,476.7,229.8,476.9,229.7,477.1z M243.6,472.7c-1.4-3.1-1.4-9-1.4-11.8v-0.1c0-5.2,0.7-10.7,2.1-15.7
	c2.6-9.9,6-19.4,10.2-29.2c3.8-8.8,8.1-17.6,12.3-26c0.8-1.7,1.7-3.4,2.5-5.1c4.2-8.4,7.8-15.1,12.4-21.5c-1.6,4-3.5,8-5.4,11.9
	c-2.3,4.8-4.7,9.9-6.6,15c-2,5.4-4.3,10.8-6.5,16.1c-1.3,3.1-2.7,6.3-4,9.5C251.2,435.9,246,454.5,243.6,472.7z M246.6,476.8
	c-0.2-1.2,0.1-3,0.5-4.5c0.1-0.6,0.2-1.1,0.3-1.6c0.1-0.9,0.3-1.9,0.5-2.8c0.3-1.6,0.5-3.2,0.8-4.9c0.6-5,1.6-9.9,3-15.2
	c2.6-9.6,6-19.4,10.9-31.7c1.3-3.3,2.7-6.7,4.1-10c1.7-4,3.4-8.2,5-12.3c2.7-6.7,5.8-13.4,8.8-19.8c1.4-3.1,2.9-6.2,4.3-9.4
	c0.1,10.8-1.5,23.4-4.7,37.5c-2.6,11.7-6.5,23.3-10.3,34.5l-0.6,1.8c-2.5,7.5-4.9,14.3-8.2,20.9l-0.2,0.3
	C258.5,464.2,252.6,476.2,246.6,476.8z M276.2,547.2c-0.4,0.6-2.4,1.4-9.1,1.3l-0.3,0c-6.9,0-14-2.6-20.8-5.1
	c-1.1-0.4-2.1-0.8-3.2-1.2c-6.4-2.3-12.7-5.4-18.8-8.5l-0.4-0.2c-2.9-1.5-6-2.9-8.9-4.3c-4.8-2.3-9.7-4.7-14.5-7.2
	c-2.7-1.4-5.4-2.9-8.1-4.4c-4.8-2.6-9.7-5.4-14.7-7.8c1,0.3,2.2,0.7,3.1,1c0.8,0.3,1.5,0.5,2,0.7c2.1,0.5,4.4,1.2,6.7,1.9
	c2.2,0.7,4.3,1.4,6.5,2.2c4.6,1.5,9.4,3.1,14.2,4.4c13.5,3.5,26.7,9.2,39.6,14.7l3,1.3c2.7,1.2,5.6,2.2,8.3,3.3
	c2.9,1.1,5.9,2.2,8.7,3.5l0.2,0.1c1.6,0.7,3.2,1.4,4.7,2.3c0.2,0.1,0.4,0.2,0.5,0.3c0.7,0.4,1.3,0.8,1.4,1.1
	C276.4,546.8,276.3,547,276.2,547.2z M277.5,543L277.5,543c-0.7,0-2.2-0.9-3.3-1.5c-0.6-0.4-1.2-0.7-1.7-0.9
	c-1.8-0.8-3.6-1.5-5.4-2.1c-3.4-1.3-6.9-2.7-10.2-4.1c-2.9-1.2-5.9-2.4-8.8-3.6c-2.8-1.1-5.5-2.2-8.2-3.3
	c-10.2-4.1-20.7-8.3-31.6-11.2c-4.5-1.2-8.9-2.7-13.1-4.2c-1.9-0.7-3.7-1.3-5.6-1.9c-2.3-0.8-4.7-1.4-7.1-2.1c-1-0.3-2-0.5-3-0.8
	c-0.9-0.3-1.9-0.4-3-0.6c0.9,0.1,1.9,0.2,2.8,0.4c22.5,3,45.8,6,66.7,15.2c5.3,2.3,12.2,5.4,18.7,9c0.4,0.2,0.9,0.5,1.4,0.8
	c4.5,2.4,11.2,5.9,11.5,10.9c0,0.1,0,0.3,0,0.4C277.7,543,277.6,543,277.5,543z M356.5,514.8c10.1,2,20.8,5.7,30.3,10.5
	c6.1,3.1,12.6,5.7,18.8,8.3c4.2,1.7,8.5,3.5,12.7,5.3c4.7,2.1,9.2,4.7,13.6,7.1l1.6,0.9c0.6,0.4,1.3,0.7,1.9,1.1
	c2.1,1.1,4.3,2.3,6.1,3.8c-4,0.3-8.3-0.2-12.6-0.7c-1.1-0.1-2.3-0.2-3.3-0.3c-5.6-0.5-11.3-1.2-16.8-1.8l-0.9-0.1
	c-8.2-0.9-16.3-2.5-24.2-4.1c-4.8-0.9-9.7-1.9-14.6-2.7c-8.1-1.3-16.7-4.6-24.9-9.5c-5.2-3.1-8.8-5.8-11.6-9
	c-0.1-0.1-0.2-0.2-0.3-0.3c-1.7-1.8-2.1-2.4-2.1-2.7c0-0.3,0.2-0.5,0.3-0.5c0.5-0.3,2,0.2,2.9,0.5c0.4,0.1,0.7,0.3,1,0.4
	c5.5,1.6,11.1,3.6,16.4,5.5c4.3,1.5,8.8,3.1,13.2,4.5c4.2,1.3,8.7,2.8,13.3,4.4c0.4,0.1,1,0.4,1.7,0.8c3,1.4,7.5,3.5,9.1,1.8
	c0-0.4-0.2-0.8-0.4-1.3c-10.5-5.2-21.8-8.8-32.8-12.2c-8.1-2.6-16.5-5.2-24.5-8.5c0.6-0.8,4-1.9,10.1-2.4
	C345.1,513.2,350.4,513.6,356.5,514.8z M357.8,473.8c2.1-2.1,4.4-4.1,6.6-5.9c1.9-1.7,4-3.4,5.8-5.2c1.8-1.7,3.5-3.7,5.1-5.5
	c1.6-1.9,3.3-3.8,5.2-5.6c-0.3,0.9-0.8,1.8-1.1,2.5c-0.2,0.5-0.4,0.9-0.6,1.3c-1.3,3-2.6,5.7-4,8.2c-3.5,6.1-6.3,11.1-8.9,15.5
	c-1.3,2.2-2.6,4.5-3.8,6.7c-4.7,8.3-9.5,16.9-16.7,23.3c-1.4,1.2-5.1,1.9-7.2,1.6c1.4-2.5,3.9-4.9,6.3-7.2c1.2-1.2,2.3-2.2,3.3-3.3
	c0.4-0.5,0.8-0.9,1.2-1.3c2.6-2.8,5-5.4,6.3-9c-0.3-0.3-0.5-0.5-0.9-0.7c-3.5,3.7-7.2,7.6-10.9,11.4c-0.9,0.9-1.9,1.9-2.8,2.8
	c-1.3,1.3-2.5,2.5-3.8,3.8c-0.5,0.5-1,1.1-1.4,1.6c-1,1.2-1.9,2.3-3.2,2.9c-0.7,0.4-2.6,1.1-3.1,1.1c-0.6-0.6,0.1-4.2,0.8-5.8
	c1.6-4,4.7-7.4,7.7-10.7c0.8-0.9,1.6-1.8,2.4-2.7c0.9-1.1,1.9-2.2,2.8-3.3C347.5,484.9,352.5,479.1,357.8,473.8z M349.3,372.7
	c0,0.4,0.1,0.9,0.2,1.4c0.3,1.6,0.6,3.6-0.2,4.8c-0.9,1.2-2,1.1-3.8,0.8c-0.4-0.1-0.7-0.1-1.1-0.2c-0.8-0.1-1.9-0.2-3-0.2
	c-3.6-0.1-8.4-0.3-9.9-2.8c0.1-4.7,0.8-9,1.5-13.6c0.3-1.9,0.6-3.8,0.9-5.8c0.1-1.1,0.2-2.1,0.3-3.2c0.1-0.9,0.1-1.7,0.2-2.6
	c0-0.2,0-0.5,0.1-0.7c0-0.6,0.1-1.2,0.3-1.6c0.1-0.2,0.4-0.8,0.4-0.8c0,0,0.1,0,0.1,0c0.2,0,0.6,0,1.1-0.1c4.5-1.2,8.6-2.9,12.2-5.1
	c0,1.2,0,2.5,0,3.7C348.4,355.2,348.3,364.1,349.3,372.7z M361.8,297.2c6.8-6.8,14.9-14.8,23.9-22.3c3.3-2.8,6.6-5.6,9.7-8.8
	l0.1-0.1c2.8-3,6.2-6.6,9.7-8.9c-2.6,4.3-5.1,8.7-7.6,13c-6,10.4-12.2,21.2-19.1,31.3c-1.7,2.6-3.5,5.2-5.1,7.8
	c-3.1,4.8-6.3,9.8-9.8,14.3l-0.3,0.4c-4.5,5.9-10.2,13.3-17.1,16.6c-0.5,0.3-1.2,0.6-1.9,1.1c-2.1,1.2-5.3,3-7.1,2.9
	c3.4-9.3,10.7-17.4,17.8-25.3c2.1-2.4,4.1-4.6,6-6.8c3.7-4.4,7.3-9.1,10.8-13.5c2-2.6,4-5.2,6.1-7.8c0-0.4-0.2-0.8-0.4-1.2
	c-2.6-0.6-5.9,3.8-9.2,8.3c-0.5,0.8-1,1.4-1.3,1.8c-2.3,2.8-4.6,5.5-6.8,8.3c-1.5,1.8-2.9,3.6-4.4,5.3l-0.3,0.3
	c-7.5,9.2-14.7,17.9-21.1,27.6c-0.3-0.2-0.4-0.5-0.6-0.9c-1.1-3,1.8-10.3,3-12.9c2.3-4.8,5.6-9.1,8.6-12.7
	C349.9,309.7,354.9,304.2,361.8,297.2z M347.3,291.2l0.1,0.8c0.2,2.7,0.4,5.5,0.4,8.3c0,0.4,0.1,1,0.1,1.7c0.2,1.7,0.4,5-0.3,5.7
	l-1.2,1.3c-1.3,1.5-2.7,3-4.1,4.5c-0.4,0.4-0.8,1-1.2,1.7c-0.5,0.8-1,1.7-1.6,2.2c0.1-1.7,0.6-3.6,1.1-5.5c0.2-1,0.5-1.9,0.7-2.7
	c0.4-1.9,0.7-3.8,1-5.7c0.4-2.4,0.7-5,1.3-7.4c0.8-3.1,1.4-6.4,2-9.5c0.4-2.2,0.9-4.5,1.4-6.7C347.1,283.7,347.1,287.5,347.3,291.2z
	 M347.2,129.2c0,1.2-0.7,2.5-1.4,3.9c-0.6,1.2-1.3,2.5-1.5,3.9c-0.5,4-0.1,8,0.3,12c0.2,2.3,0.5,4.7,0.5,7c0.1,4.7,0.3,9.5,0.6,14.1
	c0.1,2.3,0.2,4.6,0.3,7c0.6,14.5,1,28.6,1.5,44.3c0.2,7.2,0.4,13.7,1.1,20.3c0.1,0.5,0.2,1.2,0.3,2.1c0.5,3.4,1.5,10,0.1,12.7
	c-2.4-20.9-9.3-40.8-16.3-59.3c-0.5-1.3-1.1-2.6-1.6-3.8c-1.4-3-2.8-6.2-3-9.3c-0.1-1.5-0.1-3-0.2-4.4c-0.2-4.1-0.4-8.3-0.5-12.5
	c0-1.6-0.1-3.2-0.1-4.8c-0.2-9.8-0.3-19-1.9-28.7c-0.2-1.3-0.1-2.2,0.4-2.8c0.8-1.1,2.7-1.3,4.9-1.5l1.8-0.2c3.5-0.4,7-0.8,10.5-1.2
	l0.3,0c1.2-0.1,2.7-0.3,3.4,0.3C347,128.1,347.1,128.5,347.2,129.2z M323.6,71.5c-0.9-7-1.9-14.1-2.9-20.9c-0.5-3.4-1-6.9-1.5-10.3
	c-0.2-1.1-0.5-2.2-0.8-3.2c-0.4-1.2-0.7-2.2-0.8-3.4c-0.2-2.3,0.8-2.9,3.2-3.7c2.2-0.8,4.8-1,7.4-1c1.6,0,3.2,0.1,4.7,0.2
	c0.4,0,0.9,0,1.3,0.1c-0.4,5.2-0.1,9.1,1,13.8c0.9,3.7,1.5,7.6,2,11.3c0.2,1.1,0.3,2.2,0.5,3.3c1.3,8.9,2.2,18.1,3,26.9
	c0.2,1.7,0.3,3.4,0.5,5.1c0.1,1.5,0.2,3,0.4,4.6c0.3,3.9,0.5,7.8,1.4,11.7c0.3,1.3,0.7,2.7,1.2,4.1c1.1,3.6,2.3,7.4,1.5,10.9
	c-0.7,2.8-3.4,2.9-6.2,3c-0.7,0-1.5,0-2.2,0.1c-0.7,0.1-1.6,0.2-2.5,0.4c-3.9,0.7-8.8,1.5-9.9-2c-0.7-2.1-0.2-4.4,0.2-6.6
	c0.2-0.9,0.4-1.8,0.5-2.7c0.3-2.6,0.4-5.3,0.5-7.9c0-1.5,0.1-2.9,0.2-4.4c0.5-7.4-0.6-15.2-1.7-22.7
	C324.2,75.9,323.9,73.7,323.6,71.5z M323.2,234.4c-2.6-15.4-3.2-30.1-3.6-47.9c-0.1-3.7-0.1-7.4,0-10.9c3.2,5.8,5.8,12.2,8.3,18.4
	c3.2,7.9,6.8,17.1,9.6,26.3c3,9.9,5.3,18.3,6.8,26.9c1,5.5,1.5,10.1,1.6,14.6c0,0.6,0.1,1.2,0.1,1.9c0.2,2.6,0.3,5.5-0.8,7.6
	c-1.2-1.7-2.1-4.6-2.9-7c-0.3-1-0.6-1.9-0.9-2.7c-0.7-1.9-1.5-3.9-2.2-5.9c-0.7-1.9-1.4-3.9-2.1-5.8c-0.4-1.1-0.8-2.1-1.2-3.2
	c-1.7-4.3-3.4-8.7-4.6-13.2c-0.1-0.5-0.3-1.1-0.4-1.7c-0.6-2.5-1.2-5.4-2.8-7.3c-0.1,0-0.2,0.1-0.2,0.1c-0.5,0.2-1.1,0.3-1.3,0.9
	c-0.3,2.3,0.4,4.9,1,7.2c0.2,1,0.5,1.9,0.6,2.7c0.6,3.3,1.9,6.3,3.1,9.3c0.8,1.9,1.6,4,2.3,6c1.4,4.6,3,9.5,5,14.1
	c0.4,0.8,0.9,1.8,1.4,2.8c1.2,2.2,2.6,4.8,2.7,6.8c-0.1,0-0.2,0-0.3,0c-0.7-0.1-2.5-0.9-6.4-5.6l-0.1-0.1c-2-2.4-3.2-5.4-4.5-8.3
	c-0.4-0.9-0.8-1.8-1.2-2.7C327,251.5,324.8,243.9,323.2,234.4z M331.1,276.1c-0.2-1-0.6-2.3-1-3.7c-0.9-2.9-2-6.5-1.5-8.9
	c4.6,10.2,10,15.1,15.6,14.3c0.1,1.1-0.4,2.7-0.8,3.9c-0.2,0.6-0.4,1.1-0.5,1.6l-0.3,1.3c-0.5,2-0.9,4-1.4,6
	c-0.4,1.4-0.7,2.9-1.1,4.3c-0.5,2.1-1.1,4.2-1.6,6.4c-1,4.4-2,8.9-2.9,13.3c-0.4,1.9-0.8,3.9-1.3,5.8c0-0.2,0-0.5,0-0.7
	C334,305.2,333.8,290.3,331.1,276.1z M327.1,470.6c0.1-1.6,0.5-3.3,0.9-5c0.3-1.3,0.7-2.7,0.8-4c0.1-1.1,0.3-2.1,0.5-3.2
	c0.4-2,0.7-4.2,0.8-6.3c0.1-6.5,0.3-13.6,0.7-22.4c0.1-1.9,0.2-3.7,0.2-5.6c0.3-7,0.7-14.2,0.5-21.3c0-1.1,0-2.3,0-3.4
	c0-3.2-0.1-6.5-0.3-9.7c0-0.6-0.2-1.3-0.3-2c-0.4-2-0.8-4.4,0.5-5.3c1.2-0.8,4.3-0.4,6.4-0.1c0.5,0.1,1,0.1,1.4,0.2
	c0.4,0,0.9,0.1,1.4,0.1c2.5,0.2,7.1,0.5,8.4,1.8c1.1,1,0.4,2.6-0.5,4.7c-0.3,0.6-0.6,1.2-0.7,1.8c-0.9,2.8-1,5.8-1,8.6
	c0,1,0,1.9-0.1,2.9c-0.2,3.3-0.4,6.6-0.7,9.8c-0.4,5.1-0.8,10.5-0.9,15.7c-0.1,3.9-0.1,7.8-0.1,11.6c0,4.4,0,8.9-0.1,13.4
	c-0.1,4.3-0.3,9-0.5,13.6c0,0.3,0,0.6,0,1c0,0.6,0,1.1-0.1,1.7c0.1,1.4,0.3,2.8,0.5,4.2c0.1,0.6,0.2,1.3,0.1,1.9
	c-0.2,1.3-1.1,1.6-2.1,1.2c-1.1,0.1-3.6,0-8.8-1c-0.6-0.1-1.2-0.2-1.5-0.3l-0.6-0.1C328.4,474.6,326.9,474.4,327.1,470.6z
	 M327.1,480.2c0.5-1.4,2.6-2,5.2-2c1.6,0,3.5,0.3,5.2,0.7c3.1,0.9,6.7,2.7,6.4,5.1c-1.6,1.8-3.3,3.7-4.9,5.5
	c-3.7,4.1-7.6,8.2-10.5,12.8c0.1-4.4,0-8.8-0.2-13.2c0-0.9-0.3-2-0.6-3.3C327.2,483.8,326.6,481.5,327.1,480.2z M324.6,573
	c0.4-3.5,0.7-7.1,0.9-10.6c0.1-2.2,0.3-4.4,0.5-6.6c0.4-4.7,0.5-9.3,0.5-13.8c0-1.2,0-2.5,0-3.7c0-2.3,0.3-4.7,0.5-6.9
	c0.1-0.7,0.1-1.4,0.2-2.1c0-0.3,0-0.7,0-1.3c0-1,0.1-3.7,0.4-4.7c2.5,2.7,4.9,5.3,7.8,7.6c1.3,0.9,2.6,1.8,3.8,2.7
	c0.4,0.2,0.7,0.4,0.9,0.6c1,0.6,1,0.6,0.9,2.1l0,0.7c-0.5,10.7-1.3,21.3-2.1,31h0c-0.1,1.4-0.2,2.8-0.4,4.2
	c-0.4,4.3-0.8,8.8-0.8,13.2c0,0.5,0.1,1.5,0.2,2.7c0.3,3,0.9,9.1-0.4,10c-0.6,0.4-1.5,0.2-2.4,0c-0.4-0.1-0.8-0.2-1.2-0.2
	c-2.1-0.2-4-0.4-6.4-0.8c-0.4-0.1-0.9-0.1-1.6-0.2c-1.6-0.1-3.8-0.3-4.6-1c-1.3-1.1-0.9-3.2-0.5-5c0.1-0.2,0.1-0.5,0.1-0.7
	c0.4-2.1,0.9-4.2,1.3-6.2C323.3,580.2,324.1,576.6,324.6,573z M298.4,434c0.1-4.2,0.3-8.5,0.1-12.8v0c0,0,0,0,0,0
	c1,5,1.9,10.1,2.7,15.1c0.7,3.9,1.3,7.9,2.1,11.9c0.8,4,1.6,8.1,2.4,12c1.4,6.8,2.8,13.8,4,20.8c0.8,5.1,1.5,10.3,2.2,15.3
	c0.7,5.1,1.5,10.4,2.3,15.6c0.2,1,0.3,2.1,0.5,3.1c0.7,4,1.4,8.2,1.6,12.4c0,0.5,0.1,1.1,0.1,1.7c0.3,4.2,0.7,10.5-2.8,12.6
	c-0.6-0.8-0.8-3.2-0.9-4.5c-0.1-0.6-0.1-1.2-0.2-1.5c-0.5-2.8-1.1-5.5-1.7-8.2c-0.9-4.2-1.9-9.2-2.6-14.3c-1.3-9.1-2.5-18-4.1-26.9
	l-0.3-1.6c-1.8-10-3.7-20.4-5.1-30.7C297.9,447.2,298.2,440.5,298.4,434z M306.3,542.3c-1-0.8-1.7-1.9-2.4-3l-0.2-0.3
	c-2.1-3.3-3.8-7-5.2-11.3c-4.4-13.3-6.6-29.7-6.6-50c0-2.7,0-5.4-0.1-8.2c-0.2-15.1-0.4-30.7,3.7-44.9c0.2,1.7,0,3.8-0.2,5.8
	c-0.2,1.6-0.3,3.1-0.3,4.3v0c0.1,2.5,0.1,5.1,0.2,7.5c0.1,5.2,0.1,10.5,0.9,15.9l0,0.2c1.2,7.6,2.4,15.4,3.8,23
	c2,10.1,3.5,20.4,5,30.3c0.3,2.3,0.7,4.6,1,6.9c0.5,3.5,1.3,7.1,2,10.5l0.9,4.2c0.2,1.2,0.5,2.4,0.7,3.5c0,0.2,0.1,0.6,0.2,1.1
	c0.8,3.4,1.1,5.3,0.7,5.7C310,544.2,307.3,543,306.3,542.3z M315.9,586.6c-0.8-1.5-1.6-3.1-2.5-4.5c-0.6-1-1.4-1.9-2.2-2.9
	c-1.2-1.4-2.4-2.9-3-4.6c-1.7-5.6,0-11.2,1.7-16.6l0.7-2.3c0.7-2.2,1.3-4.4,2.2-6.6c0.6-1.7,1.6-2.7,2.7-3.7
	c0.7-0.7,1.5-1.5,2.2-2.5c1-1.4,1.2-3,1.5-4.5c0.1-0.5,0.2-1.1,0.3-1.6c0.5-2.6,2-4.7,3.5-6.9c0.2-0.3,0.4-0.5,0.6-0.8
	c-0.5,5.3-0.6,10.7-0.7,16c-0.1,4.6-0.2,9.4-0.6,14c-0.1,1.3-0.2,2.6-0.3,3.9c-0.3,3.9-0.6,7.8-1.1,11.7c-0.3,2.7-1.2,5.3-2,7.8
	c-0.6,2-1.3,4.2-1.7,6.3C316.7,588.2,316.3,587.4,315.9,586.6z M318.9,725.4c-1.3,5.6-2.6,11.4-3.6,17.2l-0.5,3.2
	c-1.1,6.9-2.3,14-4.3,20.8c-1.2,3.9-1.9,7.9-2.7,11.8c-0.6,3.1-1.2,6.3-2,9.4c-1.1,4.4-2.3,8.5-3.4,12.7c-0.5,1.6-0.8,3.3-1.2,4.9
	l-0.3,1.3c-0.1,0.3-0.1,0.8-0.2,1.4c-0.1,1.1-0.4,3.4-0.8,3.8c-0.6,0.6-3.3-0.8-4.9-1.7c-1.1-0.6-2-1.1-2.6-1.3
	c-0.9-0.3-2-0.5-3.2-0.7c-2.7-0.5-5.8-1.1-7.5-2.4c-1.9-1.5-0.8-3.3,0.9-5.8c0.4-0.5,0.7-1,1-1.5c2-3.3,2.5-7.1,3-10.8
	c0.1-0.5,0.1-1.1,0.2-1.6c1.4-9.5,2.9-19.3,5.4-28.8c0.7-2.6,1.4-5.2,2.2-7.8c1.6-5.5,3.2-11.1,4.5-16.8c1.2-5.4,2.2-9.9,3-14.2
	c0.1-0.6,0.2-1.4,0.3-2.3c0.2-2.6,0.7-7,2.1-7.9c0.3-0.1,0.6-0.2,0.9-0.2c0.9,0,2.1,0.4,3,0.8c0.3,0.1,0.6,0.2,0.9,0.3
	c1.1,0.3,2.2,0.5,3.2,0.7c1,0.2,1.9,0.3,2.9,0.6c2.5,0.8,5.8,3.5,5.7,6.2C320.2,719.7,319.5,722.6,318.9,725.4z M323.7,686.3
	c-0.6,4.5-0.8,9.3-0.7,12.7c0,0.3,0,0.6,0,1c0.1,2.4,0.3,6.4-1.5,7.7c-1.7,1.2-6.1-0.4-8.7-1.3c-0.7-0.2-1.3-0.5-1.8-0.6
	c-0.6-0.2-1.4-0.3-2-0.5c-3.2-0.7-5.1-1.3-4.7-4.3c0.8-5.7,2.2-11.5,3.6-17.1c0.8-3.2,1.6-6.4,2.2-9.6c0.6-2.9,1.3-5.8,2-8.7
	c1.4-6,2.8-12.2,3.7-18.5c0.4-3.3,1-6.6,1.4-9.8c0.9-6,1.9-12.2,2.5-18.3c0.1-1,0.2-2.1,0.4-3.2c0.4-3.3,0.8-6.8,0.6-10.1
	c0-0.6-0.1-1.1-0.1-1.6c-0.2-1.5-0.3-2.7,0.3-3.4c0.4-0.5,1.2-0.7,2.6-0.7c4.5-0.1,9,0.5,12,1.5c0.9,0.3,1.5,0.8,1.8,1.4
	c0.5,1.1-0.1,2.8-0.8,4.4c-2.4,5.7-2.9,12-3.4,18c-0.2,2.9-0.5,5.8-0.9,8.7c-0.6,4.1-1.2,8.3-1.7,12.3c-0.6,4.7-1.3,9.6-2.1,14.3
	c-0.6,3.4-1.3,6.9-1.9,10.3C325.3,676,324.3,681.1,323.7,686.3z M392.1,642.5c0.6-1.3,1.3-2.5,1.9-3.8c2.8-5.7,5.7-11.6,9.3-16.8
	c3.3-4.8,6.4-9.8,9.5-14.6c3.5-5.5,7.1-11.3,10.9-16.7c-0.8,7.2-2.5,14.2-4.1,21.1c-1.2,5.1-2.4,10.3-3.3,15.6
	c-0.3,2-0.6,4.2-0.9,6.2c-0.7,5.2-1.5,10.5-3.1,15.4c-0.1,0.3-0.2,0.6-0.3,0.9c-0.7,2.3-1.7,5.4-3.5,6.5c-1.2,0.8-3,1.1-4.8,1.4
	c-0.8,0.1-1.6,0.3-2.3,0.4c-0.1-1.5,0.5-2.8,1.1-4.2c0.2-0.5,0.4-0.9,0.6-1.4c1.2-2.9,2.1-6,3-9l0.2-0.8c0.2-0.8,0.5-1.5,0.7-2.2
	c1.3-4.1,2.5-7.9,2.5-12.2c-0.3-0.3-0.7-0.4-1.2-0.3c-0.7,2-1.3,3.9-1.9,5.9c-1.5,4.6-3,9.3-4.8,13.8c-0.6,1.6-1.3,3.1-2.1,4.6
	c-0.4,0.8-0.7,1.5-1.1,2.3c-0.3,0.6-0.5,1.2-0.7,1.8c-0.5,1.5-1.1,3-2.2,3.8c-1.1,0.8-2.7,1.3-4.3,1.8c-0.9,0.3-1.8,0.6-2.6,0.9
	c-0.6,0.3-1.2,0.5-1.9,0.8c-1.1,0.5-2.3,1-3.5,1.5C385,657.3,388.8,648.9,392.1,642.5z M459.5,659.5l-4.3,2.3
	c-4.2,2.2-8.5,4.1-12.7,5.9c-3,1.3-6.1,2.7-9.1,4.1c-9.8,4.7-21.6,8.1-33.2,9.7c-4.4,0.6-9.3,1-15,1.2c-0.6,0-1.2,0.1-1.9,0.1
	c-4.3,0.2-10,0.5-13.5-1.7c0.8-0.4,1.8-0.6,2.7-0.8c0.4-0.1,0.8-0.1,1.2-0.2c2.6-0.6,5-1.3,7.5-2.2c3.2-1.2,6.5-2.5,9.7-3.7
	c2.3-0.9,4.7-1.9,7.1-2.8c6.1-2.3,11.9-4.1,17.5-5.4c1.1-0.3,2.2-0.5,3.3-0.7c3-0.6,6.2-1.3,9-2.5l0.4-0.2l-0.1-0.4
	c-0.1-0.4-0.4-0.6-0.8-0.8c-4.1-2-26.4,5.7-26.6,5.8c-2.8,1-5.5,2.1-8.2,3.1c-7.9,3.1-16.1,6.3-24.8,7.7c0.9-1.9,5.3-4,7.7-5.2
	c0.6-0.3,1.1-0.5,1.5-0.7c3.8-2,7.9-3.7,11.8-5.4l1.8-0.8c7.6-3.2,15.9-5.8,26.2-8c10.3-2.2,21-3.8,31.7-4.6
	c2.7-0.2,5.5-0.4,8.3-0.7c6.2-0.5,12.7-1,19-1.2C470.1,653.9,464.8,656.8,459.5,659.5z"/>
</svg>
