<?xml version="1.0" encoding="utf-8"?>
<!-- Generator: Adobe Illustrator 21.1.0, SVG Export Plug-In . SVG Version: 6.00 Build 0)  -->
<svg version="1.1" id="Слой_1" xmlns="http://www.w3.org/2000/svg" xmlns:xlink="http://www.w3.org/1999/xlink" x="0px" y="0px"
	 viewBox="0 0 595.3 841.9" style="enable-background:new 0 0 595.3 841.9;" xml:space="preserve">
<path d="M506.4,166.5c-1.1-0.5-2.9,0.4-5.2,1.8c-0.6,0.3-1.1,0.6-1.4,0.7c-1,0.4-2,0.8-3,1.1c-0.9,0.3-1.8,0.6-2.6,1
	c-5,2-10.2,4.5-15.4,7.4c-10.1,5.5-21,12.5-33.4,21.2c-8.1,5.7-16.4,11.6-23.5,19.1c-3.7,3.9-8.3,9-11.4,14.8
	c-0.7,1.3-1.2,2.6-1.7,4c-0.4,1.2-0.9,2.4-1.4,3.5c-1,1.8-2.6,3.5-4.3,5.2c2.6-5.3,4.2-11.1,5.8-16.7l0.6-2c2.2-8,3.8-16.2,5-22.5
	c0.8-4.5,2-9,3.1-13.3c0.7-2.5,1.3-5.2,2-7.8c0.8-3.2,1.4-6.5,2.1-9.7c0.9-4.6,1.9-9.3,3.1-13.9c0.4-1.4,0.7-2.8,1.1-4.3
	c0.5-2,1-4.1,1.6-6.2c0.5-1.8,0.3-3.4-0.6-3.9c-0.5-0.3-1.6-0.5-3.2,1.3c-3.6,3.9-6.4,8.8-9.1,13.6c-1.3,2.2-2.5,4.4-3.8,6.4
	l-0.5,0.8c-8.6,13.5-18.4,28.8-22.3,44.8c-2,8.1-3,16.6-3.3,27.5l0,0.6c-0.1,4.3-0.3,8.7,3.3,12c2.4,2.3,5,2.3,7.3,1.8
	c-4.2,4.7-8.3,9.6-12.3,14.4l-2.4,2.8c-3.2,3.8-6.7,8.1-9.7,12.7c7.7-26.7,6.9-56.1,6.3-82.2c-0.1-3.4-0.3-5.9-0.7-8.4
	c0-0.3-0.1-0.7-0.1-1.3c-0.1-1.9-0.2-4.2-1.3-4.7c-0.5-0.3-1.1-0.1-1.8,0.3c-0.7,0.5-1.1,2-1.5,4.1c-0.1,0.7-0.3,1.3-0.4,1.6
	c-0.6,1.8-1.3,3.5-1.9,4.8c-1.4,3.3-2.7,6.7-3.9,9.9l-1.6,4.2c-4.4,12-9,24.3-11.6,37c-0.7,3.5-1.3,7.1-1.8,10.5
	c-0.6,3.9-2,6.8-4.3,10.3c-0.9,1.4-1.8,2.7-2.7,4.1c-3.2,4.9-6.5,10-9.5,15.1c0.1-5.8,0.3-10.5,0.7-15.1c0.2-2.4,0.5-4.9,1.2-7.5
	c0.1-0.5,0.3-1,0.4-1.5c0.6-2,1.2-4.1,0.5-6.3c-0.1-0.4-0.2-0.7-0.3-1c-0.7-1.8-0.8-2.3-0.6-4.8c0.2-2.4-0.2-4.5-0.8-6.8
	c-1.4-6.1-2.2-11.5-2.5-16.5c-0.1-2.8,0.1-5.6,0.4-8.4c0.2-2,0.4-4.1,0.5-6.2c0.1-5.6,0.2-11.6,0.1-17.7c-0.1-2.3-0.1-4.6-0.1-6.8
	c-0.1-8-0.3-16.2-1.1-24.3c-1.2-11.5-1.4-22.9-1.4-32.5c0-2.5,0-5.1,0.1-7.8c0-0.7,0.1-1.4,0.2-2.1c0.2-1.7,0.4-3.5,0-5.1
	c-0.2-0.8-0.7-1.4-1.1-1.9c-0.3-0.4-0.6-0.8-0.8-1.2c-0.5-1.2-0.4-1.4-0.2-2.2c0.1-0.3,0.2-0.7,0.3-1.3c0.6-2.9,0.1-5.9-0.3-8.3
	c-2-12-3.3-22.2-3.9-32l-0.2-2.6c-0.3-4.6-0.6-9.3-1.2-14c-0.2-1.6-0.6-3.1-0.9-4.7c-0.2-1-0.4-2.1-0.6-3.1
	c-0.1-2.7,0.6-6.5-1.5-8.3c0,0-0.1-0.1-0.1-0.1c-0.1-0.1-0.1-0.1-0.2-0.2c-2.3-1.7-7.2-0.8-9.7-0.6c-2.6,0.3-5.1,0.7-7.7,0.9
	c-1.7,0.1-5-0.6-6.6,0.1c-0.3,0.1-0.6,0.3-0.8,0.5c-0.1,0-0.3,0.1-0.4,0.1c-0.8,0.6-0.7,3,0.2,9.8c0.1,0.5,0.1,0.9,0.2,1.2
	c0.7,6.2,1.1,11.8,1.3,17.2c0.1,4.6,0.5,9.2,0.9,13.7c0.5,5.7,0.9,11.6,0.9,17.5c0,1.9-0.3,3.6-0.6,5.5c-0.2,1.1-0.3,2.2-0.5,3.3
	c-0.2,1.7,0.4,2.9,1,4.2c0.5,0.9,0.9,1.8,0.9,2.9c0,0.5-0.5,1.6-0.9,2.4c-0.3,0.7-0.6,1.3-0.7,1.8c-0.4,1.4-0.6,2.9-0.7,4.5
	c-0.2,2.3,0,4.7,0.1,7c0,0.8,0.1,1.6,0.1,2.5c0.4,12.4,1.2,25.3,2.3,38.2l0.5,5.7c0.9,10.6,1.9,21.6,2.4,32.5
	c0.2,3.6,0.2,7.3,0.3,10.8c0,2.9,0.1,5.9,0.2,8.8c0.1,1.4,0.1,2.9,0.2,4.3c0.3,4.9,0.6,9.6-0.5,14.3c-4.1-4.1-8.6-6.9-13.4-9.9
	l-1.9-1.2c-1-0.6-1.9-1.3-2.9-2c-1.4-1-2.9-2-4.4-2.9c-1.3-0.7-2.7-1.4-4-2l-0.3-0.2c-0.1-0.1-0.4-0.1-0.6-0.3
	c-0.4-0.2-1.4-0.5-1.6-0.7c-0.3-0.3-0.5-0.7-0.8-1.2c-0.3-0.5-0.6-1.1-1-1.5c-6.1-6.1-16.4,1-22,4.8l-0.1,0.1
	c-5.1,3.5-9.5,7.5-14.1,11.6c-1,0.9-2.1,1.9-3.1,2.8c-1.6,1.4-3.2,2.9-4.8,4.3c-10.7,9.5-21.8,19.3-31.3,30.2
	c-1.4,1.6-2.8,3.2-4.2,4.7c-1.1,1.2-2.2,2.5-3.3,3.7c-1.4,1.6-2.8,3.2-4.1,4.7c-0.4,0.5-0.9,1-1.4,1.5c-1.3,1.3-2.8,2.8-3.3,4.2
	c-0.5,1.2-0.4,2.1,0.2,2.6c1.1,0.9,3.5-0.4,4.6-1.1c1.1-0.8,2.2-1.6,3.3-2.5c1.1-0.9,2.3-1.8,3.5-2.6c11.5-7.9,24-14.1,36.1-20.1
	c2.6-1.3,5.3-2.6,7.9-4c-5,8.5-8.9,17.2-13,26.3c-0.7,1.5-1.3,2.9-2,4.4c-2.1,4.6-3.7,9.4-5.4,14.1c-0.4,1.1-0.7,2.2-1.1,3.2
	c-1.5,4.4-3,9.8-1.4,11.1c0.6,0.5,1.4,0.3,2.4-0.3c1.3-0.8,2.4-2.8,3.4-4.7c0.6-1.1,1.2-2.1,1.7-2.8c0.9-1.2,2-2.3,3-3.4
	c0.9-1,1.9-2,2.7-3c2-2.4,3.9-4.9,5.8-7.3c2.4-3.1,4.9-6.4,7.5-9.4c2.4-2.8,4.9-5.6,7.3-8.3c5.3-5.8,10.7-11.8,15.4-18.5
	c7.9-11.2,13.7-23.5,17.2-36.4c2.6,0.7,5.3,2.6,7.9,4.4c1.2,0.9,2.4,1.7,3.5,2.3c3.9,2.3,6.8,5.1,9.3,7.7c0.3,0.3,0.6,0.5,0.9,0.8
	c0.8,0.7,1.6,1.5,2,2.2c0.6,1.3,0.3,1.9-0.2,3c-0.2,0.4-0.5,0.9-0.7,1.5c-1.4,3.8-0.5,7.9,0.4,11.9c0.4,1.7,0.8,3.3,0.9,4.8
	c0.5,4.3,0.6,8.6,0.8,12.9c0.1,1.9,0.1,3.8,0.2,5.7c0.1,2.6,0.3,5.2,0.5,7.7c0.3,3.5,0.6,7.1,0.6,10.7c0.2,11.7,0.4,24.3,0.2,37.1
	c0,2.6-0.2,5.3-0.3,7.9c-0.1,2.8-0.3,5.8-0.3,8.6c0,1.1,0,2.2,0,3.4c0,4.7,0.1,9.6-1.1,14.1c-0.1,0.6-0.3,1.1-0.4,1.5
	c-0.5,1.6-0.9,3-0.7,5l0,0.1l0.6,0.9c-0.3,0.8-0.6,1.6-0.8,2.4c-0.4,1.5-0.6,2.8-0.7,4c-0.1,3.5,0.4,7,0.8,10.5
	c0.3,2.5,0.7,5.1,0.8,7.6c0.1,3.1,0,6.3-0.1,9.3c-0.1,2.4-0.2,4.8-0.1,7.2c0.1,5.1,0.1,10.4,0,15.4l0,4.1c0,4.7-0.1,9.4-0.2,14
	c-0.1,7.3-0.2,14.9-0.1,22.4c0.1,4.4,0.1,8.8,0,13.1c0,2.7,0,5.3,0,8l0,0.7c0,2.7,0,5.2-0.3,7.9c-0.2,1.5-0.6,3.1-1,4.6
	c-0.5,1.8-0.9,3.6-1.1,5.4c-0.1,1,0,1.7,0.3,2.7l0,0.1c0.4,0.7,0.7,1.4,1,2.1l0.1,0.1c0.1,0.2,0.3,0.5,0.3,0.7
	c-0.1,0.2-0.4,0.4-0.7,0.6l-0.2,0.1l-0.1,0.2c-1.2,2.9-1.8,4.9-1.6,8.3c0.1,2.4,0.3,4.8,0.5,7.2c0.1,1.6,0.3,3.2,0.4,4.8
	c-0.2-0.8-0.3-1.7-0.5-2.5c-2.1-10.4-4.2-21.2-8-31.3c-2.2-5.9-5-11.4-8.3-16.4c-0.3-0.4-0.6-0.8-0.9-1.3
	c-2.7-4.1-6.1-9.2-10.9-10.8c-4.7-1.5-8.4,3.2-10.3,8.1c-1.9,5-2.4,11.2-1.7,19.1c0.5,5.9,2.2,11.8,5.2,19c1.9,4.5,0.8,10-0.3,14.9
	c-0.2,0.8-0.3,1.7-0.5,2.5c-1.2,6.6-2.4,13.5-3.4,21c-0.3,1.8-0.5,3.7-0.6,5.5c-0.2,1.5-0.3,3-0.5,4.6c-0.1,0.7-0.2,1.6-0.2,2.5
	c-0.2,2.3-0.4,5.1-1.2,6.9c-2-2.6-3.8-5.5-5.5-8.4c-0.8-1.4-1.6-2.7-2.5-4c-1.5-2.3-2.1-4.6-2.8-7.1c-0.4-1.3-0.7-2.7-1.2-4.1
	c-0.7-2-1.9-2.9-3.2-4.1l-0.6-0.5c-0.5-0.4-1-0.7-1.5-1.1c-0.7-0.5-1.4-0.9-1.8-1.4c-0.5-0.6-0.7-1.3-1-2.1
	c-0.1-0.4-0.3-0.8-0.4-1.1c-1.1-1.5-2.3-2.7-4-3.6c-0.4-0.2-1-0.5-1.7-0.9c-0.2-0.1-0.5-0.2-0.7-0.3c-0.6-0.2-1.1-0.4-1.7-0.5
	c-1.9-0.5-3.9-0.8-5.8-1.6c-6.5-1.3-13.4-1.8-20.1-2.4l-3-0.3c-10.2-0.9-20.3-0.6-31.6-0.1c-17.9,0.7-35.7,3.6-52.2,6.6
	c-8.5,1.6-17.3,3.6-26.1,6.2c-2,0.6-3.2,1.6-3.3,2.6c0,1,0.9,1.8,2.8,2.5c2.8,1,6,1.2,9.1,1.4c1.6,0.1,3.1,0.2,4.6,0.4l4.3,0.6
	c14.9,2.1,30.4,4.3,45.6,5.6c4.7,0.4,9.4,0.7,14,1c5.2,0.3,10.6,0.7,15.8,1.2c2,0.2,3.9,0.3,5.9,0.5c3.2,0.3,6.5,0.5,9.7,0.9
	c0.6,0.1,1.2,0.1,1.8,0.2c1.5,0.2,3.1,0.4,4.7,0.5c0.5,0,1.1-0.1,1.8-0.1c0.8-0.1,1.8-0.2,2.6-0.1c-1.4,1.1-2.7,2.3-4.1,3.4
	c-6,5-12.2,10.2-17.9,15.8c-7.3,7.2-14,14.9-20.1,22.2c-6.2,7.4-11.9,15.3-17.3,22.9c-2.4,3.3-4.9,6.9-7.1,10.7
	c-0.5,0.9-1.1,1.8-1.8,2.7c-1.4,2.1-2.9,4.3-3.5,6.7l-0.2,1l0.9-0.5c2.9-1.4,5.3-3.7,7.6-6c1.4-1.3,2.8-2.7,4.3-3.9
	c5-3.8,10.2-7.4,14.6-10.5c8.3-5.8,17-11.3,25.6-16.5c7.7-4.6,15.5-9.5,22.9-14.3c2.7-1.7,5.5-3.5,8.2-5.2l0.3-0.2
	c5.3-3.3,10.8-6.8,15.1-11.6c3-3.3,4.7-6.8,6.6-10.6c0.7-1.5,1.5-3,2.3-4.5c0.6,0.6,1.3,1.7,1.8,2.6c0.2,0.4,0.4,0.8,0.6,1.1
	c1.4,2.2,2.8,4.5,4.1,6.7c0.5,0.9,1.1,1.8,1.6,2.7c0.6,0.9,1,1.9,1.5,2.8c0.8,1.5,1.5,2.9,2.6,4.3c1.6,2.1,3,4.6,4.3,7
	c0.3,0.5,0.6,1.1,0.9,1.6c1.1,2,2.2,3.9,3.3,5.9c5,8.9,10.2,18,14.7,27.3c1.2,2.5,2.5,5.1,3.7,7.6c1.7,3.4,3.5,7,5.1,10.6
	c0.7,1.6,1.6,3.2,2.4,4.7c0.7,1.3,1.3,2.5,1.9,3.8c0.2,0.3,0.4,0.7,0.6,1.1c0.4,0.7,1,1.5,1,2c0,0.6-0.3,1.4-0.6,2.2
	c-0.3,0.9-0.7,1.8-0.7,2.7c-0.2,3.9,0.1,7.9,0.4,11.8c0.3,3.6,0.5,7.2,0.4,10.8c-0.2,5.3-0.5,10.7-0.8,15.9
	c-0.1,2.2-0.3,4.4-0.4,6.7c-0.3,5.3-0.3,10.6-0.4,15.8c0,2.5,0,5.1-0.1,7.6c-0.1,3.5-0.3,7-0.5,10.4c-0.3,4-0.6,8.1-0.6,12.3
	c0,7.2-0.9,13.8-1.8,20.7l-0.1,0.4c-0.3,2.4,0.1,4.2,1.2,5.5c2.2,2.6,6.6,2.6,10.5,2.7c1.1,0,2.1,0,3,0.1c0.9,0.1,2.1,0.3,3.5,0.5
	c2.2,0.4,4.8,0.9,7.2,0.9c3.3,0,6.2-0.9,6.8-4.3c0.5-2.5-0.2-5.2-0.9-7.6c-0.2-0.8-0.4-1.5-0.5-2.2c-0.9-4.4-1.3-8.1-1.3-11.6
	c0.2-9.1,1.4-18.3,2.6-27.3c0.8-6.2,1.7-12.5,2.2-18.8c0.2-3,0.5-6,0.8-9c0.5-5.6,1-11.4,1.3-17c0.1-1.3,0.1-2.7,0.2-4
	c0.1-2.8,0.2-5.6,0.6-8.4c0.4-3.7,0.5-6.7,0.1-10.8c-0.1-0.6-0.1-0.9-0.2-1.2c0,0,0.1-0.1,0.1-0.2c0.1-0.2,0.2-0.4,0.4-0.7
	c0.7-1.1,1.7-2.2,2.7-3.2c0.3-0.3,0.5-0.6,0.8-0.8l1-1.1c1.3-1.4,2.6-2.9,4-4.2c2-1.9,4.5-3.4,6.9-4.7c0.8-0.4,1.5-0.9,2.3-1.3
	c0.7-0.5,1.5-1,2.3-1.5c1.9-1.3,3.8-2.6,5.8-3.2c3.2,11.5,7.9,22.1,14.4,32.2c6.6,10.3,14.6,19.1,22.2,27.2c4,4.3,8.1,9.1,12.8,15.4
	c1.6,2.1,3.3,4.1,5,6c2.4,2.8,4.9,5.7,7,8.8c0.2,0.2,0.4,0.6,0.6,1.1c0.8,1.6,2,4.1,3.9,3.6c0.5-0.1,1-0.4,1.2-0.9
	c0.8-1.3,0.2-3.5-0.4-5.5l-0.1-0.4c-1.7-5.8-3.8-11.5-5.9-16.8c-5.2-13.4-10.8-25.1-17.1-35.7c3,1.5,6,2.9,9,4.3
	c3.9,1.8,8,3.7,11.9,5.8c4.4,2.3,8.7,4.9,12.8,7.4c1.4,0.9,2.8,1.7,4.3,2.6c3.1,1.8,6.2,3.9,9.2,6c0.5,0.4,1.1,0.9,1.7,1.4
	c1.3,1.2,2.7,2.4,4.2,2.8c0.9,0.3,2.2,0.5,2.7-0.3c0.2-0.3,0.8-1.3-2.3-5.1c-2.8-3.3-5.9-6.9-9.5-10.9
	c-11.7-12.9-23.9-24.9-37.2-36.6c-1.8-1.6-3.7-3.3-5.4-5c-3.4-3.2-6.9-6.4-10.7-9.3c-3.3-2.5-6.8-5-10.6-7c-0.4-0.2-0.8-0.4-1.1-0.6
	c-3.4-1.8-7.7-4-11.6-2.8c-2.1,0.6-3.3,1.9-4.5,3.4c-1.4,1.6-2.3,2.1-4.5,3.2l-0.1,0.1c-2.7,1.3-5.1,2.9-7.6,4.6l-1.4,0.9
	c-1.4,1-3,1.8-4.5,2.6c-2.4,1.3-4.9,2.7-7,4.5c-2.9,2.4-5.5,5.3-7.7,7.9c-0.1-1.7-0.4-3.3-0.8-4.8c-0.3-1.3-0.6-2.6-0.7-4
	c-0.3-3.2-0.1-6.5,0-9.7c0.1-1.3,0.1-2.6,0.1-3.9c0.2-7.1,0.6-14.4,1.1-21.4l0.2-3.8c0.5-8,0.3-16.1,0.1-23.9
	c-0.2-8.3-0.4-16.9,0.2-25.4c0.2-2.5,0.4-5.1,0.6-7.6c0.4-5.4,0.9-11,1.2-16.5c0.2-3.5,0.8-6.9,1.9-10.5c0.1-0.4,0.3-0.8,0.4-1.3
	c0.4-1.2,0.9-2.6,0.9-3.8c0-0.9-0.2-1.7-0.4-2.4c-0.2-0.7-0.4-1.3-0.4-2c0-0.6,0.1-1.2,0.1-1.7c0.1-1,0.2-2,0-3.3
	c-0.1-0.6-0.3-1.2-0.4-1.8c-0.3-1.2-0.5-2.2-0.6-3.4c-0.3-4-0.1-8.3,0.2-11.9c0.2-2.8,0.5-5.6,0.8-8.4c0.5-4.7,1-9.6,1.1-14.5
	c0-0.8,0-1.7,0-2.5c-0.1-2.3-0.1-4.7,0.6-6.5c0.6-1.5,2.4-4.6,3.6-5.8c0.6-0.6,1.1-0.8,1.6-0.7c1.1,0.2,1.9,2.1,2.7,3.8
	c0.5,1.1,0.9,2.1,1.5,2.8c4.8,5.9,12.5,7.9,17.9,8.8l1,0.2c6.6,1.1,13.4,2.3,20.2,2.7c16.5,0.9,31.1,2,44.7,3.6l2.6,0.3
	c6,0.7,11.7,1.4,17.6,1.4h0.1c0.9,0,1.8,0,2.6,0c1.6,0,3.4,0,5,0c2-0.1,3.2-0.6,3.5-1.5c0.3-0.9-0.3-1.8-1.8-3
	c-6.3-4.8-14-7.8-21.4-10.6l-3-1.1c-6.3-2.4-12.8-4.9-19.3-7.3c-5.8-2.1-12.1-4.3-18.5-6.1c-4.2-1.2-8.6-2.3-13.3-3.5
	c-1.4-0.3-3-0.5-4.5-0.7c-2-0.2-4-0.4-5.6-1c6-4.1,12.3-7.8,18.5-11.4c5.4-3.1,11-6.4,16.2-9.9c5-3.3,11.3-7.5,16.9-11.9
	c2.1-1.6,4.1-3.4,6.1-5.2c2.5-2.2,5.1-4.5,7.9-6.5c0.4-0.3,1.1-0.6,1.9-1c2.1-1,4.8-2.3,4.6-4.1c0-0.7-0.3-1.2-0.8-1.5
	c-1.2-0.8-3.5,0.2-5.2,0.9c-0.5,0.2-1,0.4-1.2,0.5c-3.2,0.8-6.5,1.6-9.6,2.3c-4.3,1-8.8,2-13.2,3.3c-13,3.7-26.9,9.2-43.5,17.1
	l-1.1,0.5c-7.2,3.4-14.6,7-20.5,12.2l-1.3,1.1c-4.6,4-9.7,8.4-12.8,13.8c0.2-7.2,0-14.5-0.2-21.6c-0.1-4.5-0.3-9.1-0.3-13.7
	c0-1.3,0-2.5,0-3.8c-0.1-4-0.1-8.1,0.1-12c0.1-2.1,0.5-3.9,0.9-5.7c0.7-3.3,1.3-6.5,0.2-10.3l-0.8-1c0.4-0.9,0.6-1.8,0.7-2.8
	c0.1-1.3-0.3-2.4-0.7-3.7l-0.5-1.4c-0.7-2.2-1.4-4.3-1.9-6.6c-0.6-2.7-0.7-5.2-0.5-8.4c0-0.4,0-0.9,0-1.5c0-1.4,0.1-4.1,0.7-4.5
	c0.7-0.5,2.4-0.5,3.9-0.5c1.1,0,2.2,0,3-0.2c1.7-0.4,3.4-1,5.1-1.6l1-0.4c5.1-1.8,10.1-4.6,14.2-7.1c3.2-1.9,6.2-4.2,9.1-6.3
	c1.3-1,2.6-1.9,3.9-2.8c2.2-1.6,4.5-3.1,6.7-4.5c2.4-1.6,5-3.3,7.4-5c5.8-4.2,11.5-8.6,17-13c3.2-2.5,6.5-5,9.7-7.5
	c1.1-0.9,2.2-1.7,3.4-2.6c5.8-4.5,11.8-9.2,18.4-11.8c0.2-0.1,0.6-0.1,1.1-0.2c1.5-0.3,3.4-0.6,3.6-1.9c0.1-0.7,0-1.2-0.4-1.6
	c-0.6-0.7-1.7-0.6-2.5-0.5l-0.3,0c-1.5,0.1-3.2,0.8-4.8,1.5c-0.8,0.3-1.5,0.6-2.2,0.8c-1.6,0.5-3.2,1-4.7,1.5
	c-1.1,0.3-2.2,0.7-3.3,1c-9.4,3-18.8,6.6-28,10.1c-2.2,0.9-4.4,1.7-6.6,2.5c-10,3.8-20.6,8.4-33.2,14.6c1-3.7,1.8-7.5,2.5-11.2
	c0.2-1.2,0.4-2.4,0.5-3.7c0.4-3,0.8-6.2,2.2-8.5c1.3-2.1,3-4.4,5.2-6.9c1.2-1.4,2.1-2.9,3.1-4.3c0.8-1.2,1.6-2.5,2.6-3.7
	c3.1,3.9,8.2,3.9,12.8,3.9c0.6,0,1.2,0,1.8,0c4.9,0.1,9.5-0.4,14.3-1.6c9.5-2.3,18.7-5.9,27.7-9.3c1.7-0.6,3.3-1.3,5-1.9
	c8.7-3.3,18.3-7.9,30.2-14.4c2.7-1.5,5.5-3,8.1-4.5l1.3-0.7c0.8-0.4,1.6-0.9,2.4-1.3c3.2-1.7,6.5-3.5,9-5.9l0.6-0.6l-0.8-0.3
	c-2.9-1-5.9-0.8-8.9-0.5c-0.7,0.1-1.3,0.1-2,0.1c-1.7,0.1-3.4,0.2-5.1,0.3c-2.9,0.2-5.9,0.4-8.8,0.5c-3.8,0.2-7.6,0.7-11.3,1.1
	c-4,0.5-8.2,1-12.3,1.1c-8.5,0.4-16.7,2.4-24.4,4.6c-1.5,0.4-3.1,0.8-4.7,1.2c-6.3,1.6-12.7,3.2-18.2,6.3
	c5.2-6.4,11.1-13.6,17.6-20.6c0.3-0.3,0.6-0.7,0.9-1.1c1-1.2,2.1-2.6,3.3-2.8c0.6-0.1,1.2,0.1,1.9,0.3c0.4,0.1,0.8,0.3,1.3,0.3
	c1.7,0.3,3.2,0,4.8-0.2c4.8-0.8,9.5-2.1,14.2-4c11.8-4.6,20.5-13.6,28.9-22.2l0.3-0.3c7.5-7.7,15.2-16.1,25-27.4l1.4-1.6
	c4.1-4.7,8.4-9.6,12.9-14.1c0.1-0.1,0.6-0.5,1.1-0.9c3.3-2.6,6.6-5.4,6.4-7.1C507.2,167.2,507,166.8,506.4,166.5z M230.3,271
	c-1,0.4-1.9,0.8-2.8,1.2c-9.3,4.2-18,9.4-26.5,14.3c-3.9,2.3-8,4.7-12.1,7c1.8-2.3,3.9-4.5,5.8-6.5c1.6-1.7,3.2-3.5,4.7-5.3
	c1.6-1.8,3.2-3.7,4.9-5.5c6.2-6.5,13-12.6,19.7-18.6l3-2.7c1.6-1.4,3.2-2.8,4.9-4.2c2.3-1.9,4.7-4,6.9-6.1l0.4-0.4
	c2.6-2.5,5.3-5.1,8.3-7.2c0.5-0.4,1.1-0.8,1.8-1.3c4.1-3,11.1-8.1,16-8.1c0.3,0,0.5,0,0.7,0.1c0.8-0.2,1.6,0.3,2.2,0.7
	c0.7,0.5,1.3,1.1,1.7,1.8c0.3,0.5,0.5,1.3,0.3,1.9c-0.2,0.4-0.5,0.6-0.9,0.7c-8,4.9-16.8,10.9-21.7,19.2c-1.5,2.6-3.1,5.1-4.7,7.6
	c-1.1,1.8-2.3,3.6-3.4,5.4C237.7,268,233.8,269.6,230.3,271z M272.3,246.9l-0.3,0.7c-0.7,1.5-1.4,3-2.1,4.6c-0.9,2.1-1.9,4.3-3,6.4
	c-4.4,8.6-10.3,16.3-16.1,23.7c-3.2,4.2-6.9,8.2-10.5,12c-2.8,3-5.7,6.1-8.4,9.4c-1.5,1.8-2.9,3.7-4.3,5.5c-1.2,1.6-2.5,3.3-3.8,4.8
	c-1.2,1.4-2.4,2.8-3.6,4.2c-1.4,1.5-2.8,3.1-4.1,4.8c0.4-1.4,1-2.8,1.6-4.2c0.4-1,0.9-2,1.2-3.1c1.1-3.1,2.2-6.1,3.2-8.6
	c1.5-3.8,3-7.6,4.5-11.3l0.7-1.8c2.8-7.2,6.9-14,10.9-20.6c1.1-1.9,2.3-3.8,3.4-5.7l0.9-1.5c1.5-2.6,3-5.2,4.7-7.7
	c0.8-1.1,1.5-2.3,2.2-3.4c1.3-2.1,2.6-4.3,4.2-6.1c2.9-3.3,6.6-6,10.1-8.6c0.4-0.3,0.9-0.7,1.4-1.1c2.1-1.7,5.5-4.3,7.6-4.4
	c-1.3,3.6-4,6.9-6.7,10.1c-1.1,1.3-2.1,2.5-3.1,3.8c-3.9,5.2-7.8,10.8-11.8,17.1c-1.7,2.6-3.3,5.4-4.9,8c-1.8,3.1-3.7,6.2-5.7,9.2
	l-0.8,1.2c-1.8,2.7-3.5,5.4-5.1,8.2c0,0.4,0,0.7,0.2,1c0.3,0.4,0.8,0.4,1.3,0.3c0.3-0.1,0.6-0.2,0.9-0.4c0.1-0.1,0.2-0.2,0.4-0.4
	c0.1-0.1,0.1-0.2,0.2-0.3c0.9-1.2,1.7-2.4,2.3-3.5c1.9-3.1,3.9-6.2,5.8-9.3c2-3,4-6.2,5.9-9.3c4.7-7.6,8.6-13.5,12.6-18.7
	c0.8-1.1,1.7-2.2,2.5-3.3c1.1-1.5,2.3-3,3.4-4.5c0.6-0.8,1.1-1.6,1.7-2.4c1-1.5,2-3,3.2-4.2C275.7,240,273.5,244.4,272.3,246.9z
	 M209.9,578.7c-0.1,0-0.2,0-0.2,0c-0.7,0-1.4,0.1-2.1,0.2c-0.7,0.1-1.4,0.2-2.1,0.2c-4.6,0.2-9.4-0.5-14.1-1.1
	c-2.1-0.3-4.3-0.6-6.3-0.8c-4-0.4-8.1-0.5-12.1-0.6c-3.1-0.1-6.3-0.2-9.4-0.4c-13-0.9-25.6-2.2-37.4-3.9c-2.6-0.4-5.2-0.7-7.7-1
	c-2.3-0.3-4.5-0.5-6.7-0.9c-2.8-0.4-5.7-0.8-8.5-1.3l-1.5-0.2c-0.9-0.1-1.9-0.2-3-0.3c-1.9-0.1-3.9-0.3-5.5-0.9
	c1-0.5,3.2-0.9,4.4-1.1c0.6-0.1,1.2-0.2,1.5-0.3c1.9-0.5,3.7-0.9,5.6-1.4l1.2-0.3c4.4-1.1,9.2-2.1,15.2-3.1
	c16.2-2.7,35.4-5.6,55.3-6.3c10.9-0.4,20.5-0.1,29.3,1c1.2,0.1,2.3,0.3,3.5,0.4c4.5,0.5,9.1,1,13.7,1.8c0.3,0.1,0.7,0.1,1,0.2
	c3.6,0.6,10.2,1.7,11.4,5.3c-1.3,0.3-5.9-0.4-7.8-0.7c-1.1-0.2-1.9-0.3-2.3-0.3l-0.3,0c-3.8-0.3-7.7-0.5-11.6-0.6
	c-7-0.2-14-0.7-20.8-1.2c-11.5-0.9-20.8-1-29.1-0.6c-0.9,0.1-1.9,0.1-2.8,0.1c-4.5,0.2-9.1,0.3-12.9,2.4c-0.1,0.6,0.2,1.2,0.7,1.6
	c15.2-1.3,29.3-1.5,42-0.7c3.5,0.2,7,0.5,10.4,0.7c4.6,0.3,9.4,0.7,14.1,0.9l2,0.1c6.3,0.3,12.3,0.6,18.4,2c-0.9,0.7-3.5,1.6-4.5,2
	c-0.8,0.3-1.4,0.5-1.7,0.6c-3.3,1.6-6.3,3.6-8.6,5.1c-0.5,0.3-1,0.8-1.6,1.2c-1.5,1.2-3.2,2.5-4.9,2.7c-0.7,0.1-1.5-0.1-2.3-0.2
	C211.4,578.9,210.6,578.7,209.9,578.7z M181.4,613.8c12.2-13.1,24-23.7,36.2-32.5l0,0c4.4-3.2,9.7-6.8,15.5-9.2l0.2-0.1
	c1.2-0.5,3.6-1.5,5.6-1.5c0.9,0,1.7,0.2,2.2,0.9c0.2,0.2,0.3,0.4,0.4,0.6c-0.1,0-0.1,0.1-0.2,0.2c-0.2,0.2-0.5,0.4-0.9,0.7
	c-0.7,0.6-1.3,1.2-2,1.9c-0.4,0.4-0.9,0.8-1.3,1.2c-5.6,5.2-11.8,10-17.7,14.7c-4.1,3.2-8.4,6.5-12.4,10c-4.9,4.2-9.9,8.2-14.8,12.2
	c-4.9,4-9.9,8-14.8,12.2c-5.3,4.5-10.2,9.4-15,14.2c-3.2,3.2-6,6.4-8.8,9.8C161.1,637.3,170.4,625.6,181.4,613.8z M233.2,600.3
	c-6.2,5.7-13.8,10.3-21.2,14.8c-2.5,1.5-5.1,3.1-7.6,4.7c-5.2,3.3-10.7,6.6-16,9.7c-11,6.6-22.4,13.3-32.6,21.4
	c0.2-0.2,0.3-0.4,0.5-0.6c1.8-2.3,3.8-4.4,5.8-6.5l0.2-0.2c3.8-4.1,7.1-7.4,10.6-10.6c4.6-4.2,9.5-8.2,14.3-12
	c2.3-1.8,4.6-3.7,6.9-5.6c3.4-2.8,6.9-5.8,10.2-8.6c4.4-3.8,9-7.8,13.6-11.4c2-1.6,4.1-3.1,6.1-4.6c2.6-1.9,5.3-3.9,7.8-6
	c1.4-1.2,2.7-2.5,4-3.8c2.4-2.3,4.8-4.8,7.7-6.3C247.3,583.8,238.8,595.1,233.2,600.3z M364.9,654.9c0.1-0.5,0.6-1.1,0.9-1.6
	c0.3-0.5,0.6-1.1,0.9-1.6c0.6-0.7,1.3-1.2,2.2-1.1c4.7-0.4,12.4,5.1,16.3,8c0.7,0.5,1.3,0.9,1.8,1.3c3,2.1,5.5,4.4,8.5,7.4
	c2.4,2.3,4.9,4.4,7.4,6.5c1.6,1.4,3.3,2.8,4.9,4.2l1.1,1c7.1,6.4,14.4,12.9,21.1,19.8c1.9,1.9,3.7,4,5.4,6c1.5,1.7,3.1,3.6,4.7,5.3
	c1.9,2,3.9,4.2,5.8,6.5c-2.9-1.7-5.8-3.5-8.6-5.2c-3.8-2.4-7.7-4.8-11.8-7c-5.6-3-11.5-5.8-17.1-8.5c-2.6-1.2-5.2-2.5-7.8-3.7h0
	c-0.3-0.1-0.6-0.3-0.9-0.4c-1.5-0.7-2.9-1.3-3.9-2.5c-0.7-0.8-1.3-1.9-1.9-3c-0.3-0.6-0.6-1.1-0.9-1.6c-0.9-1.4-1.7-2.8-2.6-4.3
	c-1.5-2.5-3-5.1-4.6-7.5c-0.7-1.1-1.5-2.1-2.4-3.1c-1.2-1.2-2.5-2.3-3.8-3.5c-1.3-1.3-2.9-2.4-4.2-3.7c-3.2-2.4-6.6-4.6-9.9-6.6
	C365.1,655.8,364.7,655.5,364.9,654.9z M359.6,660.5c1.2,1.2,2.2,2.7,3.2,4.2c0.6,0.9,1.1,1.7,1.7,2.4c1.2,1.6,2.4,3.2,3.6,4.8
	l2.3,3c4.4,5.8,8.7,12.3,13.4,20c1.9,3.2,4,6.4,6,9.6c1.4,2.2,2.9,4.5,4.3,6.8c0,0.1,0.1,0.1,0.1,0.2c1.2,1.4,2.3,2.8,3.6,4.2
	c0.2,0.2,1.5,1.4,1.9,0.9c0.1-0.1-0.1-0.8-0.1-0.9c-0.1-0.6-0.4-1.2-0.6-1.8c-0.2-0.4-0.3-0.9-0.5-1.3c-1.1-1.7-2.2-3.4-3.3-5.1
	l-0.8-1.3c-2-3-3.8-6.2-5.7-9.2c-1.6-2.7-3.2-5.4-4.9-8.1c-4.1-6.3-7.9-11.9-11.8-17.1c-0.9-1.2-1.9-2.4-3-3.7
	c-2.7-3.2-5.5-6.5-6.7-10.1c1.3,0.1,3,1.4,4.2,2.2c0.4,0.3,0.8,0.6,1.1,0.8c2.4,1.5,4.9,3.3,7.4,5.3c4.5,3.6,7.4,6.8,10.1,11.3
	c2.3,3.8,4.7,7.7,7.1,11.4c2.2,3.4,4.4,7,6.6,10.5c6.5,10.8,12.4,24,17.5,39.3c0.4,1.1,0.8,2.2,1.3,3.3c0.5,1.3,1.1,2.6,1.5,3.9
	c-1.3-1.6-2.7-3.2-4.1-4.7c-1.1-1.2-2.2-2.4-3.2-3.7c-1.4-1.7-2.8-3.5-4.1-5.3c-1.3-1.7-2.6-3.4-4-5.1c-2.8-3.4-5.8-6.6-8.8-9.8
	c-3.6-3.9-7.4-7.9-10.6-12.1c-5.6-7.3-11.4-14.8-15.8-23.1c-1-1.9-1.9-3.9-2.7-5.9c-0.8-1.7-1.5-3.5-2.4-5.2l-0.4-0.7
	C361.3,668.1,358.8,663.2,359.6,660.5z M380.4,466.5c10.9,2.6,19.4,5,27.3,7.8c8,2.8,16.5,6,26.6,10.1c0.8,0.3,1.7,0.7,2.6,1
	c5.6,2.2,11.3,4.5,16.3,7.9c-5.1,0.8-10.5,0.1-15.8-0.5c-1.7-0.2-3.5-0.4-5.3-0.6c-3.3-0.3-6.7-0.7-9.9-1c-1.7-0.2-3.5-0.4-5.2-0.5
	c-5.3-0.5-10.8-0.8-16.1-1.1c-6.5-0.3-13.2-0.7-19.7-1.5c-1.4-0.2-2.8-0.3-4.3-0.5c-7.1-0.8-14.4-1.7-20.9-4.2c-3-1.1-8.3-3.7-10-8
	c-0.4-0.9-0.3-1.3-0.2-1.5c0.2-0.3,1-0.4,1.9-0.5c0.6,0,1.2-0.1,1.8-0.2c0.4-0.1,0.8-0.3,1.3-0.4c0.6-0.2,1.2-0.5,1.6-0.5h0
	c0.4,0,1.1,0.3,1.8,0.5c0.7,0.2,1.3,0.5,1.8,0.5c3.8,0.5,7.6,0.9,11.3,1.3c5.2,0.6,10.6,1.2,15.8,2l2.4,0.4
	c3.5,0.6,7.1,1.1,10.7,1.6c1.4,0,2.8,0.2,4.2,0.3c0.9,0,2.5,0.2,3.3-0.3c1.1-0.7,0.7-1.5-0.1-2.1c-2.5-0.3-4.7-0.6-6.8-0.8
	c-3.5-0.5-7-1-10.4-1.6l-3.2-0.5c-1.4-0.2-2.8-0.5-4.2-0.7c-2.8-0.5-5.6-0.9-8.4-1.3c-1.8-0.3-3.6-0.4-5.4-0.5
	c-2.8-0.2-5.6-0.4-8.3-1.1c1.5-1.4,9.6-4.7,10.8-4.7C371.7,465,375.9,465.5,380.4,466.5z M344.3,456.7l0.6-0.6
	c3.4-3.3,7-6.7,10.9-9.3c8.1-5.3,17.2-9.4,26-13.4l2.1-1c7.4-3.3,15.7-6.6,23.8-9.3c4.8-1.6,9.1-3,13.6-3.9c1.6-0.3,3.3-0.7,5-1.2
	c2.3-0.6,4.6-1.2,6.8-1.5c-1.3,1.5-3.1,2.9-4.9,4.2c-0.9,0.7-1.8,1.4-2.6,2c-2.9,2.5-5.8,4.7-8.8,6.9c-4.6,3.3-9.5,6.5-14.2,9.6
	l-3.2,2.1c-4.8,3.1-11.1,7.2-17.7,11.1c-3.3,1.9-6.8,3.8-10.1,5.5c-4.1,2.1-8.3,4.3-12.2,6.8c-10.9,6.7-16.1,6.4-18.6,4.6
	c4.3-4.1,9.9-7.7,15.4-11c2.4-1.4,4.8-3,7.1-4.4c4.2-2.7,8.6-5.4,13.1-7.9c3.7-2,7.4-4,11-5.9c5.5-2.9,11.2-5.8,16.7-9.1
	c0,0,0-0.1,0.1-0.1c0.3-0.6,0.3-1.1,0.1-1.6c-1.8-0.7-3.9,0.3-5.5,1.2c-0.5,0.3-1,0.5-1.4,0.7c-2.4,1.1-4.7,2.3-6.9,3.5
	c-0.7,0.4-1.4,0.8-2.2,1.1l-2.1,1.1c-5.8,3-11.7,6.1-17.5,9.6l-3.5,2.1c-3.5,2.1-7.2,4.3-10.7,6.5c-3.1,1.9-6.1,4-8.6,5.9
	c-0.7,0.5-1.4,1-2.1,1.6c-1.7,1.4-3.5,2.9-5.5,3.6C337.3,463.4,342,458.9,344.3,456.7z M299.9,71.2c-0.1-2-0.2-4.1-0.3-6.1
	c-0.2-3.6-0.4-7.3-0.8-10.8c-0.3-2.1-0.7-4.2-1.1-6.1c-0.1-0.3-0.2-0.9-0.3-1.6c-0.2-1.5-0.4-2.6-0.6-3.5c0.7-1.6,3.3-1,5.1-1.1
	c3.2-0.1,6.3-0.7,9.5-1c2-0.2,5.2-0.6,7,0.7c0,0.8,0.1,1.8,0.3,3.1c0,0.2,0,0.3,0.1,0.4c0.3,2.6,0.7,5.2,1.1,7.6
	c0.4,2.8,0.9,5.7,1.1,8.6c0.2,3,0.4,5.9,0.6,8.9c0.6,8.3,1.1,16.8,2.5,25.2c0.2,1.2,0.4,2.5,0.7,3.8c0.7,3.6,1.5,7.4,1.2,10.8
	c-0.4,4.3-3.2,4.4-7.7,4.4l-0.7,0c-0.8,0-1.6,0-2.5,0c-3.5,0-6.7,0-10.1-0.5c-4-0.6-3.9-3.3-3.5-7.6l0.1-0.8
	c0.8-8-0.1-16.4-0.9-24.6C300.4,77.6,300.1,74.4,299.9,71.2z M303.9,185.4l-0.1-1.2c-0.4-4.7-0.8-9.5-1.1-14.3
	c-0.5-6.8-1.1-13.7-1.7-20.6c-0.5-5.6-0.6-11.1-0.7-16.3c0-0.6,0-1.3-0.1-2c-0.2-3.9-0.5-10.5,2.3-12.3c0.7-0.5,1.8-0.3,2.9-0.2
	c0.6,0.1,1.2,0.1,1.7,0.1c0.7,0,1.4-0.1,2-0.2c1.8-0.2,3.5-0.3,5.4-0.2c2.5,0.1,5.2,0.2,7.9-0.1c3.1-0.4,4-0.5,4.7,2.6
	c0.7,2.9,0.5,6.4,0.4,9.8c-0.1,1.8-0.2,3.5-0.1,5.1c0.1,2.2,0.1,4.4,0.1,6.6c0,3.6,0.1,7.2,0.3,10.8c0.3,4.8,0.7,9.7,1,14.4
	c0.5,5.8,1,11.8,1.2,17.7c0.1,3.3,0,6.7,0,10c-0.1,2.3-0.1,4.6-0.1,6.9c0,2,0.1,4.1,0.2,6c0.1,3.7,0.3,7.6,0,11.4
	c-0.1,1.3-0.2,2.5-0.3,3.8c-0.4,4-0.8,8.2-0.4,12.3c0.2,2.1,0.7,4.4,1.3,6.6c0.8,3.1,1.5,6.3,1.3,9.2c-0.3,3.2-3.1,3.4-6.9,3.3
	c-0.8,0-1.5,0-2.1,0c-1.8,0.1-3.4-0.1-5.1-0.2c-0.7-0.1-1.4-0.1-2.1-0.2c-0.3,0-0.5,0-0.8,0c-0.6,0-1.2,0-1.9,0.1
	c-1.6,0.1-3.2,0.2-4.5-0.3c-3.2-1.2-2.4-6-1.9-9.9c0.2-1.3,0.4-2.6,0.4-3.5c0-3.4-0.2-6.8-0.4-10.1c-0.2-2.9-0.4-6-0.4-9
	C305.9,209.5,304.9,197.3,303.9,185.4z M305.4,270.7c-0.4-2.2-0.8-4.5-0.9-6.8c-0.1-3.2,0-4.3,2.6-4.8c2.1-0.4,4.3-0.6,6.5-0.6
	c1.4,0,2.7,0,4.1,0.1c1.8,0.1,3.6,0.1,5.5,0.1c0.7,0,1.6-0.1,2.5-0.3c1.9-0.3,4.1-0.6,5.4,0.1c1.7,0.9,1.5,3.4,1.2,5.6
	c-0.9,6.3-2,13.5-2.1,20.8c0,1.2,0.1,2.5,0.1,3.8c0.1,2.1,0.3,4.2,0,6.1c-0.2,1.7-1.3,3.5-2.3,5.3c-0.5,0.9-1,1.8-1.4,2.7
	c-2.6,5.7-5.1,11.4-5.9,17.8c-0.8,5.7-1.4,12.2,0.3,17.7c0.8,2.7,2.4,5.8,4.5,8.5l0.4,0.5c0.7,0.9,0.7,0.9,0.2,1.8l-0.3,0.5
	c-0.3,0.6-0.6,1.1-1,1.7c-0.5,0.8-1,1.5-1.4,2.4c-0.5,1.2-0.8,2.4-1.1,3.5c-0.4,1.4-0.7,2.8-1.4,4.1c-0.8,1.6-1.6,3.2-2.5,4.8
	c-0.8,1.6-1.6,3.2-2.5,4.8c-2.4,4.6-5.3,9.7-8.6,14.1c1-5.4,0.9-11.1,0.9-16.6c0-2.9,0-5.9,0.1-8.8c0.5-9.8,0.3-19.7,0-28.1
	c-0.1-3.5-0.2-7.1-0.2-10.5c-0.1-6-0.1-12.1-0.6-18.2c-0.2-3.4-0.4-7-0.5-10.4c-0.2-6.1-0.4-12.5-1.3-18.6v0
	C305.8,272.6,305.6,271.7,305.4,270.7z M329,378.8c0.2,2,0.8,3.9,1.3,5.7c0.5,1.7,1,3.4,1.2,5.2c0,0.3,0,0.4-0.3,0.6
	c-2.1,2-13.9,1-21.2-0.1c1.3-4.6,4-8.8,6.6-12.8c0.7-1.1,1.4-2.2,2.1-3.3c0.8-1.3,1.5-2.8,2.2-4.1c0.6-1.2,1.2-2.4,1.8-3.5
	c0.3-0.6,0.6-1.2,1.1-1.7c0.2-0.3,0.4-0.4,0.5-0.4c0.1,0,0.4,0.2,0.6,0.5l0.1,0.2l0.2,0c0.5,0.1,1,0.2,1.4,0.3
	c0.8,0.2,1.6,0.3,2.6,0.3c0,1.6-0.1,3.1-0.2,4.7C328.8,373,328.7,375.9,329,378.8z M325.8,358.2c-0.5-1-0.1-3.1,3.4-7.5
	c1.2,0.9,2.4,1.6,3.7,2.1c-1.1,0.7-2.7,2-5.2,4C327,357.3,326.3,357.8,325.8,358.2z M266.1,531.1c-1.5-3.9-2.4-7.9-2.6-12.1l0,0
	c-0.3-4.1-0.5-8.9,0.4-14c0.4-2.2,1.8-6.6,3.1-7.2c0.1,0,0.2-0.1,0.3-0.1c0.1,0,0.2,0,0.3,0.1c0.5,0.3,1.3,3.2,1.6,4.2
	c0.1,0.5,0.3,0.9,0.3,1.2c0.7,2,1.4,4.1,2.1,6.1l0.3,0.8c1,3,2.4,7,3.9,10.9c1.5,3.9,3.1,7.9,4.7,11.7c1.7,4.2,3.4,8.5,5,12.7
	c1.7,4.5,3,9.1,4.2,13.7c0.4,1.3,0.8,2.7,1.2,4.1c0.2,0.3,0.4,0.6,0.7,0.8c0.6,0.6,1.1,0.7,1.5,0.2c0.5-3.9-0.9-8-2.2-11.7
	c-0.3-1-0.7-2-1-2.9c-1.5-4.9-3.5-9.8-5.4-14.5l-0.8-1.9c-4.7-11.8-13.6-35.5-13-37.9c1.5-0.4,4.7,1.4,11.2,11.9l0.4,0.6
	c3.6,5.7,6.4,11.9,8.7,19.1c3.7,11.8,5.9,24.1,8.1,36.1c0.4,2.2,0.8,4.3,1.2,6.5c0.5,2.9,1.1,5.8,1.6,8.6c0.9,4.9,1.9,10,2.8,15
	c0.4,2.4,0.7,4.9,0.9,7.3c0.3,2.3,0.5,4.7,0.9,7.1c-5-8.6-9.9-17.4-14.7-25.8c-3.7-6.5-7.4-13.2-11.2-19.7c-0.5-0.9-1-1.8-1.6-2.7
	c-2-3.5-4.1-7.1-5.8-10.7c-0.2-0.5-0.5-1-0.8-1.6c-0.1-0.3-0.3-0.6-0.4-0.8c0,0-0.1-0.1-0.1-0.1c-0.8-1.5-1.4-3-2.1-4.6
	c-0.4-1-1-2-1.4-3c-0.1-0.4-0.2-0.7-0.4-1.1c-0.6-1-1.1-2.7-1.4-4.1C266.6,532.5,266.3,531.7,266.1,531.1z M288.4,647.8
	c-1.4-2.6-2.8-5.3-4.1-7.9c-5.7-11.1-10.8-20.1-15.8-28.4c-0.7-1.1-1.4-2.2-2.1-3.3c-1-1.6-2.1-3.2-3-4.8c-1.2-2.2-0.9-3.9-0.5-6.4
	l0.1-0.4c0.7-3.9,1.1-7.9,1.4-11.7c0.2-2.2,0.4-4.4,0.7-6.6c0.3-2.2,0.7-4.5,1.1-6.6c0.3-1.8,0.7-3.7,0.9-5.6
	c0.3-2.2,0.7-4.5,1.1-6.7c0.7-3.8,1.4-7.6,1.6-11.4c1.5,2.4,2.8,5,4,7.6c1.2,2.4,2.4,4.9,3.8,7.2l5.9,10c1.8,3.1,3.5,6.3,5.2,9.3
	c0.7,1.3,1.4,2.6,2,3.8c1.8,3.4,3.8,7,5.9,10.6c0.4,0.7,0.9,1.5,1.5,2.3c1.4,2,3,4.4,3.1,6.2c0.1,9.7,0.1,20.9-0.6,32.1
	c-0.2,3.1-0.4,6.3-0.5,9.4c-0.3,6.9-0.6,14-1.7,21C295.2,660.8,291.7,654.2,288.4,647.8z M326.1,690.6c-0.8,6-1,12.1-1.2,18.1
	c-0.2,4.5-0.3,9.1-0.7,13.7c-0.2,1.9-0.4,3.9-0.5,5.8c-0.7,7.9-1.4,16-2.6,24c-0.4,2.9-0.7,6-1,8.9c-0.1,1.4-0.3,2.9-0.4,4.3
	c-0.1,1.3-0.3,2.7-0.5,4c-0.5,3.6-0.9,7.3-0.8,11c0.1,3,0.7,6,1.2,8.9c0.3,1.7,0.6,3.4,0.9,5.1c0.3,2.3,0.2,3.6-0.5,4.3
	c-0.6,0.7-1.8,1-3.9,0.9c-2.2-0.1-4.3-0.4-6.5-0.6c-2.6-0.3-5.3-0.6-7.9-0.7l-0.2,0c-3.4,0-5.4-0.2-5.7-3.3
	c-0.2-2.5,0.3-5.2,0.8-7.8c0.4-2,0.7-4,0.8-6c0.1-2.9,0-5.8-0.1-8.6c-0.1-2-0.1-4.1-0.1-6.2c0.1-12.9,0.8-26,1.4-38.7
	c0.4-7.5,0.8-15.2,1.1-22.7c0.2-4.7-0.1-9.4-0.4-13.9c-0.1-1.3-0.2-2.6-0.2-3.9c-0.1-2-0.3-5.5,1-7.2c0.7-0.9,1.1-1.1,1.9-1.1
	c0.3,0,0.7,0,1.2,0.1c0.2,0,0.5,0.1,0.7,0.1l2,0.2c5,0.5,10.2,0.9,15.1,2C326.3,682.2,326.9,685.2,326.1,690.6z M330.4,539.8
	c-2.9,4.8-2.9,10.6-2.9,16.1c0,2,0,3.8-0.2,5.7c-0.2,3.3-0.6,6.7-0.9,9.9c-0.4,4.3-0.8,8.7-1.1,13.1c-0.4,6.8,0,13.8,0.4,20.5
	c0.1,1.3,0.1,2.6,0.2,3.8c0.4,7.8,0.1,15.4-0.3,22.4c-0.1,2.4-0.3,4.7-0.4,7.1c-0.3,5.7-0.7,11.5-0.9,17.3
	c-0.2,4.7-0.1,8.4,0.2,11.8c0.1,0.7,0.2,1.5,0.4,2.4c0.5,2.3,1,5.2-0.2,6.6c-1.4,1.7-4.4,1-6.8,0.5c-0.6-0.1-1.1-0.2-1.6-0.3
	c-1.3-0.2-2.7-0.4-4.1-0.5c-2.1-0.2-4.2-0.5-6.3-0.9c-0.2,0-0.4-0.1-0.7-0.1c-1-0.2-3.1-0.6-3.6-1.1c-0.6-0.6-0.2-1.9,0-2.9
	c0.1-0.4,0.2-0.7,0.2-1c0.5-3.1,0.9-6.6,1.2-10.4c0.5-5.1,0.5-10.4,0.5-15.6c0-3.5,0-7.1,0.2-10.6c0.4-8.3,0.5-16.2,0.4-24
	c0.9,1.5,1.8,3,2.4,4.6c0.1,0.1,0.1,0.5,0.2,0.8c0.5,2.1,1.2,4.2,2.4,4.6c0.3,0.1,0.8,0.1,1.4-0.4c1.6-1.3,0.7-6.1-0.4-11.3
	c-0.2-1-0.4-1.8-0.4-2.2c-0.1-1.1-0.3-2.2-0.4-3.2c-0.5-4.2-1.1-8.5-2-12.8c-0.3-1.3-0.6-2.6-0.9-4c-0.9-3.8-1.8-7.8-2.1-11.7
	c-0.3-3.3-0.3-6.8-0.3-10.1c0-2.6,0-5.3-0.2-7.9c-0.1-2.1-0.3-4.2-0.5-6.2c-0.1-1.1-0.2-2.2-0.3-3.3c0-0.6-0.1-1.2-0.2-1.9
	c-0.2-2-0.5-4.2,0-5.8c1.3-3.9,5.9-3.5,10-3c1.3,0.1,2.6,0.3,3.7,0.3c0.3,0,0.7,0,1.2-0.1c3.1-0.2,11.2-0.6,12.5,1.7
	C331,538.3,330.9,539,330.4,539.8z M331.5,489.2c-0.1,4.9-0.6,9.9-1.1,14.7c-0.7,7-1.4,14.2-1,21.4c0,0.6,0.2,1.4,0.4,2.2
	c0.3,1.5,0.7,3.4,0.2,4.3c-0.7,1.3-2.9,1-4.6,0.8c-0.6-0.1-1.1-0.1-1.6-0.1c-0.7,0-1.4,0-2.1,0c-5.2,0-9.8-0.1-14.8-1.7
	c3.7-8,8.2-15.9,12.5-23.2c2.2-3.7,4.3-7.6,6.3-11.3c1.8-3.4,3.7-6.9,5.7-10.3L331.5,489.2z M332.8,397.3c0.6,1.4,0.6,3.5-0.2,5.1
	c-1.8,4.1-1.5,8.7-1.2,13.2c0.1,1.5,0.2,2.9,0.2,4.3c0,2.3,0,4.6,0.1,6.9c0,4,0.1,8.2,0.1,12.3c0,2.2,0.1,4.3,0.2,6.5
	c0.3,10.4,0.6,21.1-0.3,31.4c-0.3,3.1-2.4,6.2-4.5,9.2c-0.8,1.1-1.5,2.1-2.1,3.1c-3.3,5.5-6.4,10.9-9.1,15.5
	c-3.6,6.3-7.1,13-11,20.8c0.1-0.6,0.2-1.1,0.3-1.7c0.3-1.6,0.6-3.3,0.6-5c0-1.3,0.2-2.6,0.3-3.9c0.2-1.7,0.3-3.4,0.3-5.1
	c0-2.5,0-5.1,0-7.6c0-4.5,0-9.1-0.3-13.7c-0.7-9.7-0.4-19.5-0.1-29c0.2-5.7,0.4-11.7,0.3-17.5c-0.1-16.9-0.4-30.6-0.9-43.4
	c-0.1-3.2,0.1-4.3,3-4.6c1.2-0.1,2.5-0.2,3.8-0.2c2.5,0,5.1,0.2,7.3,0.4c1.2,0.1,2.6,0.1,4.1,0.1c2.6,0,5.2,0,7.2,0.6
	C331.7,395.6,332.4,396.3,332.8,397.3z M386.8,318.9c3.1-1.2,6.3-2.3,9.4-3.3c2.9-1,5.9-2,8.8-3c2.1-0.8,4.1-1.7,6.3-2.8
	c3.7-1.7,7.4-3.5,11.2-4.3c-3.9,3-7.8,6.2-11.7,9.2c-10.9,8.7-22.2,17.7-34.1,25.3c-3.1,2-6.1,4.1-9.1,6.2
	c-4.7,3.3-9.6,6.7-14.8,9.6c-4.2,2.3-8.5,4.1-12.8,5.1c-2.1,0.5-4.3,0.7-6.5,0.8l-0.3,0c-0.3,0-0.7,0.1-1.2,0.1
	c-1.4,0.2-3.6,0.4-4.8,0c2.1-2.3,4.5-4,7-5.7l0.6-0.4c1.1-0.8,2.2-1.5,3.4-2c0.4-0.2,0.8-0.2,1.3-0.3c0.7-0.1,1.5-0.3,2.4-0.9
	c0.7-0.5,1.2-1.1,1.8-1.7c0.6-0.6,1.1-1.2,1.8-1.6c0.7-0.5,1.5-0.9,2.3-1.3c0.4-0.2,0.8-0.4,1.1-0.6c2.2-1.2,4.5-2.4,6.7-3.6
	c1.4-0.8,2.9-1.5,4.3-2.3c5.5-3,10.9-6.2,16.2-9.3c2.8-1.6,5.5-3.3,8.3-4.9c0-0.1,0.1-0.1,0.1-0.2c0.1-0.4,0.1-0.9,0.1-1.3
	c-1.7-1-3.8,0.3-5.3,1.3c-0.4,0.2-0.7,0.5-1,0.6c-4,2.1-7.9,4.3-11.4,6.2l-4.7,2.6c-4.5,2.5-9.1,5.1-13.7,7.6
	c1.2-2.1,2.2-4.3,3.1-6.3c0.2-0.4,0.3-0.8,0.5-1.3c0.4-1.3,0.9-2.8,2-3.1l0.1,0C365.5,327.7,376.5,322.8,386.8,318.9z M358.7,267.9
	c-0.1,1.1-0.2,2.1-0.2,3.2c-0.2,3.2-0.3,6.4-0.5,9.5c-0.2,4.7-0.4,9.6-0.8,14.4l0,0.4c-1.2,14.7-2.6,31.4-9.9,44.2L347,340
	c-4.7,8.4-7.2,10.2-8.4,10.2c0,0,0,0,0,0c-0.2,0-0.7,0-1.3-1.1c-0.8-1.6,0.5-5.4,1.3-8c0.3-0.8,0.5-1.6,0.7-2.1
	c0.9-3.6,1.9-7.5,2.9-11.7l0.6-2.5c1.2-5.3,2.5-10.8,3.8-16.2c0.7-2.7,1.4-5.5,2.1-8.2l0.8-3.1c-0.1-0.8-0.3-2.9-1.6-1.3
	c-0.4,0.4-0.5,1.1-0.8,1.6c-0.2,0.5-0.4,1-0.7,1.4c-0.4,1.5-0.8,3-1.2,4.6c-1,3.6-2,7.4-2.9,11.1c-0.7,2.9-1.4,5.8-2.1,8.7
	c-0.8,3.3-1.6,6.7-2.4,10.1c-0.3,1.2-0.7,2.5-1,3.7c-0.3,1-0.6,2-0.8,3c-0.1,0.5-0.2,1.3-0.4,2.4c-0.3,2.1-0.8,5.9-1.7,6.4
	c-1.1,0.6-4.7-3-5.9-4.6c-1.4-1.9-2.7-4.3-3.4-6.3c-1.9-5.1-1.2-11.8-0.2-18.3c1.6-10.4,7.4-20,12.9-29.3c0.6-1,1.2-2,1.8-3
	c1.8-3.1,3.8-6.1,5.8-9.1c1.7-2.6,3.5-5.3,5.2-8.1c0.4-0.7,0.8-1.4,1.2-2c1.4-2.4,2.9-4.8,4.5-7.1c0.3-0.4,0.6-1,0.9-1.5
	c0.7-1.2,1.5-2.4,2.3-3.3C359.3,260.1,359,264,358.7,267.9z M365.6,288.3c-0.2,0.5-0.4,1.1-0.6,1.7c-0.8,2.5-1.7,5.3-3.5,6.8
	c-0.5-2.1-0.3-5.1-0.2-7.5c0.1-1.1,0.1-2.1,0.1-2.9c0-3.3,0.1-6.7,0.2-9.9c0-2.3,0.1-4.7,0.1-7c0.1-4.2,0.2-9.1,0.7-14
	c0.1-0.5,0.1-1,0.2-1.5c0.4-2.5,0.8-5.4-0.3-7.6l-0.3-0.7l-0.5,0.6c-0.4,0.6-0.7,1.2-1,1.8c-0.2,0.4-0.3,0.8-0.5,1.1
	c-0.3,0.4-0.5,0.7-0.8,1c-0.3,0.3-0.6,0.6-0.9,1.1c-1,1.5-2,3.1-3,4.7c-0.5,0.7-1,1.5-1.4,2.2c0.2-1.2,0.4-2.4,0.8-3.6v0
	c1-3.5,1.8-7,2.7-10.4c1.4-5.6,2.8-11.4,4.7-17.1c3.2-9.7,7-19.5,10.8-28.6c0.8,6.6,0.9,13.5,1,20.1c0.1,8.8,0.1,19-0.8,28.8
	c-0.8,9.1-1.8,18.7-3.8,28.2C368.2,280.2,367,284.3,365.6,288.3z M467.5,261c-15.3,8.5-28.6,14.9-41.7,20.2
	c-8.3,3.4-17,6.3-25.7,8.8c-4.5,1.3-9.4,1.9-14.6,1.8c-0.6,0-1.2,0-2,0c-2.8,0.1-6.5,0.2-8.5-1.1c0.4-0.4,0.8-0.7,1.2-0.9l0,0
	c5.7-3.4,12.4-5.5,18.8-7.6c2-0.7,4.2-1.4,6.2-2.1c4.8-1.7,9.9-3.1,14.7-4.5c3.7-1,7.5-2.1,11.2-3.3c5.2-1.7,11.1-3.6,16.9-5.3
	c4.6-1.3,9.3-2.4,13.4-3.3c1.9-0.4,3.8-1,5.6-1.5C464.6,261.8,466,261.4,467.5,261z M390.2,271.8c6.6-3.3,14.3-5.2,21.7-7
	c1.8-0.4,3.6-0.9,5.3-1.3c0.6-0.2,1.3-0.3,1.9-0.5c4-1,8.1-2.1,12.3-2.3c5.1-0.2,9.5-0.6,14-1.2c5.6-0.8,11.3-1.1,16.9-1.4
	c0.9,0,1.8-0.1,2.8-0.2c-0.6,0.2-1.1,0.4-1.6,0.6c-3.9,1.5-8.2,2.4-12.3,3.3c-3.3,0.7-6.8,1.4-10.1,2.5l-2.6,0.8
	c-7.5,2.4-15.3,5-23.1,7c-7.4,1.9-14.7,4.5-20.1,6.6c-2.2,0.8-4.4,1.5-6.6,2.2c-1.2,0.4-2.3,0.7-3.5,1.1c-1.7,0.6-3.4,1.4-5,2.2
	c-2.2,1.1-4.4,2.2-6.6,2.7c-0.3-1.8,2.9-5.3,6.5-8.2C382.7,276.6,386.3,273.8,390.2,271.8z M394.5,251.1
	C394.5,251.1,394.4,251.1,394.5,251.1c-0.3,0-0.5-0.3-0.7-0.8c-0.5-1.5,0.2-4.3,0.8-6.4c0.2-0.8,0.4-1.6,0.6-2.3
	c0.8-4.1,1.6-8.2,2.4-12c1-4.9,2.2-10.2,3.9-15.6l0.6-2c3.5-10.8,7.1-22,11.4-32.7c-0.1-0.4-0.3-0.8-0.7-1.1c-0.1,0-0.1,0-0.2,0
	c-0.2,0-0.4,0-0.7,0.1c-2.1,0.9-4,6.1-5.7,11.6c-0.2,0.7-0.4,1.2-0.5,1.5c-1.5,4.1-2.9,8.3-4.2,12.4c-0.9,2.8-1.8,5.6-2.8,8.4
	c-2.5,7.3-4,14.6-5.4,22c-0.7,3.5-1.4,7.1-2,10.6c-0.1,0.5-0.2,1-0.2,1.5c-0.2,1.3-0.4,2.6-0.9,3.7c-0.8-0.4-1.3-1.1-1.6-1.9
	c-1.6-2.6-1.8-5.8-1.3-8.7c0,0,0,0,0-0.1c0.3-10.8,1.4-19,3.5-26.6c1.9-6.9,4.9-14,9.4-22.3c2.8-5.1,5.8-10.2,8.8-15.1l2-3.4
	c0.8-1.3,1.5-2.5,2.3-3.8c2.9-5,6-10.2,9.4-14.7c-0.3,2.9-1.1,5.8-2,8.7c-0.6,2.1-1.2,4.3-1.6,6.4c-1.2,6.6-2.2,12-3.6,17.7
	c-1.5,6.5-3,13.2-4.5,19.6c-1.2,5.4-2.4,10.7-3.7,16.1c-1.4,6-3.1,13.4-6,19.8C400.7,243.8,396.4,251.1,394.5,251.1z M492.4,178.8
	c-1.4,1.4-2.9,2.8-4.1,4.2l-2.5,2.9c-1.7,1.9-3.4,3.9-5,5.8c-8.7,10-16,17.9-23,25c-8.1,8.2-17.2,17.5-29.9,22.1
	c-2.9,1.1-5.1,1.6-7.6,1.9c-0.2,0-0.7,0.1-1.3,0.3c-5,1.2-6.3,0.9-6.4,0.5c-0.1-0.8,3.1-3.9,9.7-8.9c0.8-0.6,1.4-1.1,1.6-1.3
	c7-6,14.3-11.9,21.4-17.6c2.5-2,4.9-4,7.4-5.9c2.3-1.9,4.7-3.7,7.1-5.4c2.7-2,5.4-4,8-6.2c2.6-2.2,5.2-4.3,7.8-6.3
	c0.3-0.2,0.5-0.4,0.8-0.6c1.4-0.9,3.1-2.1,2.9-4.1c-0.2-0.2-0.5-0.3-0.7-0.5c-1.3,0.3-2.3,1.1-3.3,1.8c-0.2,0.2-0.5,0.3-0.7,0.5
	l-1,0.7c-3.1,2.2-6.4,4.5-9.5,7c-1.9,1.5-3.8,2.9-5.7,4.4c-3.1,2.4-6.4,4.8-9.4,7.4c-3.1,2.6-6.3,5.1-9.3,7.6
	c-3.1,2.5-6.3,5-9.4,7.6c-2.4,2-4.7,4.1-7,6.1c-3.6,3.2-7.2,6.5-11.1,9.4c0.6-2.5,3.5-5.8,5.5-8.2c0.6-0.7,1.1-1.3,1.5-1.7
	c2.8-3.5,5.9-6.9,9.7-10.5c6.3-6,13.6-10.9,20.6-15.7l2-1.4c17.2-11.8,31.5-19.9,46.1-26.2C496,175.3,494.2,177.1,492.4,178.8z"/>
</svg>
