<?xml version="1.0" encoding="utf-8"?>
<!-- Generator: Adobe Illustrator 21.1.0, SVG Export Plug-In . SVG Version: 6.00 Build 0)  -->
<svg version="1.1" id="Слой_1" xmlns="http://www.w3.org/2000/svg" xmlns:xlink="http://www.w3.org/1999/xlink" x="0px" y="0px"
	 viewBox="0 0 595.3 841.9" style="enable-background:new 0 0 595.3 841.9;" xml:space="preserve">
<path d="M501.2,193.7c-7.1-0.4-14.4-0.9-21.4-1.5c-20.3-1.5-41.2-3.1-62-0.8c-2.3,0.3-4.7,0.6-7,0.9c-1.3,0.2-2.5,0.4-3.8,0.5
	c-0.6,0.1-1.2,0.2-1.9,0.4c-1.2,0.3-2.5,0.6-3.5,0.5c-1.1-0.1-1.9-0.7-2.9-1.4c-0.4-0.3-0.7-0.6-1.1-0.8c-3-2-6-3.9-8.9-5
	c-1.9-0.7-3.3-0.9-5-0.5c-0.6,0.1-0.9,0.3-1.1,0.5c-0.2,0.1-0.3,0.2-0.7,0.2c-1.5-0.2-6-2.9-7-3.9c-0.5-0.5-0.9-1.1-1.2-1.7
	c-0.6-0.9-1.1-1.8-2.2-2.5c-1.7-1.1-4-1.5-5.7-1.7c-4-0.6-7.9-2.5-11.6-4.4c-1.7-0.9-3.5-1.7-5.2-2.5l-1.6-0.7
	c-3.1-1.3-6.3-2.7-9.1-4.5c-0.5-0.3-0.8-0.4-1.1-0.5c-0.4-0.2-0.5-0.2-0.7-1.1c-0.2-0.7,0-1.8,0.1-2.8c0.1-0.9,0.2-1.8,0.2-2.6
	c-0.8-8.2-1.8-16.8-3.1-26.5c-1.5-11.6-3.9-23.2-6.1-34.5c-1.3-6.4-2.6-13-3.8-19.5c-1.4-8.1-2.7-16.5-3.7-25.2
	c-0.3-2.6-0.7-5.3-1.1-7.8c-0.2-1.3-0.4-2.6-0.6-3.9c-0.3-2.2-0.5-4-0.6-5.9c0-0.6,0-1.2,0.1-2c0.1-1.6,0.2-3.3-0.4-4.6
	c-2-3.8-7.8-2.5-9.6-2.1c-2.5,0.6-5,0.8-7.4,1c-1.7,0.2-3.4,0.3-5.2,0.6c-2.5,0.4-6.6,1-7.7,4.6c-0.8,2.6,0.3,5.7,1.2,8.5
	c0.4,1.3,0.8,2.5,1.1,3.5c1.7,8.5,3,17.8,4.1,28.6c0.7,6.6,1.9,13.3,3,19.8c0.5,3,1.1,6.2,1.6,9.3l0.6,3.6
	c1.4,8.8,2.9,17.8,3.8,26.8c0.1,1.2,0.3,2.4,0.4,3.5c0.4,3.7,0.8,7.6,1.1,11.4c0.1,1.1,0.1,2.2,0.1,3.3c0,1.3,0,2.7,0.1,4.1
	c0.1,0.8,0.2,1.7,0.4,2.5c0.2,1.1,0.4,2.2,0.4,3.3c-4.5-4.6-9.5-7.7-14.8-11l-0.5-0.3c-1.1-0.7-2.1-1.4-3.2-2.1
	c-1.3-0.9-2.7-1.9-4.1-2.7c-1.6-0.9-3.4-1.8-4.9-2.5c-1.5-0.7-2-1.3-2.8-2.3c-0.2-0.3-0.5-0.6-0.8-1c-5.8-6.7-16.2,0.2-21.8,4
	c-5.4,3.6-9.9,7.7-14.7,12c-1,1-2.1,1.9-3.2,2.9c-1.4,1.2-2.8,2.5-4.2,3.7c-11.1,9.9-22.5,20-32.5,31.4c-1.4,1.6-2.7,3.1-4.1,4.6
	c-1.3,1.4-2.6,2.9-3.9,4.3c-1.4,1.6-2.9,3.3-4.3,4.9c-0.2,0.3-0.6,0.6-1,1c-1.8,1.8-3.2,3.3-3.2,4.5c0,1.1,0.5,1.5,0.9,1.7
	c1.1,0.6,3-0.4,4.4-1.4c1.2-0.9,2.5-1.8,3.6-2.7c1.2-0.9,2.5-1.9,3.7-2.8c11.1-7.6,23.3-13.6,35.1-19.5c2.8-1.4,5.6-2.8,8.4-4.2
	c-5,8.5-8.9,17.2-13.1,26.4c-0.6,1.4-1.3,2.9-2,4.3c-2.3,5.1-4.2,10.5-6,15.8l-1,2.8c-0.1,0.4-0.3,0.9-0.5,1.4
	c-0.8,2-1.7,4.4-1.4,6.4c0.2,1.3,0.7,2,1.4,2.2c0.8,0.2,1.7-0.3,2.7-1.5c1-1.2,1.8-2.5,2.6-3.8c0.8-1.3,1.6-2.6,2.6-3.8
	c0.8-0.9,1.6-1.8,2.5-2.7c1.1-1.2,2.3-2.5,3.4-3.9c4.8-6.2,8.9-11.4,13.3-16.5c2.1-2.4,4.2-4.7,6.2-7c5.6-6.2,11.4-12.7,16.4-19.9
	c7.4-10.9,13-22.7,16.4-35.2c1.5,0.5,3.2,1.6,4.6,2.5c0.5,0.4,1,0.7,1.5,1c1,0.6,2.1,1.3,3.2,1.9c2.2,1.3,4.5,2.6,6.6,4.2
	c3.4,2.7,7.1,6.6,9.5,10.1c1,1.5,0.6,3.1,0.1,5c-0.3,1.3-0.7,2.6-0.6,4c0.1,1.8,0.3,3.7,0.6,5.5c0.3,2.4,0.6,4.9,0.6,7.4
	c0.1,6.1,0.3,12.4,0.5,18.4l0.1,5.3c0.2,7.5,0.5,15.1,0.8,22.4c0.4,8.3,0.7,16.9,0.9,25.4c0.1,4.9,0,9.8,0,14.6
	c0,2.9-0.1,5.8-0.1,8.7l0,1.5c0,3.3,0,6.7-0.2,10c0,0.6-0.1,1.3-0.2,2c-0.3,3.2-0.6,6.8,0.4,9.8c0.2,0.6,0.7,1.2,1.1,1.8
	c0.4,0.5,0.9,1.1,0.9,1.4c0,0.5-0.5,1.2-1,1.8c-0.4,0.6-0.8,1.1-1,1.6c-0.8,2.5-0.8,5.8-0.7,8.6c0,1.1,0,2.2,0,3.1
	c-0.1,5.1,0,10.2,0.1,15.2c0.1,2.2,0.1,4.4,0.2,6.6c-0.7-3-1.4-6.1-2-9.3c-5.1-23.4-10.3-47.5-26.9-64.4c-2.9-3-5.6-4.5-8-4.4
	c-1.7,0-3.2,0.8-4.5,2.3c-4.4,4.9-5.1,11.7-5.1,17.7c-0.1,7,1.4,14,4.3,21.4c0.4,1,0.9,2,1.4,3c1,1.9,2,3.8,2.2,5.7
	c0.3,2.3-0.1,4.9-0.4,7.4c-0.1,0.9-0.2,1.7-0.3,2.5c-0.4,3.3-0.8,6.6-1.2,9.8c-0.6,4.3-1.2,8.7-1.6,13.1c-0.2,2.5-0.4,5-0.6,7.4
	c-0.1,1.4-0.2,2.9-0.3,4.3c-0.1,0.7-0.1,1.6-0.1,2.5c-0.1,2.6-0.1,5.7-1,7.7c-2-2.4-3.8-5.1-5.6-7.7c-0.8-1.2-1.7-2.5-2.5-3.7
	c-2.1-3-3.2-6.3-4.4-9.8l-0.2-0.7c-0.6-1.9-1.4-3.4-3.1-4.8c-0.6-0.5-1.3-0.8-2-1.2c-0.8-0.4-1.6-0.8-2-1.3c-0.5-0.5-0.8-1.2-1.1-2
	c-0.3-0.7-0.6-1.4-1-2c-0.7-1-1.6-1.6-2.5-2.2c-0.7-0.4-1.3-0.8-1.8-1.4c-0.7-0.7-1.2-1.6-1.8-2.5c-0.6-0.9-1.2-1.8-1.8-2.6
	c-1.8-2.2-3.5-4.2-5-6.1c-1.6-2.1-2.4-3.3-2.9-5.6c-0.4-1.9-1.5-3.8-3.1-5.3c-2.2-2.1-5.2-3.7-7.9-5.1c-0.6-0.3-1.2-0.6-1.8-0.9
	c-0.8-0.4-1.7-0.9-2.5-1.3c-3.1-1.7-6.4-3.4-9.6-5c-15.5-7.3-34.8-11.8-59.2-13.9c-0.2,0-0.6-0.1-0.9-0.1c-2.1-0.3-5.3-0.7-6.7,0.6
	c-0.5,0.5-0.7,1.1-0.6,1.9c0.3,2.4,3.9,4.7,6.6,6.3c0.8,0.5,1.5,0.9,1.9,1.3c5.3,3.9,11.2,7.1,17,10.2c1.6,0.9,3.2,1.7,4.8,2.6
	c8.3,4.6,17.5,9.3,27.8,13c6.1,2.2,11.7,4.1,17.6,4.9c5.1,0.7,12.1,1.2,15.3-2.9c0.5,0.7,1.1,1.4,1.7,2.1c0.3,0.4,0.6,0.7,0.9,1.1
	c0.4,0.5,1,1.2,1.6,1.8c1.1,1.2,2.5,2.6,3.2,3.9c-8.5-1.8-18.1-2.1-26.6-2.3l-1.9-0.1c-10.8-0.4-21.9,0.5-31.5,1.4
	c-17.4,1.5-34.5,5.1-50.4,8.7c-7.9,1.8-15.7,4.2-23.2,6.5l-2.9,0.9c-2.3,0.7-3.4,1.5-3.5,2.5c-0.1,0.8,0.5,1.6,1.8,2.3
	c2.4,1.3,5.9,1.3,8.9,1.3c1.3,0,2.5,0,3.5,0.1c15,1.4,30.8,2.7,49.7,4.1c5.4,0.4,10.9,0.4,16.2,0.5c4.4,0,9,0.1,13.5,0.3
	c2.5,0.1,5,0.2,7.4,0.3c3,0.1,6,0.2,9,0.4c1,0.1,1.9,0.1,2.9,0.2c1.8,0.2,3.6,0.3,5.5,0.3c0.5,0,1.2-0.1,1.9-0.2
	c0.9-0.1,1.9-0.3,2.6-0.3c-1.2,1.1-2.4,2.2-3.6,3.3c-5.8,5.3-11.9,10.8-17.4,16.8c-7,7.5-13.3,15.5-19.1,23.1
	c-5.9,7.6-11.2,15.8-16.3,23.6c-2.2,3.4-4.6,7.1-6.6,11c-0.5,0.9-1.1,1.8-1.6,2.8c-1.3,2.2-2.7,4.4-3.2,6.9l-0.2,1l0.9-0.5
	c2.2-1.2,3.6-2.7,5.1-4.4c0.7-0.8,1.5-1.6,2.4-2.5c3.2-2.9,6.6-5.7,10-8.3l0.9-0.7c7.2-5.7,13.7-10.6,19.9-15
	c8.4-6,17.2-11.9,25.7-17.6c5.2-3.5,10.6-7.1,15.9-10.7c-0.4,10.8-0.4,21.7-0.5,32.4c0,2.9,0,5.9,0,8.8c0,1.4-0.1,2.9-0.2,4.6
	c-0.2,4.4-0.5,9.3,0.7,13.1c0.3,1,0.9,2.4,1.9,2.4h0c0.7,0,1.9-0.6,3.2-5.9c2.9-11,6.7-22.1,10.4-32.7l1.1-3.3c0.5-1.5,1-3,1.6-4.5
	c4.3-12.2,9.1-25.9,8.8-39.1c2.5,3.5,5.1,7.1,7,10.7c1.3,2.5,2.9,4.7,4.5,7c0.9,1.3,1.8,2.6,2.7,4c4.3,6.6,8.4,13.5,12.4,20.1
	l2.3,3.8c4.5,7.5,9.7,16.4,14.4,25.4c1.7,3.4,3.7,6.9,6.3,11.5c1.1,2,1.3,2.4,0.9,4.6c-0.7,3.1-1.2,6.6-1.5,10.4
	c-0.4,5.7-0.8,11.5-1.1,17.2c-0.3,6-0.7,12.2-1.2,18.3c-0.5,5.9-0.8,11.9-1.2,17.7c-0.3,5.6-0.7,11.4-1.1,17.1
	c-0.9,11.1-1.9,23.1-3.7,35.4c-0.1,0.9-0.3,1.9-0.4,2.8c-0.3,1.8-0.6,3.7-0.8,5.5c-0.1,1.2,0.1,2.2,0.3,3.3c0.3,1.3,0.5,2.6,0,3.9
	c-0.4,0.9-0.8,1.7-1.2,2.4c-0.7,1.3-1.4,2.6-1.8,4.1c-0.6,2.2-0.9,4.6-1.3,6.9l-0.2,1.5c-1.5,9.8-2.8,19.7-4.2,29.4
	c-2.1,14.8-4.2,30.1-6.6,45.2c-0.9-2.8-2.3-5.3-3.8-7.9c-0.4-0.8-0.9-1.5-1.3-2.3c-0.8-1.4-1.5-3-2.2-4.4c-0.2-0.5-0.5-1.1-0.7-1.6
	c-1.1-1.6-2.3-3.1-3.8-4.5c-1.2-1.1-2.5-2.2-3.9-3c-1.4-0.8-2.9-1-4.4-1.3c-6.4,0.1-15,0.7-22.6,3.1c-4.7,1.5-9.4,4.1-13.8,6.7
	c-1.7,1-3.5,2-5.2,2.9c-13.2,6.9-25.7,14.9-38.3,24.3l-1.8,1.4c-5.2,3.9-11,8.2-15.1,13.1c-1.3,1.5-1.6,2.8-1.1,3.7
	c0.3,0.4,1.1,1.1,3.2,0.4c1.2-0.4,2.4-1,3.5-1.6c0.9-0.5,1.9-1,2.9-1.4c1.5-0.6,3.1-1,4.6-1.4c0.9-0.2,1.8-0.5,2.7-0.8
	c4-1.3,8-2.9,11.9-4.4c3.6-1.4,7.3-2.9,11.1-4.1c2.7-0.9,5.5-1.6,8.3-2.4c4.8-1.3,9.8-2.6,14.5-4.8c1.9-0.9,3.8-1.7,5.7-2.5
	c5.6-2.5,11.5-5,17-8.2c6.8-4,13.3-9,19.9-15.4c0.9,1,1.5,2.3,2.1,3.6c0.2,0.4,0.4,0.8,0.6,1.2c0.7,1.3,1.4,2.7,2.2,4
	c0.8,1.5,1.7,3,2.5,4.6c2,4,3.3,8.4,3.5,11.9c0.1,2.3,0.3,3.5,1,5.5c0.6,1.7,0.3,2.5-0.3,4.1l-0.2,0.6c-1.5,4.1-2.4,8.6-3.2,12.9
	c-0.4,2.1-0.8,4.3-1.3,6.4c-1.5,6.5-2.5,13.3-3.5,19.8c-1,6.6-2.1,13.4-3.6,20c-1.4,6.1-3,12.4-4.5,18.4c-1.6,6.6-3.3,13.5-4.9,20.3
	c-1.4,6-2.8,12.2,2.8,17.4c0.5,0.5,2.6,1.8,5,3.1c5,3.2,11.3,5.2,14.9,0.4c4.4-4.1,7.5-21.4,9-30c0.3-1.8,0.6-3.3,0.7-4
	c2.9-12.7,5.9-26,9-40.9c1.3-6.2,3-12.3,4.6-18.3l0.5-1.8c1.7-6.1,3.6-13,2.1-20.2c-0.1-0.4-0.3-0.9-0.5-1.5c-0.3-0.9-0.7-2-0.6-2.6
	c0.1-0.4,0.5-0.7,1-1.1c0.4-0.3,0.9-0.7,1.3-1.3c1.1-1.7,1.4-4.1,1.6-6.3c0.1-0.6,0.1-1.2,0.2-1.7c0.5-3.5,0.6-7.1,0.7-10.6
	c0.1-3,0.2-6,0.5-9c1.5-13.7,3.6-27.8,6.3-41.9c1.4-7.1,2.6-14.2,3.7-20.2c0.1-0.5,0.2-1,0.3-1.4c0.4-2.3,0.9-4.7,0.9-7.1
	c0-2.3,0.1-2.8,1.3-4.7c1.4-2.2,2.5-4.6,3.7-6.9c0.9-1.8,1.7-3.6,2.7-5.4c1.4-2.5,2.9-5,4.3-7.5c1.7-2.9,3.4-5.9,5.1-8.9
	c0.8-1.5,1.7-3,2.5-4.5c1.6-2.7,3.2-5.6,4.7-8.4c4,18.4,14.2,38.1,31.3,60c1.8,2.3,3.5,4.8,5.2,7.1c3.9,5.5,8,11.3,13.1,15.7
	c2.5,2.1,5,4.5,8,7.3c2.2,2.2,7.7,7.1,10.1,5.9c0.9-0.4,1.2-1.5,1.1-3.2c-0.3-3.4-2.1-6.7-3.8-9.9c-0.6-1.1-1.2-2.2-1.7-3.3
	c-0.9-2-1.8-3.9-2.7-5.9c-0.9-1.9-1.7-3.8-2.6-5.7c-3.5-7.5-7.4-14.9-11.1-22.1c-1.6-3.1-3.2-6.2-4.8-9.3
	c-8.3-16.2-18.7-34.4-37-45.5c0.2-0.4,0.5-1,0.8-1.6c1.1-2.2,3-5.8,4.3-6.1c1.6-0.4,2.1,1,2.8,3c0.2,0.7,0.4,1.3,0.7,1.8
	c4.4,7.4,13.5,9.8,20,10.8c12.1,2,24.5,2.9,36.5,3.7c5.8,0.4,11.7,0.8,17.6,1.4c3.9,0.4,7.9,0.9,11.8,1.5c9.3,1.3,18.9,2.6,28.2,1.5
	c1.6-0.2,2.4-0.7,2.6-1.4c0.2-0.8-0.4-1.8-1.9-3c-3-2.3-6.4-4-9.8-5.7l-1.3-0.6c-5.3-2.6-10.9-4.6-16.3-6.6c-2.8-1-5.7-2.1-8.5-3.2
	c-6.3-2.5-14.5-5.7-22.9-8l-0.9-0.3c-4.2-1.2-8.6-2.4-12.9-3.5c-0.6-0.1-1.1-0.3-1.7-0.4c-1.8-0.4-3.6-0.9-5.4-1.3
	c-0.8-0.2-1.7-0.2-2.6-0.3c-1.1-0.1-2.3-0.2-3.3-0.4c6-3.9,12.3-7.7,18.3-11.4c9.4-5.7,19-11.6,28.2-18.1c3.2-2.2,6.2-4.9,9.1-7.5
	c3.8-3.4,7.8-6.9,12.2-9.5c0.3-0.2,0.7-0.4,1.2-0.5c1.4-0.6,3.2-1.3,3.1-3.1c-0.1-0.7-0.3-1.3-0.7-1.6c-0.8-0.5-1.8-0.2-2.6,0.1
	c-0.1,0-0.3,0.1-0.4,0.1c-0.9,0.3-1.8,0.5-2.6,0.8c-3.7,1.1-7.5,2.3-11.3,3.1c-18.1,3.7-37.5,10.8-59.4,21.8
	c-10,5-17.5,10.2-24.2,16.7L359,512c-3,2.9-6.4,6.2-8,10.2c-0.8,2-0.4,2.8,0.2,4c0.2,0.4,0.4,0.8,0.6,1.3c0.8,1.9-0.4,3.9-1.4,5.7
	l-0.4,0.7c-0.5,0.8-0.9,1.7-1.5,2.4c-0.2,0.2-0.3,0.5-0.4,0.7c-0.1,0.3-0.2,0.5-0.4,0.6c0,0-0.2,0-0.3,0c-0.3,0-0.8-0.1-1.3,0.3
	c-1.3,1.1-1.1,2.1-1,2.9c0.1,0.4,0.1,0.8,0,1.3c-0.2,1.3-1.6,3.1-2.7,4.6c-0.6,0.8-1.2,1.6-1.6,2.2c-4.4,7.4-8.7,15.1-12.8,22.5
	c-0.9,1.6-1.7,3.1-2.6,4.7c0.3-3.9,0.4-7.7,0.6-11.5c0.4-8.6,0.9-17.6,2.2-26.4c1.2-8.2,1.7-16.5,2.2-24.6
	c0.4-5.8,0.7-11.9,1.3-17.8c0.7-6.7,1.9-13.4,3.1-19.8c0.2-1.1,0.4-2.1,0.6-3.2c1-5.2,2.1-10.7,1.4-15.9c-0.5-3.6-0.2-7.5,0.2-11.3
	c0.2-2.7,0.5-5.6,0.4-8.3c-0.2-7.8-0.2-13.7,0-19.4c0.6-13.1,1.2-27.1,1.1-41.1c-0.1-13,1-25.5,2.1-38.7l0.3-3.7
	c0.1-1.4,0.3-3,0.6-4.7c0.7-4.8,1.4-10.2,0.1-14.4c-0.2-0.5-0.4-0.9-0.5-1.2c-0.3-0.7-0.4-0.9-0.1-1.7c0.1-0.3,0.4-0.5,0.7-0.8
	c0.4-0.3,0.8-0.7,1.1-1.3c0.6-1.6,0.2-3.6-0.1-5.6c-0.2-1-0.4-2-0.4-2.8c-0.2-6.2-0.6-12.5-1-18.6c-0.5-7.2-1-14.6-1.1-22
	c-0.2-16.4-0.7-33-1.2-47.3c-0.1-3.7-0.3-7.6-0.5-11.2c-0.2-4.2-0.4-8.6-0.6-12.9c-0.1-2.6,0.1-5.4,0.3-8c0.3-4.3,0.6-8.8-0.1-12.9
	c4,2.1,8.2,4.2,12.2,6.1c3.3,1.6,6.7,3.3,10,5c-5.4,6-5.2,16-5.1,23.3l0,0.2c0.1,6.8,0.8,13.6,2.2,21.5c2.2,13.1,5.8,26.3,9.2,39
	c1.1,4,2.2,8,3.2,12c1.1,4.4,2.4,9,3.8,14.3c0.6,2.1,1.2,4.2,1.8,6.4c0.1,0.5,0.3,1.1,0.4,1.8c0.4,1.9,0.8,4,1.8,5.1
	c0.2,0.2,0.2,0.3,0.2,0.5c0,0.3,0.1,0.7,0.8,0.8c0.5,0.1,1,0.1,1.4-0.2c0.7-0.5,0.9-1.5,1-2.2c0-0.2,0.1-0.4,0.1-0.5
	c1.2-4.4,1.7-8.9,2-12.4c1.3-14.6,1.8-30.6,1.4-47.6c-0.5-18.2-1.3-35.9-6.7-52.6c2.9,2.2,4,5.5,5.2,9c0.6,1.9,1.3,3.9,2.3,5.8
	c3.4,6.4,7.9,13,12.8,19.1c9.2,11.3,20.2,20.1,30.9,28.5c6.4,5.1,13.4,9.6,20.1,13.9c4,2.6,8.1,5.3,12.1,8c0.3,0.2,0.9,0.8,1.6,1.4
	c2.4,2.1,4.3,3.8,5.5,3.6c0.7-0.1,1.2-0.4,1.4-0.9c0.5-1.1-0.6-2.6-1.9-4.3c-0.3-0.4-0.5-0.7-0.6-0.9c-1.9-3.2-4.1-6.4-6.2-9.4
	c-1.8-2.6-3.7-5.3-5.4-8c-4.8-7.8-9.1-14.2-13.9-20.5c-2.5-3.3-5.2-6.5-7.7-9.4c-0.5-0.6-1.2-1.3-1.8-2c-1.3-1.4-2.8-2.9-3.6-4.4
	c8-1.5,15.7-4.3,23.2-7c6.2-2.3,12.7-4.6,19.2-6.1c5.4-1.3,10.6-3.2,15.6-5c0.9-0.3,1.9-0.7,2.8-1c1-0.4,2.3-0.6,3.6-0.9
	c3.3-0.7,7.1-1.4,8.5-4.3l0.3-0.7L501.2,193.7z M237.2,180.1c-0.3,0.1-0.5,0.3-0.8,0.4c-2.6,1.2-5.1,2.5-7.7,3.7
	c-5.7,2.7-11.5,5.5-17.2,8.5c-4.1,2.1-8,4.6-11.8,7c-2.8,1.7-5.6,3.5-8.6,5.2c1.8-2.2,3.8-4.4,5.8-6.5c1.6-1.7,3.2-3.5,4.7-5.3
	c1.6-1.8,3.2-3.7,4.9-5.5c6.2-6.5,13-12.6,19.6-18.6l3-2.7c1.6-1.4,3.2-2.8,4.9-4.2c2.3-1.9,4.7-4,6.9-6.1l0.4-0.4
	c2.6-2.5,5.3-5.1,8.3-7.2c0.5-0.3,1.1-0.8,1.7-1.2c3.8-2.8,11.2-8.2,16.1-8.2c0.4,0,0.8,0,1.2,0.1c-0.1,0.1-0.2,0.2-0.3,0.4
	c-0.1,0.2-0.2,0.5-0.3,1c-0.1,0.3-0.2,0.6-0.2,0.7c-0.6,0.9-1.7,1.7-2.8,2.5c-0.5,0.4-1,0.7-1.4,1.1c-3,2.6-5.9,5.3-8.7,8l-1,0.9
	c-1.5,1.5-3.1,2.9-4.6,4.4c-4.7,4.4-9.5,9-14.2,13.6c0,0.4,0,0.7,0.2,1c0.2,0.2,0.6,0.3,0.9,0.4c2-0.1,4.1-2.5,5.5-4.1
	c0.5-0.5,0.9-1,1.2-1.3c2.8-2.6,5.7-5.2,8.5-7.8c-0.3,0.3-0.5,1-0.7,1.4c-0.3,0.5-0.5,1-0.7,1.5c-0.9,1.9-2.1,3.7-3.1,5.5
	c-1.4,2.3-2.8,4.5-4,6.8c-0.5,0.9-1,1.8-1.6,2.5C240.1,178.8,238.7,179.4,237.2,180.1z M274.6,158.3l-0.3,0.7
	c-0.7,1.5-1.4,3-2.1,4.5c-1,2.1-1.9,4.3-3,6.4c-4.4,8.6-10.3,16.3-16.1,23.7c-3.2,4.2-7,8.2-10.5,12c-2.7,2.9-5.6,5.9-8.2,9.1l0-0.1
	c-0.1,0.1-0.1,0.2-0.2,0.3l0,0.1c0,0-0.1,0.1-0.1,0.1c-1.5,1.8-2.9,3.7-4.3,5.5c-1.2,1.6-2.5,3.3-3.8,4.8c-1.2,1.4-2.4,2.8-3.6,4.1
	c-1.4,1.6-2.8,3.1-4.2,4.8c0.4-1.4,1-2.8,1.6-4.1c0.4-1,0.9-2.1,1.2-3.1c1.1-3.2,2.3-6.4,3.5-9.3c1.4-3.5,2.8-7,4.2-10.4
	c0,0,0.8-2,0.8-2c2.8-7.2,6.9-14,10.9-20.6c1.1-1.9,2.3-3.8,3.4-5.6l0.9-1.6c1.1-2.2,2.5-4.1,3.8-6.2c1.3-2,2.5-4.1,3.6-6.3
	c0.6-1.2,1.2-2.5,1.8-3.8c0.7-1.3,1.4-2.6,2-3.9c0,0,0.1-0.1,0.1-0.1c0.4-0.8,0.8-1.6,1.3-2.3c0.4-0.6,0.9-1.2,1.4-1.8
	c1.1-1.2,2.3-2.3,3.6-3.3c0.3-0.3,0.7-0.6,1-0.9c0.6-0.5,1.1-1,1.7-1.5c1.4-1.3,2.7-2.6,4.2-3.4c0.6-0.3,1-0.5,1.4-0.5
	c0.1,0,0.2,0,0.3,0c1-0.1,2.4,0.6,3.2,1.2c0.5,0.4,0.8,1,0.8,1.5c0,0.4-0.2,0.8-0.5,1.1c-1.4,3.2-3.9,6.1-6.3,8.9
	c-1.1,1.3-2.1,2.5-3.1,3.8c-3.9,5.2-7.8,10.8-11.8,17.1c-1.7,2.6-3.3,5.4-4.9,8c-1.2,2-2.5,4.1-3.8,6.2c-1,2.2-2.1,4.4-3.2,6.7
	c-0.3,0.6-1.9,3.2,0.2,3.2c0.1,0,0.3-0.1,0.4-0.3c0.1-0.1,0.1-0.2,0.2-0.4c1.9-3.1,3.9-6.2,5.8-9.2c2-3.1,4-6.2,5.9-9.3
	c4.7-7.6,8.6-13.5,12.6-18.7c0.8-1.1,1.6-2.2,2.5-3.2c1.2-1.5,2.3-3,3.5-4.6c0.6-0.8,1.1-1.6,1.7-2.4c1-1.5,2-3,3.2-4.2
	C278,151.5,275.8,155.9,274.6,158.3z M211.1,327.4c-13.7-1.7-27.8-8.3-37.3-13.5l-2.2-1.2c-8-4.4-16.2-9-24.2-13.9
	c0.7,0.4,1.5,0.7,2.2,1.1c2,1,4,2,6,2.8l2.7,1.1c5.2,2.2,10.6,4.4,15.9,6.7c11.1,4.8,22.4,8.5,34.9,12.3l0.5,0.2
	c8.1,2.6,11.4,3,12.9,2.8C220.4,327.8,215.3,328,211.1,327.4z M223.8,323.7c-1.1-1.3-5-2.3-11.1-3.4c-1-0.2-1.8-0.3-2.1-0.4
	c-12-3.4-24.2-7.7-38.4-13.7c-2.1-0.9-4.2-1.7-6.3-2.6c-3.4-1.4-6.9-2.8-10.3-4.3c-1.3-0.6-2.5-1.2-3.8-1.8l-2-0.9
	c-0.7-0.3-1.5-0.6-2.4-1c-1.8-0.7-4-1.5-5.3-2.5c0.8,0,1.9,0.2,2.8,0.4c0.7,0.1,1.3,0.3,1.7,0.3c3.8,0.3,7,0.6,10.3,1.2l3.4,0.6
	c4.2,0.7,8.6,1.4,12.9,2.2c12.7,2.4,23.4,6.9,36.4,13.5c0.7,0.3,1.5,0.7,2.3,1.1c4.5,2.1,10.1,4.7,11.5,8.9
	C223.8,322.1,223.9,323,223.8,323.7z M216.1,359.4c-0.9,0-1.7,0.2-2.5,0.3c-0.5,0.1-1,0.2-1.5,0.3c-4.6,0.6-9.8,0.1-14.8-0.4
	c-1.8-0.2-3.5-0.3-5.1-0.4c-2.6-0.2-5.3-0.2-7.9-0.2c-1.9,0-3.8,0-5.7,0.1c-3.1,0-6.4,0.1-9.6,0c-13-0.3-25.6-1.1-37.4-2.2
	c-2.6-0.2-5.2-0.4-7.7-0.6c-2.1-0.2-4.2-0.3-6.2-0.5c-3.1-0.3-6.4-0.6-10-1.1c-1-0.1-2.1-0.1-3.3-0.2c-2.1,0-4.3-0.1-5.9-0.7
	c1-0.5,3.2-1,4.3-1.3c0.6-0.1,1.2-0.3,1.5-0.4c1.9-0.6,3.8-1.1,5.7-1.7l1.1-0.3c4.4-1.3,9-2.4,15-3.8c16.1-3.4,35.2-7.1,54.9-8.7
	c10.9-0.9,20.5-1,29.3-0.3c1.2,0.1,2.4,0.2,3.6,0.2c4.5,0.3,9.1,0.6,13.7,1.2c0.3,0,0.7,0.1,1,0.1c3.6,0.4,10.2,1.2,11.6,4.7
	c-1.3,0.4-5.9-0.2-7.8-0.4c-1.1-0.1-1.9-0.2-2.3-0.2l-0.2,0c-3.8-0.1-7.8-0.2-11.6-0.1c-7.1,0.1-14.1-0.1-20.8-0.3
	c-11.5-0.4-20.7-0.1-29.1,0.7c-0.9,0.1-1.9,0.2-2.8,0.2c-4.1,0.3-8.3,0.6-11.8,2.4c-0.1,0.2-0.1,0.4-0.1,0.6c0.1,1,1.2,1.2,2,1.2
	c0.3,0,0.5,0,0.8,0c12-1.4,24.9-2.1,38.5-2.3c4.6,0,9.2,0.1,13.7,0.3c3.3,0.1,6.8,0.2,10.1,0.3c1.2,0,2.4,0,3.6,0
	c6.3,0,12.2,0.1,18.3,1.2c-0.8,0.7-3.4,1.8-4.4,2.2c-0.7,0.3-1.3,0.5-1.7,0.7c-2.5,1.4-5.1,3.1-8.4,5.5c-0.5,0.4-1.1,0.9-1.7,1.4
	c-1.3,1.1-2.6,2.3-4,2.7c-0.8,0.2-1.7,0.1-2.6-0.1C217.4,359.5,216.8,359.4,216.1,359.4z M199.4,383.7c6.6-6.8,14.6-14.8,23.9-22
	c0.5-0.4,1-0.8,1.6-1.3c4.5-3.6,12.9-10.4,18.6-10.4c0.8,0,1.5,0.1,2.1,0.4c-5.4,0.3-8.4,6.3-10.1,9.7c-1.5,2.9-2.2,4.3-4.7,6.2
	l-1.5,1.2c-1.7,1.4-3.5,2.8-5.2,4.2c-4.8,4.2-9.6,8.7-14.2,13c-3.1,2.9-6.3,5.9-9.5,8.9c-2.5,2.3-5.1,4.5-7.7,6.7
	c-4.3,3.7-8.8,7.6-13,11.8c-2.6,2.6-5.1,5.4-7.5,8.1c-1.4,1.5-2.7,3-4.1,4.5c-1.9,2.1-3.6,4.2-5.2,6.4
	C172.7,414.6,185.2,398.3,199.4,383.7z M230.5,378.1c-0.1,0.9-0.3,1.8-0.4,2.6l-0.2,0.9c-0.3,1.4-0.5,2.9-0.7,4.4l-0.1,0.6
	c-0.2,1.9-0.2,1.9-2,3.1c-2.1,1.4-4.1,2.9-6.2,4.3c-5.8,4.1-11.8,8.3-17.8,12.2l-1.3,0.9c-12.7,8.3-25.8,16.8-37.2,26.7
	c1.3-1.8,2.7-3.6,4.2-5.4c3-3.5,5.9-6.9,9.1-10.2c4.5-4.7,9.9-10.2,15.5-15c6-5.1,11.9-10.5,17.6-15.7c6.8-6.2,13.8-12.6,21.1-18.5
	C231.5,372.1,231,375.2,230.5,378.1z M252.2,374.3c-0.8,8-3.2,16-5.6,23.6l-0.4,1.3c-1.8,5.8-3.8,11.6-5.7,17.3
	c-0.6,1.9-1.3,3.7-1.9,5.6c-0.9,2.7-1.8,5.6-2.6,8.3c-1.3,4.4-2.7,8.9-4.4,13.2c-0.4-5.7-0.2-11.6-0.1-17.4c0.1-2.7,0.2-5.6,0.2-8.3
	v0c0-2.3,0-4.5,0-6.8c0-8.9,0-18.1,1-27c0.8-6.7,2-12.4,3.5-17.3c1-3.2,3.3-10.5,7.5-11.9c0.1,0.5,0,1.7-0.8,5
	c-0.1,0.4-0.1,0.6-0.2,0.7c-0.5,3-1,5.8-1.5,8.5c-0.3,1.6-0.6,3.3-1,4.9c-0.6,3.2-1.3,6.5-1.8,9.9c0,0.2-0.1,0.7-0.3,1.4
	c-3.8,21.3-2.9,23.3-1.8,23.5c0.2,0,0.4,0,0.5-0.1c1.3-0.9,3-10.4,5.4-26.5c0.4-2.4,0.6-4.3,0.8-4.9c0.5-2.8,0.9-5.7,1.3-8.5
	c0.7-4.8,1.4-9.8,2.7-14.4C253.7,356.2,252.5,371.2,252.2,374.3z M256.8,664.8l-0.7,0.4c-1.4,0.9-2.8,1.9-4.1,2.8
	c-1.9,1.3-3.9,2.7-5.9,4c-8.2,5.1-17.2,8.7-26,12.1c-4.9,1.9-10.2,3.4-15.2,4.9c-4,1.1-8.1,2.3-12.1,3.7c-2.2,0.8-4.4,1.6-6.5,2.5
	c-1.9,0.7-3.8,1.5-5.7,2.2c-1.7,0.6-3.5,1.2-5.2,1.7c-2.1,0.6-4.2,1.3-6.2,2.1c2.5-2.6,5.7-4.9,8.8-7.1c1.4-1,2.8-2,4.1-3
	c3.5-2.7,7.1-5.4,10.5-8l1.3-1l0,0c6.3-4.9,13.5-8.7,20.5-12.4c1.7-0.9,3.3-1.8,5-2.7c0.8-0.4,1.5-0.8,2.3-1.3
	c2.1-1.2,4.3-2.4,6.5-3.4c1.2-0.6,2.5-1.3,3.7-1.9c2.5-1.3,5.1-2.7,7.8-3.5c4.2-1.3,8.7-1.8,13-2.1c0.5,0,1.1-0.1,1.9-0.2
	c1.5-0.2,3.5-0.5,5.4-0.5c1.3,0,2.5,0.1,3.3,0.6c-3.1,2.6-7.5,4.1-11.7,5.6c-1.9,0.6-3.6,1.2-5.3,1.9c-7.3,3.1-13.7,6.1-19.5,9.1
	c-2.7,1.4-5.5,2.8-8.3,4.1c-4.7,2.3-9.4,4.6-14,7.3c-1.2,1.1-1.8,2.2,0.1,2.5c1.2,0.2,2.2-0.5,3.3-0.9c0.1,0,0.1,0,0.2,0
	c0.2-0.1,0.4-0.2,0.6-0.3l5-2.5c4.7-2.3,9.3-4.7,13.9-7.1c8.3-4.2,15-7.4,21.1-9.8c1.7-0.7,3.5-1.5,5.3-2.4c3.3-1.6,6.7-3.2,10-4
	C263.2,660.6,259.1,663.3,256.8,664.8z M396.8,524.8c11,2.6,19.4,5,27.3,7.8c8.1,2.9,16.5,6.1,26.6,10.1c0.8,0.3,1.7,0.7,2.5,1
	c5.6,2.2,11.3,4.5,16.3,8c-5.1,0.8-10.5,0.1-15.8-0.5c-1.7-0.2-3.5-0.4-5.3-0.6c-3.4-0.3-6.9-0.7-10.2-1c-1.7-0.2-3.5-0.4-5.2-0.5
	c-5.3-0.5-10.7-0.8-16-1.1c-6.4-0.3-13.1-0.6-19.5-1.5c-1.4-0.2-2.8-0.3-4.3-0.5c-7.1-0.8-14.5-1.7-20.9-4.2c-3-1.1-8.3-3.7-10-8
	c-0.4-0.9-0.3-1.3-0.2-1.5c0.2-0.3,1-0.4,1.9-0.5c0.6,0,1.2-0.1,1.8-0.2c0.4-0.1,0.8-0.3,1.3-0.4c0.6-0.2,1.2-0.5,1.6-0.5h0
	c0.4,0,1.1,0.3,1.8,0.5c0.7,0.2,1.3,0.5,1.8,0.5c3.8,0.5,7.7,0.9,11.4,1.4c5.2,0.6,10.5,1.2,15.8,2l2.8,0.5c6.3,1,12.7,2,19.1,2.4
	c1.4-0.1,3.5,0.3,4.4-0.8c0.7-0.8-0.3-1.4-1.3-1.8c-0.3,0-0.5,0-0.8,0c-0.5,0-0.9,0-1.3-0.1c-3.2-0.4-6.5-0.8-9.9-1.2
	c-3.3-0.5-6.6-1-9.8-1.5c-1.1-0.2-2.3-0.4-3.4-0.6c-1.4-0.2-2.8-0.5-4.2-0.7c-2.7-0.4-5.5-0.9-8.3-1.3c-1.8-0.3-3.6-0.4-5.3-0.5
	c-2.8-0.2-5.6-0.4-8.2-1.1c1.5-1.4,9.2-4.7,10.8-4.7C388.2,523.3,392.4,523.7,396.8,524.8z M360.8,515l0.6-0.6
	c3.4-3.3,7-6.7,10.9-9.3c8.1-5.3,17.2-9.4,25.9-13.3l2.2-1c7.4-3.4,15.7-6.6,23.8-9.3c5-1.7,9.1-3,13.6-3.9c1.6-0.3,3.3-0.7,5-1.2
	c2.3-0.6,4.6-1.2,6.8-1.5c-1.2,1.4-2.9,2.7-4.6,4c-0.8,0.6-1.6,1.2-2.3,1.8c-3.2,2.7-6.2,5.1-9.1,7.1c-4.9,3.6-10.2,7-15.2,10.2
	c-1.2,0.8-2.4,1.5-3.5,2.3c-6.3,4.1-11.8,7.5-16.9,10.5c-3.3,1.9-6.7,3.7-10.1,5.5c-4,2.1-8.2,4.3-12.2,6.7
	c-10.9,6.7-16.1,6.4-18.6,4.6c4.1-4.2,9.9-7.7,15-10.8l0.4-0.2c2.4-1.4,4.8-3,7.1-4.4c4.2-2.7,8.6-5.4,13.1-7.9
	c3.7-2,7.4-4,11.1-5.9c5.6-2.9,11.4-5.9,16.9-9.2c0.1-0.3,0.1-0.5,0.1-0.8c0-0.2-0.1-0.5-0.1-0.7c-1.9-0.8-3.9,0.3-5.6,1.2
	c-0.5,0.3-1,0.5-1.4,0.7c-2.4,1.1-4.7,2.3-6.9,3.5c-0.7,0.4-1.4,0.8-2.1,1.1l-2.1,1.1c-5.8,3-11.7,6.1-17.5,9.6l-3.5,2.1
	c-3.5,2.1-7.1,4.3-10.6,6.5c-3.1,1.9-6.1,4-8.6,5.9c-0.7,0.5-1.4,1-2.1,1.6c-1.7,1.4-3.5,2.9-5.5,3.6
	C353.8,521.7,358.5,517.2,360.8,515z M359.3,549.1c0.6,0.5,1.1,1,1.5,1.4c4.2,3.8,7.2,7.1,9.4,10.5c5.6,8.2,10.4,16.6,15.7,26
	c3.5,6.2,6.8,12.7,9.9,19c1.3,2.6,2.6,5.3,4,7.9c1.2,2.4,2.4,4.9,3.5,7.3c0.9,1.9,1.8,3.9,2.7,5.8c0.4,0.8,0.9,1.7,1.4,2.6
	c1.7,3,3.8,6.7,3.4,9.5c-1.5-0.6-2.7-1.7-3.9-2.9c-1.2-2.3-1.7-4.9-3-7.1c-0.4-1.4-1.1-2.8-1.9-4.1c-0.3-0.6-0.6-1.1-0.9-1.7
	c-2.6-5.4-4.9-9.7-7.1-13.6l-2.5-4.4c-2.9-5-5.8-10-8.6-15c-5.6-9.9-10.5-17.9-15.2-25.1c-0.9-1.4-1.8-2.8-2.7-4.2
	c-1.9-2.9-3.8-5.9-5.9-8.8l-0.8-1.1c-1.1-1.5-2.2-3-3.3-4.4c-0.4-0.5-0.9-1-1.4-1.5c-0.6-0.6-1.2-1.2-1.6-1.7
	C354.4,544.4,357.2,547.1,359.3,549.1z M350.8,546.9c0.3,0.5,0.6,0.9,0.9,1.2c1.5,1.8,3.1,3.8,4.6,5.7c2.2,2.8,4.1,5.9,6,8.8l0.7,1
	c5.1,7.9,9.1,14.5,12.8,21c2.5,4.4,5,8.8,7.4,13.2c5.9,10.4,12,21.2,18.2,31.7c0.2,0.5,0.4,1,0.6,1.5c0.1,0.2,0.1,0.4,0.2,0.6
	c-1.1-1-2.2-1.9-3.3-2.9c-3.1-2.7-5.6-5.3-8-8.3c-5.1-6.4-11-14-16.4-21.8c-5.5-7.9-10.2-16.2-15.3-25.5c-4.3-7.9-8.8-17.3-10-28.4
	C349.8,545.3,350.4,546.2,350.8,546.9z M308.9,158l-0.3-2.1c-0.3-2.1-0.5-4.3-0.8-6.5c-0.3-2.4-0.6-4.9-0.8-7.3
	c-0.4-3.8-0.9-7.5-1.3-11.3v0c-0.2-1.9-0.4-3.9-0.5-5.8c-0.3-3.1-0.5-6.2-1-9.3c-0.4-2.7-0.9-5.4-1.4-8c-0.5-2.5-1-5.1-1.4-7.6
	c-0.6-4.1-1.3-8.3-2-12.3c-1.1-6.5-2.3-13.2-3-19.9c-1.1-10.6-2.8-21.2-5.1-31.5c-0.4-1.6-0.3-2.8,0.2-3.5c0.8-1.1,2.6-1.5,5.1-1.9
	c1.2-0.2,2.5-0.3,3.8-0.4c1-0.1,2.1-0.2,3.1-0.3c0.8-0.1,1.7-0.3,2.7-0.5c1.6-0.4,3.4-0.8,4.8-0.8c0.4,0,0.8,0,1.2,0.1
	c2.4,0.6,2.4,4.4,2.4,7.5c0,1,0,2,0.1,2.7c0.5,4.2,1.2,8.5,1.9,12.6c0.3,1.7,0.5,3.4,0.8,5.2c0.4,2.8,0.8,5.6,1.2,8.3
	c1.2,8.2,2.4,16.6,4.2,24.8c3.9,17.6,8.5,40.8,9.7,64.4c0.3,5-1.1,7.1-5.4,8.5c-3.1,1-6.2,1.8-9.2,2.3l-0.2,0
	c-4.3,0.7-6.9,0.7-7.7-0.1c-0.8-0.8-0.9-3.8-1-5.7C309,159.1,309,158.4,308.9,158z M270.3,311.5c-0.3-0.8-0.5-1.5-0.8-2.1
	c-1.7-3.9-2.7-7.8-3.2-12l0,0c-0.5-4.3-0.9-9.4-0.1-14.7c0.3-1.8,0.7-3.6,1.9-5.4c0.1-0.2,0.3-0.4,0.4-0.6c0.2-0.4,0.5-0.8,0.6-0.8
	c0.1,0,0.2,0.1,0.7,0.6c0.8,0.8,1.5,2.8,2,4.4c0.2,0.7,0.4,1.3,0.6,1.8c0.6,1.6,1.3,3.2,1.9,4.8l0.7,1.9c1.4,3.5,2.8,7,4.3,10.4
	c1.4,3.3,3,6.6,4.5,9.8c2.4,5.2,5,10.6,7,16c1.3,3.4,2.4,6.9,3.6,10.3c0.5,1.6,1.1,3.3,1.7,4.9c0.5,0.6,1.3,1.1,1.9,0.3
	c0.1-0.1,0.2-0.3,0.2-0.4c0.1-3.7-1.4-7.6-2.7-11c-0.4-1-0.8-2-1.1-2.9c-1.7-4.9-3.9-9.6-6-14.2l-0.2-0.4c-3-6.5-5.7-13-8.6-20.2
	c-1-2.5-2-5-2.9-7.5l-0.8-2.1c-0.1-0.2-0.3-0.8-0.7-1.5c-2.1-4.4-3-6.9-2.7-7.4c0.2-0.2,0.4-0.2,0.6-0.2c2.7,0.2,9.2,8.2,11.9,12.1
	c3.9,5.5,7,11.6,9.5,18.7c4.2,11.6,7,23.9,9.7,35.7c0.5,2.1,1,4.3,1.5,6.4c0.7,2.9,1.3,5.7,2,8.6c1.2,4.9,2.4,9.9,3.4,14.8
	c0.5,2.4,0.9,4.9,1.3,7.3c0.4,2.3,0.7,4.7,1.2,7.1c-5.4-8.4-10.7-16.9-15.8-25.1c-4.1-6.5-8.3-13.3-12.5-19.9l-1.4-2.2
	c-2.2-3.5-4.6-7.1-6.5-10.9c-0.3-0.5-0.6-1-0.8-1.5c-0.5-0.9-1.1-1.8-1.4-2.8c-0.6-0.9-1.1-1.9-1.6-3c-0.6-1.3-1.4-2.7-1.9-4.2
	C271,313.6,270.7,312.5,270.3,311.5z M305.2,439.5c-1.6-2.8-3.2-5.7-4.9-8.5c-7.7-13.6-15.7-27.6-24.6-40.8c-0.7-1-1.4-2-2.2-3
	c-2.6-3.4-5.1-6.7-4.5-11.1c0.4-3.8,0.7-7.6,0.9-11.4c0.1-1.7,0.2-3.4,0.3-5.1c0.7-9.9,1.8-20,3.2-29.8c0.2-1.3,0.4-2.5,0.4-3.9
	c1.5,2.3,2.9,4.8,4.3,7.2c1.3,2.3,2.6,4.6,4,6.8c1,1.5,1.9,3,2.9,4.5l1.5,2.2c3.1,4.8,6.1,9.8,9.1,14.7c1.5,2.5,3,5,4.5,7.5
	c1.6,2.7,3.3,5.4,5.1,8.1c0.4,0.5,0.8,1.1,1.2,1.7c0.9,1.2,1.9,2.4,2.2,3.6c0.3,1.1,0.2,2.5,0.1,3.9c-0.1,0.8-0.2,1.6-0.2,2.3
	c0,2.9,0,6.3-0.2,9.8C307.7,411,306.7,424.5,305.2,439.5z M302.1,715.5c-0.2,0.7-0.4,1.5-0.6,2.2L300,724c-5.4,22-11,44.8-15.2,67.4
	c-0.8,4.5-2.5,9-3.9,13.3c-0.8,2.6-2.3,5.3-4.8,6.4c-4.4,2-11.6-1.2-14.2-5c-2.5-3.4-1.6-7.6-0.8-11.7c0.2-0.9,0.4-1.7,0.5-2.5
	c1.3-7.6,3.3-15.3,5.2-22.8c1.3-5.1,2.7-10.4,3.8-15.6c1.4-6.5,2.4-13.1,3.4-19.5c0.9-5.7,1.8-11.5,2.9-17.2
	c0.7-3.7,1.7-7.3,2.6-10.9c0.5-2.1,1.1-4.2,1.6-6.3l0.1-0.4c0.4-1.7,0.8-3.5,2.1-4.6c1.7-1.6,4.1-0.9,6.5-0.3c0.5,0.1,1,0.3,1.5,0.4
	c1.3,0.3,2.8,0.3,4.2,0.4c3.4,0.1,6.6,0.2,7.8,3.8C304.9,704.3,303.4,710.2,302.1,715.5z M318.3,598.6c-0.1,0.6-0.2,1.1-0.2,1.5
	c-1.2,10.6-3.3,21.4-5.3,31.8c-1.2,5.9-2.4,12.1-3.4,18.1c-1.4,8.5-2.3,16-2.6,23.1c-0.1,1.1-0.1,2.2-0.1,3.3
	c-0.1,3.3-0.2,6.6-0.9,9.8c-0.9,3.9-2.9,4.2-6.7,4.7c-0.4,0-0.7,0.1-1.1,0.1c-4.3,0.6-8.1-0.3-12-1.3c-3.6-0.9-3.5-3.5-2.9-7.7
	c0.4-2.8,0.7-5.4,1.1-8c0.8-5.4,1.5-10.4,2.1-16c0.5-4.8,1.3-9.7,2.1-14.4c0.6-3.6,1.2-7.3,1.7-11.1c1.2-9.5,2.5-18.3,3.9-26.7
	c0.2-1.1,0.3-2.2,0.5-3.3c0.5-3.3,1-6.6,2-9.6c0.4-1,1.4-4,2.7-4.3c0.1,0,0.1,0,0.2,0c0.6,0,1.5,0.3,2.3,0.6
	c0.6,0.2,1.2,0.4,1.6,0.5c2.6,0.5,5.2,0.8,7.7,1.2c0.7,0.1,1.5,0.1,2.3,0.1c1.2,0,2.5,0,3.4,0.4
	C319.3,592.2,318.8,595.8,318.3,598.6z M333.7,461.7c-0.1,6-1.3,12.1-2.4,18c-0.7,3.7-1.5,7.6-1.9,11.4c-0.9,7.2-1.3,14.5-1.8,21.6
	c-0.2,3.3-0.4,6.7-0.7,10c-0.4,5.6-1.3,11.3-2.1,16.8c-0.7,4.4-1.4,8.9-1.8,13.4c-0.3,3.4-0.4,6.8-0.4,10.2c0,2-0.1,4.1-0.2,6.1
	c-0.1,2.4-0.3,5.6-0.7,8.8c-0.1,0.6-0.1,1.3-0.1,2c-0.1,1.8-0.2,4.1-1,5.3c-2.1,3.2-11.5,1.7-14.6,1.2c-5-0.8-7.1-2.9-6.9-6.7
	c0.4-5.7,1.1-11.6,1.8-17.2c0.6-5,1.2-10.2,1.6-15.3c0.8-9.3,1.3-18.7,1.9-27.8l0.2-3.4c0.3-5,0.7-10,1.1-14.9
	c0.5-5.7,1-11.5,1.3-17.3c0.1-2.4,0.2-4.8,0.4-7.2c0.1-2.5,0.2-4.9,0.4-7.4l0-0.8c0.1-2.3,0.2-4.6,0.7-6.9c0.2-1.2,0.4-2.4,0.8-3.6
	c0.1-0.6,0.3-1.1,0.6-1.6l0.1-0.1c0.1-0.3,0.2-0.7,0.4-0.8c0.1,0,0.1,0,0.2,0c0.2,0,0.5,0.1,0.8,0.3l0.1,0.1l0.2,0
	c1.3-0.1,2.7,0.2,4.1,0.6c0.8,0.2,1.5,0.4,2.3,0.5c1.3,0.2,2.7,0.3,3.9,0.5c0.8,0.1,1.7,0.2,2.5,0.3c1.1,0.1,2.3,0.4,3.3,0.6
	c1,0.2,2.1,0.4,3.2,0.6C333.6,459,333.8,459.1,333.7,461.7z M337.6,336.1c-0.4,3.3-0.9,6.7-1.1,9.9c-0.5,8.7-0.8,17.5-1,26l-0.1,2.7
	c-0.1,4-0.1,8-0.1,11.9c0,5.7,0.1,11.5-0.3,17.2c-0.6,9.1-1.3,18.9-1.1,28.8c0,0.9,0,1.8,0.1,2.6c0.1,3.9,0.2,8-0.2,12l0,0.3
	c-0.5,4.4-0.7,6.8-5.1,6.5c-1-0.1-2-0.1-3.2-0.2c-6.3-0.3-14.8-0.6-15.8-7.1c-0.5-3.6-0.1-7.5,0.4-11.3c0.1-0.8,0.2-1.5,0.3-2.2
	c0.5-4.8,0.8-9.6,1.1-14.1c0.6-9.4,1.1-19.5,1.4-29.8c0.1,0.2,0.2,0.4,0.2,0.5c1.9,4.5,2.7,6.1,3.6,6.1h0c0.6,0,1.1-0.2,1.4-0.6
	c0.8-0.9,0.4-2.7,0.2-4c-0.1-0.3-0.1-0.7-0.2-0.9c-0.8-6.8-2.1-14.2-3.7-20.7c-0.2-0.9-0.5-1.9-0.7-2.8c-0.4-1.5-0.9-3.1-1.2-4.7
	c-0.5-2.6-0.4-5.4-0.3-8.1c0-0.9,0.1-1.8,0.1-2.6c0-3.4-0.1-6.8-0.3-10.1c-0.2-4.6-0.4-9.4-0.1-14c0.1-0.9,0.1-1.9,0.1-3
	c0-3,0-6.5,1.1-8.6c1.6-2.9,6.5-1.4,8-0.9c3,1.1,5.6,0.8,8.2,0.4c1.5-0.2,3-0.4,4.7-0.4c3,0.1,4.5,1.6,4.7,4.8
	C339.1,325.1,338.3,330.7,337.6,336.1z M338.5,296.7c0,1.3,0,2.7,0.1,4c0,0.6,0.1,1.4,0.2,2.1c0.2,1.9,0.5,4.2-0.2,5.5
	c-0.6,1.2-2,1.6-3.5,2c-0.5,0.1-1,0.3-1.4,0.4c-5.3,2-10.2,1.2-15.9-0.5c-5.8-1.7-5.6-7-5.3-12.5l0-0.4c0.9-22.8,0.6-46.9-1.1-71.7
	c-0.6-9.1-0.7-18.3-0.8-27.3c0-2.9,0-5.9-0.1-8.8c0-0.5,0-1.1,0-1.6c0-2.4,0-4.8-0.4-7.2c-0.1-0.6-0.2-1.1-0.3-1.7
	c-0.3-1.6-0.6-3-0.3-4.6c0.8-4.6,3-4.8,6.8-5.1c0.6-0.1,1.3-0.1,2-0.2c2.1-0.2,4.2-0.8,6.3-1.3l1-0.2c0.6-0.1,1.3-0.4,2-0.6
	c1.4-0.5,3-1,4.2-0.9c0.9,0.1,1.6,0.4,2.1,1c1.7,2,1.3,6.6,1,9.7c-0.1,0.9-0.1,1.6-0.2,2.2c-0.2,7.3,0.2,14.8,0.7,21.9
	c0.2,3.8,0.5,7.8,0.6,11.7c0.2,6.4,0.4,12.9,0.5,19.2c0.1,5.1,0.2,10.2,0.4,15.3c0.1,4.1,0.2,8.2,0.2,12.2
	c0.1,8.1,0.1,16.6,0.9,24.8C338.3,288.5,338.4,292.5,338.5,296.7z M363.9,239.6c-0.5-2.5-1.1-5-1.7-7.5c-1.3-5.4-2.5-11-3.3-16.7
	c-1.1-7.7-2.1-19,1-27.5l0.1-0.3c1.2-3.4,2.3-5.4,3.2-6.1c1,9.3,2.1,18.8,3.1,27.9c1,8.5,1.9,17.2,2.9,25.8
	c0.8,7.3,1.9,14.7,2.9,21.8c1.4,9.5,2.8,19.2,3.6,29C371.5,270.9,367.3,255.2,363.9,239.6z M379.8,216.1c1.1,12.7,1.6,23.1,1.5,32.9
	c0,2.5,0,5-0.1,7.6c-0.1,11.8-0.2,23.9-2,35.6c-0.2-2.7-0.4-5.5-0.6-8.2c-0.3-5.2-0.6-10.5-1.4-15.8l-0.6-3.9
	c-0.7-4.5-1.4-9.1-2.1-13.6v0c-1.8-11.5-3.1-23.2-4.5-34.6l-0.6-5.5c-0.2-1.5-0.4-3-0.5-4.5c-0.6-4.7-1.2-9.6-1.5-14.4l-0.1-1.4
	c-0.1-1.9-0.3-3.9-0.4-5.9l0-0.1c-0.1-1.4-0.2-3.1,0.4-3.4c0.1-0.1,0.2-0.1,0.4-0.1c0.4,0,1,0.2,1.7,0.6c4.1,2.1,5.8,9.1,7,13.7
	c0.1,0.5,0.2,0.9,0.3,1.3C378.5,203.5,379.3,210.6,379.8,216.1z M443,241.6c7.8,11.2,13.9,20.5,19.1,29.1
	c-7.1-4.9-15.2-10.3-23.4-15.4c-3-1.9-5.8-4.2-8.6-6.4c-1.7-1.4-3.4-2.8-5.1-4.1c-4.3-3.2-8.4-6.8-11.4-9.5
	c-6.9-6.3-12.5-12.6-17.2-19.4c-2.4-3.5-4.8-7.3-7.4-11.5c-1.8-3-4.7-7.8-4.5-11.6c0.8,0.5,1.5,1.4,2.2,2.2c0.3,0.4,0.6,0.8,0.9,1.1
	c1.7,1.9,3.6,3.7,5.8,5.5c2.4,2,4.8,4,7.2,6c2.4,2,4.9,4,7.3,6.1c4.7,4,9.1,8.3,13,12.7c0.5,0.6,1,1.1,1.5,1.7
	c1.8,2,3.7,4.1,5.8,5.9c0.7,0.2,1.2-0.1,1.5-0.7c-0.2-4.6-17.8-20.2-18-20.4c-2.2-1.9-4.5-3.8-6.7-5.6c-6.6-5.4-13.3-11-18.8-17.9
	c1.7,0,4.4,1.8,6,2.8c0.4,0.3,0.8,0.5,1.1,0.7c2.2,1.3,4.5,2.9,7,4.7c3.8,2.8,7.5,5.9,11,8.8c1.4,1.2,2.8,2.3,4.2,3.5
	C426.4,218.6,435.5,230.8,443,241.6z M468.5,202.9c-6.1,1.7-12.5,3.6-18.5,5.9c-0.1,0-0.2,0.1-0.3,0.1c-6.5,2.5-13.1,5-20,5.8
	l-0.8,0.1c-1.8,0.2-2.9,0.3-4.3-0.7c-1.1-0.8-2.1-2-3-3.1c-0.5-0.6-1.1-1.2-1.6-1.8c1.4-0.9,3.3-1.1,5.1-1.2
	c0.7-0.1,1.4-0.1,2.1-0.2c3.1-0.5,6.2-1.1,9.1-1.8l0.1,0c0.7-0.1,1.4-0.3,2-0.4c3.2-0.7,6.3-1.3,9.3-2.6c0.3-0.4,0.7-0.8,0.8-1.2
	c0.1-0.5-0.1-0.7-0.4-0.8c-1.6,0.3-3.1,0.6-4.7,0.9c-4.7,0.9-9.6,1.9-14.4,2.5c-1.7,0.2-3.4,0.3-5,0.4c-0.8,0.1-1.7,0.1-2.5,0.2
	c-0.6,0-1.3,0.2-1.9,0.3c-1.6,0.3-3.2,0.5-4.4-0.1c-1.2-0.6-2.4-1.8-3.6-2.9c-0.7-0.7-1.4-1.3-2.1-1.8c-0.5-0.4-1.1-0.8-1.6-1.2
	c-1-0.8-2-1.5-3-2.4c11.1-3.4,23.6-3.6,35.7-3.7c1.3,0,2.6,0,3.9-0.1c7-0.1,14.7,0.2,23.6,1.1c3.2,0.3,6.4,0.5,9.5,0.8
	c4,0.3,8.1,0.6,12.2,1C482.9,198.8,475.6,200.9,468.5,202.9z"/>
</svg>
