<?xml version="1.0" encoding="utf-8"?>
<!-- Generator: Adobe Illustrator 21.1.0, SVG Export Plug-In . SVG Version: 6.00 Build 0)  -->
<svg version="1.1" id="Слой_1" xmlns="http://www.w3.org/2000/svg" xmlns:xlink="http://www.w3.org/1999/xlink" x="0px" y="0px"
	 viewBox="0 0 595.3 841.9" style="enable-background:new 0 0 595.3 841.9;" xml:space="preserve">
<g>
	<path d="M267.4,658.6c-3.3,0.8-6.7,2.4-10,4c-1.8,0.9-3.6,1.7-5.3,2.4c-6.2,2.5-12.9,5.6-21.1,9.8c-4.6,2.4-9.3,4.7-13.9,7.1
		l-5,2.5c-0.2,0.1-0.4,0.2-0.6,0.3c-0.1,0-0.1,0-0.2,0c-1.1,0.4-2.1,1-3.3,0.9c-1.9-0.3-1.3-1.4-0.1-2.5c4.6-2.6,9.3-5,14-7.3
		c2.7-1.3,5.6-2.7,8.3-4.1c5.8-3,12.2-6,19.5-9.1c1.6-0.7,3.4-1.3,5.3-1.9c4.2-1.5,8.6-3,11.7-5.6c-0.8-0.4-2-0.6-3.3-0.6
		c-1.8,0-3.9,0.3-5.4,0.5c-0.7,0.1-1.4,0.2-1.9,0.2c-4.3,0.4-8.8,0.8-13,2.1c-2.6,0.8-5.2,2.2-7.8,3.5c-1.2,0.6-2.5,1.3-3.7,1.9
		c-2.2,1-4.4,2.3-6.5,3.4c-0.8,0.4-1.5,0.8-2.3,1.3c-1.6,0.9-3.3,1.8-5,2.7c-7,3.7-14.2,7.6-20.5,12.4l0,0l-1.3,1
		c-3.5,2.6-7.1,5.3-10.5,8c-1.3,1-2.7,2-4.1,3c-3.1,2.2-6.3,4.5-8.8,7.1c2-0.8,4.1-1.4,6.2-2.1c1.7-0.5,3.5-1.1,5.2-1.7
		c1.9-0.7,3.9-1.5,5.7-2.2c2.1-0.8,4.3-1.7,6.5-2.5c4-1.4,8.1-2.6,12.1-3.7c5-1.4,10.2-2.9,15.2-4.9c8.8-3.4,17.8-7,26-12.1
		c2-1.3,4-2.6,5.9-4c1.4-1,2.7-1.9,4.1-2.8l0.7-0.4C262.6,663.8,266.7,661.1,267.4,658.6z"/>
	<path d="M235,426.8c-0.2,5.7-0.3,11.6,0.1,17.4c1.7-4.3,3.1-8.8,4.4-13.2c0.8-2.7,1.7-5.6,2.6-8.3c0.6-1.9,1.3-3.7,1.9-5.6
		c1.9-5.7,3.9-11.5,5.7-17.3l0.4-1.3c2.4-7.7,4.8-15.6,5.6-23.6c0.3-3.1,1.5-18.1-5-19.9c-1.3,4.6-2,9.5-2.7,14.4
		c-0.4,2.8-0.8,5.8-1.3,8.5c-0.1,0.7-0.4,2.5-0.8,4.9c-2.4,16.1-4.1,25.6-5.4,26.5c-0.2,0.1-0.4,0.2-0.5,0.1
		c-1.1-0.2-2.1-2.2,1.8-23.5c0.1-0.7,0.2-1.2,0.3-1.4c0.5-3.3,1.2-6.6,1.8-9.9c0.3-1.6,0.6-3.2,1-4.9c0.5-2.7,1-5.5,1.5-8.5
		c0-0.1,0.1-0.4,0.2-0.7c0.8-3.3,0.9-4.5,0.8-5c-4.2,1.4-6.5,8.7-7.5,11.9c-1.6,4.9-2.7,10.6-3.5,17.3c-1.1,8.9-1,18.1-1,27
		c0,2.3,0,4.6,0,6.8v0C235.1,421.2,235.1,424.1,235,426.8z"/>
	<path d="M206.7,407c6-3.9,12-8.1,17.8-12.2c2.1-1.4,4.1-2.9,6.2-4.3c1.8-1.3,1.8-1.3,2-3.1l0.1-0.6c0.2-1.5,0.4-3,0.7-4.4l0.2-0.9
		c0.2-0.9,0.3-1.8,0.4-2.6c0.5-2.9,1-6,1.7-9c-7.2,6-14.3,12.3-21.1,18.5c-5.7,5.2-11.6,10.6-17.6,15.7c-5.7,4.8-11,10.3-15.5,15
		c-3.2,3.3-6.1,6.7-9.1,10.2c-1.5,1.8-2.9,3.6-4.2,5.4c11.4-9.9,24.5-18.4,37.2-26.7L206.7,407z"/>
	<path d="M175.6,420.7c2.4-2.7,4.9-5.5,7.5-8.1c4.1-4.2,8.6-8,13-11.8c2.5-2.2,5.2-4.4,7.7-6.7c3.2-2.9,6.4-5.9,9.5-8.9
		c4.6-4.3,9.4-8.8,14.2-13c1.7-1.5,3.5-2.9,5.2-4.2l1.5-1.2c2.5-2,3.2-3.3,4.7-6.2c1.7-3.4,4.7-9.4,10.1-9.7
		c-0.6-0.3-1.4-0.4-2.1-0.4c-5.7,0-14.1,6.8-18.6,10.4c-0.6,0.5-1.2,0.9-1.6,1.3c-9.3,7.3-17.3,15.2-23.9,22
		c-14.2,14.6-26.7,30.9-36.5,47.4c1.6-2.2,3.3-4.3,5.2-6.4C172.9,423.7,174.3,422.2,175.6,420.7z"/>
	<path d="M409.5,627.6c-0.9-1.9-1.8-3.9-2.7-5.8c-1.1-2.4-2.3-4.9-3.5-7.3c-1.3-2.6-2.7-5.3-4-7.9c-3.1-6.3-6.4-12.8-9.9-19
		c-5.3-9.4-10.1-17.8-15.7-26c-2.3-3.4-5.3-6.7-9.4-10.5c-0.4-0.4-1-0.9-1.5-1.4c-2.1-2-4.9-4.7-7.3-5.7c0.5,0.6,1.1,1.2,1.6,1.7
		c0.5,0.5,1,1,1.4,1.5c1.1,1.5,2.3,3,3.3,4.4l0.8,1.1c2.1,2.9,4,5.9,5.9,8.8c0.9,1.4,1.8,2.8,2.7,4.2c4.7,7.2,9.6,15.1,15.2,25.1
		c2.8,5,5.7,10,8.6,15l2.5,4.4c2.3,3.9,4.5,8.2,7.1,13.6c0.3,0.6,0.6,1.1,0.9,1.7c0.7,1.4,1.4,2.7,1.9,4.1c1.3,2.3,1.8,4.8,3,7.1
		c1.2,1.2,2.3,2.4,3.9,2.9c0.4-2.8-1.7-6.5-3.4-9.5C410.4,629.2,409.9,628.4,409.5,627.6z"/>
	<path d="M182.2,359.7c1.9,0,3.8-0.1,5.7-0.1c2.6,0,5.3,0,7.9,0.2c1.7,0.1,3.3,0.3,5.1,0.4c5,0.5,10.1,0.9,14.8,0.4
		c0.5-0.1,1-0.2,1.5-0.3c0.8-0.2,1.6-0.3,2.5-0.3c0.6,0,1.3,0.1,1.9,0.2c0.9,0.2,1.8,0.3,2.6,0.1c1.4-0.4,2.7-1.6,4-2.7
		c0.6-0.5,1.1-1,1.7-1.4c3.3-2.4,5.8-4.1,8.4-5.5c0.3-0.2,0.9-0.4,1.7-0.7c1-0.4,3.6-1.4,4.4-2.2c-6-1.1-12-1.1-18.3-1.2
		c-1.2,0-2.4,0-3.6,0c-3.4,0-6.8-0.2-10.1-0.3c-4.5-0.1-9.2-0.3-13.7-0.3c-13.6,0.1-26.5,0.9-38.5,2.3c-0.3,0-0.5,0-0.8,0
		c-0.8,0-1.9-0.2-2-1.2c0-0.2,0.1-0.4,0.1-0.6c3.5-1.8,7.7-2.1,11.8-2.4c1-0.1,1.9-0.1,2.8-0.2c8.4-0.8,17.7-1.1,29.1-0.7
		c6.8,0.2,13.7,0.4,20.8,0.3c3.9-0.1,7.8,0,11.6,0.1l0.2,0c0.4,0,1.3,0.1,2.3,0.2c1.9,0.2,6.5,0.8,7.8,0.4c-1.4-3.5-8-4.3-11.6-4.7
		c-0.4,0-0.7-0.1-1-0.1c-4.5-0.6-9.2-0.9-13.7-1.2c-1.2-0.1-2.4-0.2-3.6-0.2c-8.9-0.6-18.5-0.5-29.3,0.3
		c-19.7,1.6-38.8,5.3-54.9,8.7c-6,1.3-10.7,2.5-15,3.8l-1.1,0.3c-1.9,0.6-3.8,1.1-5.7,1.7c-0.3,0.1-0.9,0.2-1.5,0.4
		c-1.1,0.3-3.3,0.7-4.3,1.3c1.7,0.6,3.8,0.6,5.9,0.7c1.2,0,2.3,0.1,3.3,0.2c3.7,0.4,7,0.8,10,1.1c2.1,0.2,4.2,0.3,6.2,0.5
		c2.5,0.2,5.1,0.4,7.7,0.6c11.8,1.1,24.4,1.9,37.4,2.2C175.8,359.8,179,359.7,182.2,359.7z"/>
	<path d="M454.1,543.2c-10-4-18.5-7.2-26.6-10.1c-7.9-2.8-16.3-5.2-27.3-7.8c-4.4-1-8.6-1.5-12.6-1.3c-1.5,0.1-9.2,3.4-10.8,4.7
		c2.6,0.7,5.5,0.9,8.2,1.1c1.8,0.1,3.6,0.3,5.3,0.5c2.8,0.4,5.6,0.9,8.3,1.3c1.4,0.2,2.8,0.5,4.2,0.7c1.1,0.2,2.3,0.4,3.4,0.6
		c3.2,0.5,6.5,1.1,9.8,1.5c3.4,0.5,6.8,0.9,9.9,1.2c0.4,0,0.9,0.1,1.3,0.1c0.3,0,0.5,0,0.8,0c1,0.4,2,1,1.3,1.8
		c-0.9,1-3.1,0.6-4.4,0.8c-6.5-0.3-12.9-1.4-19.1-2.4l-2.8-0.5c-5.3-0.8-10.6-1.4-15.8-2c-3.7-0.4-7.6-0.8-11.4-1.4
		c-0.5-0.1-1.1-0.3-1.8-0.5c-0.7-0.2-1.4-0.5-1.8-0.5h0c-0.4,0-1.1,0.3-1.6,0.5c-0.5,0.2-0.9,0.4-1.3,0.4c-0.6,0.1-1.2,0.2-1.8,0.2
		c-0.9,0.1-1.7,0.1-1.9,0.5c-0.1,0.2-0.2,0.6,0.2,1.5c1.7,4.3,7,6.8,10,8c6.4,2.5,13.8,3.3,20.9,4.2c1.4,0.2,2.9,0.3,4.3,0.5
		c6.4,0.8,13.1,1.1,19.5,1.5c5.2,0.3,10.7,0.5,16,1.1c1.7,0.2,3.5,0.4,5.2,0.5c3.4,0.4,6.8,0.7,10.2,1c1.7,0.2,3.5,0.4,5.3,0.6
		c5.3,0.6,10.7,1.3,15.8,0.5c-5-3.5-10.7-5.8-16.3-8C455.8,543.8,455,543.5,454.1,543.2z"/>
	<path d="M407.3,499.1c-3.6,1.9-7.4,3.9-11.1,5.9c-4.5,2.5-8.8,5.2-13.1,7.9c-2.3,1.5-4.7,3-7.1,4.4l-0.4,0.2
		c-5.1,3.1-10.9,6.6-15,10.8c2.5,1.7,7.7,2.1,18.6-4.6c3.9-2.4,8.1-4.6,12.2-6.7c3.3-1.7,6.8-3.5,10.1-5.5c5.1-3,10.6-6.4,16.9-10.5
		c1.2-0.8,2.3-1.5,3.5-2.3c5.1-3.3,10.3-6.7,15.2-10.2c2.9-2.1,5.8-4.4,9.1-7.1c0.7-0.6,1.5-1.2,2.3-1.8c1.7-1.3,3.4-2.6,4.6-4
		c-2.2,0.3-4.5,0.9-6.8,1.5c-1.7,0.4-3.4,0.9-5,1.2c-4.5,0.9-8.7,2.2-13.6,3.9c-8.1,2.7-16.4,6-23.8,9.3l-2.2,1
		c-8.8,3.9-17.8,8-25.9,13.3c-3.9,2.6-7.6,6-10.9,9.3l-0.6,0.6c-2.3,2.2-7,6.7-6,9.8c2-0.8,3.8-2.2,5.5-3.6c0.7-0.6,1.4-1.1,2.1-1.6
		c2.5-1.8,5.5-4,8.6-5.9c3.5-2.2,7.1-4.4,10.6-6.5l3.5-2.1c5.7-3.5,11.7-6.6,17.5-9.6l2.1-1.1c0.7-0.4,1.4-0.8,2.1-1.1
		c2.2-1.2,4.5-2.4,6.9-3.5c0.4-0.2,0.9-0.4,1.4-0.7c1.7-0.9,3.8-2,5.6-1.2c0.1,0.2,0.1,0.5,0.1,0.7c0,0.3,0,0.5-0.1,0.8
		C418.7,493.2,412.9,496.2,407.3,499.1z"/>
	<path d="M153.3,297.2l2,0.9c1.3,0.6,2.5,1.2,3.8,1.8c3.4,1.6,6.9,3,10.3,4.3c2.1,0.8,4.2,1.7,6.3,2.6c14.2,6,26.4,10.3,38.4,13.7
		c0.3,0.1,1.1,0.2,2.1,0.4c6.1,1.2,10,2.1,11.1,3.4c0.1-0.7,0-1.6-0.3-2.6c-1.4-4.1-7-6.8-11.5-8.9c-0.8-0.4-1.6-0.7-2.3-1.1
		c-13-6.6-23.7-11.1-36.4-13.5c-4.3-0.8-8.7-1.5-12.9-2.2l-3.4-0.6c-3.3-0.5-6.5-0.9-10.3-1.2c-0.5,0-1.1-0.2-1.7-0.3
		c-0.9-0.2-2-0.3-2.8-0.4c1.3,1,3.5,1.8,5.3,2.5C151.8,296.5,152.6,296.8,153.3,297.2z"/>
	<path d="M212.7,323.4c-12.6-3.9-23.9-7.5-34.9-12.3c-5.3-2.3-10.7-4.5-15.9-6.7l-2.7-1.1c-2.1-0.8-4.1-1.8-6-2.8
		c-0.7-0.4-1.5-0.7-2.2-1.1c8,4.9,16.2,9.4,24.2,13.9l2.2,1.2c9.4,5.2,23.5,11.8,37.3,13.5c4.2,0.5,9.3,0.4,11.5-1.6
		c-1.5,0.2-4.9-0.2-12.9-2.8L212.7,323.4z"/>
	<path d="M215,193.2c5.7-3,11.5-5.8,17.2-8.5c2.6-1.2,5.1-2.4,7.7-3.7c0.3-0.1,0.5-0.3,0.8-0.4c1.5-0.7,2.9-1.4,3.9-2.5
		c0.6-0.7,1.1-1.6,1.6-2.5c1.3-2.3,2.7-4.5,4-6.8c1.1-1.8,2.2-3.6,3.1-5.5c0.2-0.5,0.5-1,0.7-1.5c0.2-0.4,0.4-1.1,0.7-1.4
		c-2.8,2.5-5.7,5.1-8.5,7.8c-0.3,0.3-0.7,0.7-1.2,1.3c-1.5,1.7-3.5,4.1-5.5,4.1c-0.3-0.1-0.7-0.1-0.9-0.4c-0.2-0.2-0.2-0.6-0.2-1
		c4.7-4.6,9.5-9.2,14.2-13.6c1.5-1.5,3.1-2.9,4.6-4.4l1-0.9c2.8-2.7,5.7-5.4,8.7-8c0.4-0.4,0.9-0.7,1.4-1.1c1.1-0.8,2.2-1.6,2.8-2.5
		c0-0.1,0.1-0.4,0.2-0.7c0.1-0.5,0.2-0.9,0.3-1c0.1-0.2,0.2-0.3,0.3-0.4c-0.4-0.1-0.8-0.1-1.2-0.1c-4.9,0-12.3,5.4-16.1,8.2
		c-0.7,0.5-1.2,0.9-1.7,1.2c-3,2.1-5.7,4.7-8.3,7.2l-0.4,0.4c-2.2,2.1-4.6,4.2-6.9,6.1c-1.6,1.4-3.3,2.7-4.9,4.2l-3,2.7
		c-6.6,5.9-13.5,12.1-19.6,18.6c-1.7,1.8-3.3,3.7-4.9,5.5c-1.5,1.7-3.1,3.5-4.7,5.3c-2,2.1-4,4.3-5.8,6.5c2.9-1.7,5.8-3.5,8.6-5.2
		C207,197.9,210.9,195.4,215,193.2z"/>
	<path d="M266.8,149.6c-0.3,0.3-0.7,0.6-1,0.9c-1.3,1-2.5,2.1-3.6,3.3c-0.5,0.6-1,1.2-1.4,1.8c-0.5,0.7-0.9,1.5-1.3,2.3
		c0,0-0.1,0.1-0.1,0.1c-0.6,1.3-1.3,2.6-2,3.9c-0.7,1.2-1.2,2.5-1.8,3.8c-1.1,2.2-2.3,4.3-3.6,6.3c-1.3,2.1-2.7,4-3.8,6.2l-0.9,1.6
		c-1.1,1.9-2.2,3.8-3.4,5.6c-4,6.6-8.1,13.4-10.9,20.6c0,0-0.8,2-0.8,2c-1.4,3.4-2.8,6.9-4.2,10.4c-1.1,2.9-2.4,6.1-3.5,9.3
		c-0.4,1.1-0.8,2.1-1.2,3.1c-0.6,1.3-1.1,2.7-1.6,4.1c1.3-1.7,2.8-3.3,4.2-4.8c1.2-1.3,2.5-2.7,3.6-4.1c1.3-1.6,2.6-3.2,3.8-4.8
		c1.4-1.8,2.8-3.7,4.3-5.5c0,0,0.1-0.1,0.1-0.1l0-0.1c0.1-0.1,0.1-0.2,0.2-0.3l0,0.1c2.6-3.1,5.4-6.1,8.2-9.1
		c3.6-3.8,7.3-7.8,10.5-12c5.8-7.4,11.7-15.2,16.1-23.7c1.1-2.1,2.1-4.3,3-6.4c0.7-1.5,1.4-3,2.1-4.5l0.3-0.7
		c1.2-2.5,3.4-6.9,2.7-9.4c-1.2,1.2-2.2,2.7-3.2,4.2c-0.6,0.9-1.1,1.7-1.7,2.4c-1.1,1.5-2.3,3-3.5,4.6c-0.8,1.1-1.6,2.2-2.5,3.2
		c-3.9,5.2-7.9,11.2-12.6,18.7c-1.9,3.1-3.9,6.3-5.9,9.3c-1.9,3-3.9,6.1-5.8,9.2c-0.1,0.1-0.1,0.2-0.2,0.4c-0.2,0.2-0.3,0.3-0.4,0.3
		c-2.1,0.1-0.4-2.6-0.2-3.2c1.1-2.2,2.2-4.4,3.2-6.7c1.3-2.1,2.5-4.2,3.8-6.2c1.6-2.7,3.2-5.4,4.9-8c4-6.3,7.9-11.9,11.8-17.1
		c0.9-1.2,2-2.5,3.1-3.8c2.4-2.8,4.8-5.8,6.3-8.9c0.3-0.3,0.5-0.7,0.5-1.1c0-0.6-0.2-1.1-0.8-1.5c-0.8-0.6-2.2-1.3-3.2-1.2
		c-0.1,0-0.2,0-0.3,0c-0.4,0-0.8,0.2-1.4,0.5c-1.4,0.8-2.8,2.1-4.2,3.4C267.9,148.6,267.4,149.1,266.8,149.6z"/>
	<path d="M404.9,630.1c-6.2-10.5-12.3-21.2-18.2-31.7c-2.5-4.4-5-8.8-7.4-13.2c-3.7-6.5-7.8-13.2-12.8-21l-0.7-1
		c-1.9-2.9-3.8-6-6-8.8c-1.5-1.9-3-3.9-4.6-5.7c-0.3-0.3-0.5-0.8-0.9-1.2c-0.5-0.7-1-1.6-1.6-2.1c1.2,11.1,5.7,20.6,10,28.4
		c5.1,9.3,9.7,17.6,15.3,25.5c5.4,7.8,11.4,15.4,16.4,21.8c2.3,3,4.9,5.6,8,8.3c1.1,1,2.2,1.9,3.3,2.9c-0.1-0.2-0.1-0.4-0.2-0.6
		C405.2,631.1,405,630.6,404.9,630.1z"/>
	<path d="M299.9,68.4c0.7,6.7,1.9,13.4,3,19.9c0.7,4,1.4,8.2,2,12.3c0.4,2.6,0.9,5.1,1.4,7.6c0.5,2.6,1.1,5.3,1.4,8
		c0.4,3.1,0.7,6.3,1,9.3c0.2,1.9,0.3,3.9,0.5,5.8v0c0.4,3.8,0.8,7.5,1.3,11.3c0.3,2.4,0.6,4.9,0.8,7.3c0.2,2.2,0.5,4.3,0.8,6.5
		l0.3,2.1c0.1,0.4,0.1,1.1,0.1,1.8c0.1,1.8,0.2,4.9,1,5.7c0.8,0.8,3.4,0.8,7.7,0.1l0.2,0c3-0.5,6.1-1.3,9.2-2.3
		c4.3-1.4,5.7-3.5,5.4-8.5c-1.2-23.6-5.8-46.8-9.7-64.4c-1.8-8.2-3-16.7-4.2-24.8c-0.4-2.8-0.8-5.6-1.2-8.3
		c-0.3-1.7-0.5-3.4-0.8-5.2c-0.6-4.1-1.3-8.4-1.9-12.6c-0.1-0.8-0.1-1.7-0.1-2.7c0-3.1-0.1-6.9-2.4-7.5c-0.3-0.1-0.7-0.1-1.2-0.1
		c-1.4,0-3.2,0.4-4.8,0.8c-1,0.2-1.9,0.4-2.7,0.5c-1,0.1-2.1,0.2-3.1,0.3c-1.2,0.1-2.5,0.2-3.8,0.4c-2.5,0.4-4.4,0.8-5.1,1.9
		c-0.5,0.7-0.6,1.9-0.2,3.5C297.1,47.2,298.8,57.8,299.9,68.4z"/>
	<path d="M315.7,377.5c-0.4-2.4-0.7-4.9-1.3-7.3c-1.1-5-2.3-10-3.4-14.8c-0.7-2.9-1.4-5.7-2-8.6c-0.5-2.1-1-4.3-1.5-6.4
		c-2.7-11.9-5.5-24.2-9.7-35.7c-2.6-7-5.7-13.2-9.5-18.7c-2.7-3.9-9.2-11.9-11.9-12.1c-0.3,0-0.5,0.1-0.6,0.2
		c-0.3,0.5,0.7,3,2.7,7.4c0.3,0.7,0.6,1.2,0.7,1.5l0.8,2.1c0.9,2.5,1.9,5,2.9,7.5c3,7.2,5.6,13.7,8.6,20.2l0.2,0.4
		c2.1,4.6,4.3,9.4,6,14.2c0.3,0.9,0.7,1.9,1.1,2.9c1.4,3.5,2.9,7.3,2.7,11c-0.1,0.2-0.1,0.3-0.2,0.4c-0.6,0.8-1.4,0.3-1.9-0.3
		c-0.6-1.6-1.1-3.3-1.7-4.9c-1.1-3.4-2.3-6.9-3.6-10.3c-2-5.4-4.5-10.8-7-16c-1.5-3.2-3-6.5-4.5-9.8c-1.5-3.4-2.9-6.9-4.3-10.4
		l-0.7-1.9c-0.6-1.6-1.2-3.2-1.9-4.8c-0.2-0.5-0.4-1.1-0.6-1.8c-0.5-1.6-1.2-3.6-2-4.4c-0.5-0.5-0.6-0.6-0.7-0.6
		c-0.1,0.1-0.3,0.5-0.6,0.8c-0.1,0.2-0.2,0.4-0.4,0.6c-1.2,1.7-1.6,3.6-1.9,5.4c-0.8,5.4-0.4,10.4,0.1,14.7l0,0
		c0.5,4.2,1.5,8.1,3.2,12c0.3,0.6,0.5,1.3,0.8,2.1c0.3,1,0.7,2.1,1.2,3c0.4,1.4,1.3,2.8,1.9,4.2c0.5,1.1,1,2,1.6,3
		c0.4,0.9,0.9,1.9,1.4,2.8c0.3,0.5,0.6,1,0.8,1.5c1.9,3.7,4.3,7.4,6.5,10.9l1.4,2.2c4.2,6.6,8.4,13.3,12.5,19.9
		c5.2,8.3,10.5,16.8,15.8,25.1C316.4,382.2,316,379.8,315.7,377.5z"/>
	<path d="M363.5,188.3l-0.1,0.3c-3.1,8.4-2,19.7-1,27.5c0.8,5.7,2.1,11.2,3.3,16.7c0.6,2.4,1.1,5,1.7,7.5
		c3.3,15.6,7.6,31.3,11.8,46.5c-0.7-9.7-2.2-19.5-3.6-29c-1.1-7.1-2.1-14.5-2.9-21.8c-0.9-8.6-1.9-17.4-2.9-25.8
		c-1-9.1-2.1-18.6-3.1-27.9C365.8,182.9,364.7,184.9,363.5,188.3z"/>
	<path d="M339,372.5c0.3-8.5,0.5-17.3,1-26c0.2-3.2,0.6-6.6,1.1-9.9c0.7-5.4,1.5-11,1.1-16.3c-0.2-3.2-1.7-4.7-4.7-4.8
		c-1.6,0-3.2,0.2-4.7,0.4c-2.7,0.4-5.2,0.7-8.2-0.4c-1.5-0.5-6.4-2-8,0.9c-1.1,2.1-1.1,5.5-1.1,8.6c0,1.1,0,2.2-0.1,3
		c-0.3,4.6-0.1,9.4,0.1,14c0.1,3.3,0.3,6.8,0.3,10.1c0,0.9,0,1.7-0.1,2.6c-0.1,2.7-0.2,5.5,0.3,8.1c0.3,1.6,0.7,3.2,1.2,4.7
		c0.3,0.9,0.5,1.9,0.7,2.8c1.6,6.5,2.9,13.9,3.7,20.7c0,0.2,0.1,0.5,0.2,0.9c0.3,1.4,0.6,3.1-0.2,4c-0.3,0.4-0.8,0.6-1.4,0.6h0
		c-0.9,0-1.7-1.6-3.6-6.1c-0.1-0.2-0.2-0.4-0.2-0.5c-0.3,10.3-0.8,20.4-1.4,29.8c-0.3,4.5-0.6,9.3-1.1,14.1
		c-0.1,0.7-0.2,1.5-0.3,2.2c-0.5,3.8-0.9,7.7-0.4,11.3c1,6.5,9.5,6.9,15.8,7.1c1.1,0,2.2,0.1,3.2,0.2c4.4,0.3,4.6-2.1,5.1-6.5l0-0.3
		c0.4-3.9,0.3-8,0.2-12c0-0.9,0-1.8-0.1-2.6c-0.2-10,0.4-19.7,1.1-28.8c0.4-5.7,0.4-11.6,0.3-17.2c0-3.9,0-8,0.1-11.9L339,372.5z"/>
	<path d="M326.5,553.4c0.5-4.5,1.2-9,1.8-13.4c0.8-5.5,1.7-11.2,2.1-16.8c0.2-3.4,0.5-6.7,0.7-10c0.4-7.1,0.9-14.4,1.8-21.6
		c0.5-3.8,1.2-7.7,1.9-11.4c1.1-5.9,2.3-12,2.4-18c0-2.6-0.2-2.6-2.7-2.9c-1.1-0.1-2.2-0.4-3.2-0.6c-1.1-0.2-2.2-0.5-3.3-0.6
		c-0.8-0.1-1.7-0.2-2.5-0.3c-1.3-0.1-2.6-0.3-3.9-0.5c-0.7-0.1-1.5-0.3-2.3-0.5c-1.4-0.4-2.8-0.8-4.1-0.6l-0.2,0l-0.1-0.1
		c-0.3-0.2-0.6-0.3-0.8-0.3c-0.1,0-0.1,0-0.2,0c-0.2,0.1-0.4,0.5-0.4,0.8l-0.1,0.1c-0.3,0.5-0.5,1.1-0.6,1.6
		c-0.3,1.2-0.6,2.3-0.8,3.6c-0.4,2.3-0.5,4.6-0.7,6.9l0,0.8c-0.1,2.5-0.2,4.9-0.4,7.4c-0.1,2.4-0.2,4.8-0.4,7.2
		c-0.3,5.8-0.8,11.6-1.3,17.3c-0.4,4.9-0.8,9.9-1.1,14.9l-0.2,3.4c-0.6,9.1-1.2,18.5-1.9,27.8c-0.4,5.1-1,10.3-1.6,15.3
		c-0.7,5.6-1.4,11.5-1.8,17.2c-0.3,3.8,1.9,5.9,6.9,6.7c3.1,0.5,12.5,2,14.6-1.2c0.8-1.2,0.9-3.5,1-5.3c0-0.7,0.1-1.4,0.1-2
		c0.4-3.2,0.5-6.4,0.7-8.8c0.1-2,0.1-4.1,0.2-6.1C326.1,560.2,326.2,556.8,326.5,553.4z"/>
	<path d="M331,167.8c-0.7,0.2-1.4,0.5-2,0.6l-1,0.2c-2,0.5-4.2,1-6.3,1.3c-0.7,0.1-1.4,0.1-2,0.2c-3.7,0.3-6,0.5-6.8,5.1
		c-0.3,1.6,0,3,0.3,4.6c0.1,0.5,0.2,1.1,0.3,1.7c0.4,2.4,0.4,4.8,0.4,7.2c0,0.5,0,1.1,0,1.6c0,2.9,0.1,5.9,0.1,8.8
		c0.1,9,0.2,18.2,0.8,27.3c1.7,24.8,2.1,49,1.1,71.7l0,0.4c-0.2,5.5-0.4,10.8,5.3,12.5c5.7,1.7,10.6,2.5,15.9,0.5
		c0.5-0.2,0.9-0.3,1.4-0.4c1.5-0.4,2.8-0.8,3.5-2c0.7-1.3,0.4-3.6,0.2-5.5c-0.1-0.8-0.2-1.5-0.2-2.1c0-1.3-0.1-2.7-0.1-4
		c-0.1-4.3-0.2-8.3-0.6-12.5c-0.8-8.2-0.9-16.6-0.9-24.8c0-4-0.1-8.2-0.2-12.2c-0.2-5.1-0.3-10.2-0.4-15.3
		c-0.1-6.3-0.3-12.8-0.5-19.2c-0.1-3.9-0.4-7.9-0.6-11.7c-0.4-7.2-0.9-14.6-0.7-21.9c0-0.6,0.1-1.3,0.2-2.2c0.3-3.1,0.7-7.7-1-9.7
		c-0.5-0.6-1.2-0.9-2.1-1C334.1,166.8,332.5,167.3,331,167.8z"/>
	<path d="M320.2,591.8c-0.9-0.3-2.2-0.4-3.4-0.4c-0.8,0-1.6,0-2.3-0.1c-2.5-0.3-5.1-0.7-7.7-1.2c-0.4-0.1-1-0.3-1.6-0.5
		c-0.8-0.3-1.8-0.6-2.3-0.6c-0.1,0-0.2,0-0.2,0c-1.3,0.3-2.4,3.3-2.7,4.3c-1.1,3-1.6,6.4-2,9.6c-0.2,1.1-0.3,2.2-0.5,3.3
		c-1.4,8.5-2.7,17.2-3.9,26.7c-0.5,3.7-1.1,7.4-1.7,11.1c-0.8,4.7-1.6,9.6-2.1,14.4c-0.6,5.6-1.3,10.7-2.1,16
		c-0.4,2.6-0.8,5.3-1.1,8c-0.6,4.2-0.6,6.8,2.9,7.7c3.9,1,7.8,1.9,12,1.3c0.4-0.1,0.7-0.1,1.1-0.1c3.7-0.5,5.8-0.7,6.7-4.7
		c0.7-3.1,0.8-6.5,0.9-9.8c0-1.1,0.1-2.2,0.1-3.3c0.4-7,1.2-14.6,2.6-23.1c1-6,2.2-12.2,3.4-18.1c2-10.4,4.2-21.2,5.3-31.8
		c0-0.5,0.1-1,0.2-1.5C322.3,596.3,322.8,592.8,320.2,591.8z"/>
	<path d="M370.3,185.1c0.1,2,0.2,3.9,0.4,5.9l0.1,1.4c0.4,4.8,0.9,9.7,1.5,14.4c0.2,1.5,0.4,3,0.5,4.5l0.6,5.5
		c1.3,11.4,2.7,23.1,4.5,34.6v0c0.7,4.5,1.4,9.1,2.1,13.6l0.6,3.9c0.8,5.2,1.1,10.6,1.4,15.8c0.2,2.7,0.3,5.4,0.6,8.2
		c1.9-11.7,1.9-23.8,2-35.6c0-2.5,0-5.1,0.1-7.6c0.1-9.7-0.3-20.2-1.5-32.9c-0.5-5.4-1.3-12.6-3.1-19.6c-0.1-0.4-0.2-0.8-0.3-1.3
		c-1.2-4.6-2.9-11.6-7-13.7c-0.7-0.4-1.3-0.6-1.7-0.6c-0.2,0-0.3,0-0.4,0.1c-0.6,0.4-0.5,2-0.4,3.4L370.3,185.1z"/>
	<path d="M400,216.4c4.7,6.7,10.3,13.1,17.2,19.4c3,2.8,7,6.3,11.4,9.5c1.8,1.3,3.5,2.7,5.1,4.1c2.7,2.2,5.5,4.5,8.6,6.4
		c8.2,5,16.2,10.5,23.4,15.4c-5.2-8.6-11.3-17.9-19.1-29.1c-7.5-10.8-16.6-23-27.4-31.8c-1.4-1.1-2.8-2.3-4.2-3.5
		c-3.6-2.9-7.3-6-11-8.8c-2.5-1.8-4.7-3.4-7-4.7c-0.3-0.2-0.7-0.4-1.1-0.7c-1.6-1-4.3-2.8-6-2.8c5.4,6.9,12.2,12.5,18.8,17.9
		c2.2,1.8,4.5,3.7,6.7,5.6c0.2,0.2,17.8,15.8,18,20.4c-0.3,0.6-0.8,0.9-1.5,0.7c-2.1-1.8-4-3.9-5.8-5.9c-0.5-0.6-1-1.2-1.5-1.7
		c-4-4.4-8.3-8.7-13-12.7c-2.4-2.1-4.9-4.1-7.3-6.1c-2.4-1.9-4.8-3.9-7.2-6c-2.2-1.9-4.1-3.7-5.8-5.5c-0.3-0.3-0.6-0.7-0.9-1.1
		c-0.7-0.8-1.4-1.7-2.2-2.2c-0.2,3.9,2.7,8.7,4.5,11.6C395.1,209.2,397.6,212.9,400,216.4z"/>
	<path d="M413,201c0.7,0.5,1.3,1.2,2.1,1.8c1.2,1.1,2.4,2.3,3.6,2.9c1.3,0.6,2.9,0.4,4.4,0.1c0.6-0.1,1.3-0.2,1.9-0.3
		c0.8-0.1,1.7-0.1,2.5-0.2c1.6-0.1,3.3-0.2,5-0.4c4.8-0.7,9.7-1.6,14.4-2.5c1.6-0.3,3.1-0.6,4.7-0.9c0.3,0.1,0.5,0.4,0.4,0.8
		c-0.1,0.5-0.5,0.9-0.8,1.2c-3,1.3-6.1,1.9-9.3,2.6c-0.7,0.1-1.4,0.3-2,0.4l-0.1,0c-3,0.6-6.1,1.3-9.1,1.8c-0.7,0.1-1.4,0.2-2.1,0.2
		c-1.8,0.1-3.7,0.3-5.1,1.2c0.6,0.6,1.1,1.2,1.6,1.8c0.9,1.1,1.9,2.3,3,3.1c1.4,1.1,2.5,0.9,4.3,0.7l0.8-0.1
		c6.9-0.7,13.6-3.3,20-5.8c0.1-0.1,0.2-0.1,0.3-0.1c6.1-2.3,12.4-4.1,18.5-5.9c7.1-2,14.4-4.1,21.3-7c-4.1-0.5-8.2-0.8-12.2-1
		c-3.1-0.2-6.3-0.4-9.5-0.8c-8.9-0.9-16.6-1.2-23.6-1.1c-1.3,0-2.6,0-3.9,0.1c-12.1,0.2-24.6,0.3-35.7,3.7c1,0.8,2,1.6,3,2.4
		C412,200.2,412.5,200.6,413,201z"/>
	<path d="M298.9,695.8c-1.4,0-2.9-0.1-4.2-0.4c-0.5-0.1-1-0.3-1.5-0.4c-2.4-0.6-4.8-1.3-6.5,0.3c-1.2,1.2-1.7,2.9-2.1,4.6l-0.1,0.4
		c-0.5,2.1-1,4.2-1.6,6.3c-0.9,3.6-1.8,7.3-2.6,10.9c-1.2,5.7-2.1,11.6-2.9,17.2c-1,6.4-2,13-3.4,19.5c-1.1,5.2-2.5,10.5-3.8,15.6
		c-1.9,7.5-3.9,15.2-5.2,22.8c-0.1,0.8-0.3,1.7-0.5,2.5c-0.8,4-1.7,8.2,0.8,11.7c2.7,3.7,9.8,7,14.2,5c2.5-1.1,3.9-3.8,4.8-6.4
		c1.4-4.4,3-8.8,3.9-13.3c4.2-22.6,9.8-45.4,15.2-67.4l1.6-6.4c0.2-0.7,0.4-1.5,0.6-2.2c1.3-5.2,2.9-11.2,1.2-16.4
		C305.5,696,302.3,695.9,298.9,695.8z"/>
	<path d="M280.1,668.9c-0.4-0.8-0.9-1.5-1.3-2.3c-0.8-1.4-1.5-3-2.2-4.4c-0.2-0.5-0.5-1.1-0.7-1.6c-1.1-1.6-2.3-3.1-3.8-4.5
		c-0.4-0.4-0.9-0.8-1.3-1.2c-1.4-0.1-3-0.2-2.6,1.8c0.2,1.2,1.4,1.6,2.2,2.3c0.6,0.5,1,1.2,1.2,1.9c0.6,0.9,1.1,1.9,1.6,3
		c0.2,0.4,0.4,0.8,0.6,1.2c0.7,1.3,1.4,2.7,2.2,4c0.8,1.5,1.7,3,2.5,4.6c2,4,3.3,8.4,3.5,11.9c0,0.9,0.1,1.6,0.2,2.3
		c0.3-0.3,0.5-0.6,0.7-0.7c1.1-1.2,1.4-2.9,1.5-4.5c0.2-2.1,0.1-4.4-0.7-6.3c0-0.1,0-0.2,0-0.2C282.7,673.5,281.5,671.2,280.1,668.9
		z"/>
	<path d="M348.5,543c-0.4,1.3-1.6,2.8-2.6,4.3c-0.6,0.8-1.2,1.6-1.6,2.2c-4.4,7.4-8.7,15.1-12.8,22.5c-0.8,1.4-1.6,2.9-2.4,4.3
		c-0.8,2.4-2.4,4.7-2.9,7.2c-0.4,2,0,4.1,1.2,5.5c1.1-1.9,2.2-4,3.1-6c0.9-1.8,1.7-3.6,2.7-5.4c1.4-2.5,2.9-5,4.3-7.5
		c1.7-2.9,3.4-5.9,5.1-8.9c0.8-1.5,1.7-3,2.5-4.5c1.5-2.6,3-5.3,4.4-8C349.4,546.8,349,544.9,348.5,543
		C348.5,543,348.5,543,348.5,543z"/>
	<path d="M355.5,538c0.7-1.4,1.7-3.3,2.7-4.6c0.2-0.4,0.4-0.8,0.6-1.3c1-1.8,1.2-3,0.1-4.6c-1.2-0.3-2.5,0.5-3.5,1.5
		c0.1,1.6-0.8,3.3-1.6,4.8l-0.4,0.7c-0.5,0.8-0.9,1.7-1.5,2.4c-0.2,0.2-0.3,0.5-0.4,0.7c-0.1,0.2-0.2,0.3-0.2,0.4
		c0.9,0.7,2.3,1.4,3.4,1.4C355,539,355.2,538.5,355.5,538z"/>
	<path d="M281.4,145.3c1.4,1,2.9,2.2,3.8,3.7c1.4,0.5,2.9,1.5,4.2,2.4c0.5,0.4,1,0.7,1.5,1c1,0.6,2.1,1.3,3.2,1.9
		c2.2,1.3,4.5,2.6,6.6,4.2c3.4,2.7,7.1,6.6,9.5,10.1c0.1,0.2,0.2,0.4,0.3,0.6c0.7-0.6,1.1-1.6,0.8-3.1c-0.3-1.8-1.7-3.7-2.7-5.3
		c-4.4-4.4-9.3-7.5-14.5-10.7l-0.5-0.3c-1.1-0.7-2.1-1.4-3.2-2.1c-1.3-0.9-2.7-1.9-4.1-2.7c-1.6-0.9-3.4-1.8-4.9-2.5
		c-0.8-0.4-1.3-0.7-1.7-1.1c-0.4,0-0.7-0.1-1,0c-1.3,0.2-1.6,0.8-0.6,1.8C279,144,280.3,144.6,281.4,145.3z"/>
	<path d="M342.3,169.9c3.8,2,7.8,4,11.6,5.8c3.2,1.5,6.4,3.1,9.6,4.8c0.7,0,1.4,0.1,2.1,0.1c1.2,0.1,3.1,0.1,3.5-1.4
		c0.2-0.6,0-1.3-0.3-1.9c-3.8-0.7-7.5-2.5-11.2-4.3c-1.7-0.9-3.5-1.7-5.2-2.5l-1.6-0.7c-3.1-1.3-6.3-2.7-9.1-4.5
		c-0.5-0.3-0.8-0.4-1.1-0.5c-0.2-0.1-0.3-0.1-0.4-0.2c-0.4,0-0.6,0.2-0.7,0.8c0,1,0.6,2,1.2,2.7
		C341.3,168.8,341.8,169.3,342.3,169.9z"/>
	<path d="M381.6,190.2c1.1,0.9,2,2.1,2.6,3.3c1.9-0.1,3.8-0.8,3.6-3c-0.1-1.3-0.8-2.5-1.8-3.3c0,0,0,0,0,0c-0.2,0.1-0.3,0.2-0.7,0.2
		c-1.5-0.2-6-2.9-7-3.9c-0.2-0.2-0.4-0.4-0.5-0.7c0.1,1.6,0.4,3.2,1.4,4.6C379.9,188.3,381,189.2,381.6,190.2z"/>
	<path d="M288.3,414.4c4.5,7.5,9.7,16.4,14.4,25.4c1.7,3.4,3.7,6.9,6.3,11.5c0.8,1.4,1.1,2,1.1,2.9c2.6-3.6,0.4-9.7-1.4-14.1
		c0,0,0,0,0,0c-1.6-2.8-3.2-5.7-4.9-8.5c-7.7-13.6-15.7-27.6-24.6-40.8c-0.7-1-1.4-2-2.2-3c-2.6-3.4-5.1-6.7-4.5-11.1
		c0.4-3.8,0.7-7.6,0.9-11.4c0.1-1.7,0.2-3.4,0.3-5.1c0.7-9.9,1.8-20,3.2-29.8c0.2-1.2,0.3-2.5,0.4-3.8c-0.1-1.7-0.4-3.2-1.4-4.7
		c-0.2-0.4-1.2-2.1-1.7-1.7c-0.1,0.1-0.2,0.4-0.2,0.7c0.3,2.2-0.1,4.8-0.5,7.3c-0.1,0.9-0.2,1.7-0.3,2.5c-0.4,3.3-0.8,6.6-1.2,9.8
		c-0.6,4.3-1.2,8.7-1.6,13.1c-0.2,2.5-0.4,5-0.6,7.4c-0.1,1.4-0.2,2.9-0.3,4.3c-0.1,0.7-0.1,1.6-0.1,2.5c-0.1,2.6-0.1,5.7-1,7.7
		c-2-2.4-3.8-5.1-5.6-7.7c-0.8-1.2-1.7-2.5-2.5-3.7c-1.3-1.8-2.2-3.8-3-5.9c-0.2,2.2-0.2,4.4,0.4,6.5c0.3,1,0.6,1.9,1,2.9
		c0.4,0.4,0.7,1,0.9,1.5c2.4,3.4,4.9,6.8,6.7,10.3c1.3,2.5,2.9,4.7,4.5,7c0.9,1.3,1.8,2.6,2.7,4c4.3,6.6,8.4,13.5,12.4,20.1
		L288.3,414.4z"/>
	<path d="M233.6,327.5c-0.8-1.1-1.4-1.9-1.9-2.8c-0.7-0.2-1.4-0.7-2.1-0.5c-1,0.3-1.2,1.2-1,2.1c0.2,0.7,0.5,1.4,0.8,2
		c0.5,0.7,1,1.3,1.5,1.9c0.3,0.4,0.6,0.7,0.9,1.1c0.4,0.5,1,1.2,1.6,1.8c1.1,1.1,2.3,2.4,3,3.7c1,0.6,1.7,1.2,3,1.5
		c0.6,0.1,1.7,0.4,2.6,0.4c-0.6-0.7-1.2-1.6-1.8-2.5c-0.6-0.9-1.2-1.8-1.8-2.6C236.8,331.5,235.1,329.5,233.6,327.5z"/>
</g>
</svg>
