<?xml version="1.0" encoding="utf-8"?>
<!DOCTYPE svg PUBLIC "-//W3C//DTD SVG 1.1//EN" "http://www.w3.org/Graphics/SVG/1.1/DTD/svg11.dtd">
<!-- exported from Silhouette Studio® Business Edition V4.2.471ssbe -->
<svg version="1.1" xmlns="http://www.w3.org/2000/svg" xmlns:xlink="http://www.w3.org/1999/xlink" width="304.8001mm" height="304.8001mm" viewBox="0 0 304.8001 304.8001">
<defs/>
<path d="M 268.9131 158.5992 C 268.9105 159.5146 268.8911 164.9783 268.8903 165.0355 C 268.7521 175.3 266.5293 186.0462 262.8521 196.5415 C 258.4282 209.1678 249.9095 227.4714 230.9111 244.8211 C 214.9097 259.434 187.228 276.1687 149.3181 275.2037 C 145.3686 275.1032 119.5019 275.088 92.33109 258.9415 C 77.08232 249.8797 60.05103 234.7779 48.55889 213.1456 C 38.19736 193.6414 34.6463 172.9469 34.79998 157.0255 C 34.93488 143.0489 37.89502 121.4951 50.36695 99.76659 C 62.95078 77.84312 80.66109 63.61213 95.38567 55.41557 C 116.8256 43.48084 137.5049 41.00414 150.4052 40.83873 C 171.5533 40.56756 191.173 45.8923 207.5048 54.66493 C 210.9203 56.49957 233.3174 68.07451 250.335 94.00574 C 262.0416 111.8443 268.8301 133.5309 268.9268 152.679 C 268.9273 152.7842 268.9268 153.9157 268.9131 158.5992 Z M 146.6047 165.0651 C 147.1768 164.5318 149.9076 164.6838 149.9154 165.7667 C 149.9218 166.6629 147.8558 166.9725 147.1215 166.7601 C 146.0094 166.4384 146.2648 165.382 146.6047 165.0651 Z M 126.5391 163.1553 C 125.5787 162.5689 126.6765 161.6261 126.788 161.5193 C 125.3055 160.5231 125.4816 160.9938 124.9046 160.5567 C 124.4261 160.1943 124.4125 159.7568 123.9483 159.5249 C 123.296 159.199 123.5459 159.8216 121.2036 158.8398 C 118.4946 157.7044 120.61 158.556 118.5722 158.0282 C 117.5713 157.769 117.6747 157.3587 117.2122 157.3043 C 116.3982 157.2086 114.4033 159.43 113.4799 158.9968 C 112.4453 158.5114 112.9358 156.103 116.8427 155.6263 C 118.1745 155.4638 121.1097 155.839 122.192 156.2939 C 127.0218 158.3236 126.4714 157.8938 126.7675 158.0791 C 127.2714 158.3943 127.2202 158.9303 127.9274 159.2538 C 128.8699 159.6849 128.0118 158.7774 129.9865 160.0862 C 131.4595 161.0625 133.0982 160.4481 133.3956 161.5653 C 133.7787 163.0044 131.7472 162.773 128.0363 162.7701 C 127.3345 163.2285 126.9437 163.4024 126.5391 163.1553 Z M 255.0986 111.2811 C 256.5225 113.856 255.9488 112.3871 257.7757 114.6447 C 259.6587 116.9716 258.5884 116.558 260.0968 117.5268 C 258.4592 113.703 258.8026 115.4569 255.0986 111.2811 Z M 234.6135 88.36012 C 234.5976 87.87506 234.4963 88.3493 233.4959 86.96178 C 232.7838 86.76006 232.7388 86.79661 232.6595 86.75006 C 231.9179 86.31536 231.7719 84.87663 231.4539 84.47054 C 231.2078 84.15612 231.2267 84.38103 230.1206 83.3718 C 229.9399 82.39224 229.762 80.67705 230.3385 80.13103 C 230.612 79.87189 231.449 79.64524 231.9991 80.05688 C 232.594 80.50197 232.4829 81.42348 232.4736 81.87416 C 232.706 81.91341 233.7218 81.97003 234.1663 82.72441 C 234.7562 83.72563 233.4933 82.94473 236.0951 85.74251 C 239.4985 89.40244 238.3511 89.93862 239.9475 91.31453 C 240.9664 92.19269 241.294 94.28143 240.8901 94.74809 C 240.2699 95.46469 238.1131 94.46358 237.032 94.36526 C 236.447 94.31208 235.1344 94.63255 234.1817 93.21562 C 233.6155 92.37339 233.5128 90.10602 233.8179 89.42719 C 234.0217 88.97395 234.6287 88.8213 234.6135 88.36012 Z M 227.2035 89.62685 C 226.8857 88.59806 227.7487 89.05666 226.669 86.98856 C 225.9421 85.59624 226.0487 85.14172 226.2808 84.90833 C 226.7153 84.47144 227.5121 85.03891 227.6782 85.1283 C 227.6718 85.07277 227.5235 84.75249 227.7174 84.43051 C 228.2056 83.61981 230.4414 84.10008 231.0825 85.35785 C 231.4971 86.17139 231.0222 85.97247 231.9624 87.95201 C 232.0477 88.13153 232.4722 88.90916 232.1954 89.53175 C 231.7767 90.47387 229.9304 90.76148 227.8311 90.45529 C 227.6709 90.30884 227.3685 90.16087 227.2035 89.62685 Z M 143.1116 101.7487 C 143.0526 101.6825 141.9908 102.7024 141.6597 103.1194 C 142.1698 102.6918 143.1234 101.7619 143.1116 101.7487 Z M 131.9456 65.1954 C 133.1372 65.5518 133.0252 65.58706 133.2071 65.60472 C 133.3961 65.62306 133.446 65.5897 136.7034 64.93573 C 136.3851 64.70735 136.1788 64.6208 136.0461 64.23869 C 135.8253 63.60282 136.2752 62.98346 136.6141 62.80141 C 137.2231 62.47419 136.8501 63.22025 138.9728 61.33424 C 137.785 59.45968 138.0434 60.8378 133.4543 58.09002 C 132.5256 57.53397 131.1375 57.65785 128.9269 56.29353 C 128.7127 56.50702 128.348 56.93916 127.8954 57.05799 C 127.4489 57.17524 127.046 56.95085 126.565 57.11726 C 125.1487 57.60719 126.9824 58.42352 120.7782 58.3447 C 117.328 58.30087 114.1241 59.17308 113.5234 58.45635 C 113.12 57.97499 113.5578 57.30939 113.5932 57.2295 C 113.5344 57.2095 113.1064 57.17108 112.8845 56.81492 C 112.3485 55.95472 113.7496 53.97346 114.2965 53.6614 C 114.6323 53.46973 115.6186 53.40654 116.8005 52.83578 C 117.3336 52.57833 117.7132 52.23363 118.1837 52.40828 C 119.1735 52.77563 118.42 54.45264 118.6972 54.85543 C 118.9527 55.22676 119.2113 54.86515 119.5588 55.33202 C 119.9074 55.80013 119.5077 56.1388 119.8593 56.17323 C 120.6802 56.25361 119.6894 55.46121 119.6258 55.09354 C 119.5248 54.50964 121.1233 52.34093 121.839 51.99309 C 122.7674 51.54188 123.6423 52.02545 124.1145 51.9117 C 124.576 51.80051 124.8038 51.28501 125.3719 51.24294 C 125.5763 51.22781 126.3625 51.35711 126.6566 51.99332 C 126.8184 52.34351 126.7459 52.31453 126.6683 53.66252 C 128.1456 53.10334 128.211 53.05597 128.5104 53.08168 C 128.916 53.1165 129.5016 53.54356 129.8877 53.7977 C 133.7956 50.68389 136.6432 51.88503 136.5846 53.11037 C 136.5611 53.60154 136.1267 53.75542 136.0197 53.82936 C 138.5394 53.79783 139.7628 53.31639 140.2717 53.52349 C 140.6837 53.69116 140.2672 54.06875 142.9713 54.90571 C 143.4927 54.6586 143.5424 54.5923 143.8695 54.64963 C 144.3571 54.7351 144.5328 54.98922 144.6653 55.75058 C 145.5726 55.62924 148.2733 55.20133 148.0041 56.54774 C 147.9533 56.80185 147.8656 56.9883 146.9513 57.25353 C 146.7129 57.84247 146.9739 57.14377 146.3692 58.81059 C 150.1053 59.51276 148.1605 59.59878 150.077 59.79267 C 152.3883 60.02649 151.658 60.39189 152.6663 60.84557 C 153.8902 61.39625 157.0781 61.55838 157.3994 61.9938 C 157.7118 62.41711 157.6627 64.59866 154.5071 64.67778 C 154.4718 64.88957 154.4221 65.82959 153.5986 65.88351 C 152.9668 65.92488 152.7463 65.32391 152.3418 65.18249 C 151.9542 65.04699 151.6272 65.33426 151.1698 64.92592 C 150.8359 64.6279 150.8556 64.27365 150.8151 64.00465 C 149.3425 63.8444 150.6214 64.03632 147.9951 63.05471 C 147.9851 63.17914 148.0124 64.15133 147.4696 64.35704 C 146.9958 64.5366 146.666 64.06143 146.6598 64.05692 C 146.6311 64.03604 146.5889 63.93233 146.5784 63.93007 C 146.5676 63.92772 146.6171 64.01836 146.586 63.99033 C 148.0334 65.33617 149.8296 66.10159 149.9324 66.12721 C 151.6027 66.54404 152.8813 67.96779 152.993 68.18694 C 153.1744 68.54305 153.2727 69.36507 152.7802 69.67047 C 152.4539 69.87282 152.2627 69.72379 152.1269 69.70863 C 152.1006 69.74896 152.0165 70.04661 151.7239 70.20178 C 150.7486 70.71912 148.0589 69.0853 145.9311 69.00864 C 146.0244 69.10879 145.8215 69.1908 146.3426 69.28688 C 146.3721 69.29233 147.808 69.20419 149.4543 70.60793 C 151.0165 71.93989 149.5795 72.61569 149.5096 72.6331 C 149.0982 72.73555 147.3067 71.93427 146.5783 71.69772 C 145.2099 71.25328 145.5226 71.72256 144.7293 71.64055 C 144.4107 71.60761 144.1068 71.45701 143.9072 71.27174 C 143.5124 70.90517 143.6256 70.62216 143.2182 70.39877 C 142.6308 70.07672 141.2499 70.6377 140.4888 70.15503 C 139.9032 69.78368 139.9643 69.11964 139.7825 68.86363 C 139.5582 68.54778 136.8998 66.93587 135.5779 67.02928 C 134.401 67.11243 133.7384 68.16746 131.9277 68.24408 C 131.073 68.28024 129.0341 68.21397 129.0378 67.11023 C 129.041 66.16633 130.982 65.5338 131.9456 65.1954 Z M 139.6947 166.3361 C 139.5018 166.7619 139.1124 167.7513 138.3098 167.7574 C 137.3735 167.7645 137.2155 166.8642 137.1139 166.3485 C 133.7651 166.3637 132.813 166.4248 132.4515 165.9418 C 132.1523 165.542 132.3402 164.8154 132.8413 164.5738 C 133.6245 164.1961 133.0312 164.9661 135.8048 164.6384 C 135.4002 163.318 135.1575 163.722 134.7342 163.5654 C 134.157 163.3518 134.1516 162.8879 134.1825 162.7095 C 134.3835 161.55 136.3306 162.2395 137.3372 162.2354 C 139.2367 162.2278 139.7601 161.5588 142.6273 163.3678 C 144.7721 164.7209 145.0692 165.7089 144.5162 166.2644 C 143.9345 166.8486 143.1306 166.0225 143.0194 165.9324 C 140.4646 166.0984 142.9725 166.0575 139.6947 166.3361 Z M 112.1427 217.3489 C 111.6133 216.6091 111.4781 216.4443 111.4187 216.0787 C 111.4037 215.9867 111.3644 215.6117 111.5378 215.2482 C 111.9387 214.408 112.4024 214.853 113.5625 213.2701 C 112.5513 212.6091 112.0696 212.4468 111.8537 211.8404 C 111.8295 211.7727 111.5659 211.5155 111.943 210.6885 C 112.125 210.2892 112.5961 209.7657 112.8425 209.1724 C 113.3849 207.8661 112.8722 206.8963 113.5697 206.2882 C 114.0871 205.8373 114.6203 205.9392 114.6396 205.9338 C 119.6825 199.7018 116.948 201.4516 117.5026 196.3884 C 117.5582 195.8808 117.6691 194.3719 119.0694 192.5967 C 121.2766 189.7984 120.721 189.4162 121.2621 188.8028 C 121.751 188.2487 122.8809 188.1798 122.8953 188.1739 C 123.1094 188.0858 122.6907 188.0892 124.7959 187.1251 C 124.8206 187.1137 125.8215 186.7677 125.6206 185.8381 C 125.452 185.0578 123.9779 184.4155 122.6955 184.9947 C 122.4547 185.7163 122.5744 188.0573 121.0257 187.6889 C 120.3635 187.5314 121.4833 187.313 114.322 183.989 C 110.3424 182.1418 110.1534 181.7851 109.4442 179.8301 C 109.3369 179.5345 109.0209 177.8427 108.0917 176.9123 C 107.9428 176.7633 107.4271 176.1846 105.6446 175.5748 C 103.459 174.827 100.4334 174.6302 98.8652 173.3994 C 97.23763 172.122 97.35579 170.4378 95.53808 170.1434 C 94.05606 169.9034 92.39095 171.0921 90.71415 170.2735 C 89.78925 169.8221 89.57217 168.939 83.12003 166.287 C 74.6988 162.8256 79.3414 161.1516 75.24392 155.1295 C 73.15338 152.0571 71.7272 152.2624 71.28116 150.7178 C 70.38826 147.6257 70.0949 149.111 67.97694 145.3574 C 66.06338 141.9661 66.924 141.45 65.79506 140.7216 C 64.74048 141.6722 65.78184 144.3886 66.06244 144.9165 C 67.39739 147.4279 68.56917 146.3981 70.14117 152.542 C 71.01462 155.9557 72.08669 155.4599 72.0532 156.326 C 72.02419 157.0764 71.19656 157.5052 70.26836 156.758 C 68.06676 154.9857 67.49213 152.1712 67.38329 151.7482 C 66.92809 149.9792 66.19489 150.3783 64.9846 149.182 C 63.73735 147.9492 65.34656 146.9686 63.56552 144.704 C 63.05593 144.056 62.39353 143.662 61.96946 141.5896 C 61.66597 140.1065 61.75036 138.7293 61.1548 137.8938 C 60.0904 136.4007 58.34171 136.6416 57.58747 135.5774 C 56.94924 134.6769 57.56266 135.1935 55.96716 129.246 C 55.11523 126.0702 54.64793 123.2793 55.20579 119.9123 C 55.92841 115.551 57.88799 113.7749 56.73468 109.2092 C 56.20479 107.1115 55.04215 105.1632 54.21541 103.1322 C 53.45125 101.2549 53.39386 100.7668 52.97442 100.6996 C 51.27845 100.4278 44.69241 115.9641 42.5746 122.5 C 38.31207 135.6549 37.53124 145.9765 37.31676 148.5678 C 35.65931 168.5933 39.30368 188.0378 46.86868 204.9947 C 52.81869 218.3316 63.29259 234.9023 81.92226 249.5014 C 100.3474 263.9402 119.0704 269.0139 130.4084 271.3986 C 131.051 269.0877 131.2703 269.767 130.537 267.0829 C 128.8811 261.0223 131.7172 260.7816 131.672 257.5337 C 131.6507 256.002 130.9577 254.347 131.9871 251.892 C 132.4734 250.7323 133.0154 250.2823 133.2532 247.0921 C 133.3903 245.2516 133.3635 242.0829 133.2405 241.0739 C 132.6535 236.2561 127.4261 238.0124 121.1181 230.5408 C 118.8935 227.906 117.0604 223.4505 116.518 222.5313 C 114.9469 219.8691 112.2201 219.4554 111.9473 218.4899 C 111.8647 218.1978 112.0172 217.7946 112.1427 217.3489 Z M 169.7996 207.9136 C 172.4499 208.215 174.8968 207.8008 179.711 210.2023 C 185.4498 213.0651 185.2955 212.7574 187.6312 213.1138 C 188.4531 213.2393 189.243 213.1232 192.1423 215.0851 C 194.1607 216.451 195.9662 215.1888 196.7792 217.2677 C 197.1044 218.0993 197.2852 219.7959 196.4839 222.2818 C 195.7221 224.6451 194.7724 224.8066 193.1787 226.1379 C 190.7024 228.2065 190.7064 229.2837 190.6987 229.3187 C 190.5314 230.0807 190.288 234.1898 187.9106 238.1262 C 186.7576 240.0351 186.1694 240.4627 185.2872 242.0665 C 184.6121 243.2937 184.3941 244.2186 183.9564 244.7567 C 182.9174 246.0341 180.0189 245.9571 175.0973 247.4589 C 171.9225 248.4277 171.4796 249.0727 171.201 251.5025 C 170.8992 254.1337 169.7059 253.1313 167.9107 255.1669 C 167.1264 256.0561 165.7105 258.6623 160.5473 261.2129 C 157.0878 262.9218 158.0763 262.245 156.0217 264.636 C 153.9964 266.993 152.2472 264.9353 149.842 265.8568 C 148.1875 266.4908 148.8686 268.1337 146.1417 268.7386 C 145.3232 268.9202 144.7243 268.8376 143.7706 269.578 C 143.5766 269.7286 142.2756 270.7852 142.0434 271.4016 C 141.7843 272.0893 142.2183 272.8567 142.2446 272.9195 C 145.7528 273.4798 164.0154 274.8073 184.1313 268.9828 C 200.8114 264.1531 213.8262 256.2197 222.4171 249.5482 C 239.8899 235.9793 249.2891 220.7275 250.9729 217.5189 C 252.7257 214.1789 251.1779 207.9343 255.1209 200.7027 C 256.1828 198.7551 258.0192 196.2664 256.7673 190.2115 C 255.6383 184.751 253.8877 184.5964 255.4548 180.0122 C 256.6242 176.591 255.0583 176.2553 253.6492 175.6704 C 251.9207 174.9528 252.4805 174.3019 249.4035 175.4105 C 245.5467 176.8 243.8591 176.3918 240.4654 176.7828 C 237.3641 177.1402 236.8745 177.9693 235.6546 176.7399 C 234.8206 175.8994 235.2685 175.8901 231.5845 172.795 C 230.3668 171.772 228.9185 170.5433 227.405 168.2569 C 223.8647 162.9089 224.7235 164.8506 223.8176 163.4315 C 223.2106 162.4805 223.4388 161.8581 224.104 160.2714 C 223.3563 159.4665 223.1411 159.2697 223.0276 158.9188 C 222.4757 157.2114 224.6585 157.2558 224.8679 154.1511 C 225.0043 152.1294 223.8507 150.7139 223.4675 149.9062 C 223.1131 149.1592 222.606 147.8682 222.6514 146.1982 C 222.7422 142.849 223.9134 142.426 226.8813 138.636 C 229.598 135.1668 227.5742 136.1551 233.2325 130.2157 C 232.5491 125.5584 235.0621 124.1919 236.8387 122.3966 C 236.8557 121.0409 236.9227 120.3309 237.5752 120.0492 C 238.7274 119.552 241.3007 122.2517 243.2662 121.5368 C 244.2709 121.1715 246.7238 118.9258 250.6506 120.1353 C 254.7764 121.4059 255.5781 124.9573 256.3339 126.3836 C 256.9802 127.603 257.7291 127.9933 259.3931 129.256 C 261.8768 131.1407 261.3503 131.1164 261.9346 131.2781 C 262.6306 131.4708 263.557 130.8292 263.6472 130.7063 C 264.1159 130.0675 263.8788 127.7905 260.4293 118.3864 C 260.2134 118.6299 260.5704 118.4959 259.6639 118.9507 C 259.6104 119.4697 259.5569 120.5417 258.9565 120.7069 C 257.9125 120.9943 258.2801 119.6374 257.6071 118.3601 C 256.2901 115.8603 254.0725 114.5184 253.1662 112.8671 C 252.0231 110.7845 252.3626 109.5258 251.4205 109.3777 C 250.6551 109.2574 250.4663 110.2535 249.722 110.5271 C 249.4532 110.6259 248.9065 110.6293 248.6298 110.5238 C 248.1144 110.3275 248.514 110.3393 247.2568 109.4023 C 247.093 111.287 247.1006 111.2062 246.7585 111.6358 C 246.1504 112.3993 245.3662 112.4545 244.9801 112.8871 C 244.1236 113.8467 244.7107 116.6073 243.8806 117.8439 C 242.8041 119.4478 240.5278 118.6327 239.8915 118.7921 C 239.3487 118.9281 238.8031 119.7723 237.9743 119.8098 C 237.8267 119.8164 237.6174 119.7918 237.4191 119.7147 C 236.9192 119.5205 236.5224 118.7402 235.4834 118.4349 C 234.4694 118.1369 233.3212 118.3478 232.7971 117.6529 C 232.2967 116.9893 232.7729 115.7201 232.6348 115.261 C 232.448 114.64 231.4729 114.0724 231.3761 113.3168 C 231.2504 112.3366 231.9368 112.4881 232.2527 110.9774 C 232.5393 109.6072 231.7423 108.5883 231.7601 108.0472 C 231.7707 107.7275 231.9803 107.4308 231.9853 107.42 C 231.5919 106.5361 231.461 106.2799 231.4568 105.9458 C 231.4524 105.5947 231.6571 104.9194 232.2298 104.6033 C 232.7754 104.3021 233.2091 104.3673 234.995 105.0707 C 235.0248 105.0525 235.5676 104.5527 236.269 104.7671 C 236.9649 104.9799 237.123 105.6436 237.1962 105.8152 C 239.986 106.5864 240.599 106.0404 240.7736 105.7372 C 241.0251 105.3005 240.7412 102.8103 238.6667 100.4744 C 236.9579 98.55032 236.3166 99.49879 235.6356 98.70624 C 235.2243 98.22762 235.2127 97.21756 235.9242 96.83525 C 236.6643 96.4376 238.1651 97.48075 239.1685 97.14687 C 239.6374 96.9908 239.3185 96.86574 240.8471 96.28958 C 241.2593 94.49673 241.6319 94.30859 243.9476 94.2784 C 243.3718 93.15165 243.0591 92.75293 243.5613 92.23645 C 244.2778 91.49969 246.4294 92.56014 246.5794 92.62206 C 245.2318 88.93053 237.1041 80.15659 233.9727 76.97279 C 232.1292 75.09848 226.8667 69.85295 218.9454 64.20753 C 215.3214 61.62482 204.1018 54.63298 202.9617 54.80929 C 202.4617 54.8866 202.0284 55.74335 201.5138 56.08442 C 200.8273 56.53937 199.7237 56.49818 199.2917 56.73795 C 198.4219 57.22063 197.931 59.45155 195.2742 60.23878 C 193.5889 60.73818 191.1687 60.27187 190.5791 61.7872 C 190.5349 61.90077 190.4953 62.05399 190.4876 62.11751 C 190.3938 62.89655 191.3148 64.12372 190.8593 65.03642 C 190.5453 65.66556 189.7289 65.82837 189.5117 65.89541 C 192.0329 70.45993 189.1237 74.34831 186.3875 72.73671 C 184.8788 71.84805 184.6813 70.41911 183.0602 70.3344 C 180.6976 70.21093 174.0883 71.89809 169.9228 65.47229 C 167.7124 62.06255 168.8253 62.95987 165.53 60.38323 C 163.2763 58.62099 162.7641 55.21634 166.687 53.32519 C 165.8492 53.50062 163.1613 54.3191 162.208 53.30271 C 161.5002 52.54809 161.8776 51.40076 162.3815 50.90917 C 163.1216 50.18705 164.0546 50.47422 167.4259 50.54036 C 165.1344 49.47318 164.7122 50.07817 163.2342 48.96376 C 161.6057 47.73586 161.455 46.57857 159.2355 45.33649 C 158.8155 45.10143 156.5617 43.80515 151.7762 43.28596 C 144.433 42.48926 132.7946 44.06924 123.31 46.55907 C 96.87247 53.49924 80.9946 67.49887 77.49757 70.4778 C 83.09537 70.71026 86.90187 67.30655 91.50945 66.7881 C 97.82191 66.07782 94.20161 66.3363 97.36913 65.47354 C 98.7864 65.08751 99.92561 65.15485 101.301 65.61835 C 104.0326 66.53887 103.4641 65.01788 105.4971 63.35224 C 107.7876 61.47564 105.5267 63.37716 107.3302 61.20526 C 109.2064 58.9458 111.082 61.10125 111.4525 61.45753 C 112.5367 60.65437 113.5827 59.97843 114.4015 60.31552 C 114.9588 60.54498 115.4148 61.37536 115.0815 62.10045 C 114.9624 62.35977 114.8278 62.43296 114.4971 62.71062 C 116.7919 62.96049 117.4465 62.13566 117.5528 61.9547 C 117.8432 61.46011 117.4847 61.59655 117.6884 61.00125 C 118.0309 60.00043 120.8564 58.96487 122.1991 59.48106 C 123.0964 59.826 122.9983 60.13197 123.9323 60.88385 C 124.249 61.13876 124.982 61.63449 124.8874 62.40187 C 124.7653 63.39312 122.4435 64.55241 122.13 64.66451 C 119.831 65.48657 122.168 64.26176 119.6181 65.39517 C 118.4781 65.90191 118.0706 65.03361 117.2954 65.11792 C 116.495 65.20497 116.0764 66.29052 114.7363 67.68275 C 114.7956 67.75594 115.0434 67.88057 115.0669 68.25658 C 115.1332 69.31535 112.7577 70.52911 110.2783 71.31717 C 107.2499 72.27975 106.3294 72.12358 105.3507 73.7598 C 102.7931 78.03542 102.6412 78.78129 102.7592 79.86566 C 102.8912 81.07939 103.9525 83.35617 106.0009 84.43947 C 110.0795 86.5965 115.6993 85.37426 117.3374 85.71478 C 121.8891 86.66093 121.6869 91.20338 122.1738 93.05467 C 123.0116 96.23942 124.5669 95.80179 125.0664 95.51857 C 126.7749 94.54979 125.8078 90.33765 125.8205 89.5946 C 125.8714 86.61823 129.1142 86.77362 130.4019 84.33273 C 130.9814 83.23444 130.8237 82.4323 129.4496 81.30396 C 126.3629 78.76928 128.9766 77.97678 129.3789 76.92082 C 129.6361 76.24588 128.7284 72.64672 128.9172 72.01784 C 129.0168 71.68622 129.4805 71.19698 129.7992 71.09413 C 130.5222 70.86082 132.5017 71.66669 134.6662 71.50192 C 136.3481 71.37389 137.6087 71.18927 139.3118 72.11111 C 146.9128 76.22514 142.4601 76.72413 145.0214 78.24794 C 146.4393 79.09154 148.3989 79.05765 149.6041 78.18672 C 150.3719 77.63189 150.7635 76.57365 151.6977 76.15147 C 153.9538 75.13193 154.5886 78.15152 154.6316 78.30754 C 157.1309 80.14584 156.7711 81.03731 157.2082 82.14601 C 157.5709 83.06641 158.4636 83.75355 159.9155 83.6387 C 161.3465 83.52554 162.677 82.81418 164.2353 83.01529 C 169.5809 83.7052 169.5678 89.9961 168.8998 92.68069 C 168.09 95.93472 164.5345 95.22892 163.3358 95.60863 C 162.1465 95.98535 160.7985 97.69363 157.9282 97.4986 C 155.713 97.34808 154.1908 96.44651 150.5823 97.59732 C 145.7534 99.13734 144.7909 100.2645 144.1237 100.9212 C 147.9165 98.67715 151.822 98.76319 152.632 99.52409 C 153.1083 99.97147 153.2728 101.0845 152.7645 101.7144 C 152.3254 102.2584 151.4728 102.3197 150.869 102.4027 C 153.3938 104.2138 152.3908 105.0639 154.1047 106.0222 C 155.8277 106.9856 157.5702 106.0032 158.4015 106.7283 C 158.8826 107.148 158.9407 108.0783 158.5282 108.5656 C 157.7857 109.443 156.378 108.5581 153.7067 109.7856 C 151.2823 110.8996 152.0995 112.1093 150.5746 112.1915 C 149.7031 112.2384 149.1059 111.4528 149.0446 111.3353 C 148.8438 110.9501 148.8683 110.0414 149.1209 109.6517 C 149.4154 109.1975 150.0936 108.9286 152.3385 107.8432 C 149.9718 107.8889 149.802 108.7939 148.0916 109.3722 C 145.9161 110.1078 142.92 109.1671 140.2241 113.5522 C 137.8921 117.3455 135.5882 117.34 134.4245 119.7534 C 132.8832 122.9499 132.5772 121.2727 131.4164 122.6879 C 130.4425 123.8753 130.6832 127.3531 128.7133 130.6702 C 126.157 134.9747 123.1801 135.904 121.7782 137.1128 C 119.6738 138.9274 120.4262 141.3172 120.708 142.3481 C 121.7545 146.1764 122.6746 147.4828 122.3297 151.3146 C 122.1554 151.4949 121.6808 152.1016 121.0302 152.113 C 119.6234 152.1375 117.8265 149.2333 117.3835 147.9239 C 116.7371 146.0134 116.6026 142.9747 114.9525 142.555 C 114.2723 142.382 113.6317 142.788 112.8951 142.8455 C 111.7554 142.9345 111.3121 142.338 110.6444 142.0012 C 108.1028 140.719 106.4859 142.3024 103.7682 143.505 C 102.1803 144.2077 99.78178 143.5154 96.95679 144.2721 C 93.25455 145.2639 92.0052 148.1722 91.63525 149.013 C 90.77923 150.9586 91.7939 149.7043 90.74406 151.485 C 90.12376 152.5371 88.88296 153.7531 89.59461 157.3474 C 89.9762 159.2746 91.72917 164.1519 96.2221 164.8977 C 99.24803 165.4 100.9204 164.8804 101.5699 163.3556 C 102.2267 161.8136 101.4493 160.0006 104.4335 159.2225 C 106.7695 158.6134 108.9612 158.5627 109.4041 159.5777 C 109.8765 160.6606 108.1451 161.2576 107.2403 163.8995 C 106.3866 166.3918 106.5526 168.9786 106.8578 169.4261 C 107.7818 170.7805 111.7763 169.5998 113.7294 170.5351 C 115.6269 171.4438 116.4135 173.3601 116.0631 175.3146 C 115.7289 177.1783 115.1081 179.6192 116.9269 181.9151 C 119.7396 185.4657 121.2165 182.2211 124.384 182.6578 C 129.3546 183.343 127.7536 189.4193 128.5639 190.6639 C 128.7658 190.9741 129.1078 191.1292 129.4433 191.3174 C 129.2116 188.8301 130.4128 187.5911 131.6885 187.2067 C 133.6387 186.6191 135.3084 188.735 136.1477 188.7679 C 136.7647 188.7921 136.8438 188.3304 137.7894 188.4418 C 138.9329 188.5766 140.606 189.6349 140.8643 189.697 C 141.7233 189.9036 143.2762 189.051 144.6059 189.4335 C 144.6764 189.4538 148.2293 190.9177 148.3956 191.0616 C 149.066 191.6418 148.8922 192.4585 149.4823 192.9109 C 150.7377 193.8734 151.9219 192.1199 154.2353 195.2836 C 154.5228 195.6768 155.4779 197.1377 157.1252 197.7183 C 158.3675 198.1561 159.4006 197.9728 160.3056 197.9201 C 162.5147 197.7916 165.5985 198.3746 167.5948 201.2901 C 168.5883 202.7411 168.6049 203.7515 169.0816 204.5654 C 169.57 205.3989 170.0866 205.508 170.1886 206.2686 C 170.2416 206.6632 170.177 206.662 169.7996 207.9136 Z" fill="#000000" fill-opacity="1" stroke="#FF0000" stroke-opacity="1" stroke-width="0.1" stroke-linecap="round" stroke-linejoin="round"/>
</svg>