<?xml version="1.0" encoding="utf-8"?>
<!-- Generator: Adobe Illustrator 21.1.0, SVG Export Plug-In . SVG Version: 6.00 Build 0)  -->
<svg version="1.1" id="Слой_1" xmlns="http://www.w3.org/2000/svg" xmlns:xlink="http://www.w3.org/1999/xlink" x="0px" y="0px"
	 viewBox="0 0 595.3 841.9" style="enable-background:new 0 0 595.3 841.9;" xml:space="preserve">
<path d="M490.5,525.2L490.5,525.2c-3.4-2.1-5.9-5.5-8.4-8.8c-1.1-1.4-2.2-2.9-3.3-4.2c-3.2-3.7-6.7-7.5-11.1-12.1
	c-1.9-1.9-3.7-3.8-5.5-5.8c-6.5-6.8-13.2-13.8-20.1-20.4c-4.6-4.4-8.5-7.6-12.4-10.4l-1.3-0.9c-1.6-1.1-3.2-2.3-4.8-3.4
	c-0.5-0.3-0.9-0.6-1.3-0.9c-0.5-0.4-1.1-0.7-1.1-0.9c0-0.1,0.1-0.4,1-1.1c3-2.3,6.3-4.3,9.5-6.3c2.9-1.8,5.9-3.6,8.7-5.6
	c1.4-1,2.8-2.1,4.2-3.1c3.5-2.6,7.2-5.3,10.7-8.1c3.7-2.9,7.3-6.1,10.7-9.2c2.1-1.9,4.3-3.9,6.6-5.8l1.1-0.9c4.7-4,9.6-8.2,13-13.5
	l0.3-0.5l-0.6-0.2c-4.1-1.6-8.5-1.1-12.4-0.5c-7.9,1.3-15.3,4-22.3,6.7l-3.4,1.3c-12.8,5-26.1,10.1-38.8,16.1l-1.7,0.8
	c-2.7,1.3-5.6,2.6-8.2,4.2c-1.8,1.1-3.5,2.4-5.2,3.7c-1.4,1.1-2.8,2.2-4.3,3.1c-0.9,0.6-1.8,1.1-2.7,1.7c-5.1,3.2-10.9,6.9-14.3,12
	c-0.9,1.3-1.4,2.8-2,4.1c-0.5,1.3-1.1,2.6-1.8,3.8c-0.7,1.1-1.6,2.1-2.5,3c-0.9,1-1.9,2.1-2.7,3.4c-0.9,1.5-1.4,3-1.8,4.5
	c-0.3,0.9-0.6,1.8-0.9,2.7c-0.7,1.7-1.6,3.4-2.4,5.1c-0.7,1.4-1.5,2.9-2.2,4.4c-0.9,2-1.8,4.1-2.7,6.1c-2.7,5.9-5.4,12-7.7,18.2
	c-0.6,1.8-1.4,3.6-2.1,5.4c-1.5,3.9-3.1,7.9-4.2,11.9c-0.8-5.3-0.3-11,0.3-16.5l0.3-3.4c0.6-6,1.2-12.3,1.3-18.6
	c0-3.7,0.1-7.4,0.2-11.1c0.2-10,0.3-20.3,0.2-30.4c0-2.1-0.1-4.3-0.2-6.5c-0.2-4.8-0.3-9.7-0.1-14.5c0.1-1.9,0.1-3.7,0.1-5.5
	c0.1-5,0.1-9.7,1.3-14.6c0.8-3.5,0.7-5.9-0.3-9c-0.2-0.5-0.3-0.7-0.4-0.9c-0.1-0.2-0.1-0.2-0.2-0.8c0-0.2,0.1-0.6,0.2-0.9
	c0.1-0.4,0.2-0.8,0.3-1.2c0-0.9-0.2-1.7-0.5-2.4c-0.2-0.6-0.4-1.2-0.4-1.8c0-1.4,0.8-3.4,1.4-5.1c0.3-0.7,0.6-1.4,0.8-2
	c0.4-1.2,0.8-2.3,1.3-3.4c0.5-1.2,1-2.5,1.4-3.9c1.1-3.4,2.3-6.8,3.5-10.1c0.9-2.6,1.9-5.3,2.8-8c0.2-0.6,0.4-1.1,0.6-1.7
	c0.8-2.4,1.6-4.9,2.7-7.2c1.4-3,3.2-3.7,6.1-5l0.1,0c11.8-5.3,21.6-15.8,30.5-26.2c11.6-13.5,19.4-29.6,27-45.3
	c3.1-6.4,6.3-13,9.7-19.4c0.1-0.2,0.3-0.5,0.6-0.9c1.4-2,2.7-4.1,2.4-5.4c-0.1-0.4-0.4-0.7-0.8-0.9c-1-0.5-2.7,0.7-6.8,4.7
	c-0.3,0.3-0.5,0.5-0.7,0.6l-2.1,1.9c-4.5,4-9.1,8.1-13.8,12.1c-6.7,5.6-12.1,10.5-17,15.4c-2.9,2.9-5.6,6-8.3,8.9
	c-0.4,0.5-0.9,1.1-1.4,1.7c-1,1.2-2.1,2.6-3.2,3.5c-2.5-7.7-6.3-15-10-22c-3.1-5.9-6.3-11.9-8.7-18.2c-2-5.1-4.6-10.1-7.1-14.8
	c-0.5-0.9-0.9-1.8-1.4-2.7c-0.5-1-0.9-2.2-1.4-3.5c-1.1-3.2-2.3-6.8-5.4-7.9l-0.7-0.3l0.1,0.8c0.6,7.1,0.9,14.4,1.3,21.5
	c0.7,13.5,1.3,27.4,3.7,40.9c2.1,11.9,4.7,23.4,8.1,35.2c0.6,1.9,0.1,2.8-0.8,4.4c-0.3,0.5-0.5,1-0.8,1.6l-0.1,0.3
	c-1.1,2.5-2.5,5.3-3.2,8c-0.7,2.3-0.4,3.9,0.2,5.8c0.2,0.5,0.3,0.8,0.4,1.1c0.2,0.5,0.2,0.5-0.4,2.3c-0.8,2-1.6,4.1-2.5,6.1
	c-1.7,4.1-3.4,8.3-4.6,12.6c-1.4,5.1-3.3,11.6-5.4,18.2c-1.3-6.4-0.9-13.1-0.6-19.6c0.2-2.9,0.3-5.9,0.3-8.8
	c0-10.2,0.3-20.8,0.9-32.3c0.3-6.4,0.2-12.9,0.1-19.2c-0.1-3.9-0.1-8-0.1-12c0-5,0.3-10.1,0.8-15.4c0.2-1.7,0.6-3.4,1-5
	c0.8-3.2,1.7-6.5,0.4-9.9c-0.6-1.6-0.5-2.6-0.4-4c0-0.6,0.1-1.2,0.1-2c0-1.9-0.4-3.7-0.9-5.5c-0.1-0.5-0.2-0.9-0.3-1.4
	c-1.3-5.8-2-11-2.2-15.8c-0.1-2.6,0.2-5.2,0.5-7.7c0.2-2,0.4-4.1,0.5-6.2c0.1-5.7,0.2-11.7,0.1-17.7c-0.2-9.2-0.8-18.6-1.3-27.6
	c-0.7-11.3-1.3-23-1.4-34.5c0-2.6,0-5.6,0.1-8.5c0-0.7,0.1-1.5,0.2-2.4c0.2-1.9,0.4-3.9,0-5.6c-0.2-0.9-0.5-1.4-0.7-1.9
	c-0.3-0.8-0.5-1.2-0.4-2.5c0.2-2.4,0.7-4.9,1.3-7.5c1-4.3,1.9-7.6,3.7-10.9c0.6-1.2,1.2-2.5,1.8-3.8c1.4-3.1,2.8-6.2,4.9-8.3
	c11,10.4,23.7,18.6,37.7,24.2c7.1,2.8,14.5,5.1,21.7,7.4c7.6,2.4,15.4,4.8,22.8,7.8c2.8,1.1,5.5,2,8.3,2.9c0.7,0.2,1.4,0.4,2.1,0.7
	c2.1,0.7,4.3,1.6,6.4,2.6c0.3,0.1,0.7,0.4,1.1,0.6c1.1,0.7,2.5,1.6,3.4,1.5c1.1-0.1,1.7-0.5,2-1.2c0.4-1.2-0.7-3-3.5-5.6
	c-2-1.8-4.1-3.5-6.1-5.2c-1.1-0.9-2.2-1.8-3.3-2.7c-11.8-10-24.9-18.8-39-26.3c-2-1.1-4-2.1-5.9-3.2c-4.9-2.7-10-5.4-15.1-7.8
	c-7.5-3.5-16.9-4-26.1-4.2c-1.5,0.4-2.9,0.9-4.2,1.6c-1.9,1.1-4.6,3-6.1,5.1c-4.2,7.3-7.2,13.8-9.2,19.7c-1.4-8.8-2.2-17.8-2.9-26.4
	c-0.5-5.8-1-11.7-1.7-17.6c-0.3-2.3-0.7-4.6-1.2-6.7c-0.3-1.5-0.6-3.1-0.9-4.6c0-0.1,0-0.2-0.1-0.4c-0.7-5.7-1.3-7-2.1-7.3
	c-0.1,0-0.1,0-0.2,0c-0.6-0.3-1.3-0.4-2.2-0.3c-4.8,0.3-9.3,1.2-14.2,1.1c-2.3-0.1-6.7-1.2-8.2,0.4c-0.1,0.1-0.3,0.2-0.4,0.3
	c-0.5,0.7-0.4,2.3,0.1,4.6c0,0.2,0.1,0.4,0.1,0.5c1.7,11.1,2.3,22.7,2.9,33.9c0.2,3.3,0.3,6.6,0.5,9.8c0.2,3.1,0.4,6.8,0.4,10.4
	c0,1.4-0.3,3-0.6,4.6c-0.4,2.2-0.8,4.6-0.5,6.6c0.1,0.7,0.5,1.4,0.9,2.1c0.4,0.7,0.7,1.3,0.8,1.9c0.1,0.9-0.3,1.9-0.7,3
	c-0.2,0.6-0.5,1.2-0.6,1.8c-0.9,3.5-0.8,7.1-0.6,10.6c0,0.6,0,1.1,0.1,1.7c0.5,16.8,1.8,33.9,3.1,50.4c1.3,17.7,2.7,35.9,3.2,53.9
	c-1-2.4-2.2-4.7-3.3-7c-0.9-1.8-1.8-3.6-2.6-5.5c-1.2-2.8-2.4-5.6-3.6-8.3c-1.7-3.9-3.4-7.9-5.2-11.8c-3.1-6.6-6.8-13.1-10.2-19.4
	c-2.8-5.1-5.8-10.4-8.4-15.7c-1.1-2.2-2.4-4.4-3.6-6.5c-1.9-3.2-3.8-6.5-5.1-9.9c-0.2-0.4-0.2-0.7-0.2-1c0-0.4-0.1-0.8-0.5-1.4
	c-0.6-1-1.4-2-2.2-2.9c-0.5-0.6-1-1.2-1.5-1.8c-1.1-1.6-2.2-3.3-3.1-4.9c-0.9-1.5-1.8-3-2.8-4.5c-0.2-0.3-0.4-0.6-0.6-0.8
	c-0.8-1.2-0.8-1.2-0.5-2.2c0.1-0.3,0.2-0.6,0.3-1c1-3.9-1.4-7.8-3.2-10.5c-4.2-6.6-9.4-12.5-15-17c-27.1-22.1-51.8-39.9-75.5-54.4
	c-3-1.8-6-3.6-9-5.3l-0.1-0.1c-0.4-0.2-0.8-0.5-1.2-0.7c-1.5-0.9-3.1-2-4.7-2c0,0-0.1,0-0.1,0c-0.2,0-0.3,0-0.5-0.1
	c-0.3-0.1-0.7-0.1-1,0.1c-0.3,0.3-0.4,0.8-0.4,1.2c-0.1,1.3,2.1,3.6,5,6.4c0.8,0.8,1.5,1.5,1.8,1.9c2.6,3.2,5.1,6.4,7.6,9.6
	c6.7,8.6,13.7,17.4,20.9,25.9c6,7,12.2,14.2,19.3,20.5c7,6.2,14.9,11.6,21.1,15.7c6.2,4.1,11.5,7.4,18,9.5c0.8,0.3,1.6,0.5,2.4,0.8
	c1.5,0.5,3.1,1.1,4.7,1.5c0.8,0.2,1.6,0.2,2.5,0.2c0.9,0,1.8,0,2.5,0.2c2,0.7,3.8,3.9,5.1,6.3c0.1,0.1,0.2,0.3,0.2,0.4
	c-2.7-0.7-5.4-1.8-8.1-2.9c-2.2-0.9-4.4-1.8-6.6-2.5c-4.4-1.3-9.3-2.4-15.4-3.3c-14-2.1-25.5-3.5-36.2-4.5c-8.9-0.9-18.8-0.8-31.1,0
	c-2.7,0.2-5.4,0.4-8,0.7c-2.7,0.3-5.5,0.5-8.3,0.7c-1.1,0.1-2.3,0.1-3.7,0.1c-3.6,0-7.7-0.1-10.4,1.5l-0.4,0.2l0.2,0.4
	c1.4,3.4,7.6,4.9,12.2,5.9c1.2,0.3,2.2,0.5,3,0.8c6.4,1.9,13.9,4.2,21.5,6.2l1.6,0.4c13.8,3.7,26.9,7.1,41,9.1
	c1.8,0.3,3.7,0.5,5.5,0.8c12,1.8,24.4,3.6,36.4,3l1,0c3-0.1,6.2-0.3,9.1-1.1c0.6-0.2,1.2-0.5,1.8-0.7c1-0.5,2-1,2.5-0.6
	c1.5,0.9,2.7,4,3.8,6.5c0.5,1.2,0.9,2.2,1.3,3c1.3,2.4,2.8,5,4.3,8.1c1.7,3.2,3.3,6.5,5,9.7c1.4,2.8,2.8,5.5,4.2,8.3
	c0.6,1.1,1.1,2.2,1.7,3.3c2.2,4.2,4.6,8.6,6.1,13c-6,0.2-12.2,0.1-19-0.4c-0.9-0.1-1.9-0.1-2.9-0.1c-1.5,0-3,0-4.4-0.3
	c-1.7-0.3-2.9-2.2-4-4.1c-0.6-1-1.3-2-2-2.8c-3.7-4-9.4-6.5-14.4-8.7c-0.6-0.3-1.1-0.5-1.7-0.7c-6.6-2.9-13.7-5-21.5-7.3
	c-24.4-7-50.5-5-75.8-3.1c-3.4,0.3-6.8,0.5-10.1,0.7c-1.7,0.1-3.3,0.3-5,0.4l-3.7,0.3c-1.5,0.1-2.9,0.3-4.4,0.4c-0.2,0-0.5,0-0.8,0
	c-0.1,0-0.1,0-0.2,0c-0.6,0.1-1.1,0.2-1.7,0.4c-0.6,0.2-1.6,0.4-2,1.1c-0.4,0.7,0,1.7,0.3,2.2c0.1,0.2,0.2,0.3,0.3,0.5
	c0.3,0.4,0.7,0.8,1.2,1.2c1,0.8,2.1,1.4,3.1,2.1c1.9,1.3,4.1,2,6.1,3c15.1,5.7,30.9,10.6,48.1,14.9c10.1,2.5,20.9,5.1,31.9,6.5
	c5.5,0.7,10,1.1,14.2,1.3c1.4,0.1,2.9,0,4.5,0c2.6-0.1,5.2-0.2,7.5,0.3c-1.6,1.1-3.7,2-5.8,2.9c-1.2,0.5-2.3,1-3.3,1.5
	c-6.5,3.3-12.6,6.9-17.7,10c-10.3,6.3-19.7,13.8-29.3,21.7c-1.9,1.6-3.9,3.2-5.8,4.8c-7.3,6-14.8,12.3-22.7,17.6
	c-1.5,1-2.9,2.5-2.7,3.9c0.2,0.9,1,1.5,2.4,1.8c0.9,0.2,1.9,0,2.8-0.2c0.3-0.1,0.7-0.1,1-0.2l1.8-0.2c2.8-0.3,5.7-0.7,8.6-1.2
	c11-1.8,22.1-5.4,32.9-8.8l3.5-1.1c10-3.2,20.7-8.2,31.8-14.9c13.1-7.9,22.4-15.3,29.5-23.4l0.5-0.6c1.5-1.7,3.3-3.7,4-5.9
	c0.2-0.7,0.2-1.4,0.3-2.1c0-0.6,0-1.3,0.2-1.8c0.4-0.9,1.5-1.9,2.4-2.7c0.3-0.3,0.6-0.5,0.9-0.8c3.6-3.5,5.7-5.2,10.4-5.2
	c0.8,0,1.8-0.1,3-0.2c3.4-0.3,8.5-0.6,9.9,1.1c0.6,0.7,1,2.2,1.3,3.4c0.2,0.6,0.3,1.2,0.5,1.7c0.7,1.9,1.6,3.7,2.4,5.4
	c0.6,1.2,1.1,2.4,1.7,3.6c1.2,2.6,2.2,5.4,3.2,8.1c1,2.7,2,5.4,3.2,8.1c0.3,0.6,0.6,1.2,0.9,1.9c0.8,1.6,1.6,3.3,1.9,4.9
	c0.1,0.6,0.1,1.2,0.1,1.8c0,0.8,0,1.7,0.3,2.6c0.1,0.4,0.2,0.7,0.3,0.9c0.3,0.8,0.4,1.1,0.2,2.1c-0.2,1-0.5,1.8-0.8,2.6
	c-0.6,1.7-1.2,3.3-0.8,5.8c0.2,1.6,0.6,3.1,0.9,4.6c0.4,1.6,0.7,3.3,0.9,5c0.6,4.6,0.7,9.3,0.9,13.8c0.1,2.4,0.2,4.8,0.3,7.2
	c0.7,12.7,1.1,26.1,1.2,41.1c0.1,7.7-0.2,15.5-0.4,23.1c-0.2,5.6-0.3,11.3-0.4,17c0,2.8-0.5,5.6-1.5,8.8c-0.4,1.4-0.7,2.4-0.6,3.8
	c0,0.5,0.3,0.9,0.6,1.2c0.1,0.1,0.3,0.3,0.3,0.4c0,0.4-0.3,1.1-0.6,1.8c-0.2,0.5-0.4,1-0.5,1.4c-1,4.3-0.4,9.1,0.3,13.8
	c0.3,1.9,0.5,3.7,0.7,5.4c0.3,4,0.2,8.1,0.1,12.1c-0.1,2.4-0.1,4.9-0.1,7.4c0.1,7.3,0,14.5,0,21.2c0,3-0.2,6-0.3,8.9
	c-0.2,3.8-0.4,7.8-0.3,11.8l0.1,5.6c0.1,5,0.2,10.1,0.3,15.1c0,1.5,0,3.1,0.1,4.6c0.1,5.1,0.2,10.4-0.2,15.5
	c-0.3,3.4-0.8,6.6-1.5,9.4c-0.1,0.3-0.2,0.6-0.3,0.9c-0.3,1-0.6,2.1-0.5,3.2c0.1,0.8,0.5,1.4,0.8,2.1c0.3,0.6,0.7,1.2,0.7,1.7
	c0,0.5-0.4,1.1-0.9,1.7c-0.4,0.5-0.8,1.1-1,1.7c-0.4,1.2-0.5,2.6-0.5,3.8c0,2.1,0.2,4.3,0.4,6.4c0.1,0.9,0.2,1.8,0.2,2.6
	c0.4,6.1,0.7,12.6,0.8,20.2c0.1,7.1,0.1,14.4,0.1,21.4c0,6.2,0,12.7,0,19c0.1,8.3-0.3,16.7-0.6,24.8c-0.2,4.9-0.4,10-0.5,15.1
	c-0.1,6.4-1,12.4-2,19.1c-2.4-3.9-4.8-8-7.1-11.9c-3.1-5.4-6.3-10.9-9.8-16.1c-1.5-2.3-3-4.7-4.2-7.4c-1.3-3.1-2.4-6.9-1.8-7.8
	c0.2-0.2,1-0.5,1.6-0.7c1-0.4,2-0.7,2.5-1.2c1.6-1.5,2.8-3.6,3.9-5.4l0.3-0.5c4.5-7.6,5.3-16.3,6.2-24.8c0.1-1,0.2-2.1,0.3-3.1
	c1-9.5,0.9-19.3,0.8-28.7c0-2.5-0.1-5.1-0.1-7.6l0-2.6c0-8.5-0.1-17.4-0.6-26.1c-0.3-5.2-0.4-10.9-0.4-17.9l0-0.8
	c0-2.3,0-4.7,0.3-7.1c0-0.2,0.1-0.5,0.1-0.9c0.3-1.7,0.7-4-0.4-5c-0.5-0.4-1.2-0.5-2-0.2c-1.3,0.4-1.8,2.8-2.2,4.9
	c-0.1,0.7-0.3,1.3-0.4,1.7c-1,2.8-1.9,5.6-2.8,8.2c-1.7,5.4-3.5,10.9-5.3,16.3c-3.1,9.7-6.7,20.6-8.9,31.7
	c-3,14.7-4.3,28.4-4.1,41.8l0,1.6c0.1,5.6,0.1,11.4,1.6,16.9l0.1,0.4c0.1,0.2,0.1,0.4,0.2,0.6c-0.4-0.6-0.8-1.3-1.2-1.9
	c-1.2-1.8-2.4-3.7-3.6-5.5c-5.6-8.2-10.3-16.5-14.2-23.4c-0.7-1.3-1.6-2.7-2.6-4.2c-2-3.1-4-6.3-4.8-9.3c-0.4-1.7-0.8-3.4-1.2-5.1
	c-0.6-2.6-1.3-5.4-2-8c-0.1-0.4-0.3-0.9-0.4-1.4c-0.5-1.6-1.1-3.4-0.9-4.8c0.2-0.3,0.4-0.8,0.8-1.6c0.2-0.3,0.3-0.6,0.3-0.6
	c0.8-1,1.6-1.9,2.3-2.8c2.1-2.5,4.1-4.8,5.6-8.3c3.3-7.6,5-15.9,6.6-23.8c0.4-2.1,0.9-4.3,1.3-6.4c2.3-10.5,3.3-21.5,4-31.1
	c0.5-6.6,0.6-13.2,0.7-19.7c0-3.6,0.1-7.3,0.2-11c0.2-5.2,0.7-10.4,1.3-16.1c0-0.2,0.1-0.6,0.2-1.1c0.6-2.6,0.7-3.9,0.3-4.4
	c-0.6-0.8-3.7-1-4.4-0.7c-1.2,0.7-1.7,2.7-2.2,4.5c-0.2,0.6-0.3,1.2-0.4,1.6c-0.9,2.3-1.8,4.6-2.7,6.8c-0.4,1-0.9,2.1-1.3,3.1
	l-1.4,3.5c-1.8,4.6-3.8,9.3-5.5,14c-3.9,10.7-7.5,22.7-10.6,35.8c-3-9.4-7-18.5-10.9-27.2c-1.7-3.8-3.4-7.7-5-11.6
	c-3.1-7.4-7.1-14.4-10.9-21.2l-0.9-1.6c-0.2-0.4-0.6-1.2-1-2.1c-1.7-4.1-3.1-7.2-4.7-7c-2.3,0.3-2.2,4.8-2.2,7.7c0,0.6,0,1.1,0,1.5
	c-1,16,0.2,34,3.4,50.6c1.8,9.4,4.5,17.4,8.4,24.6l0.1,0.2c3.3,6.2,7.9,14.7,14.7,17.9c0.4,0.2,0.9,0.3,1.4,0.4
	c0.5,0.1,1.2,0.3,1.4,0.4c0.2,0.3,0.1,1.9,0.1,2.7c0,0.6-0.1,1-0.1,1.3c0.3,4.6,2,9.2,3.6,13.4c1.8,4.6,4.2,11.4,5.5,18.2
	c-2.7-3.7-5.4-7.4-8.4-10.8c-1.3-1.5-2.7-2.9-4-4.3c-2.3-2.4-4.7-5-6.7-7.7c-1.7-2.3-1.9-4.9-2.2-7.7c-0.3-2.6-0.5-5.3-2-7.8
	c-2.8-4.9-6.6-9.8-11.1-14.2c-7.3-7.1-15.6-13.5-24.9-19.1c-8.4-5.1-17.7-8.6-26.7-12.1l-1.4-0.6c-6-2.3-11.8-5-17.6-8.1
	c-1.1-0.6-2.3-1.3-3.4-2c-3.7-2.3-7.6-4.6-11.9-4.8l-0.7,0l0.2,0.6c0.5,2.1,1.6,2.9,3.2,4.1c2.5,1.9,4.7,4,6.5,5.9
	c4,4.1,8,8.4,11.7,12.6l2.3,2.5c2.6,2.8,5.1,5.8,7.6,8.6c5.4,6.3,11.1,12.8,17.2,18.6c8.7,8.2,18.3,16.3,30,20.4l0.2,0.1
	c5.1,1.8,10.9,3.8,16.2,3c0.4-0.1,0.7-0.1,1-0.2c1.1-0.2,1.2-0.2,2.2,0.9c0.6,0.7,1.2,1.4,1.7,2.1c0.4,0.5,0.8,1.1,1.2,1.6
	c0.9,1.1,1.9,2.2,2.9,3.2c0.6,0.7,1.3,1.4,1.9,2.1c-19.6-9.4-42.7-10.4-66.5-10.5c-5.5,0-11.1,0-16.5,0.1c-4.4,0.1-9,0.1-13.5,0.1
	c-5,0-10.1,1-15,2l-1.7,0.3c-1.5,0.3-3.2,0.6-4.9,0.5c-0.2,0-0.4-0.1-0.7-0.1c-0.6-0.1-1.3-0.3-2,0.2c-0.8,0.5-1.2,1.1-1.1,1.8
	c0.1,1.3,1.9,2.3,3.6,3c11.8,5.4,24.3,9.7,36,13.6c10,3.3,20.7,4.8,31,6.2c3,0.4,6,0.8,9,1.3c13.2,2,26.2,3.7,39.5,2l0.9-0.1
	c2.7-0.3,5.4-0.7,8-1.6c0.5-0.2,1.3-0.6,2.1-1.2c1-0.6,2.9-1.7,3.3-1.6c1.1,0.3,2.7,3.6,3.5,5.4c0.3,0.7,0.6,1.4,0.9,1.7l1.2,2.1
	c1.4,2.4,2.9,4.9,4.4,7.4c3,4.8,5.9,9.8,8.7,14.5c3.9,6.6,7.9,13.5,12.2,20.1c1.6,2.5,3.1,5,4.6,7.5c1.9,3.2,4,6.6,6.1,9.8
	c0.7,1,1.3,1.9,2,2.9c3.3,4.8,6.6,9.7,9,14.8c-1.9,0.1-4.1-0.3-6.2-0.6c-1.1-0.2-2.2-0.4-3.2-0.5c-1.4-0.2-2.9-0.2-4.4-0.3
	c-2-0.1-4.1-0.2-6.1-0.5c1.7-7.9-4.2-14.1-8.9-19.1c-5.6-5.9-12.4-10.5-19.1-15c-1.5-1-3.1-2.1-4.6-3.1
	c-15.2-10.6-32.8-18.3-46.4-23.9c-1-0.4-1.9-0.8-2.9-1.2c-3.2-1.4-6.6-2.8-9.9-3.8c-1.9-0.6-3.9-1.1-5.9-1.6
	c-2.3-0.6-4.6-1.1-6.9-1.9c-0.6-0.2-1.3-0.5-2.1-0.8c-3.2-1.2-7.1-2.7-9.9-2.4c-1.3,0.1-2.1,0.6-2.3,1.3c-0.5,1.7,2.1,4.1,4.6,6.2
	l0.2,0.2c3.9,3.2,8,6.1,12,9c2.8,2,5.7,4,8.4,6.1c3.6,2.8,7.3,5.5,10.9,8.2c3.6,2.7,7.3,5.4,10.9,8.2c7.2,5.5,14.7,10.7,22,15.7
	c2.4,1.6,4.8,3.3,7.1,5l1.8,1.2c2.1,1.5,4.3,3,6.4,4.5l1.4,1c1.7,1.3,3.5,2.6,5.3,3.8c0.8,0.5,1.7,1,2.6,1.5c1.2,0.6,2.4,1.2,3.4,2
	c-1.3,0.4-2.9,0.6-4.5,0.7c-0.9,0.1-1.7,0.1-2.4,0.2c-0.2,0-0.4,0.1-0.7,0.1c-0.5,0.1-0.9,0.2-1.3,0.2c-0.7,0-1.1-0.3-1.7-0.6
	c-0.5-0.2-1-0.5-1.7-0.7c-0.4-0.1-0.9,0-1.3,0.1c-0.4,0.1-0.8,0.1-1,0.1c-0.2-0.1-0.6-0.5-1-0.9c-0.4-0.4-0.8-0.8-1.2-1.1
	c-3.5-2.1-7.6-2.1-10.5-1.7c-4.8,0.6-9.6,2-14.2,3.3c-2.2,0.6-4.4,1.3-6.6,1.8c-5.7,1.4-11.8,3.2-18.7,5.5c-3,1-6,2.3-8.8,3.6
	c-3.1,1.4-6.3,2.8-9.7,3.8c-2.1,0.7-4.3,1.3-6.5,1.9c-0.9,0.3-1.8,0.5-2.7,0.8c-0.4,0.1-1.1,0.2-1.8,0.4c-3.6,0.7-6.6,1.4-7.3,2.8
	c-0.3,0.7-0.2,1.3,0,1.6c1.2,1.9,6.7,2.2,12.5,2.4c0.6,0,1,0,1.3,0c6.1,0.3,12.2-0.2,18.2-0.8l1.4-0.1c3.7-0.3,7.6-0.5,11.2-0.7
	c3.7-0.2,7.5-0.3,11.3-0.7c0.9-0.1,1.9-0.2,3-0.2c5.1-0.4,10.8-0.8,15.4-2.8c-0.5,1.8-1,3.5-1.5,5.2c-1.1,3.5-2.2,7.1-2.8,10.9
	c-0.8,5.2-1.2,10.6-1.6,15.6c-0.3,3.6-0.3,7.3-0.3,10.9c0,3-0.1,6.1-0.2,9.1c-0.2,3-0.4,6.1-0.7,9.1c-0.3,3.3-0.6,6.7-0.7,10
	c-0.5,9.9-1.1,23.5,1.7,34.8c0.3,1.1,0.8,2.7,1.9,2.7h0c1,0,2-1.5,2.9-4.4c1.1-3.5,2.6-7,4.1-10.4c0.7-1.7,1.5-3.4,2.2-5.2
	c4.2-10.5,8.1-21.9,12-35c0.6-2,1.2-3.9,1.8-5.9c2.5-8.3,5.1-16.8,6-25.3c1-10.5,1.5-22.8-3.1-34.1c-0.1-0.3-0.3-0.6-0.4-0.9
	c-0.2-0.5-0.5-1.1-0.4-1.2c0-0.1,0.3-0.3,1.5-0.5c1.6-0.3,3.2-0.4,4.8-0.6c1.5-0.1,3-0.2,4.5-0.5c2.1-0.4,4.1,0.1,6.1,0.5
	c2.4,0.5,5,1.1,7.8,0c4-1.5,8.1-0.8,12.4,0.1c0.9,0.2,1.7,0.3,2.6,0.5c5.5,0.9,9.8,1.8,14.2,5c1.6,1.2,2.4,2.8,3.2,4.6
	c0.2,0.5,0.5,1.1,0.8,1.6c1.1,2.1,2.5,4.1,3.9,5.9c0.4,0.6,0.8,1.1,1.2,1.7c1.2,1.7,1.1,2.1,0.7,3.2c-0.2,0.6-0.4,1.3-0.6,2.5
	c-0.3,2.5,0,5,0.2,7.5c0.1,0.9,0.2,1.8,0.2,2.7c0.6,8.8,0.1,17.8-0.4,26.5c-0.3,4.5-0.5,9.2-0.6,13.8c-0.1,2.8-0.1,5.5-0.1,8.3
	c0,4-0.1,8.1-0.2,12.1c-0.1,2.7-0.3,5.5-0.5,8.2c-0.3,3.7-0.6,7.5-0.6,11.3c0,5.8-0.1,12.7-1.4,19.9c-0.1,0.4-0.2,0.9-0.3,1.3
	c-0.4,2.2-0.9,4.4,0.4,6.5c1.9,3,5.2,3.3,8.2,3.3c3.2,0,6.4,0.1,9.6,0.5c0.8,0.1,1.7,0.2,2.6,0.4c1.7,0.3,3.4,0.6,5.1,0.6
	c0.7,0,1.5-0.1,2.2-0.2c1.4-0.3,2.5-1,3.2-2c1.7-2.6,0.6-6.9-0.2-10.1c-0.2-0.7-0.3-1.3-0.4-1.8c-2.3-10.9-0.7-22.4,0.9-33.5
	c0.3-1.9,0.5-3.8,0.8-5.7c1.9-14.4,2.9-29.2,3.7-42.3l0.2-2.7c0.3-5.2,0.7-10.5,1.3-15.8c0.3-2.3,0.4-5.1-0.6-7.5
	c-0.2-0.4-0.3-0.7-0.4-0.9c-0.4-0.8-0.5-1-0.4-2.1c0-0.6,0.1-1.2,0.3-1.8c0.2-0.9,0.3-1.8,0.3-2.8c-0.1-1.6-0.4-3-0.8-4.4
	c-0.3-1-0.5-2.1-0.7-3.2c-0.3-2.4-0.2-5,0-7.5c0.1-1.1,0.1-2.2,0.1-3.3c0.1-6.1,0.4-12.7,0.9-21.2c0.9-14.6,0.5-29,0.1-41.2
	c-0.2-5.3,0.2-10.6,0.7-15.8c0.1-1.7,0.3-3.5,0.4-5.2c0.1-1.7,0.2-3.5,0.4-5.2c0.3-5,0.7-10.2,1.2-15.3c0.3-2.9,0.8-5.6,1.7-8.5
	c0.1-0.4,0.3-0.8,0.4-1.2c0.4-1.1,0.7-2.2,0.9-3.3c0.1-1.1-0.1-1.9-0.3-2.7c-0.1-0.3-0.2-0.6-0.2-1c0.2,0,0.4-0.1,0.7-0.2
	c2-1,3.1-6.4,4-11.4c0.2-1,0.3-1.7,0.4-2c1.7-5.8,3.3-11,5.1-15.8c2.8-7.6,6.3-14.9,9.7-22l0.1-0.3c0.2,11.9,2.5,23.8,7.1,37.1
	c3.2,9.4,8,18.2,12.6,26.6c1.7,3.2,3.5,6.5,5.2,9.9c1.1,2.2,2.3,4.5,3.5,6.6c1.8,3.3,3.6,6.6,5.2,10c0.5,1.1,1,2.1,1.5,3.2
	c0.5,1.2,1.1,2.3,1.6,3.5c0.1,0.2,0.3,0.7,0.5,1.2c1.9,4.5,3.3,7.1,4.6,7.1c0.2,0,0.4-0.1,0.7-0.3c2.2-2.7-2.5-32.1-2.6-32.4
	c-2.4-13.1-4.5-24.1-7.3-35.4c-0.6-2.3-1.1-4.6-1.6-6.8c-1.1-4.9-2.2-9.9-3.9-14.7c-1.2-3.3-2.5-6.7-3.7-9.9
	c-0.9-2.3-1.8-4.6-2.6-6.8c-1.1-2.9-2.4-6.3-4-9.5c-0.7-1.5-1.7-2.8-2.7-4.1c-1-1.3-1.9-2.5-2.5-3.8l-0.1-0.1
	c-0.5-1.1-0.7-1.4,0.3-2.1c0.2-0.2,0.4-0.3,0.5-0.4c0.1,0,0.1-0.1,0.1-0.1c0.1,0.1,0.4,0.2,0.7,0.3c0.5,0.1,1.1,0.6,1.7,1
	c0.6,0.4,1.2,0.9,1.8,1.1c1,0.4,2.1,0.7,3.1,0.9c0.9,0.2,1.8,0.4,2.7,0.8c1.9,0.7,3.3,2.2,4.7,3.8c0.4,0.4,0.8,0.9,1.2,1.3
	c2.9,2.9,5.4,5.2,7.8,7.3c5.3,4.4,10.3,8,15.2,11c14.3,8.9,27.2,16.2,39.3,22.6c6.6,3.4,14.5,7.4,22.5,10.9c1.3,0.6,2.7,1.2,4,1.8
	c2.2,1,4.5,2.1,6.8,3c0.3,0.1,0.6,0.2,1,0.4c1.1,0.5,2.5,1.1,3.4,0.9c1-0.2,1.7-0.9,1.9-1.8C491.6,526.5,491.3,525.7,490.5,525.2z
	 M351.6,276.1c-0.4-3-0.7-6.1-1.1-9.1c-0.8-5.8-0.9-11.7-1-17.4l0-0.9c-0.1-2.7-0.3-5.3-0.5-7.9c-0.2-2.3-0.4-4.7-0.5-7.1
	c3.6,6.2,6.5,12.9,9.3,19.3c2.1,4.7,4.2,9.6,6.6,14.2c1,1.9,2,3.8,3.1,5.7c2.5,4.6,5.1,9.3,6.7,14.2c0.1,0.3,0.2,0.6,0.3,0.9
	c0.8,2.4,1.9,5.5,0.9,7.5c-0.6,1.3-1.7,2.5-2.8,3.7c-0.5,0.6-1.1,1.2-1.6,1.8c-1.1-1.2-1.5-3-1.8-4.7c-0.1-0.7-0.3-1.3-0.5-2
	c-0.9-3-1.9-5.9-2.9-8.7c-0.3-0.7-0.5-1.5-0.8-2.2c-1.5-4.3-2.9-8.3-5.9-11.9l-0.5-0.6c-0.1,0-0.2,0-0.3,0c-0.2,0.1-0.3,0.4-0.3,0.6
	l0.1,0.5c0.7,2.2,1.5,4.4,2.2,6.6c1.5,4.5,3.1,9.2,4.5,13.9c0.5,1.6,0.8,3.3,1.1,4.9c0.2,0.8,0.3,1.7,0.5,2.5
	c0.1,0.6,0.3,1.2,0.5,1.8c0.5,1.5,1,3.1,0.5,4.4c-0.4,1.3-1.4,2.7-2.3,4c-0.6,0.8-1.1,1.5-1.5,2.3c-0.3,0.6-0.7,1.2-1,1.8
	c-0.6,1.1-1.3,2.2-1.9,3.3C354.9,305,353.2,290.3,351.6,276.1z M358.2,329.6c0.3-0.6,0.5-1.1,0.7-1.5c1.9-4.2,4.3-8.3,6.6-12.3
	l0.5-0.8c4.5-7.8,9.7-15.1,16.4-22.8c7-8.2,14.6-15.8,22.6-22.8c2.1-1.8,4.1-3.6,6.2-5.4c4.9-4.3,9.9-8.8,15.1-12.9
	c-2.7,5.3-5.3,10.8-7.8,16.1l-2.2,4.5c-2,4.2-4.4,8.4-6.6,12.3c-1.6,2.9-3.3,5.8-4.9,8.8v0c-5.2,10-12.8,20-21.2,28.1
	c-3.4,3.3-7.1,6.5-11.3,9.9c-0.4,0.3-0.8,0.7-1.3,1.1c-3.2,2.7-7.6,6.3-11.6,6.6c0.4-0.9,1.2-1.7,2-2.5c0.3-0.4,0.7-0.7,0.9-1.1
	c1.7-2.1,3.4-4.4,5.1-7.2c1.6-2.4,3.1-4.9,4.6-7.3c1.7-2.8,3.5-5.7,5.3-8.4c2.5-3.8,5.4-7.3,8.3-10.8c3.2-3.9,6.5-7.9,9.2-12.2
	l0-0.1c-0.1-0.2-0.2-0.5-0.3-0.7c-0.2-0.1-0.4-0.2-0.6-0.2c-0.1,0-0.2,0-0.3,0c-4.5,0.8-17.7,20.4-17.8,20.6c-1.6,2.5-3.2,5-4.7,7.4
	c-4.5,7.2-9.1,14.7-15.3,21C355.4,335.2,357.1,331.7,358.2,329.6z M421.9,113.7c-7.2-5.4-15.6-9.6-23.7-13.6
	c-2.8-1.4-5.6-2.7-8.3-4.2c-5.8-3-12.2-6-19.5-9.1c-1.6-0.7-3.4-1.3-5.3-1.9c-4.2-1.4-8.6-2.9-11.7-5.5c1.2-0.5,3.3-0.4,4.8-0.2
	c0.5,0,0.9,0.1,1.3,0.1c3.3,0.1,6.9,0.4,10.5,1c5.8,0.9,10.6,3.1,15.7,5.5c0.7,0.3,1.4,0.7,2.1,1c9.8,4.6,19.1,9.7,26.9,14.8l1.5,1
	c3,1.9,6,3.9,8.9,6.1c4.6,3.4,8.3,6.3,11.8,9.1c1.1,0.9,2.2,1.7,3.4,2.6c2.4,1.8,4.9,3.6,7,5.7c-2-0.8-4.1-1.4-6.1-2
	c-1.5-0.5-3.1-1-4.7-1.5c-2.1-0.7-4.2-1.6-6.3-2.4c-2-0.8-4-1.6-6-2.3c-4.1-1.5-8.4-2.7-12.5-3.9c-5.1-1.5-10.4-3-15.4-4.9
	c-8.6-3.4-17.4-6.8-25.4-11.7c-1.8-1.1-3.6-2.4-5.3-3.6c-1.5-1.1-3.1-2.2-4.7-3.2l-0.7-0.4c-2.3-1.5-7-4.4-7.7-7.1
	c3.3,0.8,6.7,2.4,9.9,3.9c1.8,0.8,3.6,1.7,5.3,2.4c6.2,2.5,12.7,5.5,21.1,9.8c4.6,2.3,9.2,4.7,13.8,7l5.2,2.6
	c2.2,1.1,4.5,2.4,6.7,3.6l2.2,1.2c0.3,0.2,0.6,0.3,0.9,0.5c1.2,0.7,2.5,1.5,4.1,1.3c0.2-0.2,0.4-0.5,0.4-0.7
	C422.2,114.2,422.1,114,421.9,113.7z M250.2,126.3c-0.3-0.3-0.7-0.5-0.9-0.7c-3.1-2.1-6-4.3-8.8-6.4c-2.1-1.6-4.2-3.2-6.3-4.8
	c-3-2.3-6.2-4.8-9.3-7.1l-11.8-8.8c-0.2,0-0.4,0-0.6,0.2c-0.2,0.2-0.2,0.4-0.3,0.6c0,0,0,0,0,0c1.2,2.1,2.6,3.5,4.5,4.9
	c2.1,1.7,4.3,3.4,6.4,5c2.1,1.7,4.2,3.3,6.3,5c2.6,2,5.2,4,7.7,6l4.1,3.2c2,1.6,4.1,3.2,6.2,4.7c0.2,0.2,0.7,0.5,1.2,0.8
	c0.9,0.6,3.1,2,3.6,2.7c-1.9,1.4-8.6-1.3-11.6-2.5c-0.7-0.3-1.2-0.5-1.6-0.6c-4.8-1.7-9.1-4.5-13.3-7.2l-1-0.6
	c-10.8-7-19.8-14.1-27.6-21.8c-14.3-14.1-26.9-30.7-39.1-46.6c-0.8-1.1-1.6-2.2-2.5-3.2C174.8,59.9,194,72.8,213,87.4
	c3.9,3,7.7,6.1,11.4,9.1c4,3.2,8.1,6.6,12.2,9.7c3.2,2.4,6.1,5.3,9.4,9.4c0.4,0.5,0.9,1.1,1.4,1.7c2.6,3,6.5,7.5,6.6,11.1
	C252.9,128.3,251.3,127.1,250.2,126.3z M254.2,155.4c-4.4,0.3-9.2,0.2-15.1-0.3c-3.6-0.3-7.3-0.8-10.9-1.4
	c-5.6-0.8-11.4-1.7-17.1-1.7c-3.8,0-7.9-0.9-11.8-1.8c-1.8-0.4-3.5-0.8-5.2-1.1c-6-1.1-11.7-2.7-17.8-4.5c-3.6-1.1-7.3-2.1-10.9-3.1
	c-8.7-2.4-17.7-5-26.4-7.9c2.8-0.2,5.7-0.4,8.5-0.7c14.8-1.2,30.2-2.4,45.4-1c12.5,1.1,25.7,2.5,38.6,5c6,1.2,11.8,3,16.6,4.6
	c3.2,1.1,6.3,2.3,9.3,3.6c2.1,0.9,5.1,2.8,5.4,3.9c-1.5,0.2-3.4-0.2-5-0.5c-0.6-0.1-1.2-0.3-1.7-0.3c-1.5-0.3-3-0.5-4.5-0.8
	c-1.8-0.3-3.6-0.7-5.5-1l-1.3-0.2c-3.7-0.6-7.5-1.2-11.3-1.7c-3.4-0.4-6.9-0.7-10.4-0.9c-4.5-0.3-9-0.6-13.4-1.3
	c-0.6,0-1.3,0-1.6,0.3c-0.6,0.6,0,1.3,0.6,1.6c0.7,0.3,1.6,0.4,2.4,0.6c6.4,1.1,12.9,1.8,19.3,2.4c11.1,1.2,22.6,2.4,33.4,5.6
	C263.2,154.1,258.6,155.1,254.2,155.4z M220.4,212.5c-10.3-0.8-21.1-2.6-33.2-5.5c-12.2-2.9-25.9-6.3-39.1-10.8l-2.3-0.8
	c-3.7-1.3-7.5-2.6-11.3-4c-1.3-0.5-2.5-1-3.8-1.5c-1.2-0.3-2.5-0.7-3.7-1.2c-1.4-0.5-4.6-1.2-4.8-3c0-0.3,0.3-0.5,0.5-0.5
	c0,0,0.1,0,0.1,0c0.4-0.1,0.8-0.1,1.2-0.2c1.4-0.2,3.1-0.2,4.5-0.2c0.9,0,1.6,0,2.2,0c4.2-0.4,8.6-0.6,12.7-0.9
	c2.2-0.1,4.5-0.3,6.7-0.4c14.5-1,27.6-1.8,40.7-1.3c13.5,0.6,26.5,3,40.9,7.7c5.8,1.9,11.2,4.1,16.5,6.7c0.5,0.2,0.9,0.5,1.4,0.7
	c2.2,1.1,4.3,2.1,6.2,3.7c4.4,3.9,4.7,5.3,4.6,5.7c0,0.1,0,0.1-0.1,0.2c-0.8,0.5-3.9-0.2-5.4-0.6c-0.5-0.1-1-0.2-1.3-0.3
	c-1.4-0.3-2.8-0.5-4.3-0.8c-4.8-0.9-9.8-1.8-14.8-2.4c-1.8-0.2-3.5-0.4-5.2-0.5c-4.7-0.5-9.5-1-14.2-1.9c-2.7-0.5-5.5-1.1-8.2-1.7
	c-2.6-0.6-5.3-1.1-8-1.7c-4.6-0.9-9.3-1.7-13.9-2.5c-7-1.2-14.3-2.5-21.4-4.1c-0.1,0-0.4-0.1-0.7-0.2c-2.1-0.6-4.4-1.2-5.5-0.6
	c-0.3,0.2-0.5,0.5-0.5,0.8c-0.2,1.1,0.9,1.4,1.4,1.6c0.2,0,0.3,0.1,0.4,0.1c1.6,0.7,3.5,1,5.4,1.3c0.9,0.1,1.7,0.3,2.5,0.5
	c3.4,0.8,7.1,1.6,10.8,2.3c5.2,1,10.3,2,15.5,2.9c7.5,1.4,15,2.8,22.5,4.3c4.3,0.8,8.7,1.3,13,1.7c3.2,0.3,6.5,0.7,9.8,1.2
	c3.5,0.5,7.1,1.2,11.5,2.1c0.8,0.2,1.7,0.3,2.7,0.4c2.3,0.3,5.1,0.6,6.8,1.7c-3.6,2.7-10.6,2.5-15.7,2.3c-0.9,0-1.7-0.1-2.4-0.1
	c-1.5,0-3,0-4.5,0C231.5,213,225.9,213,220.4,212.5z M156.7,274.1c5.9-4.6,11.7-9.3,17.4-13.9c7.6-6.1,15.5-12.5,23.4-18.5
	c10.2-7.7,21.8-14.7,35.6-21.2l1.2-0.6c1.7-0.8,3.4-1.7,5.2-2.4c2.7-1.2,5.4-1.3,8.3-1.5c0.5,0,1-0.1,1.5-0.1c0.4,0,0.8-0.1,1.2-0.1
	c1.1-0.1,2.3-0.2,3.4-0.2c1.4,0,2.8,0.1,4.1,0.6l0.1,0c2.1,0.7,3.2,1.3,3.4,1.8c0.1,0.3,0,0.5-1.1,0.9c-0.3,0.1-0.6,0.2-0.9,0.4
	c-6,3-12,6.4-17.8,9.7c-5.2,2.9-10.5,5.9-15.8,8.7c-11,5.6-21.8,11.7-33.8,18.4c-2.9,1.6-5.7,3.4-8.5,5c-3.6,2.1-7.2,4.4-10.9,6.4
	c-3.8,2.1-8,3.7-12.1,5.2C159.3,273.1,158,273.6,156.7,274.1z M262,226.5c-0.2,0.2-0.3,0.4-0.4,0.5c-9.9,12.6-25,21.7-35.4,27.4
	c-15.2,8.3-31.4,12.8-46.9,17.2c-5.9,1.6-11.3,3.1-16.9,3.8c4.5-1.7,9.1-3.6,13.4-6.1c3.2-1.8,6.4-3.8,9.5-5.7
	c3.2-1.9,6.5-4,9.8-5.8c14.1-8.1,28.7-15.8,42.4-23c3.2-1.7,6.5-3.6,9.6-5.4c3.2-1.9,6.5-3.8,9.9-5.5c0.3-0.1,0.6-0.3,1-0.6
	c1.3-0.7,3.9-2.2,5.2-2.2c0.2,0,0.3,0,0.4,0.1c0.5,0.2,0.8,0.6,0.9,1C264.4,223.5,262.9,225.4,262,226.5z M266.7,216.3
	c-1.1,0.6-1.2,0.5-2.2-0.3c-0.2-0.2-0.4-0.3-0.7-0.6c-0.7-0.5-1.3-1-2-1.5l-0.3-0.2c0.6-0.4,1.1-0.8,1.5-1.2
	c1.1-0.9,1.9-1.6,3.6-1.7c0.3,0,0.7,0,1.1-0.1c1.3-0.1,3.4-0.3,4.5,0C271.1,212.4,268.3,215.3,266.7,216.3z M216.1,534.6
	c-1.8-0.8-3.6-2.8-5.3-4.8c-1.1-1.3-2.1-2.4-3.1-3.3c-3.4-2.8-7.3-5.1-11-7.3c-1.2-0.7-2.4-1.4-3.5-2.1c-7.3-4.5-14.4-9.2-21.1-14.1
	c-0.9-0.6-1.7-1.2-2.6-1.8c-2.9-2-5.8-4.1-8.5-6.4c-0.1-0.1-0.3-0.3-0.5-0.5c-2-2-3.4-3.1-4.4-2.8c-0.3,0.1-0.7,0.4-0.7,1.2
	c-0.2,2.1,3.3,4.6,7.2,7.2c0.7,0.5,1.3,0.9,1.7,1.2c3.6,2.8,7.5,5.8,11.6,8.3c9.4,5.9,17.9,11.3,26,16.6c3.5,2.3,6.5,5.4,9.4,8.5
	l0.6,0.6c0.1,0.1,0.3,0.3,0.5,0.4c0.3,0.3,1.4,1.3,1.5,1.6c-0.2,0.2-1.1,0.3-4.9-0.4c-0.2,0-0.4-0.1-0.5-0.1
	c-20.9-3.5-38.1-21-49.1-33.9c-7.3-8.5-15.1-16.9-22.7-25c-1.5-1.6-3-3.2-4.5-4.8c1.2,0.5,2.5,1.1,3.8,1.8c7,3.9,14.6,6.9,21.9,9.7
	c9,3.5,18.3,7.2,26.7,12.6c7.4,4.8,14.6,10.7,20.8,17.2C214.1,523.4,217.8,530.3,216.1,534.6z M162.3,543
	c14.9,0.4,31.7,0.8,47.7,4.9c3.3,0.9,8.1,2.4,12.5,4.7l0.5,0.3c2.5,1.3,6.8,3.5,8.8,5.8c-17.6-5.9-36.2-9.4-58.3-10.9
	c-3.4-0.2-6.8-0.4-10.1-0.6c-5.6-0.3-11.4-0.6-17.1-1.2c-2.5-0.3-5.1-0.3-7.7-0.3c-2,0-3.9,0-5.8,0.1c-5.6,0.1-11.3,0.3-16.7-0.7
	C131.6,542.2,147.9,542.6,162.3,543z M223,567.4l-0.8,0.1c-3.9,0.6-8.1,0.8-13.1,0.8c-10,0-21.2-1.3-30.9-3.4
	c-4.4-1-8.9-1.7-13.3-2.5c-8.1-1.4-16.5-2.8-24.5-5.7c-2.4-0.9-4.9-1.7-7.3-2.5c-5.7-1.9-11.2-3.7-16.5-6.3l4.9,0.2
	c16.5,0.6,33.6,1.2,50.5,2.4c13.7,1,24.1,2.3,33.9,4.2c5.1,1,10.3,2.4,15.7,4.2c1.1,0.4,2.5,0.7,4.1,1c3.1,0.7,6.7,1.5,8.5,3
	C232.2,566,226.5,566.9,223,567.4z M234.5,518.6c-0.5,0.7-1.2,1.6-1.5,1.6h0c-0.1,0-0.4-0.1-0.9-0.9c-0.7-1-1.1-2.3-1.5-3.6
	c-0.2-0.6-0.4-1.2-0.6-1.7v0c-0.9-2.2-1.8-4.5-2.7-6.7c-1.8-4.5-3.7-9.1-5.1-13.8l-0.7-2.3c-0.7-2.2-1.4-4.6-2-6.9
	c-0.4-1.6-0.9-3.4-1.3-5.3c-0.1-0.3-0.1-0.8-0.2-1.4c-0.2-2.3-0.5-4-1.3-4.7c-0.3-0.2-0.7-0.5-1.1-0.4c-0.5,0.1-0.8,0.6-1,1.1
	c-0.8,1.6,0.2,5.2,1.2,8.7c0.2,0.6,0.3,1.1,0.4,1.5c2.3,9,5,17.1,8.2,24.7c0.7,1.7,1.3,3.5,2,5.2c0.3,0.7,0.5,1.5,0.8,2.2
	c0.1,0.3,0.4,0.9,0.8,1.7c0.6,1.4,2.4,5,2.2,5.6c-0.1,0.1-0.1,0.1-0.2,0.1c0,0,0,0,0,0c-1.7,0-7.1-6.4-8.4-8.3
	c-7.5-11.4-12.1-24.3-14.3-39.5c-0.9-6.4-1.3-13.1-1.7-19.6l-0.1-2.3c-0.3-4.9-0.4-9.7-0.3-14.2c0-0.7,0-1.4,0-2.1
	c0-1.8-0.1-3.9,0.3-5.7c1.6,2.2,3,4.8,4.2,7.4c0.7,1.3,1.3,2.6,2,3.8c2.6,4.7,5.2,9.4,7.3,14.4c1.3,3.1,2.8,6.3,4.2,9.3
	c2.4,5.3,4.9,10.7,7,16.2l0.1,0.1c2.6,7,5.3,14.3,6.4,21.6C237.3,508.9,237.4,514.7,234.5,518.6z M242.3,547.9
	c-3.1,0.3-1.5-6.6-1.3-8.2c0.3-2.2,0.8-4.4,0.9-6.6c0-0.1,0.1-0.3,0.1-0.4c0.5-3.6,1.1-7.2,1.8-10.7l0.2-1.1
	c1.8-9.8,3.9-18.4,6.2-26.1l3.8-12.6c0.1-0.4,0.3-0.9,0.4-1.3c0.6-1.9,1.2-3.8,0.9-5.8c-0.4-0.1-0.8-0.2-1.2-0.3
	c-1.9,2-2.7,5.1-3.4,7.8c-0.2,0.8-0.4,1.5-0.6,2.2c-0.5,1.7-1,3.4-1.5,5c-1.4,4.5-2.7,9.1-3.8,13.8c-1.9,8.3-3.9,17.1-5.4,26.1
	c0,0.1,0,0.2,0,0.4c-0.6,3.2-1.2,6.4-1.6,9.6c0,0-0.1,0-0.1-0.1c-1.5-3.5-2.1-7.2-2.5-11c-0.2-2.2-0.1-4.1,1-5.7
	c0.1-0.5,0.4-1,0.8-1.5c0.3-0.4,0.6-1,1-1.7c2.4-4.6,2.4-9.5,2.4-14.2c0-3.3,0-6.7,0.8-10.1c4.8-19.7,9.4-34.4,15-47.8
	c0.8-1.8,1.4-3.7,2.1-5.8c1.2-3.6,2.5-7.2,4.3-10.3c-1,7.4-1.1,14.8-1.2,22.1c-0.1,3.9-0.1,7.8-0.3,11.8l-0.2,3.6
	c-0.6,12.4-1.2,25.2-3.6,37.6c-0.7,3.6-1.5,7.3-2.3,10.9c-0.6,2.7-1.2,5.4-1.8,8.1c-1.1,5.3-3.1,13.1-7.3,18.8
	C244.2,546.3,243,547.4,242.3,547.9C242.3,547.9,242.3,547.9,242.3,547.9z M292.3,528.1c0.3-2.2,0.7-4.3,1.2-6.8
	c0.1-0.8,0.4-1.5,0.6-2.3c0.2-0.7,0.4-1.4,0.5-2.2c0,0,0-0.1,0-0.1c0.3,4.6,0.4,9.2,0.4,13.7c0,3.6,0.1,7.3,0.3,10.9v0
	c0.6,12.8,0.2,25.9-0.1,38.6l0,0.9c-0.2,7.3-1.3,14.5-2.5,21.8c-0.5,3-1.2,6.6-2.9,10l-0.2,0.4c-1,2.1-3.1,6.4-5,7.3
	c-0.4,0.2-0.6,0.2-0.8,0.1c-0.7-0.5-0.7-3.1-0.6-4.4c0-0.3,0-0.5,0-0.8c0-3.4,0.4-6.9,0.8-10.4c0.3-2.6,0.4-5.3,0.6-7.8
	c0.2-2.8,0.4-5.7,0.7-8.5c0.6-5.2,1-10.5,1.3-15.6c0.6-8.7,1.2-17.8,3.1-26.6c0.9-4,1.3-8.1,1.8-12.1
	C291.8,532.2,292,530.1,292.3,528.1z M281.6,593.1c-0.3,3.7-0.5,7.6-0.8,11.4c-0.1,0.9-0.2,1.9-0.3,2.8c-0.2,2.2-0.4,4.5-0.5,6.8
	c0,0.5,0,1.2,0.1,2c0.1,1.4,0.3,3.7-0.1,4.2c0,0,0,0,0,0c-0.6,0-2.4-2.4-3-3.7c-2.5-5.7-2.4-12.8-2.3-19.1l0-1.5
	c0.2-14.7,1.5-27.4,4.1-40.1h0c2.7-13.3,7.2-26.6,11.5-39.4c0.2-0.6,0.4-1.2,0.6-1.7c-0.8,3.8-1.4,7.2-1.8,10.4
	c-0.4,2.5-0.7,5.1-0.9,7.5c-0.5,4.1-0.9,8.3-1.8,12.4c-2,10.5-2.9,21.2-3.7,31.6c-0.1,1.9-0.3,3.8-0.4,5.7
	C282.1,586,281.8,589.6,281.6,593.1z M213.6,668.2l-0.6,0.2c-7.2,1.7-14.9,2.1-21.7,2.5c-4.3,0.2-8.7,0.5-12.9,0.8
	c-3.4,0.2-6.8,0.5-10.2,0.7c-0.7,0-1.4,0.1-2.1,0.1c-4.3,0.3-9,0.6-13.2-0.2c2.1-0.7,4.2-1.3,6.4-1.9c1.2-0.3,2.3-0.6,3.5-1
	c5-1.5,9.7-3.5,14.3-5.5c8.3-3.6,17.3-5.9,26-8.1c1.8-0.5,3.6-0.9,5.4-1.4c1-0.3,1.9-0.5,2.9-0.8c3.7-1,7.5-2.1,11.3-2.3
	c2.7-0.2,6.9,0.1,7.5,1.4c0.2,0.5,0.2,0.5-0.3,0.9c-0.2,0.2-0.4,0.4-0.6,0.6c-1.7,1.8-2,1.9-4.4,2.4l-0.2,0.1
	c-2.5,0.6-4.9,1.5-7.3,2.4c-1.1,0.4-2.3,0.8-3.4,1.2c-5.2,1.7-10.4,3.4-15.7,5c-0.1,0.3-0.2,0.5-0.2,0.8c0,0.1,0,0.2,0,0.3
	c3.8,0.5,7.2-0.5,10.8-1.5l1.3-0.4c1.5-0.4,3.1-1,4.8-1.6c3.2-1.2,6.6-2.4,9.6-2.6c-0.7,1.6-1.9,3.9-3.1,5
	C219.6,666.8,216,667.7,213.6,668.2z M241,671.1c0.7,5.1,0.8,10.2,0.4,15.6c-1,13-4.9,25.8-8.8,38.2l-0.5,1.5
	c-2.4,7.9-4.8,15-7.3,21.8c-0.7,2-1.4,4-2.1,6.1c-2,5.9-4,12-7,17.1c-0.6-2.6-0.7-5.3-0.8-8c0-0.9-0.1-1.9-0.1-2.8l0-0.2
	c-0.3-6.1-0.7-12.5-0.3-18.7c0.2-3,0.4-6.1,0.7-9c0.3-4.3,0.7-8.8,0.9-13.2c0.1-2.5,0.1-5,0.1-7.4c0-3.4,0-6.8,0.3-10.2
	c1.1-13.4,2.6-26.4,9-37.5c1.2-2.1,2.8-4.3,4.6-6.4l0.4-0.4c0.5-0.6,1.5-1.7,1.7-1.7c0,0,0.2,0.2,0.2,1.2c0.1,4.1-0.7,8.5-1.5,12.8
	c-0.5,2.7-1,5.4-1.3,8.1c-0.4,4-0.9,8.1-1.5,12.1c-1.1,8.4-2.2,17.1-2.2,25.7c0.4,0.3,0.7,0.8,1.2,0.9c0.2,0.1,0.5,0,0.7,0
	c1.3-1.6,1.4-5.7,1.4-8.8c0-0.9,0-1.8,0.1-2.3c0.3-3,0.7-6,1.2-8.8c0.3-2.2,0.7-4.5,0.9-6.8c0.7-5.9,1.4-11.8,2.1-17.7
	c0.4-3.2,0.9-6.5,1.4-9.3c0.1-0.3,0.1-0.8,0.1-1.4c0.1-1.2,0.3-3.8,0.9-4.1c0.1,0,0.2-0.1,0.3,0C238.4,658.4,240.7,668.7,241,671.1z
	 M250.3,648.7c-0.5-0.3-1-0.6-1.5-0.8c-3.6-2-7.1-4.5-10.4-6.9c-0.9-0.6-1.7-1.2-2.6-1.8c-4.3-3-8.7-6-13-8.9
	c-4.2-2.8-8.5-5.8-12.8-8.7c-6.3-4.4-12.5-9.2-18.5-13.9c-3.6-2.8-7.4-5.7-11.1-8.5c-2.8-2.1-5.7-4.2-8.5-6.1
	c-3.6-2.6-7.3-5.2-10.9-8c3.7,1.6,7.4,3.4,11,5.2l2.5,1.2c1.4,0.7,2.7,1.3,4.1,1.9c3.5,1.6,7.1,3.2,10.3,5.4
	c2.1,1.4,4.2,2.9,6.2,4.3c1.1,0.8,2.3,1.6,3.4,2.4c4,2.8,8,5.7,11.9,8.5c3.2,2.4,6.6,4.8,9.9,7.1c6.1,4.3,12.5,8.8,18.9,13.1
	c3.5,2.3,7.1,5,11.5,8.5c2,1.6,4,3.1,6,4.6c0.3,0.2,0.8,0.6,1.5,1c1.3,0.8,3.9,2.5,4.5,3.4C259.4,653.9,253.9,650.8,250.3,648.7z
	 M266.8,647.5c0,0.5-0.1,0.9-0.3,1.4c-0.1,0.2-0.1,0.5-0.2,0.7c0,0.1-0.1,0.2-0.2,0.3c0,0,0,0.1,0,0.1c0,0,0,0,0,0
	c-0.2,0.1-0.3,0.1-0.5,0c-0.5-0.3-1-0.6-1.5-1c-2.4-1-4.9-3.3-7.2-5.3c-1.1-1-2.1-1.9-3-2.6c-8.2-6.3-16.9-12.4-25.3-18.2
	c-5.5-3.9-11.2-7.8-16.7-11.9c-1.8-1.3-3.5-2.6-5.3-4c-6.8-5.1-13.8-10.3-21.2-14c-1.9-1-3.9-1.9-5.8-2.8c-2-0.9-4.1-1.9-6.1-2.9
	c-0.9-0.4-1.9-0.8-3.1-1.3c-1.6-0.6-3.3-1.2-4.6-2c10,1.8,19.7,6.2,29.2,10.4c1.3,0.6,2.6,1.2,3.9,1.7c9.1,4,18.7,9,29.1,15
	c10,5.8,22.7,13.7,31.7,23.6c2.8,3.1,4.7,5.7,6,8.2C266.5,644.6,267,645.9,266.8,647.5z M305.7,51.4c-0.4-2.2-0.9-4.5-1.4-6.7
	l-0.3-1.2c0-0.1-0.1-0.3-0.1-0.6c0-0.3-0.1-0.6-0.1-1c0.4-1.1,3.9-0.3,4.8-0.2c1.8,0.1,3.6,0.2,5.3,0.1c1.1,0,10.3-1,11.7-0.8
	c0,0.7,0.2,1.4,0.3,2.1c0.1,0.4,0.2,0.8,0.2,1c0.2,2,0.6,4,1,5.9c0.3,1.4,0.6,2.8,0.8,4.2c1,7.2,1.5,14.6,2,21.7
	c0.5,7.6,1.1,15.4,2.2,23c0.1,0.7,0.3,1.5,0.5,2.5c0.8,3.9,2.1,9.9-0.8,11.9c-1.6,1.1-4,1-6.2,0.9c-0.7,0-1.3-0.1-1.9-0.1
	c-3.6,0-7.1,0-10.9-0.5c-4.8-0.7-4.3-5-3.8-9.5c0.2-1.6,0.4-3.1,0.3-4.5c-0.2-5.4-0.7-10.8-1.1-16.1c-0.2-2.8-0.5-5.6-0.7-8.5
	c-0.2-2.4-0.3-5-0.4-7.4C306.9,62.4,306.7,56.8,305.7,51.4z M311.2,184.1c-0.4-5-0.8-10-1.2-15c-0.5-6.7-1.1-13.7-1.7-20.5
	c-0.5-5.7-0.6-11.4-0.6-17.2c0-0.5,0-1,0-1.6c-0.1-3.7-0.3-10,2.9-11.3c0.7-0.3,1.8-0.2,2.9-0.1c0.8,0,1.6,0.1,2.2,0
	c2.6-0.3,5-0.2,7.8-0.1c1.8,0.1,3.3,0,4.7-0.1c0.4,0,1-0.2,1.7-0.3c0.8-0.2,1.9-0.4,2.5-0.4c0.3,0.6,0.8,1.1,0.8,1.2
	c1.9,1.8,1.7,5.6,1.5,8.9c-0.1,1.1-0.1,2.2-0.1,3.1c0.1,2.5,0.1,5,0.1,7.4c0,3.6,0.1,7.3,0.2,11c0.2,6,0.7,12.1,1.2,18
	c0.4,4.8,0.8,9.8,1.1,14.8c0.2,4.3,0.1,8.6,0.1,12.8c0,1.7-0.1,3.3-0.1,5c0,2.5,0.1,5.1,0.2,7.6c0.1,2.9,0.2,5.9,0.2,8.8
	c-0.1,2.5-0.3,5-0.5,7.5c-0.3,3.4-0.6,6.9-0.5,10.4c0.1,2.9,0.7,5.7,1.3,8.4c0.5,2.5,1.1,5.1,1.3,7.7c0.1,1.6-0.2,2.6-0.8,3.3
	c-1,1.1-2.9,1.1-5,1.1c-0.6,0-1.2,0-1.8,0c-2.6,0.1-5.1,0-7.6-0.2l-0.9-0.1c-0.3,0-0.6,0-0.9,0c-0.3,0-0.6,0-1,0c-0.3,0-0.5,0-0.8,0
	c-0.9,0-1.7,0.1-2.6,0l-0.1,0l-0.1,0c-0.4,0.1-0.6,0.1-0.6,0.1c0,0,0-0.2,0.1-0.4l0.1-0.2l-0.1-0.2c-0.6-1-0.9-2.4-1.2-3.7
	c-0.2-1.1-0.5-2.1-0.9-3c-0.7-1.8-0.7-2.5-0.6-4.6l0-0.2c0.1-3.6-0.1-7.2-0.4-10.7c-0.2-2.7-0.4-5.5-0.4-8.2
	C313.3,210.3,312.3,197.3,311.2,184.1z M312.7,259.2c0.8-0.7,2.7-0.8,4.1-0.8c0.4,0,0.9,0,1.2-0.1c0.5,0,1.2-0.1,1.8-0.1
	c1.4,0,2.9,0.1,4.3,0.1c0.7,0,1.4,0.1,2,0.1c2.9,0.1,5.3,0.1,7.5,0c0.4,0,0.9-0.1,1.4-0.2c1.3-0.2,3-0.5,3.9,0.2
	c2.3,1.6,1.2,6.2,0.3,9.6c-0.3,1.1-0.5,2-0.6,2.8c-1.2,9.2-1,18.7-0.7,27.8c0.1,2.2,0.1,4.5,0.2,6.7c0.1,6.9-0.3,13.9-0.7,20.7
	c-0.3,4.7-0.6,9.5-0.7,14.3c-0.1,4.3-0.1,8.7-0.1,12.9c0,6.4-0.1,13.1-0.4,19.6c-0.1,3.2,0.1,6.3,0.6,9c0.2,0.8,0.4,1.5,0.6,2.2
	c0.4,1.2,0.8,2.3,0.7,3.4c-0.3,3.9-0.5,3.9-4.5,3.8c-4.7-0.1-9.6-0.6-14.4-1.1l-0.4,0c-0.2,0-0.4,0-0.6-0.1
	c-1.4-0.1-3.2-0.3-3.8-1.3c-0.5-0.9-0.1-3,0.3-4.8c0.2-0.9,0.4-1.8,0.4-2.5c0.7-10.9,1-21.9,1-32.5c0-6.4-0.1-13-0.3-19.3
	c-0.1-6-0.2-12.2-0.3-18.4c0-4.5-0.4-9.1-0.7-13.5c-0.1-1.7-0.2-3.3-0.4-5c-0.1-2.3-0.2-4.6-0.3-6.9c-0.1-4.2-0.2-8.5-0.9-12.6v0
	c-0.1-0.6-0.3-1.5-0.5-2.5C312,267.3,310.6,261.2,312.7,259.2z M329.9,740.1c-0.4,4.7-1,9.4-1.6,14c-0.4,3.6-0.9,7.4-1.3,11.1
	c-0.1,1.3-0.3,2.7-0.5,4c-0.3,2.6-0.7,5.2-0.8,7.8c-0.1,4.3,0.6,8.2,1.3,12.4l0.3,1.6c0.1,0.4,0.2,0.9,0.3,1.4
	c0.5,2.2,1.2,5.2-0.4,6.5c-1.7,1.4-6.1,0.5-8.9-0.1c-1-0.2-1.8-0.4-2.4-0.4c-1.3-0.2-2.8-0.2-4.2-0.2c-3.1,0-6.1,0-7.5-1.6
	c-0.8-0.9-1-2.3-0.8-4.3c1.2-8.2,1.2-15.9,1.2-24l0-1.8c0-5.7,0.3-11.5,0.6-17.1c0.2-3.5,0.4-7.1,0.5-10.7
	c0.3-9.6,0.7-19.9,1.2-30.1c0.3-6.1,0.3-11,0.1-15.5c-0.1-1-0.2-2-0.3-3c-0.3-3-0.6-6.1,0.2-8.9c0-0.8,0.2-1.6,0.8-2.2
	c0.2-0.2,0.4-0.3,0.6-0.3c0.4-0.2,1.2-0.2,1.5-0.2c2.3-0.2,4.9,0.2,7.3,0.6c1.1,0.2,2.2,0.3,3.2,0.5c0.5,0.1,1.2,0.1,1.8,0.2
	c4.8,0.4,12.2,1.1,11.8,6.5C332.7,706.2,331.4,723.8,329.9,740.1z M337.8,539.7c-2.6,4.3-2.6,9.1-2.7,13.7c0,0.7,0,1.3,0,2
	c-0.1,4.7-0.6,9.6-1,14.2l-0.2,2.7c-0.9,10.2-1.1,20.7-0.6,34.3c0.4,11.1-0.1,22.1-0.7,33.4c-0.1,1.4-0.2,2.9-0.2,4.3
	c-0.2,4-0.5,8.2-0.6,12.3c-0.1,3-0.1,5.5,0,7.8c0.1,1.4,0.3,2.8,0.5,4.2c0.3,1.8,0.6,3.6,0.5,5.3c0,1.4-0.4,2.3-1.1,2.9
	c-1.4,1.1-4.1,0.6-6.4,0.2c-0.5-0.1-1-0.2-1.5-0.3c-2.3-0.4-4.5-0.6-7.1-0.9c-0.3,0-0.6-0.1-1-0.1c-1.8-0.2-5.7-0.5-6.5-1.6
	c-0.6-0.8-0.2-2.6,0.1-4c0.2-0.6,0.3-1.2,0.3-1.7c0.2-2.6,0.5-4.8,0.8-7.1c0.6-3.6,0.5-7.5,0.4-11.2c0-2.1-0.1-4.3,0-6.4
	c0.7-18.7,1.4-43.3,1.2-68.3c-0.1-5.6-0.1-12.1-0.5-18.4c-0.1-2.3-0.3-4.6-0.5-6.8c-0.1-0.9-0.2-1.9-0.2-2.8c0-0.7-0.1-1.4-0.2-2.1
	c-0.2-1.9-0.5-4.1-0.1-5.8c0.7-3.1,3-3.8,5.8-3.8c1.3,0,2.6,0.1,3.9,0.3c1.2,0.1,2.4,0.3,3.5,0.3l1.2,0c2.6,0,5.1-0.1,7.6,0.2
	c0.3,0,0.6,0,1,0.1c1.6,0.1,4.2,0.2,4.8,1.3C338.6,538,338.4,538.8,337.8,539.7z M337.8,502.8c-0.8,6.6-1.2,11.5-1.1,16.3
	c0,0.7,0,1.4,0,2.1c0,1.8,0,3.7,0.2,5.4c0.1,0.5,0.2,1,0.3,1.6c0.4,1.4,0.8,3.1-0.1,4c-0.7,0.7-2.7,0.5-4.2,0.3
	c-0.6-0.1-1.2-0.2-1.6-0.2c-0.2,0-0.4,0-0.7,0c-1,0-1.9,0-2.9,0c-1.3,0-2.7,0.1-4.1,0c-3.4-0.1-11.3-0.3-11.5-4.7
	c0-1.2,0.3-2.4,0.6-3.8c0.3-1.2,0.6-2.4,0.6-3.6l0-0.5c0.1-2.1,0.1-4.1,0.3-6.1c0.3-2.9,0.2-5.8,0.1-8.6c-0.1-2.4-0.1-5,0-7.4
	c0.2-3.3,0-6.7-0.3-10c-0.1-2-0.3-4-0.3-6c-0.1-5.4-0.2-11.7,0.1-18.1c0.6-10.9,0.5-22,0.3-32.7l0-2.5c0-2.1,0-4.3,0-6.4
	c0-2.8,0.1-5.7,0-8.5l0-0.2c-0.1-2.4-0.1-5-0.3-7.4c-0.1-1.1-0.2-2.2-0.3-3.3c-0.2-1.9-0.5-3.9-0.3-5.6c0.4-3.3,3.8-3.2,8.1-2.8
	c0.7,0.1,1.4,0.1,2,0.1c1.7,0.1,3.5,0.2,5.2,0.4c1.2,0.1,2.4,0.2,3.6,0.3c0.7,0,1.5,0,2.2,0c2.4,0,4.7-0.1,5.9,1.7
	c1.2,1.7,0.8,3.6,0.1,5.7c-0.9,2.9-1.3,5.1-1.3,7.5c-0.1,3.1,0,6.2,0.1,9.2c0.1,2.3,0.1,4.6,0.1,6.9c0,6.9,0.1,13.9,0.3,20.8
	C339.7,465.2,340.1,484.3,337.8,502.8z M386.5,550.2c-5-8.7-10.1-17.8-13.7-27.3c-2.7-7.1-5.7-15.5-6.9-24.1
	c-0.8-5.8-1.2-11.3-1.1-16.4c0-0.5,0-1.1,0-1.7c0-3.6,0-8.3,1.8-11.1c1.8,5.1,3.1,10.5,4.3,15.8c0.6,2.5,1.2,5.2,1.8,7.7
	c5.8,22.6,12.7,45.8,20.5,69.2C391,558.2,388.7,554.2,386.5,550.2z M380.9,489.7l0.2,0.4c3.6,9.4,6.3,18.2,8.3,26.9
	c0.7,2.9,1.4,5.8,2.1,8.5c1.3,5.2,2.6,10.5,3.6,15.8c0.4,2.3,0.9,4.7,1.3,7.1c1.4,7.2,2.8,14.6,3.2,21.8c-3.3-9.8-6.5-19.7-9.6-29.3
	c-1-3.2-2-6.3-3-9.5c-2.5-7.7-4.6-15.6-6.6-23.2l-1-3.8c-1.7-6.5-3.5-13.2-5.2-19.9c-0.5-2-1.1-4-1.7-5.9c-1.1-3.9-2.3-7.8-2.7-11.7
	C371.6,467.5,375.8,476,380.9,489.7z M388.5,462.8c-0.6-0.1-1.3-0.2-2-0.3c-0.7-0.1-1.4-0.1-2-0.1c-1.1,0-2.2-0.1-3.5-0.5l-0.2-0.1
	c-3.7-1.2-4-1.9-4-2.1c0-0.1,0.1-0.2,0.3-0.3l0,0c6.3-4.1,13-7.8,19.5-11.3c3.1-1.7,6.3-3.4,9.5-5.2c4.2-2.4,8.7-4.3,13-6.2
	c1.2-0.5,2.4-1,3.7-1.6c1-0.4,2-0.9,3.1-1.3c3-1.2,6.2-2.5,8.7-4.5c-0.1-0.4-0.3-0.8-0.6-1.1c-10.6,2-21.1,7.2-31.7,12.8
	c-1.1,0.6-2.2,1.2-3.4,1.8c-4.2,2.2-8.5,4.5-12.7,7c-1,0.6-2.1,1.4-3.2,2.2c-2.4,1.7-5.2,3.7-7.6,4.3c0.1-2.6,3.7-5.4,6.1-7.3
	c0.6-0.5,1.2-0.9,1.6-1.3c2.3-2,4.8-3.6,7.3-5.2c1.5-1,3.1-2,4.6-3.1c8.8-6.3,18.4-10.8,27.4-14.9c7.3-3.3,14.9-6.1,22.3-8.8
	c2.2-0.8,4.4-1.7,6.6-2.5c1.1-0.4,2.2-0.9,3.4-1.3c3.8-1.5,7.7-3,11.7-4c0.6-0.1,1.2-0.3,1.8-0.4c4.1-1,8.8-2.2,13-1.5
	c-0.9,1.4-2.9,2.9-4.5,4.1c-0.7,0.5-1.4,1.1-1.9,1.5c-2.7,2.3-4.9,4.3-7,6.2c-0.9,0.8-1.8,1.6-2.7,2.4c-3.8,3.4-7.7,7-11.8,10.3
	c-8.2,6.6-16.2,12.2-24.2,17.3c-0.9,0.6-1.9,1.2-2.8,1.8c-3.3,2.1-6.8,4.3-10.4,6.1c-4.9,2.3-9.7,4.1-15.6,5.8
	c-3,0.8-5.4,1.5-8.2,1.8C390.7,463.2,389.7,463.1,388.5,462.8z M475.1,519.9c-1.1-0.6-2.1-1.1-3.2-1.7l0,0c-1.9-0.9-3.8-1.9-5.7-2.8
	c-12.6-6.1-25.6-12.4-37.6-19.9c-2.1-1.3-4.3-2.7-6.5-4c-5.6-3.4-11.3-6.9-16.7-10.9c-3.2-2.3-6.5-4.9-9.6-7.8c-2-1.9-3.5-3.5-4.8-5
	c0,0-0.1-0.1-0.2-0.3c-0.2-0.2-0.3-0.4-0.4-0.6c3.1,0.1,6.1-0.7,9.1-1.4l0.5-0.1c3.4-0.8,5.6,0.6,8.4,2.5c0.5,0.3,0.9,0.6,1.4,0.9
	c3,1.9,5.9,4.1,8.7,6.3c1.1,0.8,2.2,1.7,3.3,2.5c4.3,3.2,8.5,6.4,12.8,9.6c8.2,6.2,16.6,12.6,25,18.7l0,0c0.3,0,0.5-0.1,0.7-0.2
	c1.4-2.3-5.4-8.3-24.1-21.3c-1.4-1-2.5-1.8-3-2.2c-1.5-1.2-3.1-2.3-4.7-3.4c-2.5-1.8-5.1-3.7-7.6-5.6c-0.8-0.6-1.6-1.3-2.4-1.9
	c-1.8-1.4-3.6-2.9-5.5-4.2c-0.8-0.5-1.6-1-2.6-1.5c-1.3-0.7-2.6-1.3-3.5-2.2c0.5-0.2,1-0.4,1.5-0.5c1.2-0.4,2.4-0.8,3.6-1.4
	c0.4-0.2,0.9-0.5,1.5-0.8c1-0.5,2-1.1,2.8-1.3c2.6-0.3,6.5,2.8,9.3,5.1c0.8,0.6,1.5,1.2,2.1,1.7c6.3,4.5,11.6,9.7,17.3,15.2l1.1,1.1
	c7.1,6.9,13.9,14.2,20.2,21.1l2,2.2c2.5,2.7,5,5.4,7.4,8.2c1.3,1.5,2.6,3.1,3.9,4.7l1.3,1.6c0.3,0.4,0.8,0.9,1.2,1.3
	c0.7,0.7,1.4,1.5,1.9,2.2C481.1,523.1,478,521.5,475.1,519.9z"/>
</svg>
