<?xml version="1.0" encoding="utf-8"?>
<!-- Generator: Adobe Illustrator 21.1.0, SVG Export Plug-In . SVG Version: 6.00 Build 0)  -->
<svg version="1.1" id="Слой_1" xmlns="http://www.w3.org/2000/svg" xmlns:xlink="http://www.w3.org/1999/xlink" x="0px" y="0px"
	 viewBox="0 0 595.3 841.9" style="enable-background:new 0 0 595.3 841.9;" xml:space="preserve">
<path d="M472.4,559.2c-0.3-0.7-1-0.9-2.3-0.7c-25.2,3.8-44.4,8.1-62.4,13.7c-13.3,4.2-26.3,9.1-38.5,14.6c-4.2,1.9-8.2,4.2-12,6.4
	c-1.6,0.9-3.2,1.8-4.8,2.7c-1,0.6-2,1.1-3,1.6c-3.8,2-7.7,4.2-11.2,6.8c0.1-1.4,0.7-3.4,1.2-5c0.3-0.9,0.5-1.7,0.7-2.3
	c0.1-0.5,0.2-0.9,0.3-1.4c0.2-0.8,0.4-1.7,0.6-2.6c7.7,3.9,18.4-6.1,23.6-11l0.4-0.4c7.8-7.3,14.2-14.5,19.7-22.1
	c1.1-1.6,2.3-3.1,3.4-4.7c3.1-4.3,6.4-8.8,9.4-13.3c2.5-3.7,4.8-7.5,7-11.4c0.1-0.3,0.4-0.6,0.6-1c1.5-2.5,4.1-6.7,1.9-8.5
	c-1.7-1.4-5.4,1-7.6,2.5c-0.4,0.3-0.7,0.5-0.9,0.6c-3.5,2.1-6.9,4.4-10.2,6.7c-1.4,0.9-2.7,1.9-4.1,2.8c-8,5.3-16.3,11.1-22.9,17.8
	c-7.2,7.3-13.3,15.4-18.4,22.4c-0.3,0.4-0.6,0.8-0.9,1.2c-2.1,2.9-4.5,6.2-5,9.8c-0.2,1.4,0.1,2.5,0.4,3.6c0.2,0.6,0.3,1.3,0.4,1.9
	c0.2,1.8-0.6,4.5-1.3,6.7c-0.3,0.9-0.5,1.6-0.7,2.3c-0.3,1.2-0.5,2.5-0.8,3.8c-0.3,1.6-0.6,3.3-1,4.8c-0.2,0.8-0.6,1.5-1,2.2
	c-0.5,1-1.1,1.9-1.3,3.1c-0.1,0.7-0.1,1.4,0,2.1c0.1,0.6,0.1,1.2,0,1.7c-0.1,0.5-0.1,0.5-0.2,0.6c-0.1,0.2-0.2,0.3-0.4,0.8
	c-0.3,0.8-0.8,1.5-1.3,2.3c-0.6,0.9-1.2,1.9-1.6,2.9c-0.7,2.4-0.2,5.2,0.2,7.9c0.3,1.7,0.6,3.3,0.5,4.8c-0.1,5.2-1.5,11.9-2.9,16.7
	c-1.1-1.1-2.1-3-3-4.6c-0.4-0.7-0.7-1.3-1-1.8c-1-1.6-1.9-3.3-2.8-4.9c-0.4-0.7-0.8-1.4-1.1-2.1c-2.1-3.8-2.2-8.8-2.2-13.6
	c0-1.6,0-3.1-0.1-4.5c-0.3-4.2-0.1-7.3,0.4-10.2c0.1-0.4,0.2-0.8,0.3-1.2c0.3-1.1,0.6-2.3,0.4-3.5c-0.1-0.7-0.3-1.4-0.6-2
	c-0.3-0.7-0.6-1.4-0.5-2.1c0.1-1,0.5-1.9,0.9-2.9c0.6-1.3,1.2-2.7,1-4.6c-0.1-2-0.6-4-1.1-6c-0.3-1.4-0.7-2.8-0.9-4.3
	c-0.7-4.8-0.9-9.7-1.1-14.5c-0.1-2.2-0.2-4.3-0.3-6.5c-0.2-2.4-0.4-4.9-0.6-7.2c-0.4-4.2-0.7-8.5-0.8-12.7
	c-0.2-12.5-0.3-25.2-0.4-37.4l0-4.7c0-3.4,0.1-6.8,0.2-10.1c0.1-3,0.2-6,0.2-9c0-3.5,0.4-6.4,1.4-9.6c0.4-1.3,0.7-2.4,0.6-3.8
	c0-0.5-0.3-0.8-0.6-1.1c-0.1-0.1-0.3-0.3-0.3-0.4c0-0.3,0.3-0.9,0.5-1.4c0.2-0.4,0.3-0.7,0.4-1c1.2-4.4,0.5-9.3-0.3-14.1
	c-0.3-1.8-0.5-3.5-0.7-5.1c-0.4-4.2-0.3-8.5-0.3-12.7c0-2.4,0.1-5,0-7.5c-0.1-6.5,0-13.2,0.1-19.6c0.1-7.3,0.3-14.9,0-22.3
	c-0.1-3.7-0.3-7.4-0.5-11.1c-0.3-6.7-0.7-13.5-0.6-20.2c-0.4-3.2-0.3-6.4-0.3-9.6c0-4,0.1-8.1,0.3-12.1c0.1-3.9,0-7.8,0.4-11.7
	c0.3-2.3,0.9-4.5,1.6-6.7c0-0.1,0-0.2,0-0.3c0.3-1.8,0.6-3.9,1.4-5.6c0.1-0.5,0.2-1,0.4-1.6c0.9-3.3,1.8-6.6,2.8-9.7l0.3-1
	c0.4-1.5,0.9-3,1.5-4.6c0.1-0.4,0.4-1,0.7-1.6c0.7-1.3,1.4-2.7,1.3-3.8c-0.2-1.2-0.6-1.9-1.3-2c-1.4-0.3-2.8,1.9-3.3,2.6
	c-0.9,1.6-2,3.2-3.1,4.7c-0.4,0.5-0.7,1-1.1,1.5c-0.1-6.4-0.2-12.9-0.3-19.2c-0.1-6.3-0.1-12.8-0.3-19.2c0-1.6-0.1-3.3-0.1-4.9
	c-0.1-5-0.3-10.2-0.1-15.3c0.1-2.6,0.2-5.2,0.4-7.7c0.2-3.6,0.5-7.3,0.4-11c0-6.3-0.1-14.1,1.1-21.3c0.2-1.2,0.3-2.5,0.5-3.7
	c0.4-3.8,0.8-7.4,3-10.5c3.9-5.6,8.1-10.9,12.3-16.2c2.6-3.3,5.4-6.7,7.9-10.2c0.5-0.7,1.1-1.4,1.6-2.2c2.8-4,5.7-8.1,10.5-8.5
	c5.6-0.5,10.9-1.9,16.7-4.2c12.6-5,23.4-11.1,33.1-18.6c7.7-6,17.7-14.1,26.5-23.4l1.7-1.8c3.4-3.6,6.8-7.2,10.3-10.7
	c0.7-0.7,1.3-1.3,2-2c0.7-0.7,1.4-1.5,2.2-2.2c0.5-0.5,1.3-1.1,2.1-1.7c1.8-1.4,3.9-2.9,4.4-4.4c0.1-0.4,0.4-1.4-0.2-2
	c-0.7-0.6-2.1,0-3.3,0.6c-0.2,0.1-0.5,0.2-0.6,0.3c-1.1,0.5-2.2,0.9-3.3,1.3c-1.8,0.7-3.6,1.4-5.4,2.3c-5.3,2.5-10.8,4.6-16.2,6.6
	l-2.5,1c-6.1,2.3-12.4,5.2-19.2,8.7c-3.1,1.6-6.1,3.3-9.1,5l-0.8,0.5c-0.5,0.3-1.1,0.7-1.6,1c-1.2,0.8-2.5,1.7-3.8,2
	c0.1-8.1-1.2-16.2-2.5-24.1c-1-6.5-2.1-13.3-2.4-20c-0.2-5.5-1.1-11-2-16.3c-0.2-1-0.3-2-0.5-3c-0.2-1.1-0.2-2.4-0.2-3.7
	c0-3.4-0.1-7.2-2.6-9.2l-0.6-0.5l-0.2,0.7c-1.7,6.9-3.7,13.9-5.6,20.6c-3.6,12.5-7.3,25.5-9.3,38.5c-1.6,10.5-3.3,23.1-3.7,36.4
	c-0.1,3-0.3,3.3-2.5,5.4c-2,2-4.1,4.3-6.1,6.9c-1.2,1.6-2.5,3.6-2.4,6.2c0,0.6,0.1,1,0.1,1.3c0.1,0.6,0.1,0.6-0.9,1.8l-0.2,0.3
	c-1.4,1.7-2.9,3.4-4.3,5c-2.9,3.3-5.9,6.7-8.4,10.4l-1.6,2.3c-3.3,4.8-6.7,9.8-10.2,14.5c-0.1-1.8-0.1-3.7-0.2-5.5
	c-0.4-10.7-0.8-20.8-0.1-31.4c0.4-5.6,0.4-11.4,0.5-16.9c0-6.4,0.1-13.1,0.7-19.6c0.4-4.6,0.3-9.3,0.3-13.8c0-1.7-0.1-3.4-0.1-5
	c0-2.7,0-5.5,0.4-8.4c0.1-1,0.4-2.1,0.6-3.3c0.5-2.2,1-4.5,0.8-6.6c-0.5-6.1-6.9-6.1-11.1-6l-0.2,0c-3,0-6.1-0.3-9-0.6
	c-0.6-0.1-1.3-0.2-2-0.3c-2.6-0.4-5.8-1-7.9,0.3c-3.9,2.2-2.4,7.6-1.4,11.5c0.2,0.7,0.4,1.4,0.5,2c1.3,5.9,1.6,11.8,0.8,19.7
	c-0.4,4.1-0.8,8.2-1.3,12.2c-0.9,8.2-1.8,16.7-2.4,25c-0.4,6.3-0.8,12.8-1.2,19c-0.3,5.9-0.7,12.1-1.1,18.1
	c-0.1,0.9-0.1,1.8-0.2,2.7c-0.3,4-0.6,7.4,0.7,11.7c0.4,1.3,0.4,1.3,0.2,2.3c0,0.2-0.1,0.5-0.2,0.8c-0.3,1.3-0.2,2.4-0.2,3.5
	c0.1,1.6,0.4,3.1,0.8,4.5c0.3,1.4,0.7,2.7,0.8,4.1c0.4,5.8,0.1,11.8-0.1,17.6c-0.1,1.3-0.1,2.5-0.2,3.7c-0.1,4-0.4,8.1-0.5,11.7
	c0,0.9,0,2,0,3c0,2.5,0,5.2-0.7,7.1c-0.6,1.7-2.1,3.5-3.5,5.3c-0.8,1-1.5,1.9-2.1,2.8c-2,3.1-4,6.2-5.8,9.2
	c-1.1,1.8-2.2,3.7-3.3,5.5c-1.9,3.2-3.9,6.5-5.8,9.8c-0.3-9.1-1.7-18.1-3-26.9c-0.7-4.6-1.4-9.3-1.9-13.9c-1-8.6-3.2-17-5.2-25.2
	l0-0.2c-0.4-1.8-0.9-3.6-1.2-5.4c0-0.2-0.1-0.7-0.1-1.1c-0.1-1.9-0.2-3.4-1-4c-0.8-0.5-1.4-0.5-1.8-0.3c-1.6,0.6-2.4,3.6-2.9,5.6
	c-0.1,0.5-0.2,0.9-0.3,1.1c-5.2,14.6-8.9,31.5-10.6,48.8c-1,9.9-0.7,18.6,1,26.8c1.6,7.9,3.7,16,8.6,21.6c0.4,0.5,1.3,1,2,1.5
	c0.6,0.4,1.5,0.9,1.6,1.2c0.1,0.3-0.5,1.9-0.7,2.5c-0.1,0.4-0.2,0.7-0.3,0.8c-0.9,4.2-0.7,8.4-0.4,13c0.1,1,0.1,1.9,0.2,2.9
	c0.4,5.9,0.9,11.9,0.4,17.7c-1.7-4.4-3.3-8.4-4.9-12.1c-1-2.2-2.1-4.4-3.3-6.5c-1.7-3.1-3.5-6.4-4.5-9.8c-0.5-1.8-0.2-3,0.2-4.4
	c0.2-0.6,0.4-1.3,0.6-2.2c0.6-3.3,0.4-6.8-0.7-10.1c-1.7-5-3.8-10.8-7.1-16.2c-5.4-8.9-11.6-17-19-24.7c-6.2-6.5-13.6-12-20.7-17.2
	l-2.7-2c-4.7-3.5-9.3-7.4-14.5-12.4c-0.9-0.9-1.8-1.8-2.7-2.8c-2.9-3.1-5.9-6.3-9.9-7.5l-0.6-0.2l0,0.7c0,2.2,0.8,3.2,1.9,4.8
	c2,2.7,3.6,5.5,5.1,8.1c2.7,4.8,5.2,9.9,7.6,14.8l1.5,2.9c1.7,3.4,3.4,7,5,10.4c3.3,7.1,6.8,14.4,10.9,21.2
	c6.4,10.6,13.6,21.6,24.2,29l0.2,0.2c4.2,2.9,9.4,6.6,14.8,7.2c0.4,0,0.8,0.1,1.1,0.1c0.9,0,0.9,0,1.6,1c0.6,0.8,1,1.9,1.3,3
	c0.2,0.6,0.4,1.3,0.7,1.8c0.6,1.3,1.3,2.6,1.9,3.9c0.4,0.9,0.9,1.7,1.3,2.6c-16.9-14.5-39.1-21.7-60.5-27.8
	c-4.7-1.3-9.5-2.6-14.1-3.8c-4.7-1.2-9.6-2.5-14.4-3.9c-4.3-1.2-8.6-1.7-13.1-2.1c-0.7-0.1-1.5-0.2-2.3-0.2
	c-0.7-0.1-1.4-0.1-2.1-0.2c-0.9-0.1-1.9-0.1-2.8-0.2c-0.6-0.1-1.2-0.3-1.9-0.6c-0.8-0.3-1.6-0.6-2.3-0.6c-1.6-0.1-2.2,0.5-2.4,0.9
	c-0.4,0.7-0.2,1.6,0.5,2.7c1.3,1.9,3.7,3.6,5.8,5c0.9,0.6,1.8,1.2,2.5,1.8c0.9,0.7,1.8,1.5,2.8,2.2c2.1,1.7,4.3,3.5,6.5,5.1
	c2.3,1.6,4.6,3.1,6.9,4.6c2.3,1.5,4.6,3,6.8,4.5c9.1,6.5,19.6,11,29.7,15.3c2.2,1,4.5,1.9,6.7,2.9c1.2,0.5,2.3,1,3.5,1.5
	c10.4,4.6,21.2,9.4,32.7,11.3c0.6,0.1,1.1,0.2,1.7,0.3c3,0.5,6,1,9,1c1.7,0,3.4-0.2,4.9-0.6c0.2,0,0.5-0.2,0.8-0.3
	c0.4-0.2,1.4-0.6,1.6-0.5c0.8,0.3,1.6,4.7,1.9,6.2c0.1,0.6,0.2,1.1,0.3,1.3c0.3,1.1,0.6,2.1,0.8,3.2c0.6,2.5,1.3,5,2,7.5
	c1.5,5.3,3,10.8,4.4,16.1c1.9,7.2,3.9,14.7,6.1,22c0.8,2.7,1.6,5.5,2.3,8.1c1.1,4.1,2.3,8.3,3.7,12.4c0.4,1.3,0.9,2.6,1.3,4
	c1.9,5.4,3.8,11,4.7,16.5c-1.9-0.5-3.9-1.4-5.8-2.3c-1-0.5-2-0.9-3-1.3c-1.3-0.5-2.8-1-4.1-1.4c-1.9-0.6-3.9-1.3-5.8-2.2
	c3.8-7.2-0.2-14.7-3.4-20.8c-3.8-7.2-9.1-13.5-14.3-19.5c-1.2-1.4-2.4-2.8-3.6-4.3c-11.9-14.3-26.7-26.5-38.3-35.5
	c-0.8-0.6-1.6-1.3-2.4-1.9c-2.7-2.2-5.6-4.4-8.5-6.3c-1.7-1.1-3.5-2.1-5.2-3.1c-2-1.1-4.1-2.3-6.1-3.7c-0.5-0.4-1.1-0.8-1.8-1.3
	c-2.7-2-6.1-4.5-8.9-5c-1.3-0.2-2.1,0-2.6,0.7c-0.9,1.5,0.9,4.5,2.8,7.2l0.2,0.3c2.9,4.1,6.1,8.1,9.2,11.9c2.2,2.6,4.4,5.4,6.5,8.1
	c2.8,3.6,5.6,7.3,8.3,10.8c2.7,3.5,5.6,7.2,8.3,10.8c5.4,7.2,11.3,14.2,16.9,21c1.8,2.2,3.7,4.4,5.5,6.7l1.4,1.6
	c1.7,2,3.4,4.1,5,6.1l1.1,1.4c1.3,1.7,2.7,3.4,4.1,5.1c0.6,0.7,1.4,1.4,2.2,2.1c1,0.9,2,1.8,2.7,2.8c-1.4,0.1-3.1-0.2-4.7-0.6
	c-0.8-0.2-1.6-0.3-2.3-0.4c-0.2,0-0.4,0-0.7-0.1c-0.4,0-0.9,0-1.2-0.2c-0.6-0.2-1-0.6-1.4-1c-0.4-0.4-0.8-0.8-1.4-1.1
	c-0.4-0.2-0.8-0.2-1.3-0.3c-0.4,0-0.8-0.1-0.9-0.2c-0.2-0.1-0.4-0.7-0.7-1.1c-0.2-0.5-0.5-1-0.8-1.3c-1.9-2-4.8-3.5-8.1-4.3
	c-4.9-1.1-10.1-1-15.1-0.9c-2.1,0-4.3,0.1-6.4,0c-6.7-0.2-13.4,0-19.6,0.2c-3.5,0.1-7,0.6-10.3,1.1c-3.1,0.4-6.2,0.9-9.3,1.1
	c-2.4,0.1-4.9,0.1-7.2,0.1c-0.8,0-1.7,0-2.5,0c-0.7,0-1.6-0.1-2.7-0.2c-2.8-0.2-5.9-0.5-7.4,0.3c-0.9,0.5-1.3,1.1-1.3,1.8
	c0.2,1.9,4.2,3.5,10.1,5.4c0.5,0.2,0.9,0.3,1.1,0.4c6.4,2.2,13.3,3.5,19.3,4.6c3.9,0.7,7.8,1.6,11.7,2.5c3.3,0.8,6.8,1.5,10.2,2.2
	c0.9,0.2,1.8,0.4,2.7,0.5c5.3,1.1,11.9,2.5,17.3,1.7c-0.9,1.6-1.9,3.1-2.8,4.6c-2.6,4.2-5.2,8.5-7.1,13.2l-0.3,0.8
	c-2.3,5.7-4.7,11.6-6.3,17.6c-1.8,6.8-4.2,13.6-6.5,20.1c-2.6,7.3-5.3,14.9-7.2,22.6c-0.3,1.3-0.6,2.5-1,3.8c-1.5,5.6-3,11.4-3,17.3
	c0,1.2,0.1,2.8,1.1,3.1c1.4,0.4,3.4-2.3,5.7-5.7c0.4-0.6,0.7-1.1,1-1.4c8.8-11.4,18.2-23.8,26.6-37.2c1.1-1.7,2.2-3.5,3.3-5.3
	c5.5-8.6,11.3-17.6,14.9-27.1c3-7.9,4.7-14.2,5.5-20.5c0.5-4,0.6-7.4,0.3-10.5c0-0.1-0.1-0.4-0.1-0.8c-0.1-0.7-0.5-2.5-0.4-2.8
	c0.3-0.4,2.1,0,2.8,0.1c0.2,0,0.4,0.1,0.6,0.1c1.1,0.2,2.4,0.3,3.7,0.4c2.3,0.2,4.6,0.4,6.5,1.1c1.1,0.4,2.2,1.1,3.2,1.8
	c1.4,0.9,2.8,1.9,4.5,2.2c1.2,0.2,2.4,0.1,3.4,0c1.4-0.1,2.7-0.2,4.2,0.3c2.5,0.9,5,2,7.4,3.2c0.7,0.3,1.4,0.7,2.1,1l0.3,0.1
	c5.3,2.4,11.8,5.5,13.5,11.4c0.4,1.3,0.6,2.6,0.8,3.8c0.3,1.8,0.7,3.6,1.3,5.4l0.1,0.2c1.1,2.9,2.2,5.8,3.1,8.7
	c0.2,0.6,0.2,1.1,0.3,1.8l0,0.2c0.1,2.4,0.5,4.2,1.4,6.7c1.7,4.8,2.4,9,2.2,12.7c-0.4,8.8-0.5,17.9-0.2,26.8
	c0.2,5.6-0.1,11.4-0.4,16.9c-0.2,3.2-0.3,6.4-0.4,9.7c-0.1,5.2,0,10.4,0.2,15.5c0.1,3.3,0.2,6.8,0.2,10.2c-2.7-2.6-5.6-4.1-8.1-4.1
	c-0.1,0-0.1,0-0.1,0c-1.9,0-3.5,0.9-4.8,2.5c-3.6,4.4-4.6,11.5-5.4,17.2l-0.1,1.1c-1.9,13.4,0.4,26.7,3.3,41.4
	c1.5,7.5,3.2,15.2,4.8,22.5c1.3,5.9,2.6,11.9,3.9,17.9c1.1,5.3,2.5,10.8,4.2,16.9c0.3,1.1,0.6,2.2,0.9,3.3c0.5,2,1.1,4.1,1.8,6.1
	c0,0.1,0.1,0.2,0.1,0.3c0.6,2.1,1.5,4.3,2.7,4.4c0.2,0,0.4,0,0.6-0.1c1.1,8.8,1.2,17.8,1.4,26.6l0,1c0.1,4,0.1,8.2-0.1,12.2
	c0,0.3,0,0.7-0.1,1c-0.1,1.7-0.3,3.4,0.5,5.1c0.2,0.4,0.5,0.8,0.8,1.1c0.3,0.3,0.5,0.6,0.6,0.9c0.5,1.2,0.4,1.5,0.2,2.3
	c-0.1,0.4-0.3,0.9-0.4,1.5c-0.6,3.4,0.2,6.8,0.9,10.1c0.1,0.7,0.3,1.3,0.4,2c0.8,4.3,1.6,9,2.2,14.9c0.5,4.2,0.8,8.4,1.1,12.5
	c0.4,5.1,0.7,10.3,1.4,15.4c0.3,2.1,0.7,4.2,1.1,6.2c0.4,2,0.9,4.1,1.1,6.2c0,0.2,0,0.4,0.1,0.7c0.1,1.3,0.3,2.5,0.6,3.4
	c-0.2,0.5,0,1.2,0.6,1.4c4.7,1.2,9.4,0.5,14.2,0.1c3.8-0.3,8.7,0.1,12.1-1.4c0.3-0.1,0.5-0.5,0.5-0.9c0-1.1-0.3-2-0.7-3
	c-0.2-2.3-0.6-4.6-1-6.9c-0.3-1.8-0.7-3.6-0.8-5.3c-0.5-4.9-0.8-9.9-1.1-14.7c-0.2-3.5-0.4-7.1-0.7-10.6c-0.7-8.2-1.2-17.2-0.2-26.7
	c0.2-1.5-0.2-2.8-0.6-4c-0.4-1.2-0.7-2.3-0.5-3.5c0.1-0.9,0.4-1.7,0.8-2.6c0.3-0.9,0.6-1.8,0.8-2.8c0.4-2.5,0.3-5.1,0.2-7.3
	c-0.6-13.8,0.7-27.7,2-41.2l0.2-2.1c0.7-7.2,1.4-14.1,2.3-20.6c0.2-1.5,0.5-3.2,1-5.1c0.4-1.3,0.4-2.5,0.4-3.7c0-0.6,0-1.2,0.1-1.8
	c0.3-4.2,1-8.5,1.6-12c5.4,11.8,15.6,22.1,24.5,31.1c1,1.1,2.1,2.1,3.1,3.1c8.5,8.7,17.6,18,26,27.5c0.1,0.1,0.2,0.2,0.4,0.4
	c2.4,2.8,4.2,4.6,5.5,4.1c1-0.4,0.9-2.1,0.9-2.7c-0.1-1.9-1.3-4.2-2.3-6.2c-0.3-0.7-0.7-1.3-0.9-1.8c-1.2-2.6-2.5-5.2-3.7-7.8
	l-0.3-0.6c-1.3-2.6-2.5-5.3-3.8-7.9c-4.6-9.6-9.4-19.6-14.5-29.2c6.5,1,13.2,2,19.6,2.9c9.6,1.4,19.6,2.9,29.3,4.5
	c7,1.2,14.6,2.7,23.8,4.8c4.7,1,9.7,2.2,14.5,3.6c1.3,0.4,2.5,0.8,3.6,1.3c2.1,0.9,4.1,1.7,6.6,1.8l1.1,0.1l-0.7-0.9
	c-1.5-2-3.7-3.4-5.9-4.8c-0.9-0.6-1.8-1.2-2.7-1.8c-3.5-2.6-7-4.8-10-6.6c-7.7-4.7-15.8-9.6-24.4-14c-10-5.2-18.4-9.1-26.5-12.4
	c-7.4-3-15-5.3-22.3-7.5c-2.5-0.8-4.9-1.5-7.4-2.3c0.7-0.4,1.8-0.7,2.7-1c0.8-0.2,1.5-0.5,2-0.7c1.6-0.8,3.2-1.7,4.8-2.7
	c1-0.6,1.9-1.1,2.9-1.7c2.6-1.4,5.2-2.8,7.8-4.2c2.3-1.2,4.7-2.5,7-3.7c4-2.2,8.2-4.3,12.2-6.3c6-3,12.3-6.2,18.2-9.7
	c4.1-2.5,8.4-4.8,12.5-7.1c3.6-2,7.3-4.1,10.9-6.2c2.8-1.6,5.6-3.3,8.3-5c2.8-1.7,5.6-3.4,8.5-5.1c0.8-0.5,1.8-1,2.7-1.4
	c1.5-0.7,3-1.5,4.3-2.5C470.2,563.7,473,560.8,472.4,559.2z M397.4,536.5c-0.7,0.9-1.3,1.8-1.8,2.6c-2,3-4.1,6-6.2,8.9
	c-1,1.4-2.1,2.8-3.1,4.3c-6.3,8.9-12.2,16.1-18.7,22.7c-10.3,10.6-18.8,16.3-23.4,15.6c-0.5-0.1-0.9-0.2-1.3-0.4c0.1,0,0.3,0,0.4,0
	c2-0.1,4.4-2.5,6.3-4.4c0.5-0.5,1-1,1.4-1.3c10.7-9.6,19-17.7,26.1-25.5c2.2-2.4,4.3-4.9,6.4-7.2c2.5-2.9,5.1-5.9,7.8-8.8
	c1.9-2,3.6-4.2,5.3-6.4c1.4-1.7,2.7-3.4,4.2-5.1C399.8,533.1,398.6,534.9,397.4,536.5z M345.5,575.2c0.4-0.5,0.8-1.1,1.2-1.5
	l1.4-1.9c2.8-3.9,5.7-7.9,8.9-11.5c8.6-9.9,19.3-18.7,29.9-24.9c1.5-0.9,3-1.9,4.4-2.9c1.6-1.1,3.2-2.2,4.8-3.1
	c0.5-0.3,1.2-0.8,2-1.3c1.1-0.8,2.5-1.8,3.5-2.2c-0.6,1.1-1.8,2.4-2.8,3.4c-0.5,0.5-1,1-1.4,1.5c-1.4,1.7-2.8,3.5-4.3,5.2
	c-2.1,2.5-4.3,5-6.5,7.3c-1,1.1-2.1,2.3-3.1,3.4c-9.7,10.9-18.5,20.6-28.7,29.8c-2.6,2.3-5,4.4-7.3,6.4c-0.5,0.5-1.2,0.9-1.9,1.4
	c-1.4,1-2.8,2-3.7,3.2c-0.4,0.5-0.7,1-0.8,1.5c-0.2-0.2-0.3-0.4-0.4-0.7C338.8,584,342.7,578.9,345.5,575.2z M359.9,93.4
	c0.3-1.7,0.5-3.4,0.8-5.2c0.8-5.8,1.7-11.7,3.3-17.3v0c1.6-5.5,3-11.3,4.4-16.8c1.6-6.4,3.2-12.9,5.2-19.3c1.4,7,2.1,14.3,2.7,21.3
	c0.4,5,0.9,10.1,1.6,15.1c0.3,2.3,0.8,4.6,1.2,6.8c0.9,5.1,1.9,10.5,1.9,15.7l0,0.8c0,2.5,0,5.8-1.3,7.5c-0.9,1.1-2.5,2-4.2,2.8
	c-0.7,0.4-1.4,0.8-2,1.1c-0.6-1.4-0.4-2.8-0.3-4.4c0.1-0.5,0.1-1,0.1-1.5c0.2-3.2,0.1-6.4,0.1-9.5l0-0.8c0-0.8,0-1.6,0-2.3
	c0-4.5-0.1-8.8-1.8-13.1l-0.2-0.4c-0.2-0.1-0.3-0.1-0.5,0c-0.1,0-0.1,0.1-0.2,0.1c0,0,0,0,0,0c0,0,0,0.1-0.1,0.1l0,0.4
	c0,2.3,0,4.6,0,6.9c0,4.8,0,9.8-0.2,14.6c-0.1,1.7-0.3,3.4-0.5,5c-0.1,0.8-0.2,1.7-0.3,2.5c-0.1,0.6-0.1,1.3-0.1,1.9
	c0,1.6-0.1,3.2-0.9,4.3c-0.8,1.1-2.2,2.1-3.5,3c-0.8,0.6-1.5,1.1-2.2,1.7c-0.5,0.4-1,0.9-1.5,1.3c-0.9,0.8-1.9,1.7-2.9,2.5
	C357.6,109.9,358.8,100.6,359.9,93.4z M353.3,127.9c0.5-0.5,0.9-0.8,1.2-1.1c3-3.1,6.3-6.1,9.6-8.9l1.5-1.3
	c6.2-5.5,13.3-10.5,22.4-15.9c14.8-8.8,32.5-16.8,53.9-24.6c-4.3,4.2-8.5,8.6-12.5,12.8l-3.4,3.5c-3.3,3.4-6.8,6.5-10.2,9.6
	c-2.4,2.2-5,4.4-7.4,6.8c-8.1,7.8-18.5,14.9-29,19.9c-4.3,2-8.8,3.9-13.8,5.8c-0.5,0.2-1,0.4-1.6,0.6c-3.9,1.5-9.2,3.5-13.1,2.5
	c0.6-0.6,1.5-1.1,2.3-1.6c0.4-0.2,0.7-0.4,1-0.6c2.2-1.4,4.4-2.9,6.4-4.5c2.7-2.1,5.4-4.4,8-6.6c1.9-1.6,3.9-3.3,5.9-4.8
	c5.1-4.1,10-7.6,14.9-10.7c0.9-0.6,1.9-1.1,2.9-1.7c2.7-1.6,5.4-3.2,7.8-5.2l0.3-0.3l-0.3-0.4c-0.2-0.3-0.5-0.5-1-0.5
	c-4.4-0.6-23,13.5-23.1,13.6c-2.4,1.9-4.7,3.8-7,5.7c-6.6,5.5-13.4,11.1-21.3,15.2C347.9,133.1,351.3,129.8,353.3,127.9z M233.6,301
	c-0.8-0.8-1.4-2.1-2-3.2c-0.2-0.4-0.4-0.8-0.6-1.1c-1.2-2.1-2.6-4.6-4.3-7c-2.4-3.2-5.2-6.1-7.9-9c-1.3-1.3-2.6-2.7-3.9-4.1
	c-6.6-7.3-13-14.8-19.1-22.5c-1.3-1.6-2.4-3-3.4-4.5c-0.2-0.3-0.6-1-1-1.8c-1.1-2.2-2.1-3.9-3.1-4.3c-0.8-0.3-1.4-0.2-1.7,0.2
	c-0.3,0.3-1,1.3,3.6,7.8c6.1,8.6,13.2,16.6,20,24.3l1.6,1.8c1.4,1.6,3,3.2,4.5,4.8c2.6,2.7,5.4,5.6,7.6,8.6c2.2,3,5.8,7.9,6.6,11.6
	c-0.8,0.2-3.3-0.1-11.7-5.7l-0.2-0.2c-3.7-2.5-7.3-5.8-11.4-10.2c-5.5-6.2-10.5-13.5-16.2-23.8c-4.8-8.8-9.4-18.1-13.7-27
	c-2.7-5.5-5.5-11.2-8.3-16.8c1.8,1.5,3.5,3.1,5.2,4.6c2.2,2.1,4.6,4.3,7.1,6.1l2.1,1.5c3.6,2.6,7.3,5.3,10.9,8
	c6.9,5.2,12.7,10.5,17.8,16c6.6,7.2,12.3,15.4,16.7,23.8C231,283.2,237.5,295.5,233.6,301z M137,284.6c0.9,0,1.7,0.1,2.5,0.1
	c4.2,0.4,7.8,1.2,11.1,2.1c3.6,1,7.2,1.9,10.7,2.8c6,1.5,12.1,3.1,18.1,4.9c14.3,4.3,30.4,9.3,44.6,17.5l0,0c4.2,2.5,8,5.2,10.8,7.9
	l0.6,0.5c2.1,2,5.5,5.1,6.8,7.8c-15.3-10.3-32.4-18.7-52.1-25.7c-3.8-1.3-7.6-2.7-11.3-3.9c-4.1-1.4-8.3-2.8-12.4-4.3l-0.3-0.1
	c-5.8-2.1-11.3-4-17.1-5.6c-0.9-0.3-1.9-0.5-2.9-0.8c-3.7-1-7.6-2-11-3.4C135.7,284.5,136.4,284.6,137,284.6z M229.6,334.2
	c-0.5-0.1-0.9-0.1-1.3-0.2c-4.9-0.7-10-2-14.7-3.6c-9-3.2-17.6-7.1-27.8-11.8c-10.9-5-22.4-10.6-33.3-17.9c-1.2-0.8-2.4-1.6-3.7-2.4
	c-2.7-1.8-5.6-3.7-8.3-5.6c-0.4-0.3-0.9-0.6-1.5-1c-1.5-1-3.6-2.3-4.9-3.7c2.2,1,5.7,1.9,9.3,2.6c0.8,0.2,1.5,0.3,2,0.4
	c4.9,1.3,11.4,3,17.8,5.4c4.8,1.8,9.7,3.5,14.5,5.1c3.2,1.1,6.5,2.2,9.7,3.4c12.5,4.5,22.7,8.7,32.1,13.4c4.7,2.4,8.8,5,13.7,8.3
	c0.9,0.6,2,1.2,3.3,1.9c2.7,1.4,5.7,3,6.9,4.8C240.4,335.9,233.6,334.8,229.6,334.2z M198.1,429c-5.5,0.3-11.2-0.7-16.6-1.7l-0.3,0
	c-13.2-2.3-24.9-4.8-35.8-7.5c-2.3-0.6-4.7-1.4-6.9-2.2l-1.1-0.4c-0.2-0.1-0.6-0.3-1-0.5c0,0-0.1,0-0.1-0.1c2.3-0.2,4.6-0.1,6.9-0.1
	c2.5,0,5.1,0.1,7.6-0.2c2.5-0.2,5-0.6,7.4-0.9c2.1-0.3,4.2-0.6,6.3-0.8c7.8-0.8,15.8-0.6,23.6-0.4c1.8,0,3.7,0.1,5.5,0.1
	c1.2,0,2.4,0,3.6,0c4.2,0,8.6-0.1,12.6,1.1c2.2,0.6,5.4,2.1,5.5,3.1c0.1,0.6-0.1,0.7-1,1.1c-0.3,0.1-0.6,0.3-1,0.5
	c-1.5,0.9-2.5,0.8-4,0.8c-0.5,0-1,0-1.7,0c-2.1,0-4.3,0.2-6.4,0.3c-1.2,0.1-2.3,0.2-3.5,0.2c-5.4,0.3-10.8,0.5-16.7,0.6
	c-0.2,0.3-0.4,0.6-0.3,0.9l0,0c3.1,1.4,5.8,1.4,9,1.4l0.8,0c2.1,0,4.2,0,6.2,0l1.8,0c1,0,2-0.1,3.1-0.2c2.2-0.2,4.5-0.3,6.5,0
	C206.3,427.2,203,428.7,198.1,429z M216.4,456.6c-4.1,10.8-10.6,20.9-16.9,30.7l-1.6,2.6v0c-4.3,6.6-8.5,13-13.1,19.4
	c-1.2,1.6-2.3,3.3-3.5,5.1c-3.5,5.2-7.1,10.5-11.3,14.6c0.1-3.5,1.1-7.1,2-10.6c0.3-1.3,0.7-2.6,0.9-3.8c1.5-6.9,3.4-13.1,5.5-18.8
	c2.4-6.3,4.4-12.8,6.3-19.1c1.8-5.8,3.7-11.8,5.8-17.7c4.5-12.3,10.8-26.1,22.7-34.7c0.1-0.1,0.3-0.2,0.5-0.4
	c1.6-1.3,2.6-1.9,3.1-1.9c0,0,0.1,0,0.1,0c0.1,0.2,0.1,1.2-1.9,5.3c-0.1,0.3-0.3,0.5-0.3,0.6l-0.2,0.4c-2.5,5.6-5,11.3-7.3,17.1
	c-1.5,3.8-3.1,7.6-4.6,11.3c-3,7.2-6.2,14.7-8.3,22.4l0,0.1c0.1,0.2,0.2,0.4,0.4,0.5l0,0c2.3,0.6,4-4.1,5.8-9.8
	c0.3-1,0.6-1.9,0.8-2.5c1.3-3.3,2.8-6.6,4.2-9.8c0.9-2.1,1.8-4.2,2.7-6.3c1-2.3,1.9-4.7,2.9-7c1.1-2.9,2.3-5.8,3.6-8.7
	c0.9-2.1,2-4.3,3-6.4l0.9-1.8c0.4-0.8,1.2-2.6,1.6-2.7c0,0,0.3,0.1,0.7,1.4C223.4,435.9,219.8,447.6,216.4,456.6z M246.9,426.5
	c-1,0.7-3.2-0.1-6.6-2.6l-0.1-0.1c-3.7-2.7-7.1-6.5-10.2-10.1c-1.5-1.8-3-3.5-4.4-5.3c-3.3-3.9-6.7-7.9-9.9-12
	c-9.5-11.8-19-23.8-28.9-36.6c-2.6-3.3-5.3-6.6-7.8-9.9c-4-5-8.2-10.2-12.1-15.4c9.6,7.5,20,16.3,28.1,26.3
	c3.5,4.3,6.9,8.6,10.3,12.9c5.4,6.8,11,13.8,16.5,20.5c1.5,1.9,3.1,3.7,4.7,5.6c2.6,3,5.2,6.1,7.6,9.2c1.4,1.9,2.8,3.8,4.2,5.6
	c1.1,1.5,2.3,3.1,3.4,4.6c0.2,0.3,0.6,0.7,1.1,1.3C245.7,424,247.1,426,246.9,426.5z M252.6,421.4c-0.1,1.2-0.6,3.2-1.4,3.5
	c-0.7,0.3-0.8,0.2-1.5-0.6c-0.2-0.2-0.4-0.4-0.6-0.7c-1.8-2-3.4-4.1-5-6.2l-1-1.3c-8-10.6-16.6-21.2-25-31.4
	c-3.4-4.1-6.8-8.3-10.1-12.4l-2.5-3.1c-4.5-5.6-9.2-11.4-14-16.9c-2.3-2.5-4.9-4.7-7.4-6.9c-1.3-1.1-2.6-2.2-3.8-3.3l-1-0.9
	c-1.6-1.4-3.2-2.9-4.9-4.3c-0.3-0.2-0.6-0.5-1-0.8c-0.3-0.2-0.6-0.4-0.9-0.7c8.8,4.5,16.7,11,24.4,17.3l2.2,1.8
	c7.2,5.9,14.6,12.6,22.6,20.5c7.9,7.8,17.8,18.2,24.6,29.8l0.2,0.3C249.3,409.9,253,416.2,252.6,421.4z M313.4,586.4
	c0.6,3.2,1.3,6.6,1,9.8c-0.3,3.4-3.3,3.7-7.1,3.8l-0.4,0c-1.4,0-2.9-0.1-4.3-0.2c-1.1-0.1-2.3-0.1-3.4-0.2c-1.9,0-1.9,0-1.9-1.4
	c0-0.4,0-0.9,0-1.5c-0.6-9.7-3.1-18.1-7.5-25.7c-1.7-2.9-1.7-6.7-1.6-10.4c0-1.2,0-2.3,0-3.4c-0.2-5.2-0.4-11.3-0.1-17.3
	c0.1-3.1,0.3-6.2,0.4-9.2c0.2-3.1,0.3-6.3,0.5-9.5c0.1-3.1,0-6.2-0.1-9.3c-0.1-3.1-0.2-6.3-0.1-9.4c0.1-2.9,0.1-5.9,0.2-8.8
	c0-2.8,0.1-5.6,0.2-8.4c0.1-3.9-0.1-7.2-0.8-9.8c-0.2-0.9-0.6-1.8-0.9-2.7c-0.4-1.2-0.8-2.3-1.1-3.5c-0.3-0.6-0.3-1.5,0.2-2
	c0.6-0.7,1.4-0.5,2.2-0.4c2.4-0.3,5,0,7.4,0.3c1.4,0.2,2.9,0.4,4.3,0.4c0.6,0,1.3,0,2.1,0c4.3-0.1,8.3,0,8.4,2.9
	c0,1.2-0.2,2.6-0.4,4c-0.2,1.1-0.4,2.3-0.4,3.4c-0.1,2.2-0.2,4.4-0.4,6.6l-0.1,0.9c-0.2,3-0.2,6-0.2,8.9c0,2,0,4.1,0,6.2
	c-0.7,22.3,0.8,45.2,2.2,64.7c0.2,2.4,0.3,4.9,0.4,7.3c0.1,2.5,0.2,5,0.4,7.6C312.5,582.1,313,584.2,313.4,586.4z M312.9,625.1
	c0.1,1.9,0.3,3.8,0.3,5.7c-1.8-2.9-3.7-5.8-5.5-8.5c-1.9-2.8-3.8-5.7-5.6-8.6c-0.4-0.7-0.9-1.4-1.4-2.1c-1.3-2-2.6-4-3.3-6
	c-0.2-0.7-0.4-1.6-0.1-2c0.2-0.3,0.7-0.3,1.2-0.3c0.8,0,1.9,0.2,2.8,0.4l0.7,0.1c1.3,0.2,2.6,0.1,3.9,0.1c1.6-0.1,3.2-0.2,4.6,0.3
	c2.6,0.9,2.3,3.1,2.1,5.7c0,0.4-0.1,0.8-0.1,1.2C312.3,615.8,312.6,620.5,312.9,625.1z M288.5,158.6c0.7-15.8,1.5-32.2,3.5-48
	c0.2-1.6,0.4-3.2,0.6-4.8c1.1-8.1,2.2-16.4,2.4-24.5c0.1-4.2-0.7-8.2-1.4-12.3l-0.3-1.7c-0.1-0.5-0.2-1-0.3-1.5
	c-0.5-2-1-4.4-0.1-5.7c0.4-0.6,1-1,1.9-1.2c2.6-0.6,5.7-0.1,8.7,0.5c1.8,0.3,3.5,0.6,5,0.7c0.6,0,1.4,0,2.2-0.1
	c2.6-0.1,5.5-0.3,6.5,1.9c0.9,2.1,0.2,5.2-0.4,8c-0.3,1.4-0.6,2.8-0.7,3.9c-0.3,4.3-0.1,8.6,0,12.8c0,1.2,0.1,2.4,0.1,3.6
	c0.2,6.4-0.1,13-0.4,19.4c-0.2,3.7-0.3,7.5-0.4,11.3c-0.2,8.8-0.5,17.7-0.8,26.4l-0.2,4.5c-0.2,6.6,0.2,13.1,0.6,18
	c0.6,7.1-0.5,9.2-1.6,9.7c-1,0.5-3.1,0.1-4.6-0.1c-0.6-0.1-1.2-0.2-1.7-0.3l-1.3-0.1c-2.5-0.2-5-0.4-7.5-0.8c-0.3,0-0.7-0.1-1.1-0.1
	c-4.1-0.5-9.7-1.2-9.5-6C288.1,167.5,288.3,163.1,288.5,158.6z M287.9,310.7c0.1-1.5,0.2-3.1,0.2-4.6c0-5,0.3-10.2,0.9-16.9l0.2-2.9
	c0.3-4.1,0.7-8.4,0.9-12.7c0.1-3.1,1.1-5.6,2.3-8.5l0.5-1.1c3.5-9,6.5-18.4,8.9-27.8c1.4-5.6,3.5-11.1,5.1-15.3l0.2-0.5
	c0.9-2.4,1.9-4.9,2.9-7.3c0.4-0.4,0.8-0.9,1.1-1.5c0.2-0.3,0.3-0.6,0.4-1c0,2.3,0,4.6-0.1,6.9c-0.5,12.6-0.6,22.4-0.4,31.7
	c0.1,5.7,0.1,11.5,0,17.1c0,5.4-0.1,10.9,0,16.4c0,1.2,0.2,2.6,0.3,4c0.3,3.2,0.6,6.9-0.2,9.3c-0.3,0.9-1.2,2.1-1.9,3.1
	c-0.4,0.5-0.7,1-1,1.4c-1.3,1.9-2.5,3.8-3.8,5.8l-0.9,1.4c-2.7,4-5.3,8-7.8,12c-0.8,1.6-1.6,3.2-2.6,4.7c-0.6,0.9-1.2,1.8-1.9,2.6
	c0,0-0.1,0.1-0.1,0.1c-1.2,2-2.3,3.8-3.3,5.6C288,325.4,288.5,317.8,287.9,310.7z M311.4,199.9c-0.1,1.9-0.1,3.8,0,5.6
	c-1.2-0.2-2.5,1-3.3,1.7c-0.8,0.7-1.6,1.4-2.3,2.1c-1.8,1.4-3.4,4-4.6,6c-0.5,0.7-0.8,1.4-1.1,1.7l-3.6,4.7
	c-2.4,3.1-4.8,6.3-7.2,9.4c0.2-3.4,0.4-6.9,0.6-10.3c0.7-10.5,1.4-21.3,0.1-31.7c-0.1-0.6-0.2-1.2-0.3-1.8c-0.4-2-0.9-4.3,0.2-5.6
	c1.2-1.5,3.6-1.1,5.7-0.7c0.4,0.1,0.9,0.2,1.3,0.2c1.5,0.2,3.1,0.4,4.6,0.6c1.9,0.2,3.8,0.4,5.7,0.7l0.8,0.1c2,0.3,4,0.6,4.8,1.7
	c0.4,0.6,0.5,1.4,0.2,2.4c-0.3,1.3-0.3,2.6-0.3,3.8c0,0.7,0,1.5-0.1,2.3c-0.1,1-0.3,2-0.5,3C311.7,197.2,311.4,198.5,311.4,199.9z
	 M252.1,281.4c-0.2-1.7-0.4-3.5-0.6-5.2c-0.2-1.6-0.4-3.3-0.6-4.9c-0.8-8.1-0.9-16.7-0.2-25.6c0-0.2,0.1-0.5,0.1-0.9
	c0.3-1.4,0.6-3.3-0.8-3.8c-0.3-0.1-0.7-0.1-1,0.1c-0.9,0.6-1.4,2.8-1.5,7.5c0,0.3,0,0.4,0,0.6c-0.6,9.5-0.4,18,0.6,25.2
	c0.5,3.4,0.9,7,1.2,10.9c0,0.3,0.2,1.1,0.3,2c0.3,1.7,0.9,5.6,0.7,6.2c-0.2,0.3-0.4,0.3-0.4,0.3c-1-0.1-2.4-2.9-3.1-4.1
	c-0.2-0.3-0.3-0.5-0.4-0.7c-1.3-2.3-2-4.7-2.8-7.3l-0.3-1c-4.1-13.3-4.5-28.5-1.2-45c0.4-1.9,0.8-3.8,1.1-5.8
	c0.7-3.6,1.4-7.4,2.2-11.1c1.1-4.8,2.1-9,3.3-12.7c0.2-0.6,0.4-1.3,0.5-1.9c0.5-1.7,1-3.6,1.7-5.1c1.2,3.2,1.9,6.8,2.6,10.3
	c0.3,1.6,0.7,3.3,1.1,4.9c1.3,5.4,2,10.7,2.7,16.2c0.2,1.8,0.5,3.5,0.7,5.3c0.4,3,1,6.1,1.5,9.1c1.7,10.1,3.5,20.5,2.2,30.5
	c-1,6.8-2.5,13.7-8.3,16.1c-0.9-2.1-1-4.7-1.1-7.3C252.2,283.3,252.2,282.3,252.1,281.4z M252.9,314.4c-0.6-1.2-0.7-2.6-0.5-3.9
	c-0.2-5.2,1.5-10.9,3.6-15.6c0.1-0.1,0.2-0.2,0.3-0.2c0.2-0.2,0.4-0.4,0.7-0.6c0.2-0.2,0.5-0.4,0.8-0.7c4.3-4,5.3-8.5,6.5-13.2
	c0.3-1.2,0.6-2.3,0.9-3.6c1.1-3.9,3.4-7.6,5.6-11.2c0.7-1.1,1.3-2.2,2-3.2c0.6-1,1.2-2,1.8-3c3-5.2,6.1-10.5,9.5-15.5l0.3-0.5
	c2.8-4.1,5.7-8.3,8.8-12.3c1.1-1.5,2.2-2.9,3.4-4.4c1.2-1.5,2.4-3.1,3.6-4.7c0.6-0.8,1.2-1.7,1.9-2.7c1.3-1.8,2.7-3.9,4.2-5.4
	c-3.2,7.2-5.4,14.7-7.5,22c-1.1,3.9-2.3,7.8-3.6,11.7c-4.5,13.7-9.2,27.8-16.1,40.8c-1,1.9-2,4-3.1,6.1c-4.3,8.7-9.2,18.5-16.8,24.1
	l-0.3,0.2c-2.2,1.6-3.6,2.3-4.1,2.1c-0.3-0.1-0.4-0.3-0.4-0.4c-0.2-0.7,0.8-2.1,1.4-3c0.3-0.4,0.5-0.7,0.6-1c0.7-1.5,1-3.3,1.4-5.1
	c0.3-1.6,0.6-3.2,1.2-4.6c1.4-3.4,3-6.7,4.6-9.9l0.7-1.5c4.4-8.9,8.5-16.5,12.6-23.1c1.5-2.5,3.1-4.9,4.6-7.4l2.4-3.8
	c0.3-0.4,0.6-0.9,0.8-1.3c1.1-1.6,2.2-3.3,2.6-5.3c-0.3-0.5-1-0.5-1.7-0.6c-2.4,1.7-4,4.7-5.5,7.4c-0.6,1-1.1,2-1.6,2.8l-0.9,1.4
	c-2.7,4.3-5.5,8.7-8,13.2c-4.8,8.9-8.8,16.6-12.2,23.9c-0.3,1.5-0.8,3-1.4,4.4c-1,2.4-1.3,4.8-2.1,7.3
	C253.7,314.6,253.1,314.8,252.9,314.4z M268.2,384.6c-1,4.4-1.4,8.1-1.3,11.6c-0.9-2.5-1.7-5.1-2.4-7.6c-0.8-2.7-1.7-5.4-2.6-8.1
	c-1.8-5.3-3-10.8-4.2-16.1c-0.3-1.4-0.7-2.9-1-4.3c-0.3-1.2-0.6-2.5-0.9-3.7c-1.1-4.3-2.3-8.7-1.9-13c0.2-2.3,0.1-4.7,0-7
	c-0.1-1.4-0.1-2.7-0.1-4.1c0-0.4,0-0.9,0-1.3c0-1.1-0.1-2.3,0.1-3.4c0-0.2,0.1-0.4,0.1-0.5c0.1-0.8,0.2-1.6,0.7-2.2
	c0.2-0.4,0.6-0.6,1-0.8c0.2-0.1,0.5-0.1,0.7-0.2c0.5-0.3,1.1-0.6,1.7-0.9c0.6-0.3,1.2-0.6,1.8-1c3.1-2.1,5.4-4.8,7.5-7.5
	c4.1-5.3,7.2-11.2,10.2-17l0.7-1.4c0.6-1.2,1.3-2.4,1.9-3.6c2.1-3.9,4.2-8,6.1-12.1c-0.1,1.6-0.3,3.1-0.4,4.7
	c-0.6,5.9-1.2,12.1-1,18c0,1,0,2.1-0.1,3.1c0.1,2.9,0.2,5.7,0.1,8.6c0,1.1,0,2.1,0,3.2c-0.2,3.5-0.4,7.1-0.3,10.6c0,1-0.1,2-0.1,3
	c0,1.8,0.4,3.4,0.4,5.2c0,1.7-0.7,3.3-1.6,4.9c-0.8,2.7-2.2,5.4-3.6,8c-1,2-2,4-2.9,6C273.5,364.1,270.7,373.5,268.2,384.6z
	 M272.1,400.6c-0.1-0.1-0.2-0.1-0.3-0.2c-0.5-0.3-1.2-2.1-1.5-3.6c-1.3-5.9,0.9-13.2,2.7-19l0.4-1.3c4.1-13.7,9.6-29.8,18.5-44.9
	c5.9-10,12.6-19.9,19-29.5c-1.4,2.6-2.6,5.3-3.7,7.7c-1.3,2.7-2.4,5.6-3.5,8.3c-1,2.6-2.1,5.3-3.3,7.8
	c-5.8,12.5-10.8,24.8-15.4,37.5c-1.5,4-2.9,8.1-4.3,12.1c-0.8,2.1-1.5,4.3-2.3,6.4c-0.7,1.8-1.3,3.6-2,5.5c-0.4,1.1-0.8,2.2-1.2,3.3
	c-0.6,1.7-1.3,3.6-1.9,5.5c-0.1,0.2-0.2,0.7-0.3,1.2c-0.2,0.8-0.5,2.6-0.8,2.9C272.2,400.5,272.1,400.6,272.1,400.6z M282.3,448.6
	c-1.1-3.8-2.1-7.6-3.1-11.4c-1.4-5.3-2.9-10.8-4.5-16.1c-0.6-1.9-1.3-4.4-1.6-6.9c-0.4-2.9-0.5-7.3,0.4-8c0.1-0.1,0.6-0.1,1-0.1
	c0.2,0,0.3,0,0.5,0c0.7,0,1.5,0,2-0.2c1.7-0.6,3.2-1.9,4.6-3.1c0.2,5.3,0.3,10.6,0.5,15.8c0.1,3.1,0.2,6.2,0.3,9.4
	c0.1,2.6,0,5.2,0,7.8c0,1.2,0,2.4-0.1,3.5c0,1.3,0.1,2.7,0.1,3.9C282.4,445.1,282.5,446.9,282.3,448.6z M283.2,396.4L283.2,396.4
	c-5.3,5.7-6.6,5.8-6.9,5.7c-0.8-0.2-0.8-0.2-0.6-1.4c0-0.2,0.1-0.4,0.1-0.6c0.2-1.4,0.6-2.8,1.1-4.2l0.2-0.8
	c0.8-2.5,1.8-4.9,2.7-7.3c0.5-1.3,1-2.6,1.5-3.9c2-5.3,4-10.9,6-16.8l0.9-2.5c1.8-5.2,3.7-10.6,5.6-15.9c2-5.6,4.7-11,7.4-16.2
	c0.6-1.2,1.2-2.4,1.8-3.6c1.4-2.7,2.5-5.6,3.6-8.4c0.5-1.3,1-2.6,1.6-3.9c1-2.5,2.2-5,3.4-7.4c0.4-0.8,0.8-1.5,1.3-2.3
	c0.4-0.7,0.8-1.4,1.2-2.1c0-0.1,0.1-0.1,0.1-0.2c-1,4.7-2.2,9.5-3.5,14.1c-0.7,2.6-1.4,5.3-2.1,8l0,0c-2.7,11.3-6.1,23.3-9.9,35.7
	c-2.2,7.3-4.9,14.4-8.2,21.7C288.5,388.4,286.5,392.8,283.2,396.4z M285.2,458.6c-0.3-0.8-0.6-1.6-0.6-2.2c0-0.5,0.3-1.2,0.5-1.8
	c0.2-0.5,0.4-1.1,0.5-1.6c0.4-1.8,0.3-3.6,0.3-5.4l0-0.5c0-4.8-0.2-9.7-0.4-14.5c-0.1-1.7-0.1-3.4-0.2-5.1l-0.2-4.9
	c-0.2-5.1-0.3-10.4-0.4-15.6c0-0.6,0-1.2-0.1-1.8c-0.1-1.3-0.1-2.6,0-3.9c0.1-1.4,0.1-1.4,0.6-2c0.1-0.2,0.3-0.4,0.6-0.7l0.7-1
	c1.3-1.7,2.5-3.3,3.5-5.2c4.6-8.4,8.5-18.6,12.3-32.1c0.8-3,1.7-5.9,2.5-8.9c1.6-5.7,3.3-11.6,4.9-17.5c-0.2,0.8,0.1,2.2,0.1,3.1
	c0,6.7,0.4,13.5,0.2,20.3c-0.2,5.7,0.1,11.5,0.4,17.1c0.3,6,0.6,12.3,0.4,18.4c-0.5,11.6-0.3,22.7,0,36.1c0.1,2.3,0.1,4.7,0.1,6.9
	c0,3.1,0,6.3,0.1,9.5l0,1.2c0.1,2.4,0.2,4.9,0.4,7.3c0.1,0.9,0.2,1.7,0.3,2.6c0.3,2,0.6,4.1,0.1,5.9c-0.7,3.1-9.8,2-14.1,1.5
	c-0.9-0.1-1.6-0.2-2.1-0.2c-0.2,0-0.4,0-0.7,0c-0.6,0-1.3,0-2.1,0.1c-2.2,0.1-5.4,0.2-6.3-0.4c-0.3-0.2-0.6-1.7-0.7-2.4
	c-0.1-0.5-0.2-0.9-0.3-1.2C285.5,459.3,285.4,459,285.2,458.6z M288.1,666.2c-0.5,5.1-1,10.3-1.6,15.5c-0.4-1.7-1-3.5-1.5-5.1
	c-0.6-1.8-1.1-3.6-1.6-5.3c-1.5-5.8-2.8-11.8-4-17.6l-0.8-3.9c-0.7-3.4-1.5-6.8-2.3-10.2c-2.3-10.2-4.7-20.8-6.3-31.4
	c-1.2-8.3-1.6-15-1.1-21.1c0.4-5.6,1.1-14.9,4.9-20.5c1.2-1.8,1.6-1.9,1.7-1.9h0c0,0,0.4,0.2,0.6,2.1c0.2,2.1,0.4,4.4,0.5,6.5
	c0.1,1.4,0.2,2.8,0.3,4.1c0.6,6.8,1,13.8,1.3,20.8c0.1,2.5,0.1,5.1,0.1,7.6c0,4.5,0.1,9.2,0.5,13.8c0.1,1.2,0.2,2.4,0.3,3.7
	c0.3,5.1,0.6,10.8,3.7,14.7c0,0,0.1,0,0.1,0.1c0.3-0.1,0.6-0.6,0.9-1.2c-0.2-2.1-0.5-4.3-0.8-6.4c-0.4-3.4-0.9-6.8-1.2-10.2
	c-0.5-4.9-0.5-9.9-0.5-14.7c0-2.9,0-5.8-0.2-8.7c-0.3-7.3-0.6-12.9-1-18.2c-0.1-1-0.2-2-0.3-3c-0.3-2.8-0.5-5.7-0.4-8.5
	c0-1.5,0.4-1.7,0.4-1.7c0.4-0.2,2,1.1,2.8,1.8c4.8,4.1,7.2,11.3,8.9,16.6c1.2,3.6,1.9,6.7,2.1,9.6c0,0.6,0.2,1.4,0.3,2.3
	c0.3,1.9,0.6,4.3,0.4,6c0.3,3.9,0.7,8.2-0.3,11.9c0,0.1,0,0.3,0,0.4c-0.1,0.6-0.1,1.2-0.1,1.8c-0.4,6.9-1.3,14.5-2.8,24
	C289.8,648.5,289,657.5,288.1,666.2z M293.1,732c0-1,0.1-1.9,0.1-2.7c0-1.7-0.1-3.3-0.2-5c-0.1-2.1-0.2-4.2-0.2-6.4
	c-0.1-7.9-0.4-16.4-1.2-24.9c-0.2-1.6-0.4-3.3-0.6-4.9c-0.6-4.3-1.2-8.7-0.6-13c0.8-5.8,1.3-11.8,1.9-17.6c0.6-5.9,1.1-12,1.9-18
	l1.4-10.6c0.3-2.7,0.5-5.4,0.7-8.1c0.2-2.8,0.3-5.8,0.7-8.6c2.2,4.5,5.1,8.7,8,12.8c2.7,3.9,5.5,7.9,7.6,12.1
	c1.6,3.1,1.6,7.8,1.6,11.9c0,1.8,0,3.5,0.2,5c0.2,2.7,0.4,5.3,0.6,8c0.3,3.9,0.6,7.9,1,11.8c0.4,4,0.9,8,1.4,12
	c1.1,8.7,2.3,17.7,1.9,26.4c-0.2,4.1-0.6,8.3-1.1,12.4l-0.2,1.7c-0.4,3.3-0.5,6.5-0.6,9.2c0,0.6,0,1.1,0,1.6c0.1,0.9,0.1,1.7-0.2,2
	c-0.2,0.2-0.7,0.3-1.5,0.2c-2.1-0.3-4.4-0.1-6.6,0.2c-1.6,0.2-3.3,0.3-4.8,0.3c-0.9,0-2.1,0.1-3.3,0.3c-2.8,0.4-6,0.8-7.1-0.9
	C292.9,737.4,293,734.6,293.1,732z M324.3,812.9c0.2,0.7,0.3,1.3,0.5,1.8c0,0.1,0.1,0.3,0.1,0.4c-0.2,0.3-0.5,0.5-0.9,0.7
	c-5.3,0.4-18.1,1.1-20.9,0.3c-0.1-0.7-0.2-1.5-0.4-2.6c-0.1-0.5-0.2-0.9-0.2-1c-0.2-1.8-0.6-3.4-1-5.1c-0.1-0.5-0.2-0.9-0.3-1.4
	c-0.6-2.9-0.9-6-1.1-9c-0.1-1.1-0.2-2.2-0.3-3.3c-0.3-2.8-0.4-5.7-0.6-8.6c-0.4-6.2-0.8-12.6-1.9-18.8c-0.7-3.8-1.2-6.7-1.6-9.4
	c-0.1-0.6-0.2-1.3-0.4-2.1c-0.7-3.3-1.7-7.9,0.7-9.9c1.5-1.3,4-1.2,6.3-1.1c0.6,0,1.3,0.1,1.8,0l0.2,0c3.6,0,6.9-0.1,10.5,0.5
	c0.3,0.1,0.7,0.1,1,0.1c1.5,0.2,2.6,0.3,3.2,2c0.8,2.1,0.4,4.9,0.1,7.7c-0.2,1.8-0.4,3.5-0.3,5c0.4,6.3,1,12.6,1.5,18.8
	c0.3,3.6,0.7,7.1,1,10.7c0.1,1.1,0.2,2.2,0.3,3.3C322.1,799,322.6,805.8,324.3,812.9z M324.3,664.4c-0.2,0.8-0.4,1.6-0.5,2.3
	l-0.3,1.6c-1.1,6.5-2.2,13.2-2.8,19.9c-0.8-7.1-1.5-14.4-2.1-21.6c-0.4-4.1-0.7-8.3-1-12.4c-0.1-0.7-0.2-1.7-0.3-2.9
	c-0.3-2.3-0.7-5.2-0.5-6.9c0.6,1,1.1,2,1.6,3c1.3,2.4,2.6,4.8,4.1,7.1c0.2,0.3,0.4,0.6,0.6,0.9c0.9,1.3,1.8,2.6,1.9,4
	C325.1,660.9,324.7,662.6,324.3,664.4z M374.5,676.3l0.3,0.7c1.2,2.5,2.5,5,3.8,7.5c2.6,5.1,5.3,10.3,7.4,15.6
	c-2.9-2.7-5.6-5.7-8.3-8.6c-1.9-2-3.8-4.1-5.7-6.1c-6.5-6.6-11.7-12-16.4-16.9c-0.9-0.9-1.8-1.9-2.7-2.8
	c-9.3-9.6-22.1-22.8-20.7-36.6c0.1-0.8,0.3-1.8,1.2-2.6c3.2,3.5,6,7.7,8.6,11.8c1.6,2.4,3.2,4.9,4.9,7.1c0.4,0.5,1.4,2.1,2.7,4.1
	c12.7,19.2,15.7,22.3,17,21.5c0.1-0.1,0.3-0.2,0.3-0.5c0.1-0.6,0.4-2.1-12.6-20.5l-0.4-0.6c-1.9-2.7-3.9-5.4-5.9-8c-1-1.3-2-2.7-3-4
	c-1.6-2.2-3.3-4.5-5-7c-0.1-0.1-0.2-0.3-0.4-0.5c-2.1-2.6-2.7-3.7-2.9-4.2c2.5-0.3,5.5,1.8,7.6,3.4c3.2,2.4,5.9,5.7,8.5,9
	c5.3,6.7,9.4,14.3,12.8,20.8C368.8,664.4,371.7,670.4,374.5,676.3z M431,660.5c-8.3-1.7-16.9-3.5-25.5-4.8l-5.2-0.8
	c-11.7-1.8-23.8-3.6-35.7-5.6c-3.2-5.7-7.1-11.2-11.3-16.1c8.5,2.1,17,4.7,25.2,7.1c7.8,2.4,16,4.8,24.1,6.9
	c13.5,3.4,27.5,8.8,40.4,15.8C439,662.2,434.9,661.3,431,660.5z M389.2,632.1c19,7,37.2,16.2,53.1,26.7c-2.1-1.1-4.2-2.2-6.5-3.1
	c-1.9-0.8-3.9-1.6-5.8-2.4c-3.5-1.4-7.2-2.9-10.8-4.3c-5.5-2-11.2-3.5-16.7-5c-3.2-0.9-6.6-1.8-9.9-2.8c-4.1-1.2-8.3-2.6-12.3-3.8
	c-6.1-1.9-12.3-3.9-18.5-5.6c-2.1-0.6-4.3-1.1-6.5-1.6c-0.7-0.1-1.3-0.3-2-0.4c-2.9-0.7-4-1.3-6.3-3.1c-2.5-2-6.7-5.4-10.9-5.4
	c-1,0-2,0.2-2.9,0.6c3.9-4.4,16.2-1.5,22.4,0c0.7,0.2,1.4,0.3,1.9,0.4C369.4,625.1,380.2,628.8,389.2,632.1z M462.2,564.8
	c-1,0.5-2,1-2.9,1.6c-3.2,2-6.2,3.9-9.2,5.7c-1.7,1-3.4,2-5,2.9c-2.2,1.3-4.5,2.6-6.8,4c-9.7,5.9-20.5,11.8-33.8,18.7
	c-2.6,1.3-5.4,2.6-8,3.8c-3.8,1.8-7.8,3.6-11.5,5.7c-1.1,0.7-2.3,1.3-3.5,2c-4.1,2.4-8.4,4.9-12.7,6.7c-0.9,0.4-1.8,0.7-2.6,1
	c-1.6,0.6-3.1,1.2-4.7,2c-2,1-3.6,0.6-5.6,0.2c-0.4-0.1-0.8-0.2-1.3-0.3c-6-1.2-12.1-2-17.5-2.1c4.8-3.4,10-5.9,15.4-8.5l1.8-0.9
	c3.3-1.6,6.6-3.3,9.8-5c4.3-2.3,8.8-4.6,13.3-6.6c15.1-6.9,27.5-11.9,39.3-15.8c0.2-0.3,0.3-0.7,0.2-1l-0.1,0
	c-4.6-1-9.2,0.7-13.7,2.4c-0.9,0.3-1.7,0.7-2.6,1c-8,2.8-16.7,6.7-27.3,12.2l-0.7,0.3c-5.7,2.9-11.5,6-17.5,8.7
	c-3.4,1.5-6.7,3.2-10.6,5.1l-1.4,0.7c-1.5,0.8-3.1,1.6-4.7,2.4c-0.3,0.1-0.6,0.4-1.1,0.7c-0.5,0.4-1.7,1.2-2.2,1.3
	c-0.2-3.5,4.8-6.9,7.6-8.7l0.3-0.2c4.5-3,9.1-5.6,13.4-8c7-3.9,13.9-7.1,21.3-10.4c1.6-0.7,3.2-1.5,4.8-2.2
	c13.9-6.4,28.9-10.3,43.5-14.1l3.6-0.9c5.7-1.5,11.7-2.9,18.4-4.2c2.6-0.5,5.2-0.9,7.8-1.4l1.1-0.2c1.9-0.3,4-0.6,5.9-0.9
	c0.3,0,0.7-0.1,1.2-0.3c0.8-0.2,2.2-0.5,3.1-0.5h0C466,562.9,464.1,563.8,462.2,564.8z"/>
</svg>
