<?xml version="1.0" encoding="utf-8"?>
<!-- Generator: Adobe Illustrator 21.1.0, SVG Export Plug-In . SVG Version: 6.00 Build 0)  -->
<svg version="1.1" id="Слой_1" xmlns="http://www.w3.org/2000/svg" xmlns:xlink="http://www.w3.org/1999/xlink" x="0px" y="0px"
	 viewBox="0 0 595.3 841.9" style="enable-background:new 0 0 595.3 841.9;" xml:space="preserve">
<g>
	<path d="M170,267.9c3.7-2,7.4-4.2,10.9-6.4c2.8-1.7,5.6-3.4,8.5-5c12-6.8,22.8-12.8,33.8-18.4c5.3-2.7,10.7-5.8,15.8-8.7
		c5.8-3.3,11.7-6.6,17.8-9.7c0.3-0.1,0.6-0.2,0.9-0.4c1.1-0.4,1.2-0.6,1.1-0.9c-0.2-0.5-1.3-1.1-3.4-1.8l-0.1,0
		c-1.4-0.5-2.7-0.6-4.1-0.6c-1.1,0-2.2,0.1-3.4,0.2c-0.4,0-0.8,0.1-1.2,0.1c-0.5,0-1,0.1-1.5,0.1c-2.9,0.2-5.6,0.3-8.3,1.5
		c-1.7,0.8-3.5,1.6-5.2,2.4l-1.2,0.6c-13.7,6.6-25.4,13.5-35.6,21.2c-7.9,6-15.8,12.4-23.4,18.5c-5.7,4.6-11.5,9.3-17.4,13.9
		c1.3-0.5,2.6-1,3.8-1.5C162,271.6,166.2,270,170,267.9z"/>
	<path d="M173.8,145.3c6.1,1.8,11.8,3.4,17.8,4.5c1.7,0.3,3.4,0.7,5.2,1.1c3.9,0.9,8,1.8,11.8,1.8c5.6,0,11.4,0.8,17.1,1.7
		c3.6,0.5,7.3,1.1,10.9,1.4c5.9,0.5,10.7,0.6,15.1,0.3c4.3-0.3,9-1.3,9.6-2.5c-10.8-3.2-22.3-4.5-33.4-5.6
		c-6.4-0.7-12.9-1.4-19.3-2.4c-0.8-0.2-1.6-0.3-2.4-0.6c-0.6-0.2-1.2-1-0.6-1.6c0.3-0.3,1-0.3,1.6-0.3c4.4,0.7,8.9,1,13.4,1.3
		c3.4,0.2,7,0.5,10.4,0.9c3.8,0.5,7.6,1.1,11.3,1.7l1.3,0.2c1.8,0.3,3.6,0.6,5.5,1c1.5,0.3,3,0.6,4.5,0.8c0.5,0.1,1.1,0.2,1.7,0.3
		c1.7,0.4,3.5,0.8,5,0.5c-0.3-1.2-3.3-3-5.4-3.9c-3-1.3-6.1-2.5-9.3-3.6c-4.9-1.6-10.6-3.4-16.6-4.6c-12.9-2.5-26.1-3.8-38.6-5
		c-15.2-1.4-30.6-0.1-45.4,1c-2.8,0.2-5.7,0.5-8.5,0.7c8.7,2.9,17.7,5.4,26.4,7.9C166.5,143.2,170.2,144.2,173.8,145.3z"/>
	<path d="M124.5,189.3c1.2,0.5,2.4,0.9,3.7,1.2c1.3,0.5,2.5,1,3.8,1.5c3.7,1.4,7.5,2.7,11.3,4l2.3,0.8c13.2,4.5,27,7.8,39.1,10.8
		c12.1,2.9,23,4.7,33.2,5.5c5.5,0.4,11.1,0.4,16.5,0.5c1.5,0,3,0,4.5,0c0.7,0,1.5,0,2.4,0.1c5.1,0.2,12.1,0.4,15.7-2.3
		c-1.7-1.1-4.5-1.4-6.8-1.7c-1-0.1-1.9-0.2-2.7-0.4c-4.4-0.9-8.1-1.6-11.5-2.1c-3.3-0.5-6.6-0.8-9.8-1.2c-4.3-0.4-8.7-0.9-13-1.7
		c-7.5-1.5-15-2.9-22.5-4.3c-5.2-1-10.3-1.9-15.5-2.9c-3.7-0.7-7.4-1.5-10.8-2.3c-0.8-0.2-1.6-0.3-2.5-0.5c-1.9-0.3-3.8-0.6-5.4-1.3
		c-0.1-0.1-0.3-0.1-0.4-0.1c-0.6-0.2-1.6-0.4-1.4-1.6c0.1-0.3,0.2-0.6,0.5-0.8c1-0.7,3.4-0.1,5.5,0.6c0.3,0.1,0.5,0.2,0.7,0.2
		c7.1,1.5,14.4,2.8,21.4,4.1c4.6,0.8,9.3,1.6,13.9,2.5c2.7,0.5,5.4,1.1,8,1.7c2.7,0.6,5.4,1.2,8.2,1.7c4.7,0.9,9.5,1.4,14.2,1.9
		c1.7,0.2,3.5,0.4,5.2,0.5c4.9,0.6,9.9,1.5,14.8,2.4c1.4,0.3,2.8,0.5,4.3,0.8c0.3,0.1,0.8,0.2,1.3,0.3c1.5,0.4,4.6,1.1,5.4,0.6
		c0.1,0,0.1-0.1,0.1-0.2c0.1-0.4-0.3-1.8-4.6-5.7c-1.9-1.7-4-2.7-6.2-3.7c-0.5-0.2-0.9-0.5-1.4-0.7c-5.4-2.7-10.8-4.9-16.5-6.7
		c-14.4-4.7-27.4-7.1-40.9-7.7c-13.1-0.5-26.2,0.2-40.7,1.3c-2.2,0.2-4.5,0.3-6.7,0.4c-4.2,0.3-8.5,0.6-12.7,0.9c-0.5,0-1.3,0-2.2,0
		c-1.3,0-3.1,0-4.5,0.2c-0.4,0-0.8,0.1-1.2,0.2c0,0-0.1,0-0.1,0c-0.2,0-0.5,0.2-0.5,0.5C119.9,188.1,123.1,188.7,124.5,189.3z"/>
	<path d="M175.6,565.5c9.7,2.1,20.9,3.4,30.9,3.4c5,0,9.2-0.3,13.1-0.8l0.8-0.1c3.5-0.5,9.2-1.3,11.1-4.3c-1.8-1.5-5.3-2.3-8.5-3
		c-1.5-0.3-3-0.7-4.1-1c-5.4-1.8-10.6-3.2-15.7-4.2c-9.8-1.9-20.2-3.2-33.9-4.2c-16.9-1.2-34-1.8-50.5-2.4l-4.9-0.2
		c5.3,2.6,10.8,4.4,16.5,6.3c2.4,0.8,4.8,1.6,7.3,2.5c8,2.9,16.4,4.3,24.5,5.7C166.7,563.7,171.2,564.5,175.6,565.5z"/>
	<path d="M153.6,492.1c1-0.4,2.3,0.7,4.4,2.8c0.2,0.2,0.4,0.4,0.5,0.5c2.7,2.3,5.6,4.4,8.5,6.4c0.9,0.6,1.7,1.2,2.6,1.8
		c6.7,4.9,13.9,9.6,21.1,14.1c1.2,0.7,2.4,1.4,3.5,2.1c3.7,2.2,7.5,4.5,11,7.3c1,0.9,2.1,2,3.1,3.3c1.7,1.9,3.4,3.9,5.3,4.8
		c1.6-4.3-2-11.2-10.9-20.4c-6.2-6.5-13.4-12.4-20.8-17.2c-8.4-5.4-17.7-9.1-26.7-12.6c-7.3-2.9-14.9-5.8-21.9-9.7
		c-1.3-0.7-2.6-1.3-3.8-1.8c1.5,1.6,3,3.2,4.5,4.8c7.5,8.1,15.3,16.5,22.7,25c11.1,12.8,28.2,30.3,49.1,33.9c0.1,0,0.3,0.1,0.5,0.1
		c3.8,0.7,4.7,0.6,4.9,0.4c-0.1-0.2-1.1-1.2-1.5-1.6c-0.2-0.2-0.4-0.3-0.5-0.4l-0.6-0.6c-2.9-3-5.8-6.2-9.4-8.5
		c-8.1-5.2-16.6-10.7-26-16.6c-4-2.5-7.9-5.5-11.6-8.3c-0.4-0.3-1-0.7-1.7-1.2c-3.9-2.6-7.3-5.1-7.2-7.2
		C153,492.5,153.3,492.2,153.6,492.1z"/>
	<path d="M130.3,546.3c1.9,0,3.9-0.1,5.8-0.1c2.6,0,5.2,0.1,7.7,0.3c5.7,0.6,11.5,0.9,17.1,1.2c3.3,0.2,6.7,0.4,10.1,0.6
		c22.1,1.5,40.6,5,58.3,10.9c-2-2.3-6.4-4.5-8.8-5.8l-0.5-0.3c-4.4-2.3-9.2-3.8-12.5-4.7c-15.9-4.2-32.8-4.6-47.7-4.9
		c-14.4-0.4-30.6-0.8-46.1,2.1C119,546.5,124.7,546.4,130.3,546.3z"/>
	<path d="M194.7,99.5c7.8,7.7,16.8,14.8,27.6,21.8l1,0.6c4.2,2.7,8.5,5.5,13.3,7.2c0.4,0.1,0.9,0.4,1.6,0.6
		c2.9,1.2,9.7,3.9,11.6,2.5c-0.5-0.7-2.7-2.1-3.6-2.7c-0.5-0.3-1-0.6-1.2-0.8c-2.1-1.6-4.1-3.1-6.2-4.7l-4.1-3.2c-2.6-2-5.2-4-7.7-6
		c-2.1-1.6-4.2-3.3-6.3-5c-2.1-1.7-4.3-3.4-6.4-5c-1.9-1.5-3.3-2.8-4.5-4.9c0,0,0,0,0,0c0-0.2,0.1-0.4,0.3-0.6
		c0.2-0.2,0.4-0.2,0.6-0.2l11.8,8.8c3.1,2.3,6.3,4.7,9.3,7.1c2.1,1.6,4.2,3.2,6.3,4.8c2.7,2.1,5.7,4.3,8.8,6.4
		c0.3,0.2,0.6,0.4,0.9,0.7c1.1,0.8,2.6,2,3.8,2.1c-0.1-3.6-4-8.1-6.6-11.1c-0.5-0.6-1-1.2-1.4-1.7c-3.3-4-6.2-6.9-9.4-9.4
		c-4.1-3.2-8.2-6.5-12.2-9.7c-3.7-3-7.6-6.2-11.4-9.1c-18.9-14.6-38.2-27.5-57.3-38.3c0.8,1.1,1.6,2.2,2.5,3.2
		C167.8,68.9,180.4,85.4,194.7,99.5z"/>
	<path d="M355.8,271.6c0.1,0,0.2,0,0.3,0l0.5,0.6c3,3.5,4.4,7.6,5.9,11.9c0.3,0.7,0.5,1.5,0.8,2.2c1,2.8,2,5.7,2.9,8.7
		c0.2,0.6,0.3,1.3,0.5,2c0.4,1.7,0.8,3.4,1.8,4.7c0.5-0.6,1.1-1.2,1.6-1.8c1.1-1.2,2.2-2.4,2.8-3.7c1-2-0.1-5.1-0.9-7.5
		c-0.1-0.3-0.2-0.6-0.3-0.9c-1.6-4.9-4.2-9.6-6.7-14.2c-1-1.9-2.1-3.8-3.1-5.7c-2.4-4.7-4.5-9.5-6.6-14.2
		c-2.8-6.5-5.7-13.1-9.3-19.3c0.1,2.4,0.3,4.8,0.5,7.1c0.2,2.6,0.4,5.3,0.5,7.9l0,0.9c0.1,5.7,0.3,11.6,1,17.4
		c0.4,3,0.8,6.1,1.1,9.1c1.6,14.2,3.4,28.8,9.2,41.5c0.7-1.1,1.3-2.2,1.9-3.3c0.3-0.6,0.7-1.2,1-1.8c0.4-0.7,1-1.5,1.5-2.3
		c0.9-1.3,1.9-2.7,2.3-4c0.5-1.3,0-2.9-0.5-4.4c-0.2-0.6-0.4-1.2-0.5-1.8c-0.2-0.8-0.3-1.7-0.5-2.5c-0.3-1.6-0.7-3.3-1.1-4.9
		c-1.3-4.7-2.9-9.4-4.5-13.9c-0.7-2.2-1.5-4.4-2.2-6.6l-0.1-0.5C355.6,272,355.6,271.7,355.8,271.6z"/>
	<path d="M415.2,114.5c-0.3-0.2-0.6-0.3-0.9-0.5l-2.2-1.2c-2.2-1.2-4.4-2.4-6.7-3.6l-5.2-2.6c-4.6-2.3-9.2-4.6-13.8-7
		c-8.4-4.3-14.9-7.3-21.1-9.8c-1.7-0.7-3.6-1.6-5.3-2.4c-3.3-1.6-6.6-3.2-9.9-3.9c0.7,2.7,5.4,5.6,7.7,7.1l0.7,0.4
		c1.6,1,3.2,2.1,4.7,3.2c1.7,1.2,3.5,2.5,5.3,3.6c8,4.9,16.8,8.4,25.4,11.7c5,2,10.3,3.5,15.4,4.9c4.1,1.2,8.4,2.4,12.5,3.9
		c2,0.7,4,1.5,6,2.3c2,0.8,4.2,1.7,6.3,2.4c1.5,0.5,3.1,1,4.7,1.5c2,0.6,4.1,1.2,6.1,2c-2-2-4.5-3.9-7-5.7c-1.2-0.9-2.3-1.7-3.4-2.6
		c-3.5-2.7-7.2-5.6-11.8-9.1c-2.9-2.2-6-4.2-8.9-6.1l-1.5-1c-7.8-5.1-17.1-10.3-26.9-14.8c-0.7-0.3-1.4-0.7-2.1-1
		c-5.1-2.4-9.9-4.7-15.7-5.5c-3.7-0.5-7.2-0.9-10.5-1c-0.4,0-0.8,0-1.3-0.1c-1.5-0.1-3.6-0.3-4.8,0.2c3.1,2.6,7.5,4.1,11.7,5.5
		c1.9,0.6,3.6,1.2,5.3,1.9c7.4,3.1,13.7,6.1,19.5,9.1c2.7,1.4,5.6,2.8,8.3,4.2c8.2,4,16.6,8.2,23.7,13.6c0.2,0.2,0.3,0.5,0.3,0.8
		c0,0.2-0.2,0.5-0.4,0.7C417.7,116,416.4,115.2,415.2,114.5z"/>
	<path d="M402.2,293.3L402.2,293.3c1.6-3,3.2-5.9,4.9-8.8c2.3-4,4.6-8.1,6.6-12.3l2.2-4.5c2.5-5.3,5.1-10.7,7.8-16.1
		c-5.1,4.1-10.2,8.6-15.1,12.9c-2.1,1.8-4.1,3.6-6.2,5.4c-7.9,6.9-15.5,14.6-22.6,22.8c-6.7,7.7-11.9,15-16.4,22.8l-0.5,0.8
		c-2.3,4-4.7,8.1-6.6,12.3c-0.2,0.4-0.4,0.9-0.7,1.5c-1.1,2.2-2.9,5.6-2.5,7.5c6.1-6.3,10.8-13.8,15.3-21c1.5-2.4,3.1-5,4.7-7.4
		c0.1-0.2,13.3-19.8,17.8-20.6c0.1,0,0.2,0,0.3,0c0.2,0,0.4,0.1,0.6,0.2c0.2,0.2,0.3,0.5,0.3,0.7l0,0.1c-2.7,4.3-6,8.3-9.2,12.2
		c-2.9,3.4-5.8,7-8.3,10.8c-1.8,2.8-3.6,5.7-5.3,8.4c-1.5,2.4-3,4.9-4.6,7.3c-1.8,2.8-3.4,5.1-5.1,7.2c-0.3,0.3-0.6,0.7-0.9,1.1
		c-0.7,0.8-1.5,1.6-2,2.5c4.1-0.3,8.4-3.9,11.6-6.6c0.4-0.4,0.9-0.7,1.3-1.1c4.2-3.4,7.8-6.6,11.3-9.9
		C389.4,313.2,397,303.3,402.2,293.3z"/>
	<path d="M261.6,222.8c-0.1-0.4-0.4-0.7-0.9-1c-0.1-0.1-0.3-0.1-0.4-0.1c-1.3,0-3.8,1.5-5.2,2.2c-0.4,0.2-0.7,0.4-1,0.6
		c-3.3,1.7-6.6,3.7-9.9,5.5c-3.1,1.8-6.3,3.7-9.6,5.4c-13.7,7.2-28.3,15-42.4,23c-3.3,1.9-6.6,3.9-9.8,5.8c-3.1,1.9-6.3,3.8-9.5,5.7
		c-4.3,2.5-8.9,4.3-13.4,6.1c5.6-0.7,11.1-2.2,16.9-3.8c15.6-4.4,31.7-8.9,46.9-17.2c10.5-5.7,25.5-14.8,35.4-27.4
		c0.1-0.2,0.3-0.3,0.4-0.5C260.3,225.9,261.9,224.1,261.6,222.8z"/>
	<path d="M336.5,426.5c0-2.3-0.1-4.7-0.1-6.9c-0.1-3-0.2-6.1-0.1-9.2c0.1-2.4,0.4-4.6,1.3-7.5c0.6-2.1,1.1-4-0.1-5.7
		c-1.2-1.7-3.5-1.7-5.9-1.7c-0.7,0-1.5,0-2.2,0c-1.2-0.1-2.4-0.2-3.6-0.3c-1.7-0.2-3.5-0.3-5.2-0.4c-0.6,0-1.3-0.1-2-0.1
		c-4.4-0.4-7.8-0.4-8.1,2.8c-0.2,1.8,0,3.7,0.3,5.6c0.1,1.1,0.3,2.3,0.3,3.3c0.1,2.5,0.2,5,0.3,7.4l0,0.2c0.1,2.8,0,5.7,0,8.5
		c0,2.1-0.1,4.3,0,6.4l0,2.5c0.1,10.7,0.3,21.8-0.3,32.7c-0.3,6.4-0.3,12.7-0.1,18.1c0,2,0.2,4,0.3,6c0.2,3.3,0.5,6.7,0.3,10
		c-0.2,2.5-0.1,5,0,7.4c0.1,2.8,0.2,5.8-0.1,8.6c-0.2,2.1-0.3,4-0.3,6.1l0,0.5c0,1.2-0.3,2.4-0.6,3.6c-0.3,1.3-0.6,2.6-0.6,3.8
		c0.2,4.5,8.1,4.6,11.5,4.7c1.4,0,2.7,0,4.1,0c1,0,1.9,0,2.9,0c0.2,0,0.4,0,0.7,0c0.5,0,1,0.1,1.6,0.2c1.4,0.2,3.4,0.5,4.2-0.3
		c0.9-0.9,0.5-2.5,0.1-4c-0.1-0.6-0.3-1.1-0.3-1.6c-0.2-1.8-0.2-3.6-0.2-5.4c0-0.7,0-1.4,0-2.1c-0.1-4.8,0.2-9.7,1.1-16.3
		c2.3-18.5,2-37.6,1.6-56.1C336.7,440.4,336.5,433.4,336.5,426.5z"/>
	<path d="M330.9,536.8c-0.4,0-0.7,0-1-0.1c-2.6-0.2-5-0.2-7.6-0.2l-1.2,0c-1,0-2.2-0.1-3.5-0.3c-1.3-0.1-2.7-0.3-3.9-0.3
		c-2.8,0-5.1,0.7-5.8,3.8c-0.4,1.7-0.1,3.9,0.1,5.8c0.1,0.7,0.2,1.4,0.2,2.1c0.1,0.9,0.1,1.9,0.2,2.8c0.2,2.2,0.4,4.5,0.5,6.8
		c0.3,6.4,0.4,12.9,0.5,18.4c0.3,25.1-0.5,49.7-1.2,68.3c-0.1,2.1,0,4.3,0,6.4c0.1,3.7,0.2,7.5-0.4,11.2c-0.4,2.3-0.6,4.5-0.8,7.1
		c0,0.5-0.2,1.1-0.3,1.7c-0.3,1.4-0.7,3.1-0.1,4c0.8,1.1,4.7,1.5,6.5,1.6c0.4,0,0.7,0.1,1,0.1c2.6,0.3,4.8,0.6,7.1,0.9
		c0.5,0.1,1,0.2,1.5,0.3c2.4,0.4,5.1,0.9,6.4-0.2c0.7-0.6,1-1.5,1.1-2.9c0-1.7-0.2-3.5-0.5-5.3c-0.2-1.4-0.5-2.8-0.5-4.2
		c-0.1-2.3-0.1-4.8,0-7.8c0.1-4.1,0.4-8.3,0.6-12.3c0.1-1.4,0.2-2.9,0.2-4.3c0.6-11.2,1.1-22.3,0.7-33.4
		c-0.5-13.6-0.4-24.2,0.6-34.3l0.2-2.7c0.4-4.7,0.9-9.5,1-14.2c0-0.7,0-1.3,0-2c0.1-4.6,0.2-9.4,2.7-13.7c0.6-0.9,0.7-1.7,0.5-2.1
		C335.2,537,332.5,536.9,330.9,536.8z"/>
	<path d="M319.6,680.4c-0.7-0.1-1.3-0.1-1.8-0.2c-1-0.1-2.1-0.3-3.2-0.5c-2.1-0.3-4.2-0.7-6.2-0.6c-0.8-0.2-1.8-0.3-2.5,0
		c-0.3-0.1-0.6,0-0.9,0.2c-1.2,1-1.2,2.7-0.9,4.3c-0.3,2.3-0.1,4.8,0.2,7.2c0.1,1,0.2,2,0.3,3c0.3,4.5,0.2,9.4-0.1,15.5
		c-0.5,10.2-0.9,20.5-1.2,30.1c-0.1,3.6-0.3,7.2-0.5,10.7c-0.3,5.6-0.6,11.4-0.6,17.1l0,1.8c0,8.2,0,15.9-1.2,24
		c-0.3,2,0,3.4,0.8,4.3c1.4,1.6,4.4,1.6,7.5,1.6c1.4,0,2.8,0,4.2,0.2c0.6,0.1,1.5,0.2,2.4,0.4c2.9,0.6,7.3,1.5,8.9,0.1
		c1.6-1.3,0.9-4.3,0.4-6.5c-0.1-0.5-0.2-1-0.3-1.4l-0.3-1.6c-0.8-4.2-1.5-8.2-1.3-12.4c0.1-2.6,0.4-5.3,0.8-7.8
		c0.2-1.3,0.4-2.7,0.5-4c0.4-3.7,0.8-7.4,1.3-11.1c0.6-4.6,1.2-9.4,1.6-14c1.5-16.3,2.8-33.8,4.1-53.7
		C331.8,681.4,324.4,680.8,319.6,680.4z"/>
	<path d="M336.7,268.6c0.8-3.4,1.9-8-0.3-9.6c-0.9-0.6-2.5-0.4-3.9-0.2c-0.5,0.1-1,0.1-1.4,0.2c-2.2,0.1-4.6,0.2-7.5,0
		c-0.6,0-1.3-0.1-2-0.1c-1.4-0.1-3-0.1-4.3-0.1c-0.7,0-1.3,0-1.8,0.1c-0.3,0-0.8,0-1.2,0.1c-1.4,0-3.3,0.1-4.1,0.8
		c-2.1,2-0.7,8.1,0.1,11.7c0.2,1,0.4,1.9,0.5,2.5v0c0.6,4.2,0.8,8.5,0.9,12.6c0.1,2.3,0.1,4.6,0.3,6.9c0.1,1.7,0.2,3.3,0.4,5
		c0.3,4.4,0.7,9,0.7,13.5c0,6.1,0.1,12.3,0.3,18.4c0.1,6.3,0.3,12.9,0.3,19.3c0,10.6-0.3,21.6-1,32.5c0,0.7-0.2,1.6-0.4,2.5
		c-0.4,1.7-0.9,3.9-0.3,4.8c0.6,1,2.5,1.2,3.8,1.3c0.2,0,0.5,0,0.6,0.1l0.4,0c4.7,0.5,9.7,1,14.4,1.1c4,0.1,4.2,0.1,4.5-3.8
		c0.1-1.1-0.3-2.3-0.7-3.4c-0.2-0.7-0.5-1.4-0.6-2.2c-0.5-2.8-0.8-5.9-0.6-9c0.3-6.5,0.3-13.2,0.4-19.6c0-4.2,0-8.6,0.1-12.9
		c0.1-4.8,0.4-9.6,0.7-14.3c0.4-6.8,0.8-13.8,0.7-20.7c0-2.2-0.1-4.5-0.2-6.7c-0.2-9.1-0.5-18.5,0.7-27.8
		C336.2,270.6,336.4,269.7,336.7,268.6z"/>
	<path d="M368.3,485.9c-1.2-5.3-2.4-10.7-4.3-15.8c-1.8,2.8-1.8,7.5-1.8,11.1c0,0.6,0,1.2,0,1.7c-0.1,5.1,0.3,10.6,1.1,16.4
		c1.2,8.6,4.2,17,6.9,24.1c3.6,9.5,8.7,18.6,13.7,27.3c2.3,4,4.6,8,6.7,12.1c-7.8-23.4-14.7-46.6-20.5-69.2
		C369.5,491.1,368.9,488.5,368.3,485.9z"/>
	<path d="M392.5,541.9c-1-5.3-2.3-10.7-3.6-15.8c-0.7-2.8-1.4-5.7-2.1-8.5c-2-8.7-4.7-17.5-8.3-26.9l-0.2-0.4
		c-5.1-13.6-9.3-22.1-11.2-22.8c0.4,3.9,1.6,7.9,2.7,11.7c0.6,2,1.2,4,1.7,5.9c1.6,6.7,3.4,13.4,5.2,19.9l1,3.8
		c2,7.6,4.2,15.6,6.6,23.2c1,3.2,2,6.3,3,9.5c3.1,9.6,6.3,19.5,9.6,29.3c-0.4-7.2-1.8-14.6-3.2-21.8
		C393.3,546.6,392.9,544.2,392.5,541.9z"/>
	<path d="M479.8,522.3c-0.5-0.5-0.9-0.9-1.2-1.3l-1.3-1.6c-1.3-1.5-2.5-3.1-3.9-4.7c-2.4-2.8-4.9-5.5-7.4-8.2l-2-2.2
		c-6.3-6.9-13.1-14.3-20.2-21.1l-1.1-1.1c-5.7-5.5-11-10.7-17.3-15.2c-0.6-0.4-1.4-1-2.1-1.7c-2.8-2.3-6.7-5.4-9.3-5.1
		c-0.8,0.1-1.9,0.7-2.8,1.3c-0.5,0.3-1,0.6-1.5,0.8c-1.2,0.5-2.4,1-3.6,1.4c-0.5,0.2-1,0.3-1.5,0.5c0.9,0.8,2.2,1.5,3.5,2.2
		c0.9,0.5,1.8,1,2.6,1.5c1.9,1.3,3.7,2.8,5.5,4.2c0.8,0.6,1.6,1.3,2.4,1.9c2.5,1.9,5.1,3.8,7.6,5.6c1.6,1.1,3.1,2.3,4.7,3.4
		c0.5,0.4,1.6,1.1,3,2.2c18.7,13.1,25.5,19.1,24.1,21.3c-0.2,0.1-0.5,0.1-0.7,0.2l0,0c-8.4-6.1-16.8-12.5-25-18.7
		c-4.3-3.2-8.5-6.4-12.8-9.6c-1.1-0.8-2.2-1.7-3.3-2.5c-2.8-2.2-5.7-4.4-8.7-6.3c-0.5-0.3-1-0.6-1.4-0.9c-2.8-1.8-5.1-3.3-8.4-2.5
		l-0.5,0.1c-3,0.7-6,1.5-9.1,1.4c0.1,0.2,0.3,0.4,0.4,0.6c0.1,0.1,0.2,0.3,0.2,0.3c1.3,1.5,2.8,3.2,4.8,5c3.1,2.9,6.4,5.5,9.6,7.8
		c5.3,3.9,11.1,7.5,16.7,10.9c2.2,1.3,4.3,2.6,6.5,4c12,7.5,25,13.8,37.6,19.9c1.9,0.9,3.8,1.8,5.7,2.8l0,0c1.1,0.5,2.1,1.1,3.2,1.7
		c3,1.6,6,3.2,9.1,4C481.2,523.7,480.4,523,479.8,522.3z"/>
	<path d="M419.9,425.2c-9.1,4-18.6,8.5-27.4,14.9c-1.5,1.1-3.1,2.1-4.6,3.1c-2.5,1.6-5,3.2-7.3,5.2c-0.4,0.4-1,0.8-1.6,1.3
		c-2.4,1.9-6.1,4.7-6.1,7.3c2.4-0.6,5.2-2.6,7.6-4.3c1.1-0.8,2.2-1.6,3.2-2.2c4.2-2.5,8.5-4.8,12.7-7c1.1-0.6,2.2-1.2,3.4-1.8
		c10.6-5.6,21.1-10.8,31.7-12.8c0.3,0.3,0.6,0.7,0.6,1.1c-2.6,2-5.7,3.3-8.7,4.5c-1.1,0.4-2.1,0.8-3.1,1.3c-1.2,0.5-2.4,1.1-3.7,1.6
		c-4.3,1.9-8.8,3.8-13,6.2c-3.1,1.8-6.4,3.5-9.5,5.2c-6.5,3.5-13.2,7.2-19.5,11.3l0,0c-0.2,0.1-0.3,0.3-0.3,0.3c0,0.1,0.3,0.9,4,2.1
		l0.2,0.1c1.2,0.4,2.3,0.4,3.5,0.5c0.6,0,1.3,0,2,0.1c0.7,0.1,1.4,0.2,2,0.3c1.2,0.2,2.2,0.4,3.6,0.3c2.7-0.2,5.2-0.9,8.2-1.8
		c5.9-1.7,10.7-3.4,15.6-5.8c3.6-1.7,7.1-3.9,10.4-6.1c0.9-0.6,1.9-1.2,2.8-1.8c8.1-5.1,16-10.7,24.2-17.3c4.1-3.2,8-6.8,11.8-10.3
		c0.9-0.8,1.8-1.6,2.7-2.4c2.1-1.9,4.3-3.8,7-6.2c0.5-0.5,1.2-1,1.9-1.5c1.6-1.2,3.5-2.7,4.5-4.1c-4.2-0.7-8.8,0.5-13,1.5
		c-0.6,0.2-1.2,0.3-1.8,0.4c-4,1-7.9,2.5-11.7,4c-1.1,0.4-2.2,0.9-3.4,1.3c-2.2,0.8-4.4,1.7-6.6,2.5
		C434.8,419.1,427.2,421.9,419.9,425.2z"/>
	<path d="M233.9,657.9c-0.2-0.1-0.2-0.1-0.3,0c-0.6,0.3-0.8,2.9-0.9,4.1c0,0.6-0.1,1.1-0.1,1.4c-0.5,2.8-1,6-1.4,9.3
		c-0.7,5.9-1.4,11.8-2.1,17.7c-0.3,2.3-0.6,4.6-0.9,6.8c-0.4,2.9-0.9,5.9-1.2,8.8c-0.1,0.5-0.1,1.3-0.1,2.3c0,3-0.1,7.2-1.4,8.8
		c-0.2,0.1-0.5,0.1-0.7,0c-0.5-0.1-0.8-0.6-1.2-0.9c0-8.6,1.1-17.3,2.2-25.7c0.5-4,1.1-8.1,1.5-12.1c0.3-2.6,0.8-5.4,1.3-8.1
		c0.8-4.3,1.6-8.7,1.5-12.8c0-1-0.2-1.1-0.2-1.2c-0.3,0-1.2,1.1-1.7,1.7l-0.4,0.4c-1.8,2.1-3.4,4.3-4.6,6.4c-6.4,11.1-7.9,24-9,37.5
		c-0.3,3.4-0.3,6.9-0.3,10.2c0,2.4,0,4.9-0.1,7.4c-0.2,4.4-0.5,8.9-0.9,13.2c-0.2,3-0.5,6-0.7,9c-0.4,6.2,0,12.6,0.3,18.7l0,0.2
		c0,0.9,0.1,1.8,0.1,2.8c0.1,2.7,0.2,5.4,0.8,8c3-5.1,5-11.2,7-17.1c0.7-2.1,1.4-4.2,2.1-6.1c2.5-6.8,4.9-13.9,7.3-21.8l0.5-1.5
		c3.8-12.4,7.8-25.2,8.8-38.2c0.4-5.4,0.3-10.5-0.4-15.6C238.1,669.2,235.9,659,233.9,657.9z"/>
	<path d="M221.8,660.8c-3,0.2-6.3,1.4-9.6,2.6c-1.7,0.6-3.3,1.2-4.8,1.6l-1.3,0.4c-3.6,1.1-7,2-10.8,1.5c0-0.1,0-0.2,0-0.3
		c0-0.3,0.1-0.5,0.2-0.8c5.3-1.6,10.5-3.3,15.7-5c1.1-0.4,2.3-0.8,3.4-1.2c2.4-0.9,4.8-1.8,7.3-2.4l0.2-0.1c2.4-0.6,2.7-0.7,4.4-2.4
		c0.2-0.3,0.5-0.5,0.6-0.6c0.5-0.4,0.5-0.4,0.3-0.9c-0.6-1.3-4.7-1.6-7.5-1.4c-3.8,0.3-7.6,1.3-11.3,2.3c-1,0.3-1.9,0.5-2.9,0.8
		c-1.8,0.5-3.6,0.9-5.4,1.4c-8.7,2.2-17.7,4.5-26,8.1c-4.6,2-9.3,4-14.3,5.5c-1.1,0.3-2.3,0.7-3.5,1c-2.1,0.6-4.3,1.2-6.4,1.9
		c4.2,0.8,8.9,0.5,13.2,0.2c0.7,0,1.4-0.1,2.1-0.1c3.4-0.2,6.8-0.4,10.2-0.7c4.2-0.3,8.6-0.6,12.9-0.8c6.8-0.4,14.5-0.8,21.7-2.5
		l0.6-0.2c2.4-0.6,6-1.4,7.7-3C219.9,664.7,221.1,662.4,221.8,660.8z"/>
	<path d="M278,607.9c0.1-0.9,0.2-1.9,0.3-2.8c0.3-3.8,0.6-7.7,0.8-11.4c0.2-3.5,0.5-7.1,0.8-10.7c0.2-1.9,0.3-3.8,0.4-5.7
		c0.8-10.4,1.6-21.1,3.7-31.6c0.8-4.1,1.3-8.4,1.8-12.4c0.3-2.5,0.6-5,0.9-7.5c0.5-3.2,1.1-6.6,1.8-10.4c-0.2,0.6-0.4,1.2-0.6,1.7
		c-4.3,12.8-8.8,26-11.5,39.4h0c-2.6,12.7-3.9,25.4-4.1,40.1l0,1.5c-0.1,6.3-0.2,13.4,2.3,19.1c0.6,1.3,2.4,3.7,3,3.7c0,0,0,0,0,0
		c0.3-0.5,0.2-2.8,0.1-4.2c-0.1-0.9-0.1-1.6-0.1-2C277.6,612.4,277.8,610.1,278,607.9z"/>
	<path d="M330.7,119.1c0,0-0.6-0.6-0.8-1.2c-0.6,0-1.7,0.2-2.5,0.4c-0.7,0.2-1.3,0.3-1.7,0.3c-1.4,0.1-3,0.1-4.7,0.1
		c-2.8-0.1-5.2-0.2-7.8,0.1c-0.6,0.1-1.4,0-2.2,0c-1.1-0.1-2.3-0.1-2.9,0.1c-3.2,1.3-3,7.6-2.9,11.3c0,0.6,0,1.1,0,1.6
		c0,5.8,0.1,11.5,0.6,17.2c0.6,6.8,1.2,13.8,1.7,20.5c0.4,5,0.8,10,1.2,15c1.1,13.2,2.1,26.2,2.2,39c0,2.7,0.2,5.5,0.4,8.2
		c0.3,3.5,0.5,7.1,0.4,10.7l0,0.2c-0.1,2.1-0.1,2.8,0.6,4.6c0.4,0.9,0.6,2,0.9,3c0.3,1.4,0.6,2.8,1.2,3.7l0.1,0.2l-0.1,0.2
		c-0.1,0.2-0.1,0.4-0.1,0.4c0,0,0.2,0,0.6-0.1l0.1,0l0.1,0c0.9,0,1.7,0,2.6,0c0.3,0,0.6,0,0.8,0c0.3,0,0.6,0,1,0c0.3,0,0.6,0,0.9,0
		l0.9,0.1c2.6,0.2,5,0.3,7.6,0.2c0.6,0,1.2,0,1.8,0c2.2,0,4.1-0.1,5-1.1c0.6-0.7,0.9-1.7,0.8-3.3c-0.2-2.6-0.7-5.2-1.3-7.7
		c-0.6-2.7-1.2-5.5-1.3-8.4c-0.1-3.5,0.2-7,0.5-10.4c0.2-2.4,0.5-5,0.5-7.5c0.1-2.9,0-5.9-0.2-8.8c-0.1-2.5-0.2-5.1-0.2-7.6
		c0-1.7,0-3.4,0.1-5c0.1-4.2,0.1-8.5-0.1-12.8c-0.3-4.9-0.7-9.9-1.1-14.8c-0.5-5.9-1-12-1.2-18c-0.1-3.7-0.2-7.4-0.2-11
		c0-2.5,0-5-0.1-7.4c0-0.9,0-2,0.1-3.1C332.4,124.7,332.6,120.9,330.7,119.1z"/>
	<path d="M251.5,482.6l-3.8,12.6c-2.3,7.8-4.3,16.3-6.2,26.1l-0.2,1.1c-0.7,3.5-1.3,7.1-1.8,10.7c-0.1,0.1-0.1,0.3-0.1,0.4
		c-0.2,2.2-0.7,4.4-0.9,6.6c-0.2,1.6-1.8,8.5,1.3,8.2c0,0,0,0,0,0c0.7-0.5,1.9-1.6,3.5-3.8c4.3-5.7,6.2-13.5,7.3-18.8
		c0.6-2.7,1.2-5.4,1.8-8.1c0.8-3.6,1.6-7.2,2.3-10.9c2.4-12.4,3-25.2,3.6-37.6l0.2-3.6c0.2-3.9,0.2-7.9,0.3-11.8
		c0.1-7.2,0.2-14.7,1.2-22.1c-1.7,3.1-3,6.7-4.3,10.3c-0.7,2-1.4,4-2.1,5.8c-5.6,13.4-10.2,28.2-15,47.8c-0.8,3.3-0.8,6.8-0.8,10.1
		c0,4.7,0,9.6-2.4,14.2c-0.4,0.7-0.7,1.2-1,1.7c-0.4,0.6-0.7,1-0.8,1.5c-1.2,1.6-1.2,3.5-1,5.7c0.4,3.8,1,7.5,2.5,11
		c0,0,0,0,0.1,0.1c0.4-3.2,1-6.4,1.6-9.6c0-0.1,0-0.2,0-0.4c1.5-9,3.5-17.8,5.4-26.1c1.1-4.7,2.5-9.3,3.8-13.8c0.5-1.7,1-3.4,1.5-5
		c0.2-0.7,0.4-1.4,0.6-2.2c0.7-2.7,1.5-5.8,3.4-7.8c0.4,0.1,0.8,0.2,1.2,0.3c0.3,2-0.3,3.9-0.9,5.8
		C251.8,481.7,251.7,482.2,251.5,482.6z"/>
	<path d="M282.1,621c1.9-0.9,4-5.2,5-7.3l0.2-0.4c1.7-3.4,2.4-7,2.9-10c1.2-7.4,2.3-14.6,2.5-21.8l0-0.9c0.3-12.7,0.7-25.8,0.1-38.6
		v0c-0.2-3.6-0.2-7.3-0.3-10.9c-0.1-4.5-0.1-9.2-0.4-13.7c0,0,0,0.1,0,0.1c-0.1,0.7-0.3,1.5-0.5,2.2c-0.2,0.7-0.4,1.5-0.6,2.3
		c-0.5,2.5-0.9,4.6-1.2,6.8c-0.3,2.1-0.5,4.2-0.8,6.2c-0.5,4-0.9,8.1-1.8,12.1c-1.9,8.8-2.5,17.9-3.1,26.6
		c-0.4,5.1-0.7,10.4-1.3,15.6c-0.3,2.8-0.5,5.7-0.7,8.5c-0.2,2.6-0.3,5.2-0.6,7.8c-0.4,3.4-0.7,6.9-0.8,10.4c0,0.2,0,0.5,0,0.8
		c0,1.3-0.1,3.9,0.6,4.4C281.5,621.2,281.8,621.1,282.1,621z"/>
	<path d="M301.5,44.1l0.3,1.2c0.5,2.2,1,4.4,1.4,6.7c0.9,5.3,1.2,10.9,1.4,16.3c0.1,2.4,0.2,4.9,0.4,7.4c0.2,2.8,0.4,5.6,0.7,8.5
		c0.4,5.3,0.9,10.8,1.1,16.1c0.1,1.4-0.1,2.9-0.3,4.5c-0.5,4.5-1,8.8,3.8,9.5c3.8,0.5,7.3,0.6,10.9,0.5c0.6,0,1.2,0,1.9,0.1
		c2.2,0.1,4.6,0.3,6.2-0.9c2.9-2,1.6-8,0.8-11.9c-0.2-1-0.4-1.8-0.5-2.5c-1.1-7.6-1.7-15.5-2.2-23c-0.5-7.1-1-14.5-2-21.7
		c-0.2-1.4-0.5-2.8-0.8-4.2c-0.4-1.9-0.8-3.9-1-5.9c0-0.3-0.1-0.6-0.2-1c-0.1-0.6-0.3-1.4-0.3-2.1c-1.4-0.2-10.6,0.8-11.7,0.8
		c-1.8,0-3.6,0-5.3-0.1c-0.9-0.1-4.4-0.8-4.8,0.2c0.1,0.3,0.1,0.7,0.1,1C301.4,43.8,301.5,44,301.5,44.1z"/>
	<path d="M257.2,635.3c-9-9.9-21.7-17.8-31.7-23.6c-10.5-6-20-10.9-29.1-15c-1.3-0.6-2.6-1.1-3.9-1.7c-9.4-4.2-19.2-8.6-29.2-10.4
		c1.3,0.8,3.1,1.4,4.6,2c1.2,0.4,2.2,0.8,3.1,1.3c2,1,4.1,2,6.1,2.9c1.9,0.9,3.9,1.8,5.8,2.8c7.4,3.7,14.4,8.9,21.2,14
		c1.8,1.3,3.6,2.7,5.3,4c5.5,4,11.2,8,16.7,11.9c8.4,5.9,17,11.9,25.3,18.2c0.9,0.7,1.9,1.6,3,2.6c2.7,2.4,5.8,5.1,8.4,5.7l0.2,0
		l0.1,0.1c0.4,0.4,0.5,0.4,0.5,0.4c0,0,0.1-0.1,0.3-0.7l0-0.1c0.3-0.5,0.4-1.1,0.4-1.6c0.2-1.6-0.3-2.8-1.1-4.4
		C261.9,641,260,638.4,257.2,635.3z"/>
	<path d="M255.8,648.9c-0.7-0.4-1.2-0.7-1.5-1c-2-1.5-4-3.1-6-4.6c-4.4-3.5-8.1-6.1-11.5-8.5c-6.4-4.3-12.8-8.8-18.9-13.1
		c-3.3-2.3-6.7-4.8-9.9-7.1c-3.9-2.8-7.9-5.7-11.9-8.5c-1.2-0.8-2.3-1.6-3.4-2.4c-2-1.4-4.1-2.9-6.2-4.3c-3.3-2.2-6.9-3.8-10.3-5.4
		c-1.4-0.6-2.7-1.2-4.1-1.9l-2.5-1.2c-3.6-1.8-7.3-3.6-11-5.2c3.6,2.8,7.3,5.4,10.9,8c2.8,2,5.7,4.1,8.5,6.1
		c3.7,2.8,7.5,5.7,11.1,8.5c6,4.6,12.2,9.4,18.5,13.9c4.2,3,8.6,5.9,12.8,8.7c4.3,2.9,8.7,5.9,13,8.9c0.9,0.6,1.7,1.2,2.6,1.8
		c3.3,2.4,6.8,4.9,10.4,6.9c0.4,0.2,0.9,0.5,1.5,0.8c3.6,2.1,9.1,5.2,12.5,3C259.7,651.4,257.1,649.7,255.8,648.9z"/>
	<path d="M228,516.2c0.4,1.3,0.8,2.7,1.5,3.6c0.5,0.7,0.8,0.9,0.9,0.9h0c0.4,0,1-0.9,1.5-1.6c2.9-3.9,2.8-9.7,2.2-13.9
		c-1.1-7.3-3.8-14.6-6.4-21.6l-0.1-0.1c-2-5.5-4.5-10.9-7-16.2c-1.4-3-2.9-6.2-4.2-9.3c-2.1-5-4.7-9.6-7.3-14.4
		c-0.7-1.2-1.3-2.5-2-3.8c-1.3-2.6-2.6-5.2-4.2-7.4c-0.4,1.7-0.3,3.8-0.3,5.7c0,0.7,0,1.4,0,2.1c-0.1,4.5,0,9.2,0.3,14.2l0.1,2.3
		c0.4,6.4,0.8,13.1,1.7,19.6c2.1,15.2,6.8,28.1,14.3,39.5c1.3,2,6.7,8.3,8.4,8.3c0,0,0,0,0,0c0.1,0,0.1,0,0.2-0.1
		c0.2-0.6-1.5-4.3-2.2-5.6c-0.4-0.8-0.7-1.4-0.8-1.7c-0.3-0.7-0.5-1.5-0.8-2.2c-0.6-1.7-1.3-3.5-2-5.2c-3.2-7.6-5.8-15.7-8.2-24.7
		c-0.1-0.4-0.3-0.9-0.4-1.5c-1.1-3.6-2.1-7.2-1.2-8.7c0.3-0.5,0.5-1,1-1.1c0.4-0.1,0.8,0.2,1.1,0.4c0.8,0.6,1.1,2.4,1.3,4.7
		c0.1,0.6,0.1,1.1,0.2,1.4c0.4,1.9,0.8,3.6,1.3,5.3c0.6,2.3,1.3,4.6,2,6.9l0.7,2.3c1.4,4.7,3.3,9.3,5.1,13.8
		c0.9,2.2,1.8,4.4,2.7,6.7v0C227.6,515,227.8,515.6,228,516.2z"/>
	<path d="M250.9,135.4c0.1,0.3,0.1,0.5,0.2,0.8c1.7,1.1,3.2,3.8,4.3,5.9c0,0.1,0.1,0.2,0.1,0.2c2.3,1.1,4.9,3.4,6.2,5.6
		c1.6,2.7,1.9,5.8,1.6,8.9c0,0,0,0,0,0c1.5,0.9,2.7,4,3.8,6.5c0.5,1.2,0.9,2.2,1.3,3c1.3,2.4,2.8,5,4.3,8.1c1.7,3.2,3.3,6.5,5,9.7
		c1.4,2.8,2.8,5.5,4.2,8.3c0.6,1.1,1.1,2.2,1.7,3.3c2.2,4.2,4.6,8.6,6.1,13c-6,0.2-12.2,0.1-19-0.4c-0.9-0.1-1.9-0.1-2.9-0.1
		c-1.5,0-3,0-4.4-0.3c-0.2,0-0.5-0.1-0.7-0.2c-1.7,0.1-5.1,1.2-4.5,3.4c0.3,1,1.4,1.4,2.6,1.7c0.9-0.8,1.8-1.4,3.3-1.4
		c0.3,0,0.7,0,1.1-0.1c1.3-0.1,3.4-0.3,4.5,0c-1.2,1.8-4,4.6-5.7,5.6c-0.9,0.5-1.1,0.5-1.7,0.1c-0.3,0-0.6,0-0.8,0.1
		c-2.1,0.7-1.2,2.4-0.3,3.3c0.7,0.7,1.7,0.9,2.6,0.9c0.4,0,0.8,0,1.2-0.1c0-0.2,0.1-0.5,0.1-0.7c0.4-0.9,1.5-1.9,2.4-2.7
		c0.3-0.3,0.6-0.5,0.9-0.8c3.6-3.5,5.7-5.2,10.4-5.2c0.8,0,1.8-0.1,3-0.2c3.4-0.3,8.5-0.6,9.9,1.1c0.6,0.7,1,2.2,1.3,3.4
		c0.2,0.6,0.3,1.2,0.5,1.7c0.7,1.9,1.6,3.7,2.4,5.4c0.6,1.2,1.1,2.4,1.7,3.6c1.2,2.6,2.2,5.4,3.2,8.1c1,2.7,2,5.4,3.2,8.1
		c0.3,0.6,0.6,1.2,0.9,1.9c0.8,1.6,1.6,3.3,1.9,4.9c0.1,0.5,0.1,1,0.1,1.5c2.7-1.3,2.8-5.8,2.5-8.3c-0.3-2.2-1.3-4.3-1.5-6.5
		c-0.9-2.2-2-4.3-3-6.3c-0.9-1.8-1.8-3.6-2.6-5.5c-1.2-2.8-2.4-5.6-3.6-8.3c-1.7-3.9-3.4-7.9-5.2-11.8c-3.1-6.6-6.8-13.1-10.2-19.4
		c-2.8-5.1-5.8-10.4-8.4-15.7c-1.1-2.2-2.4-4.4-3.6-6.5c-1.9-3.2-3.8-6.5-5.1-9.9c-0.2-0.4-0.2-0.7-0.2-1c0-0.4-0.1-0.8-0.5-1.4
		c-0.6-1-1.4-2-2.2-2.9c-0.5-0.6-1-1.2-1.5-1.8c-1.1-1.6-2.2-3.3-3.1-4.9c-0.9-1.5-1.8-3-2.8-4.5c-0.2-0.3-0.4-0.6-0.6-0.8
		c-0.4-0.6-0.6-0.9-0.7-1.2c-0.9-0.7-2.2-1.5-3.2-1C250.4,133.9,250.7,134.6,250.9,135.4z"/>
	<path d="M334.6,115.1c0.2-2.3,0.7-4.6,1.3-7.1c1-4.3,1.9-7.6,3.7-10.9c0.6-1.2,1.2-2.5,1.8-3.8c1.4-3,2.8-6.1,4.8-8.2
		c0.3-0.5,0.6-1,1.2-1.5c0.7-0.6,1.5-1.3,1.8-2.2c0.4-1.3-0.1-2.2-0.9-3.1c-1.9,1.1-4.3,2.9-5.7,4.8c-4.1,7.3-7.2,13.7-9.2,19.5
		C333,105.9,331.4,113.2,334.6,115.1z"/>
	<path d="M338.2,380.4c-0.1,1.4-0.3,2.8,0.1,4.1c0.3,1.1,0.9,1.6,1.6,1.9c0.2-1.3,0.8-2.7,1.3-4.1c0.3-0.7,0.6-1.4,0.8-2
		c0.4-1.2,0.8-2.3,1.3-3.4c0.5-1.2,1-2.5,1.4-3.9c1.1-3.4,2.3-6.8,3.5-10.1c0.9-2.6,1.9-5.3,2.8-8c0.2-0.6,0.4-1.1,0.6-1.7
		c0.8-2.4,1.6-4.9,2.7-7.2c0.9-1.9,2-2.9,3.4-3.7c-0.4-0.6-0.8-1.1-1.4-1.4c-2-1.1-3.7,0-5.1,1.4c0,0.3-0.1,0.7-0.6,1.8
		c-0.8,2-1.6,4.1-2.5,6.1c-1.7,4.1-3.4,8.3-4.6,12.6C342,367.8,340.2,374,338.2,380.4z"/>
	<path d="M359,474.4c-0.7,1.7-1.6,3.4-2.4,5.1c-0.7,1.4-1.5,2.9-2.2,4.4c-0.9,2-1.8,4.1-2.7,6.1c-2.7,5.9-5.4,12-7.7,18.2
		c-0.6,1.8-1.4,3.6-2.1,5.4c-1.4,3.5-2.7,7-3.8,10.6c0,1.8-0.6,3.4-0.8,5.2c-0.3,1.6-0.2,3.9,0.6,5.7c0.4,0.2,0.8,0.3,1.3,0.4
		c2-1.1,3.1-6.4,4-11.4c0.2-1,0.3-1.7,0.4-2c1.7-5.8,3.3-11,5.1-15.8c2.6-7.1,5.9-14,9.1-20.7c0.6-4.1,2.2-8.2,1.7-12.3
		C359.3,473.6,359.2,474,359,474.4z"/>
	<path d="M302.6,675.5c1.1-1,1-2.4,0.6-3.7c-0.4-1.3-0.9-2.4-0.8-3.7c-2.2-3.6-4.3-7.2-6.4-10.8c-3.1-5.4-6.3-10.9-9.8-16.1
		c-1.5-2.3-3-4.7-4.2-7.4c-1.3-3.1-2.4-6.9-1.8-7.8c0,0,0,0,0,0c-0.6-0.2-1.2-0.3-1.7-0.6c-1.7-0.7-2.9-2.1-4.1-3.4
		c-1.7-1.8-4.2-3.6-4.6-6.1c0-0.1-0.1-0.1-0.1-0.2c-1.2-1.8-2.4-3.7-3.6-5.5c-5.6-8.2-10.3-16.5-14.2-23.4c-0.7-1.3-1.6-2.7-2.6-4.2
		c-2-3.1-4-6.3-4.8-9.3c-0.4-1.7-0.8-3.4-1.2-5.1c-0.6-2.6-1.3-5.4-2-8c-0.1-0.4-0.3-0.9-0.4-1.4c-0.5-1.6-1.1-3.4-0.9-4.8
		c-1.2-1.8-2.2-3.7-3.1-5.7c-0.8-1.9-2.8-8.4-5.9-6.7c0.5,1.4,1,2.7,1.5,4.1c1.8,4.6,4.2,11.4,5.5,18.2c-2.7-3.7-5.4-7.4-8.4-10.8
		c-1.3-1.5-2.7-2.9-4-4.3c-2.3-2.4-4.7-5-6.7-7.7c-0.6-0.8-1-1.7-1.3-2.6c-1.4-0.8-3.8-2.5-4.7-0.5c-0.5,1,0.4,2.1,1.3,2.9
		c0.3,0.1,0.6,0.4,1.1,1c0.6,0.7,1.2,1.4,1.7,2.1c0.4,0.5,0.8,1.1,1.2,1.6c0.9,1.1,1.9,2.2,2.9,3.2c0.5,0.5,1,1.1,1.5,1.6
		c1.3,0.8,2.6,1.5,3.8,2.5c1.6,1.4,2.9,3.1,4.2,4.8c2.5,3.2,5,6.7,5.5,10.8c0.8,1.2,1.5,2.8,2,3.8c0.3,0.7,0.6,1.4,0.9,1.7l1.2,2.1
		c1.4,2.4,2.9,4.9,4.4,7.4c3,4.8,5.9,9.8,8.7,14.5c3.9,6.6,7.9,13.5,12.2,20.1c1.6,2.5,3.1,5,4.6,7.5c1.9,3.2,4,6.6,6.1,9.8
		c0.7,1,1.3,1.9,2,2.9c3.3,4.8,6.6,9.7,9,14.8c-1.9,0.1-4.1-0.3-6.2-0.6c-1.1-0.2-2.2-0.4-3.2-0.5c-1.4-0.2-2.9-0.2-4.4-0.3
		c-1.7-0.1-3.5-0.2-5.1-0.4c-1.6,0.3-4,0.9-3.1,2.9c0.2,0.4,0.4,0.7,0.7,1c2.8-0.2,5.7,0.3,8.8,0.9c0.9,0.2,1.7,0.3,2.6,0.5
		c5.5,0.9,9.8,1.8,14.2,5c1.6,1.2,2.4,2.8,3.2,4.6c0.2,0.5,0.5,1.1,0.8,1.6c1.1,2.1,2.5,4.1,3.9,5.9c0.4,0.6,0.8,1.1,1.2,1.7
		c0.3,0.4,0.5,0.7,0.6,0.9C301.7,676,302.2,675.8,302.6,675.5z"/>
	<path d="M368.3,458c-0.4,0.9-0.8,1.8-1.3,2.7c-0.3,0.5-0.7,1-1.1,1.5c1.3,0.1,2.7,0.7,3.9,1.5c0.1-0.2,0.3-0.4,0.6-0.7
		c0,0,0.1-0.1,0.1-0.1c0.1-0.1,0.2-0.2,0.4-0.3c0,0,0.1,0,0.1-0.1c0.1,0,0.1-0.1,0.1-0.1c0,0,0.1,0,0.1,0.1c0.1,0,0.1,0,0.2,0
		c0.4,0,1.1,0,1.3-0.4c0.1-1.3,0.2-2.7-0.7-3.7C371,457.4,369.6,457.8,368.3,458z"/>
</g>
</svg>
