<?xml version="1.0" encoding="utf-8"?>
<!-- Generator: Adobe Illustrator 21.1.0, SVG Export Plug-In . SVG Version: 6.00 Build 0)  -->
<svg version="1.1" id="Слой_1" xmlns="http://www.w3.org/2000/svg" xmlns:xlink="http://www.w3.org/1999/xlink" x="0px" y="0px"
	 viewBox="0 0 595.3 841.9" style="enable-background:new 0 0 595.3 841.9;" xml:space="preserve">
<g>
	<path d="M371.8,672.3l-0.3-0.7c-2.8-5.8-5.8-11.9-8.9-17.7c-3.4-6.5-7.5-14.1-12.8-20.8c-2.5-3.2-5.3-6.6-8.5-9
		c-2.1-1.6-5.1-3.7-7.6-3.4c0.1,0.5,0.8,1.6,2.9,4.2c0.2,0.3,0.4,0.5,0.4,0.5c1.7,2.5,3.4,4.8,5,7c1,1.3,2,2.7,3,4
		c2,2.6,4,5.3,5.9,8l0.4,0.6c13,18.4,12.7,19.9,12.6,20.5c-0.1,0.3-0.2,0.4-0.3,0.5c-1.3,0.8-4.3-2.3-17-21.5
		c-1.3-2-2.3-3.5-2.7-4.1c-1.7-2.3-3.3-4.7-4.9-7.1c-2.7-4.1-5.5-8.2-8.6-11.8c-0.8,0.8-1.1,1.8-1.2,2.6
		c-1.3,13.8,11.4,27,20.7,36.6c0.9,1,1.9,1.9,2.7,2.8c4.7,4.9,9.9,10.3,16.4,16.9c1.9,2,3.9,4.1,5.7,6.1c2.6,2.9,5.4,5.9,8.3,8.6
		c-2.1-5.3-4.8-10.5-7.4-15.6C374.4,677.3,373.1,674.7,371.8,672.3z"/>
	<path d="M309.7,605.1c0.3-2.6,0.5-4.8-2.1-5.7c-1.4-0.5-3-0.4-4.6-0.3c-1.3,0.1-2.6,0.2-3.9-0.1l-0.7-0.1c-0.9-0.2-2-0.4-2.8-0.4
		c-0.6,0-1,0.1-1.2,0.3c-0.4,0.4-0.2,1.3,0.1,2c0.7,2,2,4,3.3,6c0.5,0.7,0.9,1.4,1.4,2.1c1.8,2.9,3.7,5.8,5.6,8.6
		c1.8,2.8,3.7,5.6,5.5,8.5c-0.1-1.9-0.2-3.8-0.3-5.7c-0.3-4.6-0.6-9.3-0.3-14.1C309.7,605.9,309.7,605.5,309.7,605.1z"/>
	<path d="M217.1,420c-0.4,0-1.3,1.9-1.6,2.7l-0.9,1.8c-1,2.1-2,4.2-3,6.4c-1.2,2.9-2.4,5.8-3.6,8.7c-0.9,2.3-1.9,4.7-2.9,7
		c-0.9,2.1-1.8,4.2-2.7,6.3c-1.4,3.2-2.9,6.5-4.2,9.8c-0.2,0.5-0.5,1.4-0.8,2.5c-1.8,5.7-3.5,10.4-5.8,9.8l0,0
		c-0.1-0.1-0.3-0.3-0.4-0.5l0-0.1c2.1-7.7,5.3-15.2,8.3-22.4c1.6-3.7,3.2-7.5,4.6-11.3c2.2-5.8,4.8-11.6,7.3-17.1l0.2-0.4
		c0.1-0.1,0.2-0.4,0.3-0.6c2-4,2-5,1.9-5.3c0,0-0.1,0-0.1,0c-0.4,0-1.5,0.6-3.1,1.9c-0.2,0.2-0.4,0.3-0.5,0.4
		c-11.9,8.6-18.2,22.3-22.7,34.7c-2.1,5.8-4,11.8-5.8,17.7c-1.9,6.3-4,12.8-6.3,19.1c-2.2,5.8-4,11.9-5.5,18.8
		c-0.3,1.2-0.6,2.5-0.9,3.8c-0.9,3.5-1.8,7.1-2,10.6c4.3-4.1,7.8-9.4,11.3-14.6c1.2-1.8,2.3-3.4,3.5-5.1c4.6-6.4,8.8-12.8,13.1-19.4
		v0l1.6-2.6c6.3-9.8,12.9-20,16.9-30.7c3.4-9,7-20.7,4.4-30.4C217.4,420.1,217.1,420,217.1,420z"/>
	<path d="M218.7,370.4c-8-7.9-15.3-14.6-22.6-20.5l-2.2-1.8c-7.7-6.3-15.6-12.8-24.4-17.3c0.3,0.2,0.6,0.4,0.9,0.7
		c0.4,0.3,0.7,0.5,1,0.8c1.7,1.4,3.3,2.9,4.9,4.3l1,0.9c1.2,1.1,2.6,2.2,3.8,3.3c2.5,2.1,5.2,4.3,7.4,6.9c4.9,5.4,9.5,11.2,14,16.9
		l2.5,3.1c3.3,4.1,6.7,8.3,10.1,12.4c8.3,10.2,16.9,20.7,25,31.4l1,1.3c1.6,2.1,3.2,4.3,5,6.2c0.2,0.2,0.4,0.5,0.6,0.7
		c0.6,0.8,0.8,1,1.5,0.6c0.7-0.3,1.3-2.2,1.4-3.5c0.4-5.2-3.3-11.5-6.1-16.1l-0.2-0.3C236.5,388.6,226.6,378.2,218.7,370.4z"/>
	<path d="M238.7,414.7c-1.1-1.5-2.3-3-3.4-4.6c-1.4-1.9-2.8-3.8-4.2-5.6c-2.4-3.2-5.1-6.3-7.6-9.2c-1.6-1.8-3.2-3.7-4.7-5.6
		c-5.6-6.8-11.2-13.8-16.5-20.5c-3.4-4.3-6.9-8.6-10.3-12.9c-8.1-10-18.5-18.9-28.1-26.3c3.9,5.3,8,10.4,12.1,15.4
		c2.6,3.2,5.3,6.5,7.8,9.9c9.9,12.8,19.4,24.7,28.9,36.6c3.2,4,6.6,8.1,9.9,12c1.5,1.8,3,3.5,4.4,5.3c3.1,3.7,6.5,7.5,10.2,10.1
		l0.1,0.1c3.4,2.4,5.6,3.3,6.6,2.6c0.2-0.5-1.1-2.4-4-5.8C239.3,415.4,238.9,415,238.7,414.7z"/>
	<path d="M311.4,591.4c0.3-3.2-0.4-6.6-1-9.8c-0.4-2.1-0.8-4.3-1-6.5c-0.2-2.5-0.3-5.1-0.4-7.6c-0.1-2.4-0.2-4.8-0.4-7.3
		c-1.5-19.5-2.9-42.4-2.2-64.7c0.1-2,0-4.1,0-6.2c0-2.9,0-5.9,0.2-8.9l0.1-0.9c0.1-2.2,0.3-4.4,0.4-6.6c0-1.1,0.2-2.3,0.4-3.4
		c0.2-1.4,0.5-2.7,0.4-4c-0.1-2.9-4-3-8.4-2.9c-0.8,0-1.5,0-2.1,0c-1.4-0.1-2.9-0.2-4.3-0.4c-2.5-0.3-5.1-0.6-7.6-0.3
		c-0.3,0-0.5,0-0.8,0c-0.1,0-0.2,0-0.2,0.1c-0.5,0.1-0.9,0.2-1.2,0.6c-0.5,0.5-0.3,1.1-0.1,1.6c0.2,1.3,0.6,2.4,1.1,3.6
		c0.3,0.9,0.6,1.8,0.9,2.7c0.7,2.6,1,5.9,0.8,9.8c-0.1,2.8-0.1,5.6-0.2,8.4c0,2.9-0.1,5.9-0.2,8.8c-0.1,3.1,0,6.3,0.1,9.4
		c0.1,3,0.2,6.2,0.1,9.3c-0.1,3.2-0.3,6.4-0.5,9.5c-0.2,3-0.3,6.1-0.4,9.2c-0.2,6,0,12.1,0.1,17.3c0,1.1,0,2.2,0,3.4
		c-0.1,3.7-0.1,7.5,1.6,10.4c4.5,7.6,6.9,16,7.5,25.7c0,0.6,0,1.1,0,1.5c0,1.4,0,1.4,1.9,1.4c1.1,0,2.3,0.1,3.4,0.2
		c1.4,0.1,2.9,0.2,4.3,0.2l0.4,0C308.1,595.2,311.1,594.8,311.4,591.4z"/>
	<path d="M240.4,277c0.8,2.6,1.5,5,2.8,7.3c0.1,0.2,0.2,0.4,0.4,0.7c0.6,1.2,2.1,4,3.1,4.1c0.1,0,0.2,0,0.4-0.3
		c0.3-0.6-0.4-4.5-0.7-6.2c-0.2-0.9-0.3-1.7-0.3-2c-0.3-3.9-0.7-7.5-1.2-10.9c-1-7.2-1.2-15.7-0.6-25.2c0-0.1,0-0.3,0-0.6
		c0.2-4.7,0.6-6.9,1.5-7.5c0.3-0.2,0.6-0.2,1-0.1c1.4,0.5,1,2.4,0.8,3.8c-0.1,0.3-0.1,0.6-0.1,0.9c-0.7,8.9-0.6,17.5,0.2,25.6
		c0.2,1.6,0.4,3.3,0.6,4.9c0.2,1.7,0.5,3.4,0.6,5.2c0.1,0.9,0.1,1.9,0.2,3c0.1,2.6,0.2,5.2,1.1,7.3c5.8-2.4,7.3-9.2,8.3-16.1
		c1.3-10-0.5-20.5-2.2-30.5c-0.5-3-1-6.1-1.5-9.1c-0.3-1.8-0.5-3.6-0.7-5.3c-0.7-5.6-1.4-10.8-2.7-16.2c-0.4-1.6-0.7-3.3-1.1-4.9
		c-0.7-3.5-1.4-7.1-2.6-10.3c-0.8,1.5-1.3,3.4-1.7,5.1c-0.2,0.7-0.4,1.3-0.5,1.9c-1.1,3.7-2.2,7.9-3.3,12.7
		c-0.8,3.7-1.5,7.4-2.2,11.1c-0.4,1.9-0.7,3.8-1.1,5.8c-3.3,16.5-2.9,31.7,1.2,45L240.4,277z"/>
	<path d="M286.2,226.5c2.4-3.1,4.8-6.3,7.2-9.4l3.6-4.7c0.3-0.4,0.7-1,1.1-1.7c1.2-1.9,2.8-4.6,4.6-6c0.7-0.8,1.5-1.5,2.3-2.1
		c0.9-0.7,2.1-1.9,3.3-1.7c0-1.9,0-3.8,0-5.6c0-1.4,0.3-2.7,0.5-4c0.2-1,0.4-2,0.5-3c0.1-0.8,0.1-1.5,0.1-2.3c0-1.2,0-2.5,0.3-3.8
		c0.2-1,0.1-1.8-0.2-2.4c-0.8-1.2-2.8-1.5-4.8-1.7l-0.8-0.1c-1.9-0.3-3.8-0.5-5.7-0.7c-1.5-0.2-3.1-0.3-4.6-0.6
		c-0.4-0.1-0.8-0.1-1.3-0.2c-2.1-0.4-4.5-0.8-5.7,0.7c-1.1,1.3-0.6,3.6-0.2,5.6c0.1,0.6,0.3,1.3,0.3,1.8c1.3,10.4,0.6,21.2-0.1,31.7
		C286.5,219.6,286.3,223,286.2,226.5z"/>
	<path d="M294.3,173.3c0.4,0,0.8,0.1,1.1,0.1c2.5,0.3,5.1,0.6,7.5,0.8l1.3,0.1c0.5,0,1.1,0.1,1.7,0.3c1.5,0.3,3.6,0.6,4.6,0.1
		c1.1-0.5,2.2-2.7,1.6-9.7c-0.4-4.9-0.9-11.4-0.6-18l0.2-4.5c0.3-8.6,0.6-17.6,0.8-26.4c0.1-3.7,0.2-7.6,0.4-11.3
		c0.3-6.4,0.6-13,0.4-19.4c0-1.2-0.1-2.4-0.1-3.6c-0.2-4.2-0.3-8.5,0-12.8c0.1-1.2,0.4-2.5,0.7-3.9c0.6-2.8,1.3-5.9,0.4-8
		c-1-2.2-3.9-2.1-6.5-1.9c-0.8,0-1.5,0.1-2.2,0.1c-1.6-0.1-3.3-0.4-5-0.7c-3-0.5-6.1-1-8.7-0.5c-0.9,0.2-1.5,0.6-1.9,1.2
		c-0.9,1.4-0.3,3.7,0.1,5.7c0.1,0.5,0.2,1,0.3,1.5l0.3,1.7c0.8,4.1,1.5,8.1,1.4,12.3c-0.2,8.1-1.3,16.5-2.4,24.5
		c-0.2,1.6-0.4,3.2-0.6,4.8c-2.1,15.8-2.8,32.2-3.5,48c-0.2,4.5-0.4,8.9-0.6,13.3C284.6,172.1,290.2,172.8,294.3,173.3z"/>
	<path d="M288.1,322.4C288.1,322.3,288.1,322.3,288.1,322.4c0.8-0.9,1.4-1.9,2-2.7c1-1.5,1.8-3.1,2.6-4.7c2.5-4,5.1-8,7.8-12
		l0.9-1.4c1.3-1.9,2.5-3.8,3.8-5.8c0.3-0.4,0.7-0.9,1-1.4c0.8-1,1.6-2.1,1.9-3.1c0.8-2.4,0.5-6.1,0.2-9.3c-0.1-1.4-0.3-2.8-0.3-4
		c-0.1-5.5-0.1-11,0-16.4c0-5.6,0.1-11.4,0-17.1c-0.2-9.3-0.1-19.1,0.4-31.7c0.1-2.3,0.1-4.6,0.1-6.9c-0.1,0.3-0.2,0.7-0.4,1
		c-0.3,0.5-0.7,1-1.1,1.5c-1,2.4-2,4.9-2.9,7.3l-0.2,0.5c-1.6,4.2-3.7,9.7-5.1,15.3c-2.4,9.4-5.4,18.7-8.9,27.8l-0.5,1.1
		c-1.1,2.9-2.1,5.4-2.3,8.5c-0.2,4.2-0.5,8.5-0.9,12.7l-0.2,2.9c-0.5,6.7-0.8,12-0.9,16.9c0,1.5,0,3.1-0.2,4.6
		c0.6,7.2,0.1,14.8-0.1,22C285.8,326.2,286.9,324.3,288.1,322.4z"/>
	<path d="M358.4,111.1c0.5-0.4,1-0.9,1.5-1.3c0.6-0.6,1.4-1.1,2.2-1.7c1.3-1,2.7-1.9,3.5-3c0.9-1.1,0.9-2.8,0.9-4.3
		c0-0.6,0-1.3,0.1-1.9c0.1-0.8,0.2-1.7,0.3-2.5c0.2-1.6,0.4-3.3,0.5-5c0.2-4.8,0.2-9.8,0.2-14.6c0-2.3,0-4.6,0-6.9l0-0.4
		c0,0,0-0.1,0.1-0.1c0,0,0,0,0,0c0.1,0,0.1-0.1,0.2-0.1c0.2-0.1,0.4,0,0.5,0l0.2,0.4c1.7,4.3,1.8,8.6,1.8,13.1c0,0.8,0,1.6,0,2.3
		l0,0.8c0.1,3.1,0.1,6.3-0.1,9.5c0,0.5-0.1,1-0.1,1.5c-0.2,1.5-0.3,3,0.3,4.4c0.6-0.4,1.3-0.7,2-1.1c1.6-0.9,3.3-1.7,4.2-2.8
		c1.3-1.6,1.3-5,1.3-7.5l0-0.8c0-5.2-0.9-10.5-1.9-15.7c-0.4-2.2-0.8-4.6-1.2-6.8c-0.7-5-1.2-10.2-1.6-15.1
		c-0.6-7-1.3-14.3-2.7-21.3c-2,6.4-3.6,12.9-5.2,19.3c-1.4,5.5-2.8,11.2-4.4,16.8v0c-1.7,5.6-2.5,11.5-3.3,17.3
		c-0.2,1.7-0.5,3.4-0.8,5.2c-1.1,7.2-2.3,16.5-1.4,25C356.5,112.8,357.5,112,358.4,111.1z"/>
	<path d="M254.7,288.7c-0.3,0.3-0.5,0.5-0.8,0.7c-0.3,0.3-0.5,0.4-0.7,0.6c-0.1,0-0.2,0.1-0.3,0.2c-2.1,4.6-3.8,10.3-3.6,15.6
		c-0.1,1.3,0,2.7,0.5,3.9c0.2,0.4,0.8,0.3,0.9-0.1c0.8-2.5,1.1-4.8,2.1-7.3c0.6-1.5,1.1-2.9,1.4-4.4c3.4-7.3,7.4-15,12.2-23.9
		c2.5-4.5,5.3-9,8-13.2l0.9-1.4c0.5-0.8,1.1-1.8,1.6-2.8c1.5-2.7,3.1-5.7,5.5-7.4c0.7,0.1,1.4,0.1,1.7,0.6c-0.4,2-1.5,3.6-2.6,5.3
		c-0.3,0.4-0.6,0.9-0.8,1.3l-2.4,3.8c-1.5,2.5-3.1,4.9-4.6,7.4c-4.1,6.6-8.3,14.2-12.6,23.1l-0.7,1.5c-1.6,3.2-3.2,6.6-4.6,9.9
		c-0.6,1.4-0.9,3.1-1.2,4.6c-0.3,1.7-0.7,3.5-1.4,5.1c-0.1,0.3-0.3,0.6-0.6,1c-0.6,0.9-1.6,2.3-1.4,3c0,0.1,0.1,0.2,0.4,0.4
		c0.6,0.2,2-0.5,4.1-2.1l0.3-0.2c7.7-5.5,12.5-15.4,16.8-24.1c1.1-2.1,2-4.1,3.1-6.1c6.9-13,11.6-27.1,16.1-40.8
		c1.3-3.9,2.4-7.9,3.6-11.7c2.1-7.3,4.3-14.9,7.5-22c-1.5,1.5-2.9,3.6-4.2,5.4c-0.7,1-1.3,1.9-1.9,2.7c-1.2,1.6-2.4,3.1-3.6,4.7
		c-1.1,1.5-2.3,2.9-3.4,4.4c-3.1,4-6,8.2-8.8,12.3l-0.3,0.5c-3.5,5-6.6,10.3-9.5,15.5c-0.6,1-1.2,2-1.8,3c-0.6,1.1-1.3,2.1-2,3.2
		c-2.2,3.6-4.5,7.3-5.6,11.2c-0.3,1.2-0.6,2.4-0.9,3.6C260,280.2,258.9,284.7,254.7,288.7z"/>
	<path d="M372.8,109.7c0.2-0.1,18.7-14.2,23.1-13.6c0.4,0.1,0.8,0.2,1,0.5l0.3,0.4l-0.3,0.3c-2.4,2-5.1,3.7-7.8,5.2
		c-1,0.6-1.9,1.1-2.9,1.7c-5,3.1-9.9,6.5-14.9,10.7c-2,1.6-3.9,3.2-5.9,4.8c-2.6,2.2-5.3,4.4-8,6.6c-2.1,1.6-4.2,3.1-6.4,4.5
		c-0.3,0.2-0.7,0.4-1,0.6c-0.8,0.4-1.7,0.9-2.3,1.6c4,1,9.2-1,13.1-2.5c0.5-0.2,1.1-0.4,1.6-0.6c5-1.9,9.5-3.8,13.8-5.8
		c10.6-5,20.9-12.1,29-19.9c2.4-2.3,4.9-4.6,7.4-6.8c3.4-3.1,7-6.2,10.2-9.6l3.4-3.5c4.1-4.2,8.3-8.6,12.5-12.8
		c-21.4,7.8-39.1,15.8-53.9,24.6c-9.1,5.4-16.2,10.4-22.4,15.9l-1.5,1.3c-3.2,2.8-6.6,5.8-9.6,8.9c-0.3,0.3-0.7,0.7-1.2,1.1
		c-1.9,1.9-5.4,5.2-5.7,7.3c7.9-4,14.7-9.7,21.3-15.2C368.1,113.5,370.5,111.5,372.8,109.7z"/>
	<path d="M395.1,523.2c-0.7,0.5-1.4,1-2,1.3c-1.7,0.9-3.3,2-4.8,3.1c-1.4,1-2.9,2-4.4,2.9c-10.7,6.2-21.3,15.1-29.9,24.9
		c-3.2,3.7-6.1,7.7-8.9,11.5l-1.4,1.9c-0.3,0.5-0.7,1-1.2,1.5c-2.9,3.7-6.8,8.8-4.6,13c0.1,0.3,0.3,0.5,0.4,0.7
		c0.1-0.5,0.4-1,0.8-1.5c0.9-1.2,2.3-2.2,3.7-3.2c0.7-0.5,1.3-0.9,1.9-1.4c2.4-2,4.8-4.1,7.3-6.4c10.2-9.1,19-18.9,28.7-29.8
		c1-1.1,2.1-2.3,3.1-3.4c2.2-2.4,4.4-4.8,6.5-7.3c1.4-1.7,2.9-3.5,4.3-5.2c0.4-0.5,0.9-1,1.4-1.5c1-1,2.2-2.2,2.8-3.4
		C397.6,521.4,396.2,522.4,395.1,523.2z"/>
	<path d="M178.4,422.6c5.5,1,11.1,2,16.6,1.7c4.9-0.3,8.2-1.8,9.9-4.7c-2-0.4-4.3-0.2-6.5,0c-1.1,0.1-2.1,0.2-3.1,0.2l-1.8,0
		c-2,0-4.1,0.1-6.2,0l-0.8,0c-3.1,0-5.9-0.1-9-1.4l0,0c-0.1-0.4,0-0.7,0.3-0.9c5.9-0.2,11.2-0.3,16.7-0.6c1.2-0.1,2.3-0.1,3.5-0.2
		c2.1-0.2,4.3-0.3,6.4-0.3c0.6,0,1.2,0,1.7,0c1.5,0.1,2.5,0.1,4-0.8c0.4-0.2,0.7-0.4,1-0.5c0.9-0.4,1.1-0.5,1-1.1
		c-0.1-1-3.3-2.5-5.5-3.1c-4-1.1-8.4-1.1-12.6-1.1c-1.2,0-2.4,0-3.6,0c-1.8,0-3.7-0.1-5.5-0.1c-7.8-0.2-15.8-0.4-23.6,0.4
		c-2.1,0.2-4.3,0.5-6.3,0.8c-2.4,0.3-4.9,0.7-7.4,0.9c-2.5,0.2-5.1,0.2-7.6,0.2c-2.3,0-4.6,0-6.9,0.1c0,0,0.1,0,0.1,0.1
		c0.4,0.2,0.8,0.4,1,0.5l1.1,0.4c2.3,0.8,4.6,1.6,6.9,2.2c10.9,2.7,22.7,5.1,35.8,7.5L178.4,422.6z"/>
	<path d="M388.2,538.1c-2.6,2.9-5.2,5.9-7.8,8.8c-2.1,2.4-4.2,4.9-6.4,7.2c-7,7.8-15.3,16-26.1,25.5c-0.4,0.3-0.9,0.8-1.4,1.3
		c-1.9,1.9-4.3,4.3-6.3,4.4c-0.1,0-0.3,0-0.4,0c0.4,0.2,0.8,0.3,1.3,0.4c4.6,0.7,13.1-5,23.4-15.6c6.5-6.7,12.4-13.9,18.7-22.7
		c1-1.4,2.1-2.9,3.1-4.3c2.1-2.9,4.2-5.8,6.2-8.9c0.5-0.8,1.2-1.7,1.8-2.6c1.2-1.6,2.4-3.3,3.3-5c-1.4,1.7-2.8,3.4-4.2,5.1
		C391.8,533.9,390,536.1,388.2,538.1z"/>
	<path d="M137.5,287.8c2.7,1.9,5.5,3.8,8.3,5.6c1.2,0.8,2.4,1.6,3.7,2.4c10.9,7.4,22.5,12.9,33.3,17.9c10.2,4.7,18.7,8.6,27.8,11.8
		c4.7,1.7,9.8,2.9,14.7,3.6c0.4,0.1,0.8,0.1,1.3,0.2c4.1,0.6,10.9,1.7,13.7-0.9c-1.3-1.8-4.3-3.4-6.9-4.8c-1.2-0.7-2.4-1.3-3.3-1.9
		c-4.9-3.2-9-5.9-13.7-8.3c-9.4-4.7-19.6-9-32.1-13.4c-3.2-1.1-6.4-2.3-9.7-3.4c-4.8-1.6-9.7-3.3-14.5-5.1
		c-6.4-2.4-12.9-4.2-17.8-5.4c-0.5-0.1-1.1-0.3-2-0.4c-3.5-0.8-7-1.6-9.3-2.6c1.4,1.4,3.5,2.8,4.9,3.7
		C136.6,287.2,137.1,287.5,137.5,287.8z"/>
	<path d="M188,258c5.6,10.3,10.6,17.6,16.2,23.8c4,4.5,7.6,7.7,11.4,10.2l0.2,0.2c8.4,5.7,10.9,6,11.7,5.7
		c-0.8-3.7-4.4-8.6-6.6-11.6c-2.2-3-5-5.9-7.6-8.6c-1.5-1.5-3-3.2-4.5-4.8l-1.6-1.8c-6.8-7.7-13.9-15.7-20-24.3
		c-4.6-6.4-3.8-7.4-3.6-7.8c0.3-0.4,0.9-0.5,1.7-0.2c1,0.4,2,2.1,3.1,4.3c0.4,0.7,0.7,1.4,1,1.8c1,1.5,2.1,2.9,3.4,4.5
		c6.1,7.7,12.6,15.3,19.1,22.5c1.3,1.4,2.6,2.8,3.9,4.1c2.7,2.8,5.5,5.7,7.9,9c1.7,2.4,3.2,4.8,4.3,7c0.2,0.3,0.4,0.7,0.6,1.1
		c0.5,1.1,1.2,2.4,2,3.2c3.9-5.4-2.5-17.8-4.7-21.9c-4.4-8.4-10.1-16.6-16.7-23.8c-5.1-5.6-10.9-10.8-17.8-16
		c-3.6-2.7-7.3-5.4-10.9-8l-2.1-1.5c-2.6-1.9-4.9-4-7.1-6.1c-1.7-1.6-3.4-3.2-5.2-4.6c2.8,5.6,5.6,11.3,8.3,16.8
		C178.7,239.9,183.2,249.2,188,258z"/>
	<path d="M145.9,283.9c5.9,1.6,11.4,3.5,17.1,5.6l0.3,0.1c4.1,1.5,8.3,2.9,12.4,4.3c3.7,1.3,7.6,2.6,11.3,3.9
		c19.8,7,36.8,15.4,52.1,25.7c-1.3-2.7-4.7-5.8-6.8-7.8l-0.6-0.5c-2.9-2.7-6.6-5.4-10.8-7.9l0,0c-14.2-8.3-30.3-13.2-44.6-17.5
		c-6-1.8-12.1-3.4-18.1-4.9c-3.5-0.9-7.2-1.8-10.7-2.8c-3.3-0.9-6.9-1.8-11.1-2.1c-0.8-0.1-1.6-0.1-2.5-0.1c-0.7,0-1.4,0-2-0.1
		c3.4,1.5,7.3,2.4,11,3.4C144,283.4,144.9,283.7,145.9,283.9z"/>
	<path d="M321.3,808.1c-1.7-7-2.2-13.8-2.8-21c-0.1-1.1-0.2-2.2-0.3-3.3c-0.3-3.6-0.6-7.1-1-10.7c-0.6-6.1-1.2-12.5-1.5-18.8
		c-0.1-1.5,0.1-3.2,0.3-5c0.3-2.7,0.6-5.5-0.1-7.7c-0.6-1.7-1.6-1.8-3.2-2c-0.3,0-0.7-0.1-1-0.1c-3.6-0.5-7-0.5-10.5-0.5l-0.2,0
		c-0.6,0-1.2,0-1.8,0c-2.2-0.1-4.8-0.2-6.3,1.1c-2.3,2-1.4,6.6-0.7,9.9c0.2,0.8,0.3,1.5,0.4,2.1c0.4,2.8,0.9,5.7,1.6,9.4
		c1.1,6.2,1.5,12.6,1.9,18.8c0.2,2.8,0.4,5.7,0.6,8.6c0.1,1.1,0.2,2.2,0.3,3.3c0.2,3,0.4,6.1,1.1,9c0.1,0.5,0.2,1,0.3,1.4
		c0.4,1.7,0.8,3.3,1,5.1c0,0.2,0.1,0.6,0.2,1c0.2,1.1,0.4,1.9,0.4,2.6c2.8,0.8,15.6,0.1,20.9-0.3c0.4-0.2,0.7-0.4,0.9-0.7
		c0-0.1-0.1-0.3-0.1-0.4C321.6,809.4,321.5,808.8,321.3,808.1z"/>
	<path d="M464.2,556.9c-0.9,0-2.3,0.3-3.1,0.5c-0.5,0.1-1,0.2-1.2,0.3c-2,0.3-4,0.6-5.9,0.9l-1.1,0.2c-2.6,0.4-5.2,0.8-7.8,1.4
		c-6.7,1.4-12.8,2.7-18.4,4.2l-3.6,0.9c-14.6,3.8-29.7,7.8-43.5,14.1c-1.6,0.7-3.2,1.5-4.8,2.2c-7.4,3.3-14.3,6.5-21.3,10.4
		c-4.3,2.4-8.9,5-13.4,8l-0.3,0.2c-2.8,1.8-7.8,5.2-7.6,8.7c0.6-0.2,1.7-1,2.2-1.3c0.4-0.3,0.8-0.6,1.1-0.7c1.5-0.8,3.1-1.6,4.7-2.4
		l1.4-0.7c3.9-2,7.2-3.6,10.6-5.1c5.9-2.7,11.8-5.7,17.5-8.7l0.7-0.3c10.6-5.5,19.3-9.4,27.3-12.2c0.9-0.3,1.7-0.6,2.6-1
		c4.4-1.7,9-3.4,13.7-2.4l0.1,0c0.1,0.3,0,0.7-0.2,1c-11.7,3.8-24.2,8.8-39.3,15.8c-4.5,2.1-9,4.4-13.3,6.6c-3.2,1.7-6.5,3.4-9.8,5
		l-1.8,0.9c-5.4,2.6-10.6,5.1-15.4,8.5c5.4,0.1,11.5,0.8,17.5,2.1c0.4,0.1,0.9,0.2,1.3,0.3c2,0.5,3.6,0.9,5.6-0.2
		c1.6-0.8,3.1-1.4,4.7-2c0.9-0.3,1.7-0.6,2.6-1c4.3-1.8,8.6-4.3,12.7-6.7c1.2-0.7,2.3-1.4,3.5-2c3.7-2.1,7.7-3.9,11.5-5.7
		c2.7-1.2,5.4-2.5,8-3.8c13.4-6.8,24.1-12.8,33.8-18.7c2.2-1.4,4.5-2.7,6.8-4c1.7-1,3.4-1.9,5-2.9c3-1.8,6-3.6,9.2-5.7
		c0.8-0.5,1.8-1,2.9-1.6C461,559.1,462.9,558.1,464.2,556.9L464.2,556.9z"/>
	<path d="M344,622.1c2.3,1.8,3.4,2.5,6.3,3.1c0.7,0.2,1.3,0.3,2,0.4c2.1,0.5,4.3,1,6.5,1.6c6.2,1.7,12.5,3.7,18.5,5.6
		c4,1.3,8.2,2.6,12.3,3.8c3.3,1,6.6,1.9,9.9,2.8c5.5,1.5,11.2,3,16.7,5c3.6,1.3,7.3,2.8,10.8,4.3c1.9,0.8,3.9,1.6,5.8,2.4
		c2.3,0.9,4.4,2,6.5,3.1c-15.9-10.5-34.1-19.7-53.1-26.7c-9-3.3-19.9-7.1-31.7-9.7c-0.6-0.1-1.2-0.3-1.9-0.4
		c-6.2-1.5-18.5-4.3-22.4,0c1-0.4,2-0.6,2.9-0.6C337.3,616.7,341.4,620.1,344,622.1z"/>
	<path d="M375.5,635.6c-8.2-2.5-16.7-5.1-25.2-7.1c4.2,4.9,8.1,10.5,11.3,16.1c11.9,2,24,3.8,35.7,5.6l5.2,0.8
		c8.6,1.3,17.2,3.1,25.5,4.8c3.9,0.8,8,1.7,12.1,2.4c-13-6.9-26.9-12.4-40.4-15.8C391.5,640.4,383.4,638,375.5,635.6z"/>
	<path d="M282.1,449.9c-0.3,0.6-0.5,1.3-0.5,1.8c0,0.6,0.3,1.4,0.6,2.2c0.1,0.4,0.3,0.7,0.4,1c0.1,0.3,0.2,0.7,0.3,1.2
		c0.1,0.8,0.4,2.2,0.7,2.4c0.8,0.6,4.1,0.5,6.3,0.4c0.8,0,1.5-0.1,2.1-0.1c0.3,0,0.5,0,0.7,0c0.5,0,1.3,0.1,2.1,0.2
		c4.3,0.5,13.4,1.7,14.1-1.5c0.4-1.8,0.1-3.9-0.1-5.9c-0.1-0.9-0.2-1.8-0.3-2.6c-0.2-2.4-0.3-4.9-0.4-7.3l0-1.2
		c-0.1-3.2-0.1-6.4-0.1-9.5c0-2.3,0-4.6-0.1-6.9c-0.3-13.4-0.5-24.5,0-36.1c0.3-6.1,0-12.4-0.4-18.4c-0.3-5.6-0.6-11.4-0.4-17.1
		c0.2-6.7-0.2-13.5-0.2-20.3c0-0.9-0.3-2.2-0.1-3.1c-1.6,5.9-3.2,11.7-4.9,17.5c-0.8,3-1.7,5.9-2.5,8.9
		c-3.8,13.5-7.7,23.7-12.3,32.1c-1,1.9-2.2,3.5-3.5,5.2l-0.7,1c-0.2,0.3-0.4,0.5-0.6,0.7c-0.5,0.6-0.5,0.6-0.6,2
		c-0.1,1.3,0,2.6,0,3.9c0,0.6,0.1,1.2,0.1,1.8c0.1,5.2,0.3,10.5,0.4,15.6l0.2,4.9c0.1,1.7,0.1,3.4,0.2,5.1c0.2,4.7,0.3,9.7,0.4,14.5
		l0,0.5c0,1.8,0,3.6-0.3,5.4C282.5,448.8,282.3,449.4,282.1,449.9z"/>
	<path d="M273.3,397.4c0.2,0,1.6,0,6.8-5.6l0.1-0.1c3.3-3.6,5.3-8,7.2-12.2c3.3-7.4,6-14.5,8.2-21.7c3.8-12.4,7.1-24.4,9.9-35.7l0,0
		c0.6-2.6,1.4-5.4,2.1-8c1.2-4.6,2.5-9.4,3.5-14.1c0,0.1-0.1,0.1-0.1,0.2c-0.4,0.7-0.8,1.4-1.2,2.1c-0.4,0.7-0.9,1.5-1.3,2.3
		c-1.2,2.5-2.4,4.9-3.4,7.4c-0.5,1.3-1.1,2.6-1.6,3.9c-1.1,2.8-2.2,5.7-3.6,8.4c-0.6,1.2-1.2,2.4-1.8,3.6
		c-2.6,5.2-5.3,10.6-7.4,16.2c-1.9,5.3-3.8,10.7-5.6,15.9l-0.9,2.5c-2,5.9-4.1,11.5-6,16.8c-0.5,1.3-1,2.6-1.5,3.9
		c-0.9,2.4-1.9,4.8-2.7,7.3l-0.2,0.8c-0.4,1.4-0.9,2.8-1.1,4.2c0,0.2-0.1,0.4-0.1,0.6C272.5,397.1,272.5,397.2,273.3,397.4z"/>
	<path d="M269.9,373.1c-1.8,5.8-4,13.1-2.7,19c0.3,1.5,1,3.3,1.5,3.6c0.1,0,0.2,0.1,0.3,0.2c0,0,0.1-0.1,0.1-0.1
		c0.2-0.3,0.6-2.1,0.8-2.9c0.1-0.5,0.2-1,0.3-1.2c0.6-1.9,1.3-3.9,1.9-5.5c0.4-1.1,0.8-2.2,1.2-3.3c0.7-1.8,1.4-3.6,2-5.5
		c0.8-2.1,1.5-4.3,2.3-6.4c1.4-4,2.9-8.1,4.3-12.1c4.6-12.7,9.6-24.9,15.4-37.5c1.2-2.6,2.2-5.2,3.3-7.8c1.1-2.8,2.2-5.6,3.5-8.3
		c1.1-2.4,2.4-5.1,3.7-7.7c-6.4,9.5-13.1,19.4-19,29.5c-8.9,15.2-14.4,31.2-18.5,44.9L269.9,373.1z"/>
	<path d="M290.9,611c0-0.6,0.1-1.2,0.1-1.8c0-0.1,0-0.3,0-0.4c1-3.8,0.6-8,0.3-11.9c0.2-1.7-0.2-4.1-0.4-6c-0.1-0.9-0.2-1.7-0.3-2.3
		c-0.2-3-0.9-6-2.1-9.6c-1.8-5.3-4.2-12.5-8.9-16.6c-0.8-0.7-2.3-2-2.8-1.8c-0.1,0-0.4,0.2-0.4,1.7c-0.1,2.8,0.2,5.7,0.4,8.5
		c0.1,1,0.2,2,0.3,3c0.4,5.3,0.7,10.9,1,18.2c0.1,2.9,0.1,5.8,0.2,8.7c0,4.9,0.1,9.9,0.5,14.7c0.3,3.4,0.8,6.9,1.2,10.2
		c0.3,2.1,0.5,4.3,0.8,6.4c-0.2,0.5-0.5,1.1-0.9,1.2c0,0-0.1,0-0.1-0.1c-3-3.9-3.4-9.6-3.7-14.7c-0.1-1.3-0.1-2.6-0.3-3.7
		c-0.4-4.6-0.5-9.2-0.5-13.8c0-2.5-0.1-5.1-0.1-7.6c-0.3-7-0.7-14-1.3-20.8c-0.1-1.4-0.2-2.8-0.3-4.1c-0.1-2.1-0.3-4.4-0.5-6.5
		c-0.2-2-0.6-2.1-0.6-2.1h0c-0.1,0-0.5,0.1-1.7,1.9c-3.8,5.6-4.5,14.9-4.9,20.5c-0.5,6.1-0.1,12.8,1.1,21.1
		c1.5,10.6,3.9,21.2,6.3,31.4c0.8,3.4,1.6,6.8,2.3,10.2l0.8,3.9c1.3,5.8,2.6,11.8,4,17.6c0.4,1.8,1,3.6,1.6,5.3
		c0.5,1.7,1.1,3.4,1.5,5.1c0.6-5.2,1.1-10.4,1.6-15.5c0.8-8.7,1.7-17.7,3.1-26.4C289.6,625.5,290.5,617.9,290.9,611z"/>
	<path d="M298.1,735.6c1.2-0.2,2.4-0.3,3.3-0.3c1.5,0,3.2-0.1,4.8-0.3c2.2-0.2,4.5-0.4,6.6-0.2c0.7,0.1,1.2,0,1.5-0.2
		c0.3-0.3,0.3-1.1,0.2-2c0-0.5-0.1-1.1,0-1.6c0.1-2.7,0.3-5.9,0.6-9.2l0.2-1.7c0.4-4.1,0.9-8.3,1.1-12.4c0.4-8.7-0.8-17.7-1.9-26.4
		c-0.5-3.9-1-8-1.4-12c-0.4-3.9-0.7-7.9-1-11.8c-0.2-2.7-0.4-5.3-0.6-8c-0.1-1.5-0.1-3.2-0.2-5c0-4.1-0.1-8.8-1.6-11.9
		c-2.1-4.2-4.9-8.2-7.6-12.1c-2.9-4.1-5.8-8.3-8-12.8c-0.4,2.8-0.6,5.7-0.7,8.6c-0.2,2.7-0.3,5.4-0.7,8.1l-1.4,10.6
		c-0.8,6-1.4,12.1-1.9,18c-0.5,5.8-1.1,11.7-1.9,17.6c-0.6,4.3,0,8.7,0.6,13c0.2,1.6,0.4,3.3,0.6,4.9c0.8,8.5,1.1,17,1.2,24.9
		c0,2.1,0.1,4.3,0.2,6.4c0.1,1.7,0.1,3.3,0.2,5c0,0.8,0,1.8-0.1,2.7c-0.1,2.5-0.3,5.4,0.9,7.3C292,736.4,295.2,735.9,298.1,735.6z"
		/>
	<path d="M338.1,144.7c2-2.8,4-5.6,6.6-7.2c0.6-0.7,1.1-1.5,1.4-2.5c0.3-1,0.5-2.6-1-2.8c-1.6-0.3-3.1,1.1-4.1,2.2
		c-0.1,0.2-0.3,0.5-0.9,1.2l-0.2,0.3c-1.4,1.7-2.9,3.4-4.3,5c-2.9,3.3-5.9,6.7-8.4,10.4l-1.6,2.3c-3.1,4.6-6.4,9.4-9.8,13.9
		c-0.8,1.6-1.9,2.9-2.6,4.5c-0.9,2.3-0.8,4.9,0.9,5.9c0.4-1.7,1-3.3,2.1-4.8c3.9-5.6,8.1-10.9,12.3-16.2c2.6-3.3,5.4-6.7,7.9-10.2
		C337,146.2,337.6,145.5,338.1,144.7z"/>
	<path d="M273.3,441.6c0.4,1.3,0.6,2.6,0.8,3.8c0.3,1.8,0.7,3.6,1.3,5.4l0.1,0.2c0.4,1,0.7,1.9,1.1,2.9c1.1-0.6,2-1.5,2.5-2.8
		c1-2.4,0.3-5.9-0.1-8.4c0,0,0,0,0,0c-1-3.4-1.9-6.9-2.8-10.3c-1.4-5.3-2.9-10.8-4.5-16.1c-0.6-1.9-1.3-4.4-1.6-6.9
		c-0.4-2.7-0.5-6.8,0.2-7.8c-1.3-0.6-2.6-1.3-3.5-2.4c-1.8-2.1-2.6-5.5-3.2-8.2c0-0.1,0-0.1,0-0.2c-0.8-2.4-1.5-4.7-2.2-7.1
		c-0.8-2.7-1.7-5.4-2.6-8.1c-1.8-5.3-3-10.8-4.2-16.1c-0.3-1.4-0.7-2.9-1-4.3c-0.3-1.2-0.6-2.5-0.9-3.7c-1.1-4.3-2.3-8.7-1.9-13
		c0.2-2.3,0.1-4.7,0-7c-0.1-1.4-0.1-2.7-0.1-4.1c0-0.4,0-0.9,0-1.3c0-1.1-0.1-2.3,0.1-3.4c0-0.2,0.1-0.4,0.1-0.5
		c0-0.7,0.2-1.3,0.5-1.9c0.1-1,0.2-2-0.1-3c-0.2-0.8-0.9-1.9-1.7-2.2c-1.3-0.5-2.4,0.3-2.6,1.6c-0.2,0.9-0.2,1.9-0.3,2.9
		c0.2,3.5,0.2,7.1-0.1,10.6c-0.9-2.4-1.8-4.6-2.7-6.7c-0.3-1.1-0.8-2.2-1.4-3.3c-0.3-0.7-0.6-1.4-0.9-2.1c-1-2.2-2.1-4.4-3.3-6.5
		c-1.7-3.1-3.5-6.4-4.5-9.8c-0.1-0.3-0.2-0.6-0.2-0.9c-0.5-1.3-1.9-2.9-3.1-3.3c-1.5-0.5-0.9,1.9-0.6,2.6c0.2,0.8,0.5,1.6,0.7,2.4
		c0.4,0.8,0.8,1.7,1.1,2.6c0.2,0.6,0.4,1.3,0.7,1.8c0.6,1.3,1.3,2.6,1.9,3.9c0.2,0.4,0.4,0.7,0.6,1.1c1.1,1.4,1.9,3,2.6,4.6
		c0.6,1.3,1.4,2.5,2.1,3.7c1.2,3,1,5.9,1.7,9c0.5,2.1,1.5,4,2.4,6c0.2,1,0.4,2,0.5,2.6c0.1,0.6,0.2,1.1,0.3,1.3
		c0.3,1.1,0.6,2.1,0.8,3.2c0.6,2.5,1.3,5,2,7.5c1.5,5.3,3,10.8,4.4,16.1c1.9,7.2,3.9,14.7,6.1,22c0.8,2.7,1.6,5.5,2.3,8.1
		c1.1,4.1,2.3,8.3,3.7,12.4c0.4,1.3,0.9,2.6,1.3,4c1.9,5.4,3.8,11,4.7,16.5c-1.9-0.5-3.9-1.4-5.8-2.3c-1-0.5-2-0.9-3-1.3
		c-1.3-0.5-2.8-1-4.1-1.4c-1.9-0.6-3.9-1.3-5.8-2.2c0,0,0,0,0,0c-1.2-0.3-2.5-0.5-3.8-0.8c-2.3-0.4-2,1.5-1,2.6
		c0.5,0.6,1.1,1,1.7,1.5c0.5,0,1.1,0.1,1.7,0.3c2.5,0.9,5,2,7.4,3.2c0.7,0.3,1.4,0.7,2.1,1l0.3,0.1
		C265,432.7,271.6,435.7,273.3,441.6z"/>
	<path d="M325.9,629.3c0.1,0.6,0.1,1.2,0.1,1.8c-0.1,5.2-1.5,11.9-2.9,16.7c-1.1-1.1-2.1-3-3-4.6c-0.4-0.7-0.7-1.3-1-1.8
		c-1-1.6-1.9-3.3-2.8-4.9c-0.4-0.7-0.8-1.4-1.1-2.1c-0.7-1.3-1.2-2.8-1.5-4.3c-0.7-0.4-0.7,1.1-0.7,1.9c0,1,0.1,2,0.2,3
		c0.2,1.6,0.4,3.2,0.6,4.8c0.5,0.9,1,1.8,1.5,2.6c1.3,2.4,2.6,4.8,4.1,7.1c0.2,0.3,0.4,0.6,0.6,0.9c0.9,1.3,1.8,2.6,1.9,4
		c0.1,1.5-0.3,3.3-0.7,5c-0.2,0.8-0.4,1.6-0.5,2.3l-0.3,1.6c-1,6-2,12.1-2.6,18.3c-0.2,4.3-0.8,8.9,0.5,13c0.6,1.7,1.7,3.4,3.1,4.6
		c0.4-5.4,0.9-10.8,1.4-16.2l0.2-2.1c0.7-7.2,1.4-14.1,2.3-20.6c0.2-1.5,0.5-3.2,1-5.1c0.4-1.3,0.4-2.5,0.4-3.7c0-0.6,0-1.2,0.1-1.8
		c0.3-3.9,0.9-8,1.5-11.4c-0.1-1.2-0.2-2.4-0.4-3.5C327.7,633.9,327.3,629.8,325.9,629.3z"/>
	<path d="M230.2,417.4c-1.4,0.1-3-0.2-4.6-0.6c-0.8-0.2-1.6-0.3-2.3-0.4c-0.2,0-0.4,0-0.7-0.1c-0.4,0-0.9,0-1.2-0.2
		c-0.6-0.2-1-0.6-1.4-1c-0.4-0.4-0.8-0.8-1.4-1.1c-0.4-0.2-0.8-0.2-1.3-0.3c-0.2,0-0.5,0-0.7-0.1c-0.5,0.9-0.7,1.9-0.2,2.9
		c0.5,0.9,1.5,1.4,2.5,1.8c0.9,0.4,1.9,0.8,2.7,1.3c0.7,0,1.6,0.2,2.1,0.3c0.2,0,0.4,0.1,0.6,0.1c1.1,0.2,2.4,0.3,3.7,0.4
		c2.3,0.2,4.6,0.4,6.5,1.1c0.1,0,0.2,0.1,0.3,0.1C235.2,419.5,232.3,417.5,230.2,417.4z"/>
</g>
</svg>
